{
	"asset":{
		"generator":"Khronos glTF Blender I/O v4.1.62",
		"version":"2.0"
	},
	"scene":0,
	"scenes":[
		{
			"name":"Scene",
			"nodes":[
				6
			]
		}
	],
	"nodes":[
		{
			"mesh":0,
			"name":"book_shelf.Shape_Books_0"
		},
		{
			"mesh":1,
			"name":"book_shelf.Shape_BookShelf_0"
		},
		{
			"children":[
				0,
				1
			],
			"name":"book_shelf.Shape"
		},
		{
			"children":[
				2
			],
			"name":"book_shelf"
		},
		{
			"children":[
				3
			],
			"name":"RootNode"
		},
		{
			"children":[
				4
			],
			"name":"Book shelf.fbx",
			"rotation":[
				0.70710688829422,
				0,
				0,
				0.7071066498756409
			],
			"scale":[
				0.009999999776482582,
				0.010000000707805157,
				0.010000000707805157
			]
		},
		{
			"children":[
				5
			],
			"name":"Sketchfab_model",
			"rotation":[
				-0.70710688829422,
				0,
				0,
				0.7071066498756409
			]
		}
	],
	"materials":[
		{
			"doubleSided":true,
			"name":"Books",
			"normalTexture":{
				"index":0
			},
			"pbrMetallicRoughness":{
				"baseColorTexture":{
					"index":1
				},
				"metallicFactor":0,
				"roughnessFactor":0.6605887413024902
			}
		},
		{
			"doubleSided":true,
			"name":"BookShelf",
			"normalTexture":{
				"index":2
			},
			"pbrMetallicRoughness":{
				"baseColorTexture":{
					"index":3
				},
				"metallicFactor":0,
				"roughnessFactor":0.6605887413024902
			}
		}
	],
	"meshes":[
		{
			"name":"book_shelf.Shape_Books_0",
			"primitives":[
				{
					"attributes":{
						"POSITION":0,
						"NORMAL":1,
						"TEXCOORD_0":2,
						"TEXCOORD_1":3,
						"TEXCOORD_2":4
					},
					"indices":5,
					"material":0
				}
			]
		},
		{
			"name":"book_shelf.Shape_BookShelf_0",
			"primitives":[
				{
					"attributes":{
						"POSITION":6,
						"NORMAL":7,
						"TEXCOORD_0":8,
						"TEXCOORD_1":9,
						"TEXCOORD_2":10
					},
					"indices":11,
					"material":1
				}
			]
		}
	],
	"textures":[
		{
			"sampler":0,
			"source":0
		},
		{
			"sampler":0,
			"source":1
		},
		{
			"sampler":0,
			"source":2
		},
		{
			"sampler":0,
			"source":3
		}
	],
	"images":[
		{
			"mimeType":"image/png",
			"name":"Image_1",
			"uri":"Image_1.png"
		},
		{
			"mimeType":"image/jpeg",
			"name":"Image_0",
			"uri":"Image_0.jpg"
		},
		{
			"mimeType":"image/png",
			"name":"Image_3",
			"uri":"Image_3.png"
		},
		{
			"mimeType":"image/jpeg",
			"name":"Image_2",
			"uri":"Image_2.jpg"
		}
	],
	"accessors":[
		{
			"bufferView":0,
			"componentType":5126,
			"count":15088,
			"max":[
				48.85334014892578,
				92.32685089111328,
				8.77068042755127
			],
			"min":[
				-48.83018112182617,
				24.382539749145508,
				-9.566574096679688
			],
			"type":"VEC3"
		},
		{
			"bufferView":1,
			"componentType":5126,
			"count":15088,
			"type":"VEC3"
		},
		{
			"bufferView":2,
			"componentType":5126,
			"count":15088,
			"type":"VEC2"
		},
		{
			"bufferView":3,
			"componentType":5126,
			"count":15088,
			"type":"VEC2"
		},
		{
			"bufferView":4,
			"componentType":5126,
			"count":15088,
			"type":"VEC2"
		},
		{
			"bufferView":5,
			"componentType":5123,
			"count":38220,
			"type":"SCALAR"
		},
		{
			"bufferView":6,
			"componentType":5126,
			"count":438,
			"max":[
				50.25128173828125,
				98.37480926513672,
				9.257142066955566
			],
			"min":[
				-50.25128173828125,
				-0.0007315201219171286,
				-13.460700035095215
			],
			"type":"VEC3"
		},
		{
			"bufferView":7,
			"componentType":5126,
			"count":438,
			"type":"VEC3"
		},
		{
			"bufferView":8,
			"componentType":5126,
			"count":438,
			"type":"VEC2"
		},
		{
			"bufferView":9,
			"componentType":5126,
			"count":438,
			"type":"VEC2"
		},
		{
			"bufferView":10,
			"componentType":5126,
			"count":438,
			"type":"VEC2"
		},
		{
			"bufferView":11,
			"componentType":5123,
			"count":1440,
			"type":"SCALAR"
		}
	],
	"bufferViews":[
		{
			"buffer":0,
			"byteLength":181056,
			"byteOffset":0,
			"target":34962
		},
		{
			"buffer":0,
			"byteLength":181056,
			"byteOffset":181056,
			"target":34962
		},
		{
			"buffer":0,
			"byteLength":120704,
			"byteOffset":362112,
			"target":34962
		},
		{
			"buffer":0,
			"byteLength":120704,
			"byteOffset":482816,
			"target":34962
		},
		{
			"buffer":0,
			"byteLength":120704,
			"byteOffset":603520,
			"target":34962
		},
		{
			"buffer":0,
			"byteLength":76440,
			"byteOffset":724224,
			"target":34963
		},
		{
			"buffer":0,
			"byteLength":5256,
			"byteOffset":800664,
			"target":34962
		},
		{
			"buffer":0,
			"byteLength":5256,
			"byteOffset":805920,
			"target":34962
		},
		{
			"buffer":0,
			"byteLength":3504,
			"byteOffset":811176,
			"target":34962
		},
		{
			"buffer":0,
			"byteLength":3504,
			"byteOffset":814680,
			"target":34962
		},
		{
			"buffer":0,
			"byteLength":3504,
			"byteOffset":818184,
			"target":34962
		},
		{
			"buffer":0,
			"byteLength":2880,
			"byteOffset":821688,
			"target":34963
		}
	],
	"samplers":[
		{
			"magFilter":9729,
			"minFilter":9987
		}
	],
	"buffers":[
		{
			"byteLength":824568,
			"uri":"scene.bin"
		}
	]
}
