{
	"asset":{
		"generator":"Khronos glTF Blender I/O v4.3.47",
		"version":"2.0"
	},
	"scene":0,
	"scenes":[
		{
			"name":"Scene",
			"nodes":[
				0,
				1,
				2
			]
		}
	],
	"nodes":[
		{
			"mesh":0,
			"name":"Circle.005"
		},
		{
			"mesh":1,
			"name":"Circle.006"
		},
		{
			"mesh":2,
			"name":"Circle.007"
		}
	],
	"materials":[
		{
			"doubleSided":true,
			"name":"Material.001",
			"pbrMetallicRoughness":{
				"baseColorTexture":{
					"index":0,
					"texCoord":1
				},
				"metallicFactor":0,
				"roughnessFactor":0.8185011744499207
			}
		},
		{
			"doubleSided":true,
			"name":"Material.004",
			"pbrMetallicRoughness":{
				"metallicFactor":0,
				"roughnessFactor":0.5
			}
		},
		{
			"doubleSided":true,
			"name":"Material.002",
			"pbrMetallicRoughness":{
				"baseColorTexture":{
					"index":1,
					"texCoord":1
				},
				"metallicFactor":0,
				"roughnessFactor":0.8185011744499207
			}
		},
		{
			"doubleSided":true,
			"name":"Material.003",
			"pbrMetallicRoughness":{
				"baseColorTexture":{
					"index":2,
					"texCoord":1
				},
				"metallicFactor":0,
				"roughnessFactor":0.8185011744499207
			}
		},
		{
			"doubleSided":true,
			"name":"Material.006",
			"pbrMetallicRoughness":{
				"baseColorTexture":{
					"index":3,
					"texCoord":1
				},
				"metallicFactor":0,
				"roughnessFactor":0.8185011744499207
			}
		},
		{
			"doubleSided":true,
			"name":"Material.007",
			"pbrMetallicRoughness":{
				"baseColorTexture":{
					"index":4,
					"texCoord":1
				},
				"metallicFactor":0,
				"roughnessFactor":0.8185011744499207
			}
		},
		{
			"doubleSided":true,
			"name":"Material.008",
			"pbrMetallicRoughness":{
				"baseColorTexture":{
					"index":5,
					"texCoord":1
				},
				"metallicFactor":0,
				"roughnessFactor":0.8185011744499207
			}
		},
		{
			"doubleSided":true,
			"name":"Material.016",
			"pbrMetallicRoughness":{
				"baseColorTexture":{
					"index":6,
					"texCoord":1
				},
				"metallicFactor":0,
				"roughnessFactor":0.5
			}
		}
	],
	"meshes":[
		{
			"name":"Circle.005",
			"primitives":[
				{
					"attributes":{
						"POSITION":0,
						"NORMAL":1,
						"TEXCOORD_0":2,
						"TEXCOORD_1":3
					},
					"indices":4,
					"material":0
				},
				{
					"attributes":{
						"POSITION":5,
						"NORMAL":6,
						"TEXCOORD_0":7,
						"TEXCOORD_1":8
					},
					"indices":9,
					"material":1
				},
				{
					"attributes":{
						"POSITION":10,
						"NORMAL":11,
						"TEXCOORD_0":12,
						"TEXCOORD_1":13
					},
					"indices":14,
					"material":2
				},
				{
					"attributes":{
						"POSITION":15,
						"NORMAL":16,
						"TEXCOORD_0":17,
						"TEXCOORD_1":18
					},
					"indices":19,
					"material":3
				}
			]
		},
		{
			"name":"Circle.006",
			"primitives":[
				{
					"attributes":{
						"POSITION":20,
						"NORMAL":21,
						"TEXCOORD_0":22,
						"TEXCOORD_1":23
					},
					"indices":24,
					"material":4
				},
				{
					"attributes":{
						"POSITION":25,
						"NORMAL":26,
						"TEXCOORD_0":27,
						"TEXCOORD_1":28
					},
					"indices":9,
					"material":1
				},
				{
					"attributes":{
						"POSITION":29,
						"NORMAL":30,
						"TEXCOORD_0":31,
						"TEXCOORD_1":32
					},
					"indices":33,
					"material":5
				},
				{
					"attributes":{
						"POSITION":34,
						"NORMAL":35,
						"TEXCOORD_0":36,
						"TEXCOORD_1":37
					},
					"indices":38,
					"material":6
				}
			]
		},
		{
			"name":"Circle.007",
			"primitives":[
				{
					"attributes":{
						"POSITION":39,
						"NORMAL":40,
						"TEXCOORD_0":41,
						"TEXCOORD_1":42
					},
					"indices":43,
					"material":7
				}
			]
		}
	],
	"textures":[
		{
			"sampler":0,
			"source":0
		},
		{
			"sampler":0,
			"source":0
		},
		{
			"sampler":0,
			"source":0
		},
		{
			"sampler":0,
			"source":0
		},
		{
			"sampler":0,
			"source":0
		},
		{
			"sampler":0,
			"source":0
		},
		{
			"sampler":0,
			"source":1
		}
	],
	"images":[
		{
			"mimeType":"image/jpeg",
			"name":"Furniture_Fabric_sjfvcbtc_1K_BaseColor",
			"uri":"Furniture_Fabric_sjfvcbtc_1K_BaseColor.jpg"
		},
		{
			"mimeType":"image/jpeg",
			"name":"Plywood_vdcjecc_1K_BaseColor",
			"uri":"Plywood_vdcjecc_1K_BaseColor.jpg"
		}
	],
	"accessors":[
		{
			"bufferView":0,
			"componentType":5126,
			"count":84,
			"max":[
				3.2841434478759766,
				0.3750903010368347,
				1.1633212566375732
			],
			"min":[
				0.9045116901397705,
				-0.07662275433540344,
				-0.9384177923202515
			],
			"type":"VEC3"
		},
		{
			"bufferView":1,
			"componentType":5126,
			"count":84,
			"type":"VEC3"
		},
		{
			"bufferView":2,
			"componentType":5126,
			"count":84,
			"type":"VEC2"
		},
		{
			"bufferView":3,
			"componentType":5126,
			"count":84,
			"type":"VEC2"
		},
		{
			"bufferView":4,
			"componentType":5123,
			"count":264,
			"type":"SCALAR"
		},
		{
			"bufferView":5,
			"componentType":5126,
			"count":30,
			"max":[
				2.7948594093322754,
				0.08867168426513672,
				0.994127094745636
			],
			"min":[
				1.2383145093917847,
				-0.04522186517715454,
				-0.5113545060157776
			],
			"type":"VEC3"
		},
		{
			"bufferView":6,
			"componentType":5126,
			"count":30,
			"type":"VEC3"
		},
		{
			"bufferView":7,
			"componentType":5126,
			"count":30,
			"type":"VEC2"
		},
		{
			"bufferView":8,
			"componentType":5126,
			"count":30,
			"type":"VEC2"
		},
		{
			"bufferView":9,
			"componentType":5123,
			"count":120,
			"type":"SCALAR"
		},
		{
			"bufferView":10,
			"componentType":5126,
			"count":1258,
			"max":[
				3.224700927734375,
				0.6090092658996582,
				1.4691303968429565
			],
			"min":[
				0.8432629108428955,
				-0.0335516482591629,
				-0.917868435382843
			],
			"type":"VEC3"
		},
		{
			"bufferView":11,
			"componentType":5126,
			"count":1258,
			"type":"VEC3"
		},
		{
			"bufferView":12,
			"componentType":5126,
			"count":1258,
			"type":"VEC2"
		},
		{
			"bufferView":13,
			"componentType":5126,
			"count":1258,
			"type":"VEC2"
		},
		{
			"bufferView":14,
			"componentType":5123,
			"count":4800,
			"type":"SCALAR"
		},
		{
			"bufferView":15,
			"componentType":5126,
			"count":804,
			"max":[
				3.400578498840332,
				1.6461538076400757,
				1.5760440826416016
			],
			"min":[
				0.7522460222244263,
				-0.0731649398803711,
				-1.1622273921966553
			],
			"type":"VEC3"
		},
		{
			"bufferView":16,
			"componentType":5126,
			"count":804,
			"type":"VEC3"
		},
		{
			"bufferView":17,
			"componentType":5126,
			"count":804,
			"type":"VEC2"
		},
		{
			"bufferView":18,
			"componentType":5126,
			"count":804,
			"type":"VEC2"
		},
		{
			"bufferView":19,
			"componentType":5123,
			"count":3630,
			"type":"SCALAR"
		},
		{
			"bufferView":20,
			"componentType":5126,
			"count":98,
			"max":[
				-1.195015549659729,
				1.5737507343292236,
				1.3950034379959106
			],
			"min":[
				-3.372952938079834,
				-0.0720195472240448,
				-1.0848242044448853
			],
			"type":"VEC3"
		},
		{
			"bufferView":21,
			"componentType":5126,
			"count":98,
			"type":"VEC3"
		},
		{
			"bufferView":22,
			"componentType":5126,
			"count":98,
			"type":"VEC2"
		},
		{
			"bufferView":23,
			"componentType":5126,
			"count":98,
			"type":"VEC2"
		},
		{
			"bufferView":24,
			"componentType":5123,
			"count":288,
			"type":"SCALAR"
		},
		{
			"bufferView":25,
			"componentType":5126,
			"count":30,
			"max":[
				-1.4403772354125977,
				0.11517378687858582,
				1.0901119709014893
			],
			"min":[
				-2.935255527496338,
				-0.04904508590698242,
				-0.45679062604904175
			],
			"type":"VEC3"
		},
		{
			"bufferView":26,
			"componentType":5126,
			"count":30,
			"type":"VEC3"
		},
		{
			"bufferView":27,
			"componentType":5126,
			"count":30,
			"type":"VEC2"
		},
		{
			"bufferView":28,
			"componentType":5126,
			"count":30,
			"type":"VEC2"
		},
		{
			"bufferView":29,
			"componentType":5126,
			"count":1279,
			"max":[
				-1.0196171998977661,
				0.6365127563476562,
				1.4852697849273682
			],
			"min":[
				-3.3981547355651855,
				-0.042231425642967224,
				-0.8877724409103394
			],
			"type":"VEC3"
		},
		{
			"bufferView":30,
			"componentType":5126,
			"count":1279,
			"type":"VEC3"
		},
		{
			"bufferView":31,
			"componentType":5126,
			"count":1279,
			"type":"VEC2"
		},
		{
			"bufferView":32,
			"componentType":5126,
			"count":1279,
			"type":"VEC2"
		},
		{
			"bufferView":33,
			"componentType":5123,
			"count":4800,
			"type":"SCALAR"
		},
		{
			"bufferView":34,
			"componentType":5126,
			"count":808,
			"max":[
				-0.8467417359352112,
				1.6098202466964722,
				1.5595871210098267
			],
			"min":[
				-3.587244749069214,
				-0.071799635887146,
				-1.1481300592422485
			],
			"type":"VEC3"
		},
		{
			"bufferView":35,
			"componentType":5126,
			"count":808,
			"type":"VEC3"
		},
		{
			"bufferView":36,
			"componentType":5126,
			"count":808,
			"type":"VEC2"
		},
		{
			"bufferView":37,
			"componentType":5126,
			"count":808,
			"type":"VEC2"
		},
		{
			"bufferView":38,
			"componentType":5123,
			"count":3606,
			"type":"SCALAR"
		},
		{
			"bufferView":39,
			"componentType":5126,
			"count":256,
			"max":[
				3.250032901763916,
				0.16049304604530334,
				1.4557613134384155
			],
			"min":[
				-3.3746986389160156,
				-0.9273974895477295,
				-0.9530469179153442
			],
			"type":"VEC3"
		},
		{
			"bufferView":40,
			"componentType":5126,
			"count":256,
			"type":"VEC3"
		},
		{
			"bufferView":41,
			"componentType":5126,
			"count":256,
			"type":"VEC2"
		},
		{
			"bufferView":42,
			"componentType":5126,
			"count":256,
			"type":"VEC2"
		},
		{
			"bufferView":43,
			"componentType":5123,
			"count":432,
			"type":"SCALAR"
		}
	],
	"bufferViews":[
		{
			"buffer":0,
			"byteLength":1008,
			"byteOffset":0,
			"target":34962
		},
		{
			"buffer":0,
			"byteLength":1008,
			"byteOffset":1008,
			"target":34962
		},
		{
			"buffer":0,
			"byteLength":672,
			"byteOffset":2016,
			"target":34962
		},
		{
			"buffer":0,
			"byteLength":672,
			"byteOffset":2688,
			"target":34962
		},
		{
			"buffer":0,
			"byteLength":528,
			"byteOffset":3360,
			"target":34963
		},
		{
			"buffer":0,
			"byteLength":360,
			"byteOffset":3888,
			"target":34962
		},
		{
			"buffer":0,
			"byteLength":360,
			"byteOffset":4248,
			"target":34962
		},
		{
			"buffer":0,
			"byteLength":240,
			"byteOffset":4608,
			"target":34962
		},
		{
			"buffer":0,
			"byteLength":240,
			"byteOffset":4848,
			"target":34962
		},
		{
			"buffer":0,
			"byteLength":240,
			"byteOffset":5088,
			"target":34963
		},
		{
			"buffer":0,
			"byteLength":15096,
			"byteOffset":5328,
			"target":34962
		},
		{
			"buffer":0,
			"byteLength":15096,
			"byteOffset":20424,
			"target":34962
		},
		{
			"buffer":0,
			"byteLength":10064,
			"byteOffset":35520,
			"target":34962
		},
		{
			"buffer":0,
			"byteLength":10064,
			"byteOffset":45584,
			"target":34962
		},
		{
			"buffer":0,
			"byteLength":9600,
			"byteOffset":55648,
			"target":34963
		},
		{
			"buffer":0,
			"byteLength":9648,
			"byteOffset":65248,
			"target":34962
		},
		{
			"buffer":0,
			"byteLength":9648,
			"byteOffset":74896,
			"target":34962
		},
		{
			"buffer":0,
			"byteLength":6432,
			"byteOffset":84544,
			"target":34962
		},
		{
			"buffer":0,
			"byteLength":6432,
			"byteOffset":90976,
			"target":34962
		},
		{
			"buffer":0,
			"byteLength":7260,
			"byteOffset":97408,
			"target":34963
		},
		{
			"buffer":0,
			"byteLength":1176,
			"byteOffset":104668,
			"target":34962
		},
		{
			"buffer":0,
			"byteLength":1176,
			"byteOffset":105844,
			"target":34962
		},
		{
			"buffer":0,
			"byteLength":784,
			"byteOffset":107020,
			"target":34962
		},
		{
			"buffer":0,
			"byteLength":784,
			"byteOffset":107804,
			"target":34962
		},
		{
			"buffer":0,
			"byteLength":576,
			"byteOffset":108588,
			"target":34963
		},
		{
			"buffer":0,
			"byteLength":360,
			"byteOffset":109164,
			"target":34962
		},
		{
			"buffer":0,
			"byteLength":360,
			"byteOffset":109524,
			"target":34962
		},
		{
			"buffer":0,
			"byteLength":240,
			"byteOffset":109884,
			"target":34962
		},
		{
			"buffer":0,
			"byteLength":240,
			"byteOffset":110124,
			"target":34962
		},
		{
			"buffer":0,
			"byteLength":15348,
			"byteOffset":110364,
			"target":34962
		},
		{
			"buffer":0,
			"byteLength":15348,
			"byteOffset":125712,
			"target":34962
		},
		{
			"buffer":0,
			"byteLength":10232,
			"byteOffset":141060,
			"target":34962
		},
		{
			"buffer":0,
			"byteLength":10232,
			"byteOffset":151292,
			"target":34962
		},
		{
			"buffer":0,
			"byteLength":9600,
			"byteOffset":161524,
			"target":34963
		},
		{
			"buffer":0,
			"byteLength":9696,
			"byteOffset":171124,
			"target":34962
		},
		{
			"buffer":0,
			"byteLength":9696,
			"byteOffset":180820,
			"target":34962
		},
		{
			"buffer":0,
			"byteLength":6464,
			"byteOffset":190516,
			"target":34962
		},
		{
			"buffer":0,
			"byteLength":6464,
			"byteOffset":196980,
			"target":34962
		},
		{
			"buffer":0,
			"byteLength":7212,
			"byteOffset":203444,
			"target":34963
		},
		{
			"buffer":0,
			"byteLength":3072,
			"byteOffset":210656,
			"target":34962
		},
		{
			"buffer":0,
			"byteLength":3072,
			"byteOffset":213728,
			"target":34962
		},
		{
			"buffer":0,
			"byteLength":2048,
			"byteOffset":216800,
			"target":34962
		},
		{
			"buffer":0,
			"byteLength":2048,
			"byteOffset":218848,
			"target":34962
		},
		{
			"buffer":0,
			"byteLength":864,
			"byteOffset":220896,
			"target":34963
		}
	],
	"samplers":[
		{
			"magFilter":9729,
			"minFilter":9987
		}
	],
	"buffers":[
		{
			"byteLength":221760,
			"uri":"scene.bin"
		}
	]
}
