{
	"asset":{
		"generator":"Khronos glTF Blender I/O v4.3.47",
		"version":"2.0"
	},
	"extensionsUsed":[
		"KHR_materials_clearcoat",
		"KHR_materials_specular",
		"KHR_materials_sheen"
	],
	"scene":0,
	"scenes":[
		{
			"name":"Scene",
			"nodes":[
				0
			]
		}
	],
	"nodes":[
		{
			"mesh":0,
			"name":"Cube.013"
		}
	],
	"materials":[
		{
			"doubleSided":true,
			"extensions":{
				"KHR_materials_specular":{
					"specularTexture":{
						"index":0,
						"texCoord":1
					}
				}
			},
			"name":"Black&White fabric",
			"normalTexture":{
				"index":1,
				"texCoord":1
			},
			"pbrMetallicRoughness":{
				"baseColorTexture":{
					"index":2,
					"texCoord":1
				},
				"metallicFactor":0,
				"metallicRoughnessTexture":{
					"index":3,
					"texCoord":1
				}
			}
		},
		{
			"doubleSided":true,
			"extensions":{
				"KHR_materials_clearcoat":{
					"clearcoatRoughnessFactor":0
				},
				"KHR_materials_sheen":{
					"sheenColorFactor":[
						1.0,
						1.0,
						1.0
					],
					"sheenRoughnessFactor":0.20000000298023224
				}
			},
			"name":"Felt kvadrat 0227",
			"normalTexture":{
				"index":4,
				"texCoord":1
			},
			"pbrMetallicRoughness":{
				"baseColorTexture":{
					"index":5,
					"texCoord":1
				},
				"metallicFactor":0,
				"metallicRoughnessTexture":{
					"index":6,
					"texCoord":1
				}
			}
		},
		{
			"doubleSided":true,
			"name":"Wood dark",
			"normalTexture":{
				"index":7,
				"texCoord":1
			},
			"pbrMetallicRoughness":{
				"baseColorTexture":{
					"index":8,
					"texCoord":1
				},
				"metallicFactor":0,
				"metallicRoughnessTexture":{
					"index":9,
					"texCoord":1
				}
			}
		}
	],
	"meshes":[
		{
			"name":"Cube.014",
			"primitives":[
				{
					"attributes":{
						"POSITION":0,
						"NORMAL":1,
						"TEXCOORD_0":2,
						"TEXCOORD_1":3
					},
					"indices":4,
					"material":0
				},
				{
					"attributes":{
						"POSITION":5,
						"NORMAL":6,
						"TEXCOORD_0":7,
						"TEXCOORD_1":8
					},
					"indices":9,
					"material":1
				},
				{
					"attributes":{
						"POSITION":10,
						"NORMAL":11,
						"TEXCOORD_0":12,
						"TEXCOORD_1":13
					},
					"indices":14,
					"material":2
				}
			]
		}
	],
	"textures":[
		{
			"sampler":0,
			"source":0
		},
		{
			"sampler":0,
			"source":1
		},
		{
			"sampler":0,
			"source":2
		},
		{
			"sampler":0,
			"source":3
		},
		{
			"sampler":0,
			"source":4
		},
		{
			"sampler":0,
			"source":5
		},
		{
			"sampler":0,
			"source":6
		},
		{
			"sampler":0,
			"source":7
		},
		{
			"sampler":0,
			"source":8
		},
		{
			"sampler":0,
			"source":9
		}
	],
	"images":[
		{
			"mimeType":"image/jpeg",
			"name":"fabric_specular",
			"uri":"fabric_specular.jpg"
		},
		{
			"mimeType":"image/jpeg",
			"name":"fabric_normal_opengl",
			"uri":"fabric_normal_opengl.jpg"
		},
		{
			"mimeType":"image/jpeg",
			"name":"fabric_basecolor_diffuse",
			"uri":"fabric_basecolor_diffuse.jpg"
		},
		{
			"mimeType":"image/png",
			"name":"fabric_glossiness",
			"uri":"fabric_glossiness.png"
		},
		{
			"mimeType":"image/jpeg",
			"name":"redfelt_Normal",
			"uri":"redfelt_Normal.jpg"
		},
		{
			"mimeType":"image/jpeg",
			"name":"3D_1213_C0227_W24.tif",
			"uri":"3D_1213_C0227_W24_tif.jpg"
		},
		{
			"mimeType":"image/png",
			"name":"divina 0106_Roughness",
			"uri":"divina%200106_Roughness.png"
		},
		{
			"mimeType":"image/jpeg",
			"name":"wood_normal",
			"uri":"wood_normal.jpg"
		},
		{
			"mimeType":"image/jpeg",
			"name":"wood_diffuse",
			"uri":"wood_diffuse.jpg"
		},
		{
			"mimeType":"image/png",
			"name":"wood_glossiness",
			"uri":"wood_glossiness.png"
		}
	],
	"accessors":[
		{
			"bufferView":0,
			"componentType":5126,
			"count":7488,
			"max":[
				4.883436679840088,
				2.355006217956543,
				-0.3219466805458069
			],
			"min":[
				-4.707894802093506,
				0.611409068107605,
				-1.952099084854126
			],
			"type":"VEC3"
		},
		{
			"bufferView":1,
			"componentType":5126,
			"count":7488,
			"type":"VEC3"
		},
		{
			"bufferView":2,
			"componentType":5126,
			"count":7488,
			"type":"VEC2"
		},
		{
			"bufferView":3,
			"componentType":5126,
			"count":7488,
			"type":"VEC2"
		},
		{
			"bufferView":4,
			"componentType":5123,
			"count":11232,
			"type":"SCALAR"
		},
		{
			"bufferView":5,
			"componentType":5126,
			"count":27570,
			"max":[
				6.083162307739258,
				2.8761091232299805,
				2.224865436553955
			],
			"min":[
				-5.991057872772217,
				-0.3838794231414795,
				-3.1903586387634277
			],
			"type":"VEC3"
		},
		{
			"bufferView":6,
			"componentType":5126,
			"count":27570,
			"type":"VEC3"
		},
		{
			"bufferView":7,
			"componentType":5126,
			"count":27570,
			"type":"VEC2"
		},
		{
			"bufferView":8,
			"componentType":5126,
			"count":27570,
			"type":"VEC2"
		},
		{
			"bufferView":9,
			"componentType":5123,
			"count":43056,
			"type":"SCALAR"
		},
		{
			"bufferView":10,
			"componentType":5126,
			"count":792,
			"max":[
				6.108293533325195,
				-0.38455283641815186,
				2.0803894996643066
			],
			"min":[
				-6.0116095542907715,
				-0.9973299503326416,
				-3.1903581619262695
			],
			"type":"VEC3"
		},
		{
			"bufferView":11,
			"componentType":5126,
			"count":792,
			"type":"VEC3"
		},
		{
			"bufferView":12,
			"componentType":5126,
			"count":792,
			"type":"VEC2"
		},
		{
			"bufferView":13,
			"componentType":5126,
			"count":792,
			"type":"VEC2"
		},
		{
			"bufferView":14,
			"componentType":5123,
			"count":1524,
			"type":"SCALAR"
		}
	],
	"bufferViews":[
		{
			"buffer":0,
			"byteLength":89856,
			"byteOffset":0,
			"target":34962
		},
		{
			"buffer":0,
			"byteLength":89856,
			"byteOffset":89856,
			"target":34962
		},
		{
			"buffer":0,
			"byteLength":59904,
			"byteOffset":179712,
			"target":34962
		},
		{
			"buffer":0,
			"byteLength":59904,
			"byteOffset":239616,
			"target":34962
		},
		{
			"buffer":0,
			"byteLength":22464,
			"byteOffset":299520,
			"target":34963
		},
		{
			"buffer":0,
			"byteLength":330840,
			"byteOffset":321984,
			"target":34962
		},
		{
			"buffer":0,
			"byteLength":330840,
			"byteOffset":652824,
			"target":34962
		},
		{
			"buffer":0,
			"byteLength":220560,
			"byteOffset":983664,
			"target":34962
		},
		{
			"buffer":0,
			"byteLength":220560,
			"byteOffset":1204224,
			"target":34962
		},
		{
			"buffer":0,
			"byteLength":86112,
			"byteOffset":1424784,
			"target":34963
		},
		{
			"buffer":0,
			"byteLength":9504,
			"byteOffset":1510896,
			"target":34962
		},
		{
			"buffer":0,
			"byteLength":9504,
			"byteOffset":1520400,
			"target":34962
		},
		{
			"buffer":0,
			"byteLength":6336,
			"byteOffset":1529904,
			"target":34962
		},
		{
			"buffer":0,
			"byteLength":6336,
			"byteOffset":1536240,
			"target":34962
		},
		{
			"buffer":0,
			"byteLength":3048,
			"byteOffset":1542576,
			"target":34963
		}
	],
	"samplers":[
		{
			"magFilter":9729,
			"minFilter":9987
		}
	],
	"buffers":[
		{
			"byteLength":1545624,
			"uri":"scene.bin"
		}
	]
}
