{
	"asset":{
		"generator":"Khronos glTF Blender I/O v4.3.47",
		"version":"2.0"
	},
	"scene":0,
	"scenes":[
		{
			"name":"Scene",
			"nodes":[
				0
			]
		}
	],
	"nodes":[
		{
			"mesh":0,
			"name":"Cube.006"
		}
	],
	"materials":[
		{
			"doubleSided":true,
			"name":"Material",
			"pbrMetallicRoughness":{
				"baseColorTexture":{
					"index":0,
					"texCoord":1
				},
				"metallicFactor":0,
				"roughnessFactor":0.5
			}
		}
	],
	"meshes":[
		{
			"name":"Cube.007",
			"primitives":[
				{
					"attributes":{
						"POSITION":0,
						"NORMAL":1,
						"TEXCOORD_0":2,
						"TEXCOORD_1":3
					},
					"indices":4,
					"material":0
				}
			]
		}
	],
	"textures":[
		{
			"sampler":0,
			"source":0
		}
	],
	"images":[
		{
			"mimeType":"image/jpeg",
			"name":"T_umonab2dy_1K_B",
			"uri":"T_umonab2dy_1K_B.jpg"
		}
	],
	"accessors":[
		{
			"bufferView":0,
			"componentType":5126,
			"count":19990,
			"max":[
				4.424566268920898,
				1.66856050491333,
				9.265572547912598
			],
			"min":[
				-6.9077630043029785,
				-0.8315491676330566,
				-2.4687023162841797
			],
			"type":"VEC3"
		},
		{
			"bufferView":1,
			"componentType":5126,
			"count":19990,
			"type":"VEC3"
		},
		{
			"bufferView":2,
			"componentType":5126,
			"count":19990,
			"type":"VEC2"
		},
		{
			"bufferView":3,
			"componentType":5126,
			"count":19990,
			"type":"VEC2"
		},
		{
			"bufferView":4,
			"componentType":5123,
			"count":93360,
			"type":"SCALAR"
		}
	],
	"bufferViews":[
		{
			"buffer":0,
			"byteLength":239880,
			"byteOffset":0,
			"target":34962
		},
		{
			"buffer":0,
			"byteLength":239880,
			"byteOffset":239880,
			"target":34962
		},
		{
			"buffer":0,
			"byteLength":159920,
			"byteOffset":479760,
			"target":34962
		},
		{
			"buffer":0,
			"byteLength":159920,
			"byteOffset":639680,
			"target":34962
		},
		{
			"buffer":0,
			"byteLength":186720,
			"byteOffset":799600,
			"target":34963
		}
	],
	"samplers":[
		{
			"magFilter":9729,
			"minFilter":9987
		}
	],
	"buffers":[
		{
			"byteLength":986320,
			"uri":"scene.bin"
		}
	]
}
