{
	"asset":{
		"generator":"Khronos glTF Blender I/O v4.3.47",
		"version":"2.0"
	},
	"scene":0,
	"scenes":[
		{
			"name":"Scene",
			"nodes":[
				0
			]
		}
	],
	"nodes":[
		{
			"mesh":0,
			"name":"Cylinder.005"
		}
	],
	"materials":[
		{
			"doubleSided":true,
			"name":"Wood",
			"normalTexture":{
				"index":0,
				"texCoord":1
			},
			"pbrMetallicRoughness":{
				"baseColorTexture":{
					"index":1,
					"texCoord":1
				},
				"metallicFactor":0,
				"metallicRoughnessTexture":{
					"index":2,
					"texCoord":1
				}
			}
		},
		{
			"doubleSided":true,
			"name":"White marble",
			"normalTexture":{
				"index":3,
				"texCoord":1
			},
			"pbrMetallicRoughness":{
				"baseColorTexture":{
					"index":4,
					"texCoord":1
				},
				"metallicFactor":0,
				"metallicRoughnessTexture":{
					"index":5,
					"texCoord":1
				}
			}
		}
	],
	"meshes":[
		{
			"name":"Cylinder.005",
			"primitives":[
				{
					"attributes":{
						"POSITION":0,
						"NORMAL":1,
						"TEXCOORD_0":2,
						"TEXCOORD_1":3
					},
					"indices":4,
					"material":0
				},
				{
					"attributes":{
						"POSITION":5,
						"NORMAL":6,
						"TEXCOORD_0":7,
						"TEXCOORD_1":8
					},
					"indices":9,
					"material":1
				}
			]
		}
	],
	"textures":[
		{
			"sampler":0,
			"source":0
		},
		{
			"sampler":0,
			"source":1
		},
		{
			"sampler":0,
			"source":2
		},
		{
			"sampler":0,
			"source":3
		},
		{
			"sampler":0,
			"source":4
		},
		{
			"sampler":0,
			"source":5
		}
	],
	"images":[
		{
			"mimeType":"image/jpeg",
			"name":"wood__normal",
			"uri":"wood__normal.jpg"
		},
		{
			"mimeType":"image/jpeg",
			"name":"wood__diffuse",
			"uri":"wood__diffuse.jpg"
		},
		{
			"mimeType":"image/png",
			"name":"wood__glossiness",
			"uri":"wood__glossiness.png"
		},
		{
			"mimeType":"image/jpeg",
			"name":"marble_normal_opengl",
			"uri":"marble_normal_opengl.jpg"
		},
		{
			"mimeType":"image/jpeg",
			"name":"marble_basecolor_diffuse",
			"uri":"marble_basecolor_diffuse.jpg"
		},
		{
			"mimeType":"image/png",
			"name":"marble_glossiness",
			"uri":"marble_glossiness.png"
		}
	],
	"accessors":[
		{
			"bufferView":0,
			"componentType":5126,
			"count":844,
			"max":[
				16.556337356567383,
				17.105594635009766,
				35.04209899902344
			],
			"min":[
				-20.68167495727539,
				-8.20314884185791,
				-20.97027015686035
			],
			"type":"VEC3"
		},
		{
			"bufferView":1,
			"componentType":5126,
			"count":844,
			"type":"VEC3"
		},
		{
			"bufferView":2,
			"componentType":5126,
			"count":844,
			"type":"VEC2"
		},
		{
			"bufferView":3,
			"componentType":5126,
			"count":844,
			"type":"VEC2"
		},
		{
			"bufferView":4,
			"componentType":5123,
			"count":1488,
			"type":"SCALAR"
		},
		{
			"bufferView":5,
			"componentType":5126,
			"count":464,
			"max":[
				16.556337356567383,
				17.971284866333008,
				35.04209899902344
			],
			"min":[
				-20.681673049926758,
				13.403119087219238,
				-20.97027015686035
			],
			"type":"VEC3"
		},
		{
			"bufferView":6,
			"componentType":5126,
			"count":464,
			"type":"VEC3"
		},
		{
			"bufferView":7,
			"componentType":5126,
			"count":464,
			"type":"VEC2"
		},
		{
			"bufferView":8,
			"componentType":5126,
			"count":464,
			"type":"VEC2"
		},
		{
			"bufferView":9,
			"componentType":5123,
			"count":972,
			"type":"SCALAR"
		}
	],
	"bufferViews":[
		{
			"buffer":0,
			"byteLength":10128,
			"byteOffset":0,
			"target":34962
		},
		{
			"buffer":0,
			"byteLength":10128,
			"byteOffset":10128,
			"target":34962
		},
		{
			"buffer":0,
			"byteLength":6752,
			"byteOffset":20256,
			"target":34962
		},
		{
			"buffer":0,
			"byteLength":6752,
			"byteOffset":27008,
			"target":34962
		},
		{
			"buffer":0,
			"byteLength":2976,
			"byteOffset":33760,
			"target":34963
		},
		{
			"buffer":0,
			"byteLength":5568,
			"byteOffset":36736,
			"target":34962
		},
		{
			"buffer":0,
			"byteLength":5568,
			"byteOffset":42304,
			"target":34962
		},
		{
			"buffer":0,
			"byteLength":3712,
			"byteOffset":47872,
			"target":34962
		},
		{
			"buffer":0,
			"byteLength":3712,
			"byteOffset":51584,
			"target":34962
		},
		{
			"buffer":0,
			"byteLength":1944,
			"byteOffset":55296,
			"target":34963
		}
	],
	"samplers":[
		{
			"magFilter":9729,
			"minFilter":9987
		}
	],
	"buffers":[
		{
			"byteLength":57240,
			"uri":"scene.bin"
		}
	]
}
