{
	"asset":{
		"generator":"Khronos glTF Blender I/O v4.3.47",
		"version":"2.0"
	},
	"extensionsUsed":[
		"KHR_materials_clearcoat",
		"KHR_materials_anisotropy"
	],
	"scene":0,
	"scenes":[
		{
			"name":"Scene",
			"nodes":[
				0
			]
		}
	],
	"nodes":[
		{
			"mesh":0,
			"name":"Cylinder.001"
		}
	],
	"materials":[
		{
			"doubleSided":true,
			"name":"Material",
			"pbrMetallicRoughness":{
				"baseColorTexture":{
					"index":0,
					"texCoord":1
				},
				"metallicFactor":0,
				"roughnessFactor":0.5
			}
		},
		{
			"doubleSided":true,
			"name":"Wood",
			"normalTexture":{
				"index":1,
				"texCoord":1
			},
			"pbrMetallicRoughness":{
				"baseColorTexture":{
					"index":2,
					"texCoord":1
				},
				"metallicFactor":0,
				"metallicRoughnessTexture":{
					"index":3,
					"texCoord":1
				}
			}
		},
		{
			"doubleSided":true,
			"extensions":{
				"KHR_materials_clearcoat":{
					"clearcoatFactor":0.5921052694320679
				},
				"KHR_materials_anisotropy":{
					"anisotropyStrength":0.5986841917037964,
					"anisotropyRotation":3.9683274047420425
				}
			},
			"name":"Material.001",
			"pbrMetallicRoughness":{
				"baseColorTexture":{
					"index":4,
					"texCoord":1
				},
				"metallicFactor":0.30000001192092896,
				"roughnessFactor":0.5
			}
		}
	],
	"meshes":[
		{
			"name":"Cylinder.001",
			"primitives":[
				{
					"attributes":{
						"POSITION":0,
						"NORMAL":1,
						"TEXCOORD_0":2,
						"TEXCOORD_1":3
					},
					"indices":4,
					"material":0
				},
				{
					"attributes":{
						"POSITION":5,
						"NORMAL":6,
						"TEXCOORD_0":7,
						"TEXCOORD_1":8
					},
					"indices":9,
					"material":1
				},
				{
					"attributes":{
						"POSITION":10,
						"NORMAL":11,
						"TEXCOORD_0":12,
						"TEXCOORD_1":13
					},
					"indices":14,
					"material":2
				}
			]
		}
	],
	"textures":[
		{
			"sampler":0,
			"source":0
		},
		{
			"sampler":0,
			"source":1
		},
		{
			"sampler":0,
			"source":2
		},
		{
			"sampler":0,
			"source":3
		},
		{
			"sampler":0,
			"source":4
		}
	],
	"images":[
		{
			"mimeType":"image/jpeg",
			"name":"Dutch_Rosewood_Parquet_tibkfgyl_1K_BaseColor",
			"uri":"Dutch_Rosewood_Parquet_tibkfgyl_1K_BaseColor.jpg"
		},
		{
			"mimeType":"image/jpeg",
			"name":"wood__normal",
			"uri":"wood__normal.jpg"
		},
		{
			"mimeType":"image/jpeg",
			"name":"wood__diffuse",
			"uri":"wood__diffuse.jpg"
		},
		{
			"mimeType":"image/png",
			"name":"wood__glossiness",
			"uri":"wood__glossiness.png"
		},
		{
			"mimeType":"image/jpeg",
			"name":"Ziarat_White_Marble_tgzkdehv_1K_BaseColor",
			"uri":"Ziarat_White_Marble_tgzkdehv_1K_BaseColor.jpg"
		}
	],
	"accessors":[
		{
			"bufferView":0,
			"componentType":5126,
			"count":480,
			"max":[
				16.556337356567383,
				23.99536895751953,
				35.04209899902344
			],
			"min":[
				-20.68167495727539,
				-1.2865839004516602,
				-20.97027015686035
			],
			"type":"VEC3"
		},
		{
			"bufferView":1,
			"componentType":5126,
			"count":480,
			"type":"VEC3"
		},
		{
			"bufferView":2,
			"componentType":5126,
			"count":480,
			"type":"VEC2"
		},
		{
			"bufferView":3,
			"componentType":5126,
			"count":480,
			"type":"VEC2"
		},
		{
			"bufferView":4,
			"componentType":5123,
			"count":738,
			"type":"SCALAR"
		},
		{
			"bufferView":5,
			"componentType":5126,
			"count":376,
			"max":[
				15.352294921875,
				24.022159576416016,
				35.04209899902344
			],
			"min":[
				-20.681673049926758,
				21.628345489501953,
				-14.97299575805664
			],
			"type":"VEC3"
		},
		{
			"bufferView":6,
			"componentType":5126,
			"count":376,
			"type":"VEC3"
		},
		{
			"bufferView":7,
			"componentType":5126,
			"count":376,
			"type":"VEC2"
		},
		{
			"bufferView":8,
			"componentType":5126,
			"count":376,
			"type":"VEC2"
		},
		{
			"bufferView":9,
			"componentType":5123,
			"count":750,
			"type":"SCALAR"
		},
		{
			"bufferView":10,
			"componentType":5126,
			"count":472,
			"max":[
				16.556337356567383,
				24.887849807739258,
				35.04209899902344
			],
			"min":[
				-20.681673049926758,
				20.319683074951172,
				-20.97027015686035
			],
			"type":"VEC3"
		},
		{
			"bufferView":11,
			"componentType":5126,
			"count":472,
			"type":"VEC3"
		},
		{
			"bufferView":12,
			"componentType":5126,
			"count":472,
			"type":"VEC2"
		},
		{
			"bufferView":13,
			"componentType":5126,
			"count":472,
			"type":"VEC2"
		},
		{
			"bufferView":14,
			"componentType":5123,
			"count":972,
			"type":"SCALAR"
		}
	],
	"bufferViews":[
		{
			"buffer":0,
			"byteLength":5760,
			"byteOffset":0,
			"target":34962
		},
		{
			"buffer":0,
			"byteLength":5760,
			"byteOffset":5760,
			"target":34962
		},
		{
			"buffer":0,
			"byteLength":3840,
			"byteOffset":11520,
			"target":34962
		},
		{
			"buffer":0,
			"byteLength":3840,
			"byteOffset":15360,
			"target":34962
		},
		{
			"buffer":0,
			"byteLength":1476,
			"byteOffset":19200,
			"target":34963
		},
		{
			"buffer":0,
			"byteLength":4512,
			"byteOffset":20676,
			"target":34962
		},
		{
			"buffer":0,
			"byteLength":4512,
			"byteOffset":25188,
			"target":34962
		},
		{
			"buffer":0,
			"byteLength":3008,
			"byteOffset":29700,
			"target":34962
		},
		{
			"buffer":0,
			"byteLength":3008,
			"byteOffset":32708,
			"target":34962
		},
		{
			"buffer":0,
			"byteLength":1500,
			"byteOffset":35716,
			"target":34963
		},
		{
			"buffer":0,
			"byteLength":5664,
			"byteOffset":37216,
			"target":34962
		},
		{
			"buffer":0,
			"byteLength":5664,
			"byteOffset":42880,
			"target":34962
		},
		{
			"buffer":0,
			"byteLength":3776,
			"byteOffset":48544,
			"target":34962
		},
		{
			"buffer":0,
			"byteLength":3776,
			"byteOffset":52320,
			"target":34962
		},
		{
			"buffer":0,
			"byteLength":1944,
			"byteOffset":56096,
			"target":34963
		}
	],
	"samplers":[
		{
			"magFilter":9729,
			"minFilter":9987
		}
	],
	"buffers":[
		{
			"byteLength":58040,
			"uri":"scene.bin"
		}
	]
}
