{
	"asset":{
		"generator":"Khronos glTF Blender I/O v4.3.47",
		"version":"2.0"
	},
	"extensionsUsed":[
		"KHR_materials_specular"
	],
	"scene":0,
	"scenes":[
		{
			"name":"Scene",
			"nodes":[
				0
			]
		}
	],
	"nodes":[
		{
			"mesh":0,
			"name":"Circle"
		}
	],
	"materials":[
		{
			"doubleSided":true,
			"name":"Wood",
			"normalTexture":{
				"index":0,
				"texCoord":1
			},
			"pbrMetallicRoughness":{
				"baseColorTexture":{
					"index":1,
					"texCoord":1
				},
				"metallicFactor":0,
				"metallicRoughnessTexture":{
					"index":2,
					"texCoord":1
				}
			}
		},
		{
			"doubleSided":true,
			"extensions":{
				"KHR_materials_specular":{
					"specularFactor":0
				}
			},
			"name":"Fabric",
			"normalTexture":{
				"index":3,
				"texCoord":1
			},
			"pbrMetallicRoughness":{
				"baseColorTexture":{
					"index":4,
					"texCoord":1
				},
				"metallicFactor":0,
				"metallicRoughnessTexture":{
					"index":5,
					"texCoord":1
				}
			}
		},
		{
			"doubleSided":true,
			"name":"Cast Iron Blanched",
			"normalTexture":{
				"index":6,
				"texCoord":1
			},
			"pbrMetallicRoughness":{
				"baseColorTexture":{
					"index":7,
					"texCoord":1
				},
				"metallicRoughnessTexture":{
					"index":8,
					"texCoord":1
				}
			}
		},
		{
			"doubleSided":true,
			"name":"White fabric",
			"normalTexture":{
				"index":9,
				"texCoord":1
			},
			"pbrMetallicRoughness":{
				"baseColorTexture":{
					"index":10,
					"texCoord":1
				},
				"metallicFactor":0,
				"metallicRoughnessTexture":{
					"index":11,
					"texCoord":1
				}
			}
		}
	],
	"meshes":[
		{
			"name":"Circle",
			"primitives":[
				{
					"attributes":{
						"POSITION":0,
						"NORMAL":1,
						"TEXCOORD_0":2,
						"TEXCOORD_1":3
					},
					"indices":4,
					"material":0
				},
				{
					"attributes":{
						"POSITION":5,
						"NORMAL":6,
						"TEXCOORD_0":7,
						"TEXCOORD_1":8
					},
					"indices":9,
					"material":1
				},
				{
					"attributes":{
						"POSITION":10,
						"NORMAL":11,
						"TEXCOORD_0":12,
						"TEXCOORD_1":13
					},
					"indices":14,
					"material":2
				},
				{
					"attributes":{
						"POSITION":15,
						"NORMAL":16,
						"TEXCOORD_0":17,
						"TEXCOORD_1":18
					},
					"indices":19,
					"material":3
				}
			]
		}
	],
	"textures":[
		{
			"sampler":0,
			"source":0
		},
		{
			"sampler":0,
			"source":1
		},
		{
			"sampler":0,
			"source":2
		},
		{
			"sampler":0,
			"source":3
		},
		{
			"sampler":0,
			"source":4
		},
		{
			"sampler":0,
			"source":5
		},
		{
			"sampler":0,
			"source":6
		},
		{
			"sampler":0,
			"source":7
		},
		{
			"sampler":0,
			"source":8
		},
		{
			"sampler":0,
			"source":9
		},
		{
			"sampler":0,
			"source":10
		},
		{
			"sampler":0,
			"source":11
		}
	],
	"images":[
		{
			"mimeType":"image/jpeg",
			"name":"Wood057_2K_Normal",
			"uri":"Wood057_2K_Normal.jpg"
		},
		{
			"mimeType":"image/jpeg",
			"name":"Wood057_2K_Color",
			"uri":"Wood057_2K_Color.jpg"
		},
		{
			"mimeType":"image/png",
			"name":"Wood057_2K_Roughness",
			"uri":"Wood057_2K_Roughness.png"
		},
		{
			"mimeType":"image/jpeg",
			"name":"fabric_133_normal",
			"uri":"fabric_133_normal.jpg"
		},
		{
			"mimeType":"image/jpeg",
			"name":"fabric_133_color",
			"uri":"fabric_133_color.jpg"
		},
		{
			"mimeType":"image/png",
			"name":"fabric_133_roughness",
			"uri":"fabric_133_roughness.png"
		},
		{
			"mimeType":"image/jpeg",
			"name":"GWC Cast Iron Blanched_Normal",
			"uri":"GWC%20Cast%20Iron%20Blanched_Normal.jpg"
		},
		{
			"mimeType":"image/jpeg",
			"name":"GWC Cast Iron Blanched_BaseColor",
			"uri":"GWC%20Cast%20Iron%20Blanched_BaseColor.jpg"
		},
		{
			"mimeType":"image/png",
			"name":"GWC Cast Iron Blanched_Metallic-GWC Cast Iron Blanched_Roughness",
			"uri":"GWC%20Cast%20Iron%20Blanched_Metallic-GWC%20Cast%20Iron%20Blanched_Roughness.png"
		},
		{
			"mimeType":"image/jpeg",
			"name":"withe fabric_Normal",
			"uri":"withe%20fabric_Normal.jpg"
		},
		{
			"mimeType":"image/jpeg",
			"name":"withe fabric_BaseColor",
			"uri":"withe%20fabric_BaseColor.jpg"
		},
		{
			"mimeType":"image/png",
			"name":"withe fabric_Roughness",
			"uri":"withe%20fabric_Roughness.png"
		}
	],
	"accessors":[
		{
			"bufferView":0,
			"componentType":5126,
			"count":576,
			"max":[
				0.11185033619403839,
				0.45856231451034546,
				2.828726291656494
			],
			"min":[
				-1.4031716585159302,
				-0.6572444438934326,
				1.4977595806121826
			],
			"type":"VEC3"
		},
		{
			"bufferView":1,
			"componentType":5126,
			"count":576,
			"type":"VEC3"
		},
		{
			"bufferView":2,
			"componentType":5126,
			"count":576,
			"type":"VEC2"
		},
		{
			"bufferView":3,
			"componentType":5126,
			"count":576,
			"type":"VEC2"
		},
		{
			"bufferView":4,
			"componentType":5123,
			"count":1116,
			"type":"SCALAR"
		},
		{
			"bufferView":5,
			"componentType":5126,
			"count":4220,
			"max":[
				3.400578498840332,
				1.6660914421081543,
				1.594680666923523
			],
			"min":[
				-3.587244749069214,
				-0.07662275433540344,
				-1.1622273921966553
			],
			"type":"VEC3"
		},
		{
			"bufferView":6,
			"componentType":5126,
			"count":4220,
			"type":"VEC3"
		},
		{
			"bufferView":7,
			"componentType":5126,
			"count":4220,
			"type":"VEC2"
		},
		{
			"bufferView":8,
			"componentType":5126,
			"count":4220,
			"type":"VEC2"
		},
		{
			"bufferView":9,
			"componentType":5123,
			"count":17388,
			"type":"SCALAR"
		},
		{
			"bufferView":10,
			"componentType":5126,
			"count":292,
			"max":[
				3.250032901763916,
				0.16049304604530334,
				1.4557613134384155
			],
			"min":[
				-3.3746986389160156,
				-0.9273974895477295,
				-0.9530469179153442
			],
			"type":"VEC3"
		},
		{
			"bufferView":11,
			"componentType":5126,
			"count":292,
			"type":"VEC3"
		},
		{
			"bufferView":12,
			"componentType":5126,
			"count":292,
			"type":"VEC2"
		},
		{
			"bufferView":13,
			"componentType":5126,
			"count":292,
			"type":"VEC2"
		},
		{
			"bufferView":14,
			"componentType":5123,
			"count":672,
			"type":"SCALAR"
		},
		{
			"bufferView":15,
			"componentType":5126,
			"count":192,
			"max":[
				0.2463390827178955,
				0.49216002225875854,
				3.309412956237793
			],
			"min":[
				-1.7536609172821045,
				0.394639790058136,
				1.309412956237793
			],
			"type":"VEC3"
		},
		{
			"bufferView":16,
			"componentType":5126,
			"count":192,
			"type":"VEC3"
		},
		{
			"bufferView":17,
			"componentType":5126,
			"count":192,
			"type":"VEC2"
		},
		{
			"bufferView":18,
			"componentType":5126,
			"count":192,
			"type":"VEC2"
		},
		{
			"bufferView":19,
			"componentType":5123,
			"count":372,
			"type":"SCALAR"
		}
	],
	"bufferViews":[
		{
			"buffer":0,
			"byteLength":6912,
			"byteOffset":0,
			"target":34962
		},
		{
			"buffer":0,
			"byteLength":6912,
			"byteOffset":6912,
			"target":34962
		},
		{
			"buffer":0,
			"byteLength":4608,
			"byteOffset":13824,
			"target":34962
		},
		{
			"buffer":0,
			"byteLength":4608,
			"byteOffset":18432,
			"target":34962
		},
		{
			"buffer":0,
			"byteLength":2232,
			"byteOffset":23040,
			"target":34963
		},
		{
			"buffer":0,
			"byteLength":50640,
			"byteOffset":25272,
			"target":34962
		},
		{
			"buffer":0,
			"byteLength":50640,
			"byteOffset":75912,
			"target":34962
		},
		{
			"buffer":0,
			"byteLength":33760,
			"byteOffset":126552,
			"target":34962
		},
		{
			"buffer":0,
			"byteLength":33760,
			"byteOffset":160312,
			"target":34962
		},
		{
			"buffer":0,
			"byteLength":34776,
			"byteOffset":194072,
			"target":34963
		},
		{
			"buffer":0,
			"byteLength":3504,
			"byteOffset":228848,
			"target":34962
		},
		{
			"buffer":0,
			"byteLength":3504,
			"byteOffset":232352,
			"target":34962
		},
		{
			"buffer":0,
			"byteLength":2336,
			"byteOffset":235856,
			"target":34962
		},
		{
			"buffer":0,
			"byteLength":2336,
			"byteOffset":238192,
			"target":34962
		},
		{
			"buffer":0,
			"byteLength":1344,
			"byteOffset":240528,
			"target":34963
		},
		{
			"buffer":0,
			"byteLength":2304,
			"byteOffset":241872,
			"target":34962
		},
		{
			"buffer":0,
			"byteLength":2304,
			"byteOffset":244176,
			"target":34962
		},
		{
			"buffer":0,
			"byteLength":1536,
			"byteOffset":246480,
			"target":34962
		},
		{
			"buffer":0,
			"byteLength":1536,
			"byteOffset":248016,
			"target":34962
		},
		{
			"buffer":0,
			"byteLength":744,
			"byteOffset":249552,
			"target":34963
		}
	],
	"samplers":[
		{
			"magFilter":9729,
			"minFilter":9987
		}
	],
	"buffers":[
		{
			"byteLength":250296,
			"uri":"scene.bin"
		}
	]
}
