{
	"asset":{
		"generator":"Khronos glTF Blender I/O v4.3.47",
		"version":"2.0"
	},
	"scene":0,
	"scenes":[
		{
			"name":"Scene",
			"nodes":[
				0,
				1,
				2,
				3
			]
		}
	],
	"nodes":[
		{
			"mesh":0,
			"name":"Cube"
		},
		{
			"mesh":1,
			"name":"Cube.001"
		},
		{
			"mesh":2,
			"name":"Cube.002"
		},
		{
			"mesh":3,
			"name":"Cylinder.001"
		}
	],
	"materials":[
		{
			"doubleSided":true,
			"name":"Material",
			"pbrMetallicRoughness":{
				"baseColorTexture":{
					"index":0
				},
				"metallicFactor":0,
				"roughnessFactor":0.7740046977996826
			}
		},
		{
			"doubleSided":true,
			"name":"Material.004",
			"pbrMetallicRoughness":{
				"baseColorTexture":{
					"index":1
				},
				"metallicFactor":0,
				"roughnessFactor":0.7740046977996826
			}
		},
		{
			"doubleSided":true,
			"name":"Material.001",
			"pbrMetallicRoughness":{
				"baseColorTexture":{
					"index":2
				},
				"metallicFactor":0,
				"roughnessFactor":0.7740046977996826
			}
		},
		{
			"doubleSided":true,
			"name":"Material.003",
			"pbrMetallicRoughness":{
				"baseColorTexture":{
					"index":3
				},
				"metallicFactor":0,
				"roughnessFactor":0.7740046977996826
			}
		}
	],
	"meshes":[
		{
			"name":"Cube",
			"primitives":[
				{
					"attributes":{
						"POSITION":0,
						"NORMAL":1,
						"TEXCOORD_0":2
					},
					"indices":3,
					"material":0
				}
			]
		},
		{
			"name":"Cube.002",
			"primitives":[
				{
					"attributes":{
						"POSITION":4,
						"NORMAL":5,
						"TEXCOORD_0":6
					},
					"indices":7,
					"material":1
				}
			]
		},
		{
			"name":"Cube.003",
			"primitives":[
				{
					"attributes":{
						"POSITION":8,
						"NORMAL":9,
						"TEXCOORD_0":10
					},
					"indices":11,
					"material":2
				}
			]
		},
		{
			"name":"Cylinder.001",
			"primitives":[
				{
					"attributes":{
						"POSITION":12,
						"NORMAL":13,
						"TEXCOORD_0":14
					},
					"indices":15,
					"material":3
				}
			]
		}
	],
	"textures":[
		{
			"sampler":0,
			"source":0
		},
		{
			"sampler":0,
			"source":0
		},
		{
			"sampler":0,
			"source":0
		},
		{
			"sampler":0,
			"source":1
		}
	],
	"images":[
		{
			"mimeType":"image/jpeg",
			"name":"Furniture_Fabric_sjfvcgnc_1K_BaseColor",
			"uri":"Furniture_Fabric_sjfvcgnc_1K_BaseColor.jpg"
		},
		{
			"mimeType":"image/jpeg",
			"name":"Seychelles_Beige_Marble_Tiles_wgildfbv_1K_BaseColor",
			"uri":"Seychelles_Beige_Marble_Tiles_wgildfbv_1K_BaseColor.jpg"
		}
	],
	"accessors":[
		{
			"bufferView":0,
			"componentType":5126,
			"count":1800,
			"max":[
				2.4898183345794678,
				5.67431640625,
				1.5948486328125
			],
			"min":[
				-2.4898183345794678,
				0.8013660907745361,
				-2.486884117126465
			],
			"type":"VEC3"
		},
		{
			"bufferView":1,
			"componentType":5126,
			"count":1800,
			"type":"VEC3"
		},
		{
			"bufferView":2,
			"componentType":5126,
			"count":1800,
			"type":"VEC2"
		},
		{
			"bufferView":3,
			"componentType":5123,
			"count":8604,
			"type":"SCALAR"
		},
		{
			"bufferView":4,
			"componentType":5126,
			"count":787,
			"max":[
				1.9218499660491943,
				2.374545097351074,
				1.791563630104065
			],
			"min":[
				-1.88483464717865,
				1.3506925106048584,
				-1.8006104230880737
			],
			"type":"VEC3"
		},
		{
			"bufferView":5,
			"componentType":5126,
			"count":787,
			"type":"VEC3"
		},
		{
			"bufferView":6,
			"componentType":5126,
			"count":787,
			"type":"VEC2"
		},
		{
			"bufferView":7,
			"componentType":5123,
			"count":4032,
			"type":"SCALAR"
		},
		{
			"bufferView":8,
			"componentType":5126,
			"count":787,
			"max":[
				1.9038822650909424,
				5.949985504150391,
				-0.6160959601402283
			],
			"min":[
				-1.9028023481369019,
				2.282583236694336,
				-2.00545597076416
			],
			"type":"VEC3"
		},
		{
			"bufferView":9,
			"componentType":5126,
			"count":787,
			"type":"VEC3"
		},
		{
			"bufferView":10,
			"componentType":5126,
			"count":787,
			"type":"VEC2"
		},
		{
			"bufferView":11,
			"componentType":5123,
			"count":4032,
			"type":"SCALAR"
		},
		{
			"bufferView":12,
			"componentType":5126,
			"count":544,
			"max":[
				1.748104214668274,
				0.9986467361450195,
				1.4785100221633911
			],
			"min":[
				-1.7481045722961426,
				-0.4508970379829407,
				-1.4785099029541016
			],
			"type":"VEC3"
		},
		{
			"bufferView":13,
			"componentType":5126,
			"count":544,
			"type":"VEC3"
		},
		{
			"bufferView":14,
			"componentType":5126,
			"count":544,
			"type":"VEC2"
		},
		{
			"bufferView":15,
			"componentType":5123,
			"count":1488,
			"type":"SCALAR"
		}
	],
	"bufferViews":[
		{
			"buffer":0,
			"byteLength":21600,
			"byteOffset":0,
			"target":34962
		},
		{
			"buffer":0,
			"byteLength":21600,
			"byteOffset":21600,
			"target":34962
		},
		{
			"buffer":0,
			"byteLength":14400,
			"byteOffset":43200,
			"target":34962
		},
		{
			"buffer":0,
			"byteLength":17208,
			"byteOffset":57600,
			"target":34963
		},
		{
			"buffer":0,
			"byteLength":9444,
			"byteOffset":74808,
			"target":34962
		},
		{
			"buffer":0,
			"byteLength":9444,
			"byteOffset":84252,
			"target":34962
		},
		{
			"buffer":0,
			"byteLength":6296,
			"byteOffset":93696,
			"target":34962
		},
		{
			"buffer":0,
			"byteLength":8064,
			"byteOffset":99992,
			"target":34963
		},
		{
			"buffer":0,
			"byteLength":9444,
			"byteOffset":108056,
			"target":34962
		},
		{
			"buffer":0,
			"byteLength":9444,
			"byteOffset":117500,
			"target":34962
		},
		{
			"buffer":0,
			"byteLength":6296,
			"byteOffset":126944,
			"target":34962
		},
		{
			"buffer":0,
			"byteLength":8064,
			"byteOffset":133240,
			"target":34963
		},
		{
			"buffer":0,
			"byteLength":6528,
			"byteOffset":141304,
			"target":34962
		},
		{
			"buffer":0,
			"byteLength":6528,
			"byteOffset":147832,
			"target":34962
		},
		{
			"buffer":0,
			"byteLength":4352,
			"byteOffset":154360,
			"target":34962
		},
		{
			"buffer":0,
			"byteLength":2976,
			"byteOffset":158712,
			"target":34963
		}
	],
	"samplers":[
		{
			"magFilter":9729,
			"minFilter":9987
		}
	],
	"buffers":[
		{
			"byteLength":161688,
			"uri":"scene.bin"
		}
	]
}
