{
	"asset":{
		"generator":"Khronos glTF Blender I/O v4.3.47",
		"version":"2.0"
	},
	"extensionsUsed":[
		"KHR_materials_clearcoat",
		"KHR_materials_specular",
		"KHR_materials_ior"
	],
	"scene":0,
	"scenes":[
		{
			"name":"Scene",
			"nodes":[
				0
			]
		}
	],
	"nodes":[
		{
			"mesh":0,
			"name":"Circle"
		}
	],
	"materials":[
		{
			"doubleSided":true,
			"name":"Material.002",
			"pbrMetallicRoughness":{
				"baseColorTexture":{
					"index":0
				},
				"metallicFactor":0,
				"roughnessFactor":0.5
			}
		},
		{
			"doubleSided":true,
			"extensions":{
				"KHR_materials_clearcoat":{
					"clearcoatFactor":0.6732673048973083
				},
				"KHR_materials_specular":{
					"specularColorFactor":[
						1.3564356565475464,
						1.3564356565475464,
						1.3564356565475464
					]
				},
				"KHR_materials_ior":{
					"ior":1.600000023841858
				}
			},
			"name":"Material.001",
			"pbrMetallicRoughness":{
				"baseColorTexture":{
					"index":1
				},
				"metallicFactor":0,
				"roughnessFactor":0.8133515119552612
			}
		},
		{
			"doubleSided":true,
			"name":"Mf_Grass",
			"pbrMetallicRoughness":{
				"baseColorTexture":{
					"index":2
				},
				"metallicFactor":0,
				"roughnessFactor":0.6000000238418579
			}
		},
		{
			"doubleSided":true,
			"name":"Material",
			"pbrMetallicRoughness":{
				"baseColorTexture":{
					"index":3
				},
				"metallicFactor":0,
				"roughnessFactor":0.5
			}
		}
	],
	"meshes":[
		{
			"name":"Circle",
			"primitives":[
				{
					"attributes":{
						"POSITION":0,
						"NORMAL":1,
						"TEXCOORD_0":2
					},
					"indices":3,
					"material":0
				},
				{
					"attributes":{
						"POSITION":4,
						"NORMAL":5,
						"TEXCOORD_0":6
					},
					"indices":7,
					"material":1
				},
				{
					"attributes":{
						"POSITION":8,
						"NORMAL":9,
						"TEXCOORD_0":10
					},
					"indices":11,
					"material":2
				},
				{
					"attributes":{
						"POSITION":12,
						"NORMAL":13,
						"TEXCOORD_0":14
					},
					"indices":15,
					"material":3
				}
			]
		}
	],
	"textures":[
		{
			"sampler":0,
			"source":0
		},
		{
			"sampler":0,
			"source":0
		},
		{
			"sampler":0,
			"source":1
		},
		{
			"sampler":0,
			"source":0
		}
	],
	"images":[
		{
			"mimeType":"image/jpeg",
			"name":"Seychelles_Beige_Marble_Tiles_wgildfbv_1K_AO",
			"uri":"Seychelles_Beige_Marble_Tiles_wgildfbv_1K_AO.jpg"
		},
		{
			"mimeType":"image/jpeg",
			"name":"Mf_Grass_baseColor",
			"uri":"Mf_Grass_baseColor.jpg"
		}
	],
	"accessors":[
		{
			"bufferView":0,
			"componentType":5126,
			"count":160,
			"max":[
				1.7682006359100342,
				0.8872873783111572,
				1.7638192176818848
			],
			"min":[
				-1.7596291303634644,
				0.3110504150390625,
				-1.7640109062194824
			],
			"type":"VEC3"
		},
		{
			"bufferView":1,
			"componentType":5126,
			"count":160,
			"type":"VEC3"
		},
		{
			"bufferView":2,
			"componentType":5126,
			"count":160,
			"type":"VEC2"
		},
		{
			"bufferView":3,
			"componentType":5123,
			"count":768,
			"type":"SCALAR"
		},
		{
			"bufferView":4,
			"componentType":5126,
			"count":7661,
			"max":[
				1.7237673997879028,
				0.8578464984893799,
				1.7237672805786133
			],
			"min":[
				-1.7237673997879028,
				-1.170361876487732,
				-1.7237673997879028
			],
			"type":"VEC3"
		},
		{
			"bufferView":5,
			"componentType":5126,
			"count":7661,
			"type":"VEC3"
		},
		{
			"bufferView":6,
			"componentType":5126,
			"count":7661,
			"type":"VEC2"
		},
		{
			"bufferView":7,
			"componentType":5123,
			"count":35922,
			"type":"SCALAR"
		},
		{
			"bufferView":8,
			"componentType":5126,
			"count":3,
			"max":[
				-1.3302637338638306,
				0.6721020936965942,
				0.8985574245452881
			],
			"min":[
				-1.4016190767288208,
				0.6438412666320801,
				0.8505880832672119
			],
			"type":"VEC3"
		},
		{
			"bufferView":9,
			"componentType":5126,
			"count":3,
			"type":"VEC3"
		},
		{
			"bufferView":10,
			"componentType":5126,
			"count":3,
			"type":"VEC2"
		},
		{
			"bufferView":11,
			"componentType":5123,
			"count":3,
			"type":"SCALAR"
		},
		{
			"bufferView":12,
			"componentType":5126,
			"count":4,
			"max":[
				-0.461489200592041,
				0.6828233003616333,
				1.2368102073669434
			],
			"min":[
				-0.7902755737304688,
				0.3169037103652954,
				1.0761966705322266
			],
			"type":"VEC3"
		},
		{
			"bufferView":13,
			"componentType":5126,
			"count":4,
			"type":"VEC3"
		},
		{
			"bufferView":14,
			"componentType":5126,
			"count":4,
			"type":"VEC2"
		},
		{
			"bufferView":15,
			"componentType":5123,
			"count":6,
			"type":"SCALAR"
		}
	],
	"bufferViews":[
		{
			"buffer":0,
			"byteLength":1920,
			"byteOffset":0,
			"target":34962
		},
		{
			"buffer":0,
			"byteLength":1920,
			"byteOffset":1920,
			"target":34962
		},
		{
			"buffer":0,
			"byteLength":1280,
			"byteOffset":3840,
			"target":34962
		},
		{
			"buffer":0,
			"byteLength":1536,
			"byteOffset":5120,
			"target":34963
		},
		{
			"buffer":0,
			"byteLength":91932,
			"byteOffset":6656,
			"target":34962
		},
		{
			"buffer":0,
			"byteLength":91932,
			"byteOffset":98588,
			"target":34962
		},
		{
			"buffer":0,
			"byteLength":61288,
			"byteOffset":190520,
			"target":34962
		},
		{
			"buffer":0,
			"byteLength":71844,
			"byteOffset":251808,
			"target":34963
		},
		{
			"buffer":0,
			"byteLength":36,
			"byteOffset":323652,
			"target":34962
		},
		{
			"buffer":0,
			"byteLength":36,
			"byteOffset":323688,
			"target":34962
		},
		{
			"buffer":0,
			"byteLength":24,
			"byteOffset":323724,
			"target":34962
		},
		{
			"buffer":0,
			"byteLength":6,
			"byteOffset":323748,
			"target":34963
		},
		{
			"buffer":0,
			"byteLength":48,
			"byteOffset":323756,
			"target":34962
		},
		{
			"buffer":0,
			"byteLength":48,
			"byteOffset":323804,
			"target":34962
		},
		{
			"buffer":0,
			"byteLength":32,
			"byteOffset":323852,
			"target":34962
		},
		{
			"buffer":0,
			"byteLength":12,
			"byteOffset":323884,
			"target":34963
		}
	],
	"samplers":[
		{
			"magFilter":9729,
			"minFilter":9987
		}
	],
	"buffers":[
		{
			"byteLength":323896,
			"uri":"scene.bin"
		}
	]
}
