{
	"asset":{
		"generator":"Khronos glTF Blender I/O v4.3.47",
		"version":"2.0"
	},
	"scene":0,
	"scenes":[
		{
			"name":"Scene",
			"nodes":[
				0,
				1
			]
		}
	],
	"nodes":[
		{
			"mesh":0,
			"name":"Cylinder"
		},
		{
			"name":"Sketchfab Model"
		}
	],
	"materials":[
		{
			"doubleSided":true,
			"name":"Material",
			"pbrMetallicRoughness":{
				"baseColorTexture":{
					"index":0
				},
				"metallicFactor":0,
				"roughnessFactor":0.5
			}
		},
		{
			"doubleSided":true,
			"name":"Mf_Petal",
			"pbrMetallicRoughness":{
				"baseColorTexture":{
					"index":1
				},
				"metallicFactor":0,
				"roughnessFactor":0.6000000238418579
			}
		},
		{
			"doubleSided":true,
			"name":"Mf_Grass",
			"pbrMetallicRoughness":{
				"baseColorTexture":{
					"index":2
				},
				"metallicFactor":0,
				"roughnessFactor":0.6000000238418579
			}
		},
		{
			"doubleSided":true,
			"name":"Mf_Stem",
			"pbrMetallicRoughness":{
				"baseColorTexture":{
					"index":3
				},
				"metallicFactor":0,
				"roughnessFactor":0.6000000238418579
			}
		},
		{
			"doubleSided":true,
			"name":"Mf_Leaf",
			"pbrMetallicRoughness":{
				"baseColorTexture":{
					"index":4
				},
				"metallicFactor":0,
				"roughnessFactor":0.6000000238418579
			}
		},
		{
			"doubleSided":true,
			"name":"Mf_Stigma",
			"pbrMetallicRoughness":{
				"baseColorTexture":{
					"index":5
				},
				"metallicFactor":0,
				"roughnessFactor":0.6000000238418579
			}
		}
	],
	"meshes":[
		{
			"name":"Cylinder",
			"primitives":[
				{
					"attributes":{
						"POSITION":0,
						"NORMAL":1,
						"TEXCOORD_0":2
					},
					"indices":3,
					"material":0
				},
				{
					"attributes":{
						"POSITION":4,
						"NORMAL":5,
						"TEXCOORD_0":6
					},
					"indices":7,
					"material":1
				},
				{
					"attributes":{
						"POSITION":8,
						"NORMAL":9,
						"TEXCOORD_0":10
					},
					"indices":11,
					"material":2
				},
				{
					"attributes":{
						"POSITION":12,
						"NORMAL":13,
						"TEXCOORD_0":14
					},
					"indices":15,
					"material":3
				},
				{
					"attributes":{
						"POSITION":16,
						"NORMAL":17,
						"TEXCOORD_0":18
					},
					"indices":19,
					"material":4
				},
				{
					"attributes":{
						"POSITION":20,
						"NORMAL":21,
						"TEXCOORD_0":22
					},
					"indices":23,
					"material":5
				}
			]
		}
	],
	"textures":[
		{
			"sampler":0,
			"source":0
		},
		{
			"sampler":0,
			"source":1
		},
		{
			"sampler":0,
			"source":2
		},
		{
			"sampler":0,
			"source":3
		},
		{
			"sampler":0,
			"source":4
		},
		{
			"sampler":0,
			"source":5
		}
	],
	"images":[
		{
			"mimeType":"image/jpeg",
			"name":"vase5",
			"uri":"vase5.jpg"
		},
		{
			"mimeType":"image/jpeg",
			"name":"Mf_Petal_baseColor",
			"uri":"Mf_Petal_baseColor.jpg"
		},
		{
			"mimeType":"image/jpeg",
			"name":"Mf_Grass_baseColor",
			"uri":"Mf_Grass_baseColor.jpg"
		},
		{
			"mimeType":"image/jpeg",
			"name":"Mf_Stem_baseColor",
			"uri":"Mf_Stem_baseColor.jpg"
		},
		{
			"mimeType":"image/jpeg",
			"name":"Mf_Leaf_baseColor",
			"uri":"Mf_Leaf_baseColor.jpg"
		},
		{
			"mimeType":"image/jpeg",
			"name":"Mf_Stigma_baseColor",
			"uri":"Mf_Stigma_baseColor.jpg"
		}
	],
	"accessors":[
		{
			"bufferView":0,
			"componentType":5126,
			"count":7549,
			"max":[
				1.7237673997879028,
				0.8578464984893799,
				1.7237673997879028
			],
			"min":[
				-1.7237673997879028,
				-1.170361876487732,
				-1.7237673997879028
			],
			"type":"VEC3"
		},
		{
			"bufferView":1,
			"componentType":5126,
			"count":7549,
			"type":"VEC3"
		},
		{
			"bufferView":2,
			"componentType":5126,
			"count":7549,
			"type":"VEC2"
		},
		{
			"bufferView":3,
			"componentType":5123,
			"count":37248,
			"type":"SCALAR"
		},
		{
			"bufferView":4,
			"componentType":5126,
			"count":29585,
			"max":[
				1.8270745277404785,
				4.254063129425049,
				1.8666967153549194
			],
			"min":[
				-0.7886114716529846,
				2.126101016998291,
				-2.029202938079834
			],
			"type":"VEC3"
		},
		{
			"bufferView":5,
			"componentType":5126,
			"count":29585,
			"type":"VEC3"
		},
		{
			"bufferView":6,
			"componentType":5126,
			"count":29585,
			"type":"VEC2"
		},
		{
			"bufferView":7,
			"componentType":5123,
			"count":141723,
			"type":"SCALAR"
		},
		{
			"bufferView":8,
			"componentType":5126,
			"count":16896,
			"max":[
				1.7824552059173584,
				3.1320605278015137,
				1.6134382486343384
			],
			"min":[
				-1.7943907976150513,
				0.3117086887359619,
				-1.861359715461731
			],
			"type":"VEC3"
		},
		{
			"bufferView":9,
			"componentType":5126,
			"count":16896,
			"type":"VEC3"
		},
		{
			"bufferView":10,
			"componentType":5126,
			"count":16896,
			"type":"VEC2"
		},
		{
			"bufferView":11,
			"componentType":5123,
			"count":53856,
			"type":"SCALAR"
		},
		{
			"bufferView":12,
			"componentType":5126,
			"count":1493,
			"max":[
				1.3935863971710205,
				3.781615972518921,
				1.4414037466049194
			],
			"min":[
				-0.6925591230392456,
				0.31813183426856995,
				-1.4871715307235718
			],
			"type":"VEC3"
		},
		{
			"bufferView":13,
			"componentType":5126,
			"count":1493,
			"type":"VEC3"
		},
		{
			"bufferView":14,
			"componentType":5126,
			"count":1493,
			"type":"VEC2"
		},
		{
			"bufferView":15,
			"componentType":5123,
			"count":4422,
			"type":"SCALAR"
		},
		{
			"bufferView":16,
			"componentType":5126,
			"count":1260,
			"max":[
				1.5108877420425415,
				3.1940386295318604,
				1.4822840690612793
			],
			"min":[
				-0.5906221866607666,
				0.7829135656356812,
				-1.5947985649108887
			],
			"type":"VEC3"
		},
		{
			"bufferView":17,
			"componentType":5126,
			"count":1260,
			"type":"VEC3"
		},
		{
			"bufferView":18,
			"componentType":5126,
			"count":1260,
			"type":"VEC2"
		},
		{
			"bufferView":19,
			"componentType":5123,
			"count":4320,
			"type":"SCALAR"
		},
		{
			"bufferView":20,
			"componentType":5126,
			"count":510,
			"max":[
				1.3154575824737549,
				3.812635660171509,
				1.3436790704727173
			],
			"min":[
				-0.3786609172821045,
				2.25736403465271,
				-1.4956440925598145
			],
			"type":"VEC3"
		},
		{
			"bufferView":21,
			"componentType":5126,
			"count":510,
			"type":"VEC3"
		},
		{
			"bufferView":22,
			"componentType":5126,
			"count":510,
			"type":"VEC2"
		},
		{
			"bufferView":23,
			"componentType":5123,
			"count":1440,
			"type":"SCALAR"
		}
	],
	"bufferViews":[
		{
			"buffer":0,
			"byteLength":90588,
			"byteOffset":0,
			"target":34962
		},
		{
			"buffer":0,
			"byteLength":90588,
			"byteOffset":90588,
			"target":34962
		},
		{
			"buffer":0,
			"byteLength":60392,
			"byteOffset":181176,
			"target":34962
		},
		{
			"buffer":0,
			"byteLength":74496,
			"byteOffset":241568,
			"target":34963
		},
		{
			"buffer":0,
			"byteLength":355020,
			"byteOffset":316064,
			"target":34962
		},
		{
			"buffer":0,
			"byteLength":355020,
			"byteOffset":671084,
			"target":34962
		},
		{
			"buffer":0,
			"byteLength":236680,
			"byteOffset":1026104,
			"target":34962
		},
		{
			"buffer":0,
			"byteLength":283446,
			"byteOffset":1262784,
			"target":34963
		},
		{
			"buffer":0,
			"byteLength":202752,
			"byteOffset":1546232,
			"target":34962
		},
		{
			"buffer":0,
			"byteLength":202752,
			"byteOffset":1748984,
			"target":34962
		},
		{
			"buffer":0,
			"byteLength":135168,
			"byteOffset":1951736,
			"target":34962
		},
		{
			"buffer":0,
			"byteLength":107712,
			"byteOffset":2086904,
			"target":34963
		},
		{
			"buffer":0,
			"byteLength":17916,
			"byteOffset":2194616,
			"target":34962
		},
		{
			"buffer":0,
			"byteLength":17916,
			"byteOffset":2212532,
			"target":34962
		},
		{
			"buffer":0,
			"byteLength":11944,
			"byteOffset":2230448,
			"target":34962
		},
		{
			"buffer":0,
			"byteLength":8844,
			"byteOffset":2242392,
			"target":34963
		},
		{
			"buffer":0,
			"byteLength":15120,
			"byteOffset":2251236,
			"target":34962
		},
		{
			"buffer":0,
			"byteLength":15120,
			"byteOffset":2266356,
			"target":34962
		},
		{
			"buffer":0,
			"byteLength":10080,
			"byteOffset":2281476,
			"target":34962
		},
		{
			"buffer":0,
			"byteLength":8640,
			"byteOffset":2291556,
			"target":34963
		},
		{
			"buffer":0,
			"byteLength":6120,
			"byteOffset":2300196,
			"target":34962
		},
		{
			"buffer":0,
			"byteLength":6120,
			"byteOffset":2306316,
			"target":34962
		},
		{
			"buffer":0,
			"byteLength":4080,
			"byteOffset":2312436,
			"target":34962
		},
		{
			"buffer":0,
			"byteLength":2880,
			"byteOffset":2316516,
			"target":34963
		}
	],
	"samplers":[
		{
			"magFilter":9729,
			"minFilter":9987
		}
	],
	"buffers":[
		{
			"byteLength":2319396,
			"uri":"scene.bin"
		}
	]
}
