{
	"asset":{
		"generator":"Khronos glTF Blender I/O v4.3.47",
		"version":"2.0"
	},
	"extensionsUsed":[
		"KHR_materials_clearcoat",
		"KHR_materials_anisotropy"
	],
	"scene":0,
	"scenes":[
		{
			"name":"Scene",
			"nodes":[
				0
			]
		}
	],
	"nodes":[
		{
			"mesh":0,
			"name":"Cube"
		}
	],
	"materials":[
		{
			"doubleSided":true,
			"extensions":{
				"KHR_materials_clearcoat":{
					"clearcoatFactor":0.6309012770652771,
					"clearcoatRoughnessFactor":0.19738197326660156
				},
				"KHR_materials_anisotropy":{
					"anisotropyStrength":0.5922746658325195,
					"anisotropyRotation":3.99103601290958
				}
			},
			"name":"Material",
			"pbrMetallicRoughness":{
				"baseColorTexture":{
					"index":0
				},
				"metallicFactor":0,
				"roughnessFactor":0.8489460945129395
			}
		}
	],
	"meshes":[
		{
			"name":"Cube",
			"primitives":[
				{
					"attributes":{
						"POSITION":0,
						"NORMAL":1,
						"TEXCOORD_0":2,
						"TEXCOORD_1":3
					},
					"indices":4,
					"material":0
				}
			]
		}
	],
	"textures":[
		{
			"sampler":0,
			"source":0
		}
	],
	"images":[
		{
			"mimeType":"image/jpeg",
			"name":"Ziarat_White_Marble_tgzkdehv_1K_BaseColor",
			"uri":"Ziarat_White_Marble_tgzkdehv_1K_BaseColor.jpg"
		}
	],
	"accessors":[
		{
			"bufferView":0,
			"componentType":5126,
			"count":1056,
			"max":[
				0.7490477561950684,
				0.8250623941421509,
				0.7490476965904236
			],
			"min":[
				-0.7490477561950684,
				-2.8523552417755127,
				-0.7490477561950684
			],
			"type":"VEC3"
		},
		{
			"bufferView":1,
			"componentType":5126,
			"count":1056,
			"type":"VEC3"
		},
		{
			"bufferView":2,
			"componentType":5126,
			"count":1056,
			"type":"VEC2"
		},
		{
			"bufferView":3,
			"componentType":5126,
			"count":1056,
			"type":"VEC2"
		},
		{
			"bufferView":4,
			"componentType":5123,
			"count":4032,
			"type":"SCALAR"
		}
	],
	"bufferViews":[
		{
			"buffer":0,
			"byteLength":12672,
			"byteOffset":0,
			"target":34962
		},
		{
			"buffer":0,
			"byteLength":12672,
			"byteOffset":12672,
			"target":34962
		},
		{
			"buffer":0,
			"byteLength":8448,
			"byteOffset":25344,
			"target":34962
		},
		{
			"buffer":0,
			"byteLength":8448,
			"byteOffset":33792,
			"target":34962
		},
		{
			"buffer":0,
			"byteLength":8064,
			"byteOffset":42240,
			"target":34963
		}
	],
	"samplers":[
		{
			"magFilter":9729,
			"minFilter":9987
		}
	],
	"buffers":[
		{
			"byteLength":50304,
			"uri":"scene.bin"
		}
	]
}
