{
	"asset":{
		"generator":"Khronos glTF Blender I/O v4.3.47",
		"version":"2.0"
	},
	"scene":0,
	"scenes":[
		{
			"name":"Scene",
			"nodes":[
				0
			]
		}
	],
	"nodes":[
		{
			"mesh":0,
			"name":"Sphere"
		}
	],
	"materials":[
		{
			"doubleSided":true,
			"name":"Material",
			"pbrMetallicRoughness":{
				"baseColorTexture":{
					"index":0
				},
				"metallicFactor":0,
				"roughnessFactor":0.9964871406555176
			}
		},
		{
			"alphaMode":"BLEND",
			"doubleSided":true,
			"name":"RoseClimber_INST",
			"normalTexture":{
				"index":1
			},
			"pbrMetallicRoughness":{
				"baseColorTexture":{
					"index":2
				},
				"metallicFactor":0,
				"roughnessFactor":0.9552971124649048
			}
		}
	],
	"meshes":[
		{
			"name":"Sphere",
			"primitives":[
				{
					"attributes":{
						"POSITION":0,
						"NORMAL":1,
						"TEXCOORD_0":2,
						"TEXCOORD_1":3,
						"TEXCOORD_2":4
					},
					"indices":5,
					"material":0
				},
				{
					"attributes":{
						"POSITION":6,
						"NORMAL":7,
						"TEXCOORD_0":8,
						"TEXCOORD_1":9,
						"TEXCOORD_2":10
					},
					"indices":11,
					"material":1
				}
			]
		}
	],
	"textures":[
		{
			"sampler":0,
			"source":0
		},
		{
			"sampler":0,
			"source":1
		},
		{
			"sampler":0,
			"source":2
		}
	],
	"images":[
		{
			"mimeType":"image/jpeg",
			"name":"Seychelles_Beige_Marble_Tiles_wgildfbv_1K_Gloss",
			"uri":"Seychelles_Beige_Marble_Tiles_wgildfbv_1K_Gloss.jpg"
		},
		{
			"mimeType":"image/png",
			"name":"RoseClimber_INST_normal",
			"uri":"RoseClimber_INST_normal.png"
		},
		{
			"mimeType":"image/png",
			"name":"RoseClimber_INST_baseColor",
			"uri":"RoseClimber_INST_baseColor.png"
		}
	],
	"accessors":[
		{
			"bufferView":0,
			"componentType":5126,
			"count":1884,
			"max":[
				1.0923079252243042,
				1.4895325899124146,
				1.0923075675964355
			],
			"min":[
				-1.092307209968567,
				-0.8513412475585938,
				-1.0923081636428833
			],
			"type":"VEC3"
		},
		{
			"bufferView":1,
			"componentType":5126,
			"count":1884,
			"type":"VEC3"
		},
		{
			"bufferView":2,
			"componentType":5126,
			"count":1884,
			"type":"VEC2"
		},
		{
			"bufferView":3,
			"componentType":5126,
			"count":1884,
			"type":"VEC2"
		},
		{
			"bufferView":4,
			"componentType":5126,
			"count":1884,
			"type":"VEC2"
		},
		{
			"bufferView":5,
			"componentType":5123,
			"count":8442,
			"type":"SCALAR"
		},
		{
			"bufferView":6,
			"componentType":5126,
			"count":1251,
			"max":[
				0.5311151146888733,
				2.874377965927124,
				0.58003169298172
			],
			"min":[
				-0.6300802826881409,
				0.9893315434455872,
				-0.4745965301990509
			],
			"type":"VEC3"
		},
		{
			"bufferView":7,
			"componentType":5126,
			"count":1251,
			"type":"VEC3"
		},
		{
			"bufferView":8,
			"componentType":5126,
			"count":1251,
			"type":"VEC2"
		},
		{
			"bufferView":9,
			"componentType":5126,
			"count":1251,
			"type":"VEC2"
		},
		{
			"bufferView":10,
			"componentType":5126,
			"count":1251,
			"type":"VEC2"
		},
		{
			"bufferView":11,
			"componentType":5123,
			"count":2433,
			"type":"SCALAR"
		}
	],
	"bufferViews":[
		{
			"buffer":0,
			"byteLength":22608,
			"byteOffset":0,
			"target":34962
		},
		{
			"buffer":0,
			"byteLength":22608,
			"byteOffset":22608,
			"target":34962
		},
		{
			"buffer":0,
			"byteLength":15072,
			"byteOffset":45216,
			"target":34962
		},
		{
			"buffer":0,
			"byteLength":15072,
			"byteOffset":60288,
			"target":34962
		},
		{
			"buffer":0,
			"byteLength":15072,
			"byteOffset":75360,
			"target":34962
		},
		{
			"buffer":0,
			"byteLength":16884,
			"byteOffset":90432,
			"target":34963
		},
		{
			"buffer":0,
			"byteLength":15012,
			"byteOffset":107316,
			"target":34962
		},
		{
			"buffer":0,
			"byteLength":15012,
			"byteOffset":122328,
			"target":34962
		},
		{
			"buffer":0,
			"byteLength":10008,
			"byteOffset":137340,
			"target":34962
		},
		{
			"buffer":0,
			"byteLength":10008,
			"byteOffset":147348,
			"target":34962
		},
		{
			"buffer":0,
			"byteLength":10008,
			"byteOffset":157356,
			"target":34962
		},
		{
			"buffer":0,
			"byteLength":4866,
			"byteOffset":167364,
			"target":34963
		}
	],
	"samplers":[
		{
			"magFilter":9729,
			"minFilter":9987
		}
	],
	"buffers":[
		{
			"byteLength":172232,
			"uri":"scene.bin"
		}
	]
}
