{
	"asset":{
		"generator":"Khronos glTF Blender I/O v4.3.47",
		"version":"2.0"
	},
	"scene":0,
	"scenes":[
		{
			"name":"Scene",
			"nodes":[
				0
			]
		}
	],
	"nodes":[
		{
			"mesh":0,
			"name":"Sphere.001"
		}
	],
	"materials":[
		{
			"doubleSided":true,
			"name":"Material",
			"pbrMetallicRoughness":{
				"baseColorTexture":{
					"index":0
				},
				"metallicFactor":0,
				"roughnessFactor":0.9964871406555176
			}
		},
		{
			"alphaMode":"BLEND",
			"doubleSided":true,
			"name":"RoseClimber_INST",
			"normalTexture":{
				"index":1
			},
			"pbrMetallicRoughness":{
				"baseColorTexture":{
					"index":2
				},
				"metallicFactor":0,
				"roughnessFactor":0.9552971124649048
			}
		}
	],
	"meshes":[
		{
			"name":"Sphere.001",
			"primitives":[
				{
					"attributes":{
						"POSITION":0,
						"NORMAL":1,
						"TEXCOORD_0":2,
						"TEXCOORD_1":3,
						"TEXCOORD_2":4
					},
					"indices":5,
					"material":0
				},
				{
					"attributes":{
						"POSITION":6,
						"NORMAL":7,
						"TEXCOORD_0":8,
						"TEXCOORD_1":9,
						"TEXCOORD_2":10
					},
					"indices":11,
					"material":1
				}
			]
		}
	],
	"textures":[
		{
			"sampler":0,
			"source":0
		},
		{
			"sampler":0,
			"source":1
		},
		{
			"sampler":0,
			"source":2
		}
	],
	"images":[
		{
			"mimeType":"image/jpeg",
			"name":"Seychelles_Beige_Marble_Tiles_wgildfbv_1K_Gloss",
			"uri":"Seychelles_Beige_Marble_Tiles_wgildfbv_1K_Gloss.jpg"
		},
		{
			"mimeType":"image/png",
			"name":"RoseClimber_INST_normal",
			"uri":"RoseClimber_INST_normal.png"
		},
		{
			"mimeType":"image/png",
			"name":"RoseClimber_INST_baseColor",
			"uri":"RoseClimber_INST_baseColor.png"
		}
	],
	"accessors":[
		{
			"bufferView":0,
			"componentType":5126,
			"count":2108,
			"max":[
				1.0923079252243042,
				1.495734453201294,
				1.0923075675964355
			],
			"min":[
				-1.092307209968567,
				-0.8513412475585938,
				-1.0923081636428833
			],
			"type":"VEC3"
		},
		{
			"bufferView":1,
			"componentType":5126,
			"count":2108,
			"type":"VEC3"
		},
		{
			"bufferView":2,
			"componentType":5126,
			"count":2108,
			"type":"VEC2"
		},
		{
			"bufferView":3,
			"componentType":5126,
			"count":2108,
			"type":"VEC2"
		},
		{
			"bufferView":4,
			"componentType":5126,
			"count":2108,
			"type":"VEC2"
		},
		{
			"bufferView":5,
			"componentType":5123,
			"count":9201,
			"type":"SCALAR"
		},
		{
			"bufferView":6,
			"componentType":5126,
			"count":6,
			"max":[
				0.5069587230682373,
				1.4093618392944336,
				0.029034672304987907
			],
			"min":[
				0.31108206510543823,
				1.1330764293670654,
				-0.01016541663557291
			],
			"type":"VEC3"
		},
		{
			"bufferView":7,
			"componentType":5126,
			"count":6,
			"type":"VEC3"
		},
		{
			"bufferView":8,
			"componentType":5126,
			"count":6,
			"type":"VEC2"
		},
		{
			"bufferView":9,
			"componentType":5126,
			"count":6,
			"type":"VEC2"
		},
		{
			"bufferView":10,
			"componentType":5126,
			"count":6,
			"type":"VEC2"
		},
		{
			"bufferView":11,
			"componentType":5123,
			"count":6,
			"type":"SCALAR"
		}
	],
	"bufferViews":[
		{
			"buffer":0,
			"byteLength":25296,
			"byteOffset":0,
			"target":34962
		},
		{
			"buffer":0,
			"byteLength":25296,
			"byteOffset":25296,
			"target":34962
		},
		{
			"buffer":0,
			"byteLength":16864,
			"byteOffset":50592,
			"target":34962
		},
		{
			"buffer":0,
			"byteLength":16864,
			"byteOffset":67456,
			"target":34962
		},
		{
			"buffer":0,
			"byteLength":16864,
			"byteOffset":84320,
			"target":34962
		},
		{
			"buffer":0,
			"byteLength":18402,
			"byteOffset":101184,
			"target":34963
		},
		{
			"buffer":0,
			"byteLength":72,
			"byteOffset":119588,
			"target":34962
		},
		{
			"buffer":0,
			"byteLength":72,
			"byteOffset":119660,
			"target":34962
		},
		{
			"buffer":0,
			"byteLength":48,
			"byteOffset":119732,
			"target":34962
		},
		{
			"buffer":0,
			"byteLength":48,
			"byteOffset":119780,
			"target":34962
		},
		{
			"buffer":0,
			"byteLength":48,
			"byteOffset":119828,
			"target":34962
		},
		{
			"buffer":0,
			"byteLength":12,
			"byteOffset":119876,
			"target":34963
		}
	],
	"samplers":[
		{
			"magFilter":9729,
			"minFilter":9987
		}
	],
	"buffers":[
		{
			"byteLength":119888,
			"uri":"scene.bin"
		}
	]
}
