{
	"asset":{
		"generator":"Khronos glTF Blender I/O v4.3.47",
		"version":"2.0"
	},
	"extensionsUsed":[
		"KHR_materials_specular",
		"KHR_materials_ior",
		"KHR_texture_transform"
	],
	"extensionsRequired":[
		"KHR_texture_transform"
	],
	"scene":0,
	"scenes":[
		{
			"name":"Scene",
			"nodes":[
				0
			]
		}
	],
	"nodes":[
		{
			"mesh":0,
			"name":"Cylinder.001"
		}
	],
	"materials":[
		{
			"doubleSided":true,
			"extensions":{
				"KHR_materials_specular":{
					"specularFactor":0.4000000059604645
				},
				"KHR_materials_ior":{
					"ior":1.4500000476837158
				}
			},
			"name":"Wood",
			"normalTexture":{
				"extensions":{
					"KHR_texture_transform":{
						"offset":[
							0,
							-2
						],
						"scale":[
							3,
							3
						]
					}
				},
				"index":0,
				"texCoord":1
			},
			"pbrMetallicRoughness":{
				"baseColorTexture":{
					"extensions":{
						"KHR_texture_transform":{
							"offset":[
								0,
								-2
							],
							"scale":[
								3,
								3
							]
						}
					},
					"index":1,
					"texCoord":1
				},
				"metallicFactor":0.30000001192092896,
				"metallicRoughnessTexture":{
					"extensions":{
						"KHR_texture_transform":{
							"offset":[
								0,
								-2
							],
							"scale":[
								3,
								3
							]
						}
					},
					"index":2,
					"texCoord":1
				}
			}
		}
	],
	"meshes":[
		{
			"name":"Cylinder.001",
			"primitives":[
				{
					"attributes":{
						"POSITION":0,
						"NORMAL":1,
						"TEXCOORD_0":2,
						"TEXCOORD_1":3
					},
					"indices":4,
					"material":0
				}
			]
		}
	],
	"textures":[
		{
			"sampler":0,
			"source":0
		},
		{
			"sampler":0,
			"source":1
		},
		{
			"sampler":0,
			"source":2
		}
	],
	"images":[
		{
			"mimeType":"image/jpeg",
			"name":"wood-90_bump",
			"uri":"wood-90_bump.jpg"
		},
		{
			"mimeType":"image/jpeg",
			"name":"wood-90_diffuse",
			"uri":"wood-90_diffuse.jpg"
		},
		{
			"mimeType":"image/png",
			"name":"wood-90_smooth",
			"uri":"wood-90_smooth.png"
		}
	],
	"accessors":[
		{
			"bufferView":0,
			"componentType":5126,
			"count":17891,
			"max":[
				4.57459020614624,
				3.0342204570770264,
				4.606370449066162
			],
			"min":[
				-4.57459020614624,
				-1.1747688055038452,
				-4.606370449066162
			],
			"type":"VEC3"
		},
		{
			"bufferView":1,
			"componentType":5126,
			"count":17891,
			"type":"VEC3"
		},
		{
			"bufferView":2,
			"componentType":5126,
			"count":17891,
			"type":"VEC2"
		},
		{
			"bufferView":3,
			"componentType":5126,
			"count":17891,
			"type":"VEC2"
		},
		{
			"bufferView":4,
			"componentType":5123,
			"count":28104,
			"type":"SCALAR"
		}
	],
	"bufferViews":[
		{
			"buffer":0,
			"byteLength":214692,
			"byteOffset":0,
			"target":34962
		},
		{
			"buffer":0,
			"byteLength":214692,
			"byteOffset":214692,
			"target":34962
		},
		{
			"buffer":0,
			"byteLength":143128,
			"byteOffset":429384,
			"target":34962
		},
		{
			"buffer":0,
			"byteLength":143128,
			"byteOffset":572512,
			"target":34962
		},
		{
			"buffer":0,
			"byteLength":56208,
			"byteOffset":715640,
			"target":34963
		}
	],
	"samplers":[
		{
			"magFilter":9729,
			"minFilter":9987
		}
	],
	"buffers":[
		{
			"byteLength":771848,
			"uri":"scene.bin"
		}
	]
}
