{
	"asset":{
		"generator":"Khronos glTF Blender I/O v4.3.47",
		"version":"2.0"
	},
	"scene":0,
	"scenes":[
		{
			"name":"Scene",
			"nodes":[
				0
			]
		}
	],
	"nodes":[
		{
			"mesh":0,
			"name":"Cylinder.001"
		}
	],
	"materials":[
		{
			"doubleSided":true,
			"name":"Material",
			"pbrMetallicRoughness":{
				"baseColorTexture":{
					"index":0,
					"texCoord":1
				},
				"metallicFactor":0,
				"roughnessFactor":0.8091335296630859
			}
		}
	],
	"meshes":[
		{
			"name":"Cylinder.001",
			"primitives":[
				{
					"attributes":{
						"POSITION":0,
						"NORMAL":1,
						"TEXCOORD_0":2,
						"TEXCOORD_1":3
					},
					"indices":4,
					"material":0
				}
			]
		}
	],
	"textures":[
		{
			"sampler":0,
			"source":0
		}
	],
	"images":[
		{
			"mimeType":"image/jpeg",
			"name":"Dutch_Rosewood_Parquet_tibkfgyl_1K_BaseColor",
			"uri":"Dutch_Rosewood_Parquet_tibkfgyl_1K_BaseColor.jpg"
		}
	],
	"accessors":[
		{
			"bufferView":0,
			"componentType":5126,
			"count":6520,
			"max":[
				4.57459020614624,
				3.0342204570770264,
				4.606370449066162
			],
			"min":[
				-4.57459020614624,
				-1.2194687128067017,
				-4.606370449066162
			],
			"type":"VEC3"
		},
		{
			"bufferView":1,
			"componentType":5126,
			"count":6520,
			"type":"VEC3"
		},
		{
			"bufferView":2,
			"componentType":5126,
			"count":6520,
			"type":"VEC2"
		},
		{
			"bufferView":3,
			"componentType":5126,
			"count":6520,
			"type":"VEC2"
		},
		{
			"bufferView":4,
			"componentType":5123,
			"count":28104,
			"type":"SCALAR"
		}
	],
	"bufferViews":[
		{
			"buffer":0,
			"byteLength":78240,
			"byteOffset":0,
			"target":34962
		},
		{
			"buffer":0,
			"byteLength":78240,
			"byteOffset":78240,
			"target":34962
		},
		{
			"buffer":0,
			"byteLength":52160,
			"byteOffset":156480,
			"target":34962
		},
		{
			"buffer":0,
			"byteLength":52160,
			"byteOffset":208640,
			"target":34962
		},
		{
			"buffer":0,
			"byteLength":56208,
			"byteOffset":260800,
			"target":34963
		}
	],
	"samplers":[
		{
			"magFilter":9729,
			"minFilter":9987
		}
	],
	"buffers":[
		{
			"byteLength":317008,
			"uri":"scene.bin"
		}
	]
}
