{
	"asset":{
		"generator":"Khronos glTF Blender I/O v4.1.62",
		"version":"2.0"
	},
	"extensionsUsed":[
		"KHR_materials_specular",
		"KHR_materials_ior"
	],
	"scene":0,
	"scenes":[
		{
			"name":"Scene",
			"nodes":[
				0
			]
		}
	],
	"nodes":[
		{
			"mesh":0,
			"name":"chair_seat",
			"rotation":[
				0.0024282389786094427,
				-0.17364761233329773,
				0.0004281640285626054,
				0.9848048090934753
			],
			"translation":[
				-0.28877249360084534,
				0.4548587203025818,
				0.06805220991373062
			]
		}
	],
	"materials":[
		{
			"doubleSided":true,
			"name":"chair_seat",
			"pbrMetallicRoughness":{
				"metallicFactor":0,
				"metallicRoughnessTexture":{
					"index":0
				}
			}
		},
		{
			"doubleSided":true,
			"name":"screw.003",
			"pbrMetallicRoughness":{
				"baseColorFactor":[
					0.800000011920929,
					0.800000011920929,
					0.800000011920929,
					1
				],
				"roughnessFactor":0.19620254635810852
			}
		},
		{
			"doubleSided":true,
			"extensions":{
				"KHR_materials_specular":{
					"specularFactor":0
				},
				"KHR_materials_ior":{
					"ior":1.4500000476837158
				}
			},
			"name":"screwhole.003",
			"pbrMetallicRoughness":{
				"baseColorFactor":[
					0,
					0,
					0,
					1
				],
				"metallicFactor":0,
				"roughnessFactor":0.5
			}
		},
		{
			"doubleSided":true,
			"name":"screw",
			"pbrMetallicRoughness":{
				"baseColorFactor":[
					0.800000011920929,
					0.800000011920929,
					0.800000011920929,
					1
				],
				"roughnessFactor":0.19620254635810852
			}
		},
		{
			"doubleSided":true,
			"extensions":{
				"KHR_materials_specular":{
					"specularFactor":0
				},
				"KHR_materials_ior":{
					"ior":1.4500000476837158
				}
			},
			"name":"screwhole",
			"pbrMetallicRoughness":{
				"baseColorFactor":[
					0,
					0,
					0,
					1
				],
				"metallicFactor":0,
				"roughnessFactor":0.5
			}
		},
		{
			"doubleSided":true,
			"name":"chair_leg",
			"pbrMetallicRoughness":{
				"metallicFactor":0,
				"metallicRoughnessTexture":{
					"index":1
				}
			}
		},
		{
			"doubleSided":true,
			"name":"leg_support_front",
			"pbrMetallicRoughness":{
				"metallicFactor":0,
				"metallicRoughnessTexture":{
					"index":2
				}
			}
		},
		{
			"doubleSided":true,
			"name":"leg_support_back",
			"pbrMetallicRoughness":{
				"metallicFactor":0,
				"metallicRoughnessTexture":{
					"index":3
				}
			}
		},
		{
			"doubleSided":true,
			"name":"chair_back",
			"pbrMetallicRoughness":{
				"metallicFactor":0,
				"metallicRoughnessTexture":{
					"index":4
				}
			}
		},
		{
			"doubleSided":true,
			"name":"screw.002",
			"pbrMetallicRoughness":{
				"baseColorFactor":[
					0.800000011920929,
					0.800000011920929,
					0.800000011920929,
					1
				],
				"roughnessFactor":0.19620254635810852
			}
		},
		{
			"doubleSided":true,
			"extensions":{
				"KHR_materials_specular":{
					"specularFactor":0
				},
				"KHR_materials_ior":{
					"ior":1.4500000476837158
				}
			},
			"name":"screwhole.002",
			"pbrMetallicRoughness":{
				"baseColorFactor":[
					0,
					0,
					0,
					1
				],
				"metallicFactor":0,
				"roughnessFactor":0.5
			}
		},
		{
			"doubleSided":true,
			"name":"screw.001",
			"pbrMetallicRoughness":{
				"baseColorFactor":[
					0.800000011920929,
					0.800000011920929,
					0.800000011920929,
					1
				],
				"roughnessFactor":0.19620254635810852
			}
		},
		{
			"doubleSided":true,
			"extensions":{
				"KHR_materials_specular":{
					"specularFactor":0
				},
				"KHR_materials_ior":{
					"ior":1.4500000476837158
				}
			},
			"name":"screwhole.001",
			"pbrMetallicRoughness":{
				"baseColorFactor":[
					0,
					0,
					0,
					1
				],
				"metallicFactor":0,
				"roughnessFactor":0.5
			}
		}
	],
	"meshes":[
		{
			"name":"Plane",
			"primitives":[
				{
					"attributes":{
						"POSITION":0,
						"NORMAL":1,
						"TEXCOORD_0":2
					},
					"indices":3,
					"material":0
				},
				{
					"attributes":{
						"POSITION":4,
						"NORMAL":5,
						"TEXCOORD_0":6
					},
					"indices":7,
					"material":1
				},
				{
					"attributes":{
						"POSITION":8,
						"NORMAL":9,
						"TEXCOORD_0":10
					},
					"indices":11,
					"material":2
				},
				{
					"attributes":{
						"POSITION":12,
						"NORMAL":13,
						"TEXCOORD_0":14
					},
					"indices":15,
					"material":3
				},
				{
					"attributes":{
						"POSITION":16,
						"NORMAL":17,
						"TEXCOORD_0":18
					},
					"indices":11,
					"material":4
				},
				{
					"attributes":{
						"POSITION":19,
						"NORMAL":20,
						"TEXCOORD_0":21
					},
					"indices":22,
					"material":5
				},
				{
					"attributes":{
						"POSITION":23,
						"NORMAL":24,
						"TEXCOORD_0":25
					},
					"indices":26,
					"material":6
				},
				{
					"attributes":{
						"POSITION":27,
						"NORMAL":28,
						"TEXCOORD_0":29
					},
					"indices":30,
					"material":7
				},
				{
					"attributes":{
						"POSITION":31,
						"NORMAL":32,
						"TEXCOORD_0":33
					},
					"indices":34,
					"material":8
				},
				{
					"attributes":{
						"POSITION":35,
						"NORMAL":36,
						"TEXCOORD_0":37
					},
					"indices":38,
					"material":9
				},
				{
					"attributes":{
						"POSITION":39,
						"NORMAL":40,
						"TEXCOORD_0":41
					},
					"indices":11,
					"material":10
				},
				{
					"attributes":{
						"POSITION":42,
						"NORMAL":43,
						"TEXCOORD_0":44
					},
					"indices":45,
					"material":11
				},
				{
					"attributes":{
						"POSITION":46,
						"NORMAL":47,
						"TEXCOORD_0":48
					},
					"indices":11,
					"material":12
				}
			]
		}
	],
	"textures":[
		{
			"sampler":0,
			"source":0
		},
		{
			"sampler":0,
			"source":0
		},
		{
			"sampler":0,
			"source":0
		},
		{
			"sampler":0,
			"source":0
		},
		{
			"sampler":0,
			"source":0
		}
	],
	"images":[
		{
			"mimeType":"image/png",
			"name":"Image",
			"uri":"Image.png"
		}
	],
	"accessors":[
		{
			"bufferView":0,
			"componentType":5126,
			"count":6371,
			"max":[
				0.25471997261047363,
				0.031187092885375023,
				0.18645310401916504
			],
			"min":[
				-0.25471997261047363,
				-0.0341799333691597,
				-0.2189723551273346
			],
			"type":"VEC3"
		},
		{
			"bufferView":1,
			"componentType":5126,
			"count":6371,
			"type":"VEC3"
		},
		{
			"bufferView":2,
			"componentType":5126,
			"count":6371,
			"type":"VEC2"
		},
		{
			"bufferView":3,
			"componentType":5123,
			"count":24192,
			"type":"SCALAR"
		},
		{
			"bufferView":4,
			"componentType":5126,
			"count":470,
			"max":[
				0.19246946275234222,
				0.004696934949606657,
				-0.08454564213752747
			],
			"min":[
				-0.19246943295001984,
				-0.0008006591815501451,
				-0.10837040096521378
			],
			"type":"VEC3"
		},
		{
			"bufferView":5,
			"componentType":5126,
			"count":470,
			"type":"VEC3"
		},
		{
			"bufferView":6,
			"componentType":5126,
			"count":470,
			"type":"VEC2"
		},
		{
			"bufferView":7,
			"componentType":5123,
			"count":684,
			"type":"SCALAR"
		},
		{
			"bufferView":8,
			"componentType":5126,
			"count":12,
			"max":[
				0.18481357395648956,
				0.0031731240451335907,
				-0.09164810180664062
			],
			"min":[
				-0.18481354415416718,
				0.0012522467877715826,
				-0.10128185898065567
			],
			"type":"VEC3"
		},
		{
			"bufferView":9,
			"componentType":5126,
			"count":12,
			"type":"VEC3"
		},
		{
			"bufferView":10,
			"componentType":5126,
			"count":12,
			"type":"VEC2"
		},
		{
			"bufferView":11,
			"componentType":5123,
			"count":24,
			"type":"SCALAR"
		},
		{
			"bufferView":12,
			"componentType":5126,
			"count":505,
			"max":[
				0.18927662074565887,
				0.012998177669942379,
				0.07615502178668976
			],
			"min":[
				-0.18927668035030365,
				0.007416278589516878,
				0.05233732983469963
			],
			"type":"VEC3"
		},
		{
			"bufferView":13,
			"componentType":5126,
			"count":505,
			"type":"VEC3"
		},
		{
			"bufferView":14,
			"componentType":5126,
			"count":505,
			"type":"VEC2"
		},
		{
			"bufferView":15,
			"componentType":5123,
			"count":684,
			"type":"SCALAR"
		},
		{
			"bufferView":16,
			"componentType":5126,
			"count":12,
			"max":[
				0.18162859976291656,
				0.011461890302598476,
				0.06905099749565125
			],
			"min":[
				-0.18162861466407776,
				0.009481406770646572,
				0.05942238122224808
			],
			"type":"VEC3"
		},
		{
			"bufferView":17,
			"componentType":5126,
			"count":12,
			"type":"VEC3"
		},
		{
			"bufferView":18,
			"componentType":5126,
			"count":12,
			"type":"VEC2"
		},
		{
			"bufferView":19,
			"componentType":5126,
			"count":38715,
			"max":[
				0.25847479701042175,
				0.2855202257633209,
				0.16618528962135315
			],
			"min":[
				-0.25847479701042175,
				-0.456152081489563,
				-0.29109352827072144
			],
			"type":"VEC3"
		},
		{
			"bufferView":20,
			"componentType":5126,
			"count":38715,
			"type":"VEC3"
		},
		{
			"bufferView":21,
			"componentType":5126,
			"count":38715,
			"type":"VEC2"
		},
		{
			"bufferView":22,
			"componentType":5123,
			"count":171456,
			"type":"SCALAR"
		},
		{
			"bufferView":23,
			"componentType":5126,
			"count":2021,
			"max":[
				0.19286103546619415,
				-0.10107632726430893,
				0.13244426250457764
			],
			"min":[
				-0.19286103546619415,
				-0.16072656214237213,
				0.1134132593870163
			],
			"type":"VEC3"
		},
		{
			"bufferView":24,
			"componentType":5126,
			"count":2021,
			"type":"VEC3"
		},
		{
			"bufferView":25,
			"componentType":5126,
			"count":2021,
			"type":"VEC2"
		},
		{
			"bufferView":26,
			"componentType":5123,
			"count":8448,
			"type":"SCALAR"
		},
		{
			"bufferView":27,
			"componentType":5126,
			"count":2093,
			"max":[
				0.19546203315258026,
				-0.11678098887205124,
				-0.23759566247463226
			],
			"min":[
				-0.19546203315258026,
				-0.17647121846675873,
				-0.2556721568107605
			],
			"type":"VEC3"
		},
		{
			"bufferView":28,
			"componentType":5126,
			"count":2093,
			"type":"VEC3"
		},
		{
			"bufferView":29,
			"componentType":5126,
			"count":2093,
			"type":"VEC2"
		},
		{
			"bufferView":30,
			"componentType":5123,
			"count":8448,
			"type":"SCALAR"
		},
		{
			"bufferView":31,
			"componentType":5126,
			"count":6367,
			"max":[
				0.2392858862876892,
				0.34941884875297546,
				-0.17571242153644562
			],
			"min":[
				-0.2392859011888504,
				0.056257463991642,
				-0.31580448150634766
			],
			"type":"VEC3"
		},
		{
			"bufferView":32,
			"componentType":5126,
			"count":6367,
			"type":"VEC3"
		},
		{
			"bufferView":33,
			"componentType":5126,
			"count":6367,
			"type":"VEC2"
		},
		{
			"bufferView":34,
			"componentType":5123,
			"count":24192,
			"type":"SCALAR"
		},
		{
			"bufferView":35,
			"componentType":5126,
			"count":501,
			"max":[
				0.16439096629619598,
				0.1503489464521408,
				-0.21661703288555145
			],
			"min":[
				-0.1643909364938736,
				0.1270407885313034,
				-0.22763563692569733
			],
			"type":"VEC3"
		},
		{
			"bufferView":36,
			"componentType":5126,
			"count":501,
			"type":"VEC3"
		},
		{
			"bufferView":37,
			"componentType":5126,
			"count":501,
			"type":"VEC2"
		},
		{
			"bufferView":38,
			"componentType":5123,
			"count":684,
			"type":"SCALAR"
		},
		{
			"bufferView":39,
			"componentType":5126,
			"count":12,
			"max":[
				0.15718403458595276,
				0.1434410661458969,
				-0.21975179016590118
			],
			"min":[
				-0.15718407928943634,
				0.13405929505825043,
				-0.22400356829166412
			],
			"type":"VEC3"
		},
		{
			"bufferView":40,
			"componentType":5126,
			"count":12,
			"type":"VEC3"
		},
		{
			"bufferView":41,
			"componentType":5126,
			"count":12,
			"type":"VEC2"
		},
		{
			"bufferView":42,
			"componentType":5126,
			"count":520,
			"max":[
				0.14519302546977997,
				0.2735098898410797,
				-0.2572360336780548
			],
			"min":[
				-0.14519308507442474,
				0.2502525746822357,
				-0.2674020230770111
			],
			"type":"VEC3"
		},
		{
			"bufferView":43,
			"componentType":5126,
			"count":520,
			"type":"VEC3"
		},
		{
			"bufferView":44,
			"componentType":5126,
			"count":520,
			"type":"VEC2"
		},
		{
			"bufferView":45,
			"componentType":5123,
			"count":684,
			"type":"SCALAR"
		},
		{
			"bufferView":46,
			"componentType":5126,
			"count":12,
			"max":[
				0.1378418356180191,
				0.2666185200214386,
				-0.26012760400772095
			],
			"min":[
				-0.13784192502498627,
				0.25725969672203064,
				-0.26400643587112427
			],
			"type":"VEC3"
		},
		{
			"bufferView":47,
			"componentType":5126,
			"count":12,
			"type":"VEC3"
		},
		{
			"bufferView":48,
			"componentType":5126,
			"count":12,
			"type":"VEC2"
		}
	],
	"bufferViews":[
		{
			"buffer":0,
			"byteLength":76452,
			"byteOffset":0,
			"target":34962
		},
		{
			"buffer":0,
			"byteLength":76452,
			"byteOffset":76452,
			"target":34962
		},
		{
			"buffer":0,
			"byteLength":50968,
			"byteOffset":152904,
			"target":34962
		},
		{
			"buffer":0,
			"byteLength":48384,
			"byteOffset":203872,
			"target":34963
		},
		{
			"buffer":0,
			"byteLength":5640,
			"byteOffset":252256,
			"target":34962
		},
		{
			"buffer":0,
			"byteLength":5640,
			"byteOffset":257896,
			"target":34962
		},
		{
			"buffer":0,
			"byteLength":3760,
			"byteOffset":263536,
			"target":34962
		},
		{
			"buffer":0,
			"byteLength":1368,
			"byteOffset":267296,
			"target":34963
		},
		{
			"buffer":0,
			"byteLength":144,
			"byteOffset":268664,
			"target":34962
		},
		{
			"buffer":0,
			"byteLength":144,
			"byteOffset":268808,
			"target":34962
		},
		{
			"buffer":0,
			"byteLength":96,
			"byteOffset":268952,
			"target":34962
		},
		{
			"buffer":0,
			"byteLength":48,
			"byteOffset":269048,
			"target":34963
		},
		{
			"buffer":0,
			"byteLength":6060,
			"byteOffset":269096,
			"target":34962
		},
		{
			"buffer":0,
			"byteLength":6060,
			"byteOffset":275156,
			"target":34962
		},
		{
			"buffer":0,
			"byteLength":4040,
			"byteOffset":281216,
			"target":34962
		},
		{
			"buffer":0,
			"byteLength":1368,
			"byteOffset":285256,
			"target":34963
		},
		{
			"buffer":0,
			"byteLength":144,
			"byteOffset":286624,
			"target":34962
		},
		{
			"buffer":0,
			"byteLength":144,
			"byteOffset":286768,
			"target":34962
		},
		{
			"buffer":0,
			"byteLength":96,
			"byteOffset":286912,
			"target":34962
		},
		{
			"buffer":0,
			"byteLength":464580,
			"byteOffset":287008,
			"target":34962
		},
		{
			"buffer":0,
			"byteLength":464580,
			"byteOffset":751588,
			"target":34962
		},
		{
			"buffer":0,
			"byteLength":309720,
			"byteOffset":1216168,
			"target":34962
		},
		{
			"buffer":0,
			"byteLength":342912,
			"byteOffset":1525888,
			"target":34963
		},
		{
			"buffer":0,
			"byteLength":24252,
			"byteOffset":1868800,
			"target":34962
		},
		{
			"buffer":0,
			"byteLength":24252,
			"byteOffset":1893052,
			"target":34962
		},
		{
			"buffer":0,
			"byteLength":16168,
			"byteOffset":1917304,
			"target":34962
		},
		{
			"buffer":0,
			"byteLength":16896,
			"byteOffset":1933472,
			"target":34963
		},
		{
			"buffer":0,
			"byteLength":25116,
			"byteOffset":1950368,
			"target":34962
		},
		{
			"buffer":0,
			"byteLength":25116,
			"byteOffset":1975484,
			"target":34962
		},
		{
			"buffer":0,
			"byteLength":16744,
			"byteOffset":2000600,
			"target":34962
		},
		{
			"buffer":0,
			"byteLength":16896,
			"byteOffset":2017344,
			"target":34963
		},
		{
			"buffer":0,
			"byteLength":76404,
			"byteOffset":2034240,
			"target":34962
		},
		{
			"buffer":0,
			"byteLength":76404,
			"byteOffset":2110644,
			"target":34962
		},
		{
			"buffer":0,
			"byteLength":50936,
			"byteOffset":2187048,
			"target":34962
		},
		{
			"buffer":0,
			"byteLength":48384,
			"byteOffset":2237984,
			"target":34963
		},
		{
			"buffer":0,
			"byteLength":6012,
			"byteOffset":2286368,
			"target":34962
		},
		{
			"buffer":0,
			"byteLength":6012,
			"byteOffset":2292380,
			"target":34962
		},
		{
			"buffer":0,
			"byteLength":4008,
			"byteOffset":2298392,
			"target":34962
		},
		{
			"buffer":0,
			"byteLength":1368,
			"byteOffset":2302400,
			"target":34963
		},
		{
			"buffer":0,
			"byteLength":144,
			"byteOffset":2303768,
			"target":34962
		},
		{
			"buffer":0,
			"byteLength":144,
			"byteOffset":2303912,
			"target":34962
		},
		{
			"buffer":0,
			"byteLength":96,
			"byteOffset":2304056,
			"target":34962
		},
		{
			"buffer":0,
			"byteLength":6240,
			"byteOffset":2304152,
			"target":34962
		},
		{
			"buffer":0,
			"byteLength":6240,
			"byteOffset":2310392,
			"target":34962
		},
		{
			"buffer":0,
			"byteLength":4160,
			"byteOffset":2316632,
			"target":34962
		},
		{
			"buffer":0,
			"byteLength":1368,
			"byteOffset":2320792,
			"target":34963
		},
		{
			"buffer":0,
			"byteLength":144,
			"byteOffset":2322160,
			"target":34962
		},
		{
			"buffer":0,
			"byteLength":144,
			"byteOffset":2322304,
			"target":34962
		},
		{
			"buffer":0,
			"byteLength":96,
			"byteOffset":2322448,
			"target":34962
		}
	],
	"samplers":[
		{
			"magFilter":9729,
			"minFilter":9987
		}
	],
	"buffers":[
		{
			"byteLength":2322544,
			"uri":"scene.bin"
		}
	]
}
