{
	"asset":{
		"generator":"Khronos glTF Blender I/O v4.3.47",
		"version":"2.0"
	},
	"extensionsUsed":[
		"KHR_materials_clearcoat"
	],
	"scene":0,
	"scenes":[
		{
			"name":"Scene",
			"nodes":[
				0,
				2
			]
		}
	],
	"nodes":[
		{
			"name":"Sketchfab Model"
		},
		{
			"mesh":0,
			"name":"flower_Flower_MatSG_0.001"
		},
		{
			"children":[
				1
			],
			"name":"Sketchfab Model.001"
		}
	],
	"materials":[
		{
			"alphaMode":"BLEND",
			"doubleSided":true,
			"name":"Flower_MatSG",
			"normalTexture":{
				"index":0
			},
			"pbrMetallicRoughness":{
				"baseColorTexture":{
					"index":1
				},
				"metallicFactor":0,
				"metallicRoughnessTexture":{
					"index":2
				}
			}
		},
		{
			"alphaMode":"BLEND",
			"doubleSided":true,
			"name":"Leaf_MatSG",
			"normalTexture":{
				"index":3
			},
			"pbrMetallicRoughness":{
				"baseColorTexture":{
					"index":4
				},
				"metallicFactor":0,
				"metallicRoughnessTexture":{
					"index":5
				}
			}
		},
		{
			"doubleSided":true,
			"extensions":{
				"KHR_materials_clearcoat":{
					"clearcoatRoughnessFactor":0
				}
			},
			"name":"Procedural pearl white painted plastic",
			"pbrMetallicRoughness":{
				"baseColorTexture":{
					"index":6
				},
				"metallicFactor":0.0845070406794548,
				"roughnessFactor":0.6183098554611206
			}
		},
		{
			"doubleSided":true,
			"name":"Stem_MatSG",
			"normalTexture":{
				"index":7
			},
			"pbrMetallicRoughness":{
				"baseColorTexture":{
					"index":8
				},
				"metallicFactor":0,
				"metallicRoughnessTexture":{
					"index":9
				}
			}
		}
	],
	"meshes":[
		{
			"name":"flower_Flower_MatSG_0.001",
			"primitives":[
				{
					"attributes":{
						"POSITION":0,
						"NORMAL":1,
						"TEXCOORD_0":2,
						"TEXCOORD_1":3
					},
					"indices":4,
					"material":0
				},
				{
					"attributes":{
						"POSITION":5,
						"NORMAL":6,
						"TEXCOORD_0":7,
						"TEXCOORD_1":8
					},
					"indices":9,
					"material":1
				},
				{
					"attributes":{
						"POSITION":10,
						"NORMAL":11,
						"TEXCOORD_0":12,
						"TEXCOORD_1":13
					},
					"indices":14,
					"material":2
				},
				{
					"attributes":{
						"POSITION":15,
						"NORMAL":16,
						"TEXCOORD_0":17,
						"TEXCOORD_1":18
					},
					"indices":19,
					"material":3
				}
			]
		}
	],
	"textures":[
		{
			"sampler":0,
			"source":0
		},
		{
			"sampler":0,
			"source":1
		},
		{
			"sampler":0,
			"source":2
		},
		{
			"sampler":0,
			"source":3
		},
		{
			"sampler":0,
			"source":4
		},
		{
			"sampler":0,
			"source":5
		},
		{
			"sampler":0,
			"source":6
		},
		{
			"sampler":0,
			"source":7
		},
		{
			"sampler":0,
			"source":8
		},
		{
			"sampler":0,
			"source":9
		}
	],
	"images":[
		{
			"mimeType":"image/png",
			"name":"Flower_MatSG_normal",
			"uri":"Flower_MatSG_normal.png"
		},
		{
			"mimeType":"image/png",
			"name":"Flower_MatSG_baseColor",
			"uri":"Flower_MatSG_baseColor.png"
		},
		{
			"mimeType":"image/png",
			"name":"Flower_MatSG_metallicRoughness",
			"uri":"Flower_MatSG_metallicRoughness.png"
		},
		{
			"mimeType":"image/png",
			"name":"Leaf_MatSG_normal",
			"uri":"Leaf_MatSG_normal.png"
		},
		{
			"mimeType":"image/png",
			"name":"Leaf_MatSG_baseColor",
			"uri":"Leaf_MatSG_baseColor.png"
		},
		{
			"mimeType":"image/png",
			"name":"Leaf_MatSG_metallicRoughness",
			"uri":"Leaf_MatSG_metallicRoughness.png"
		},
		{
			"mimeType":"image/jpeg",
			"name":"Seychelles_Beige_Marble_Tiles_wgildfbv_1K_BaseColor",
			"uri":"Seychelles_Beige_Marble_Tiles_wgildfbv_1K_BaseColor.jpg"
		},
		{
			"mimeType":"image/png",
			"name":"Stem_MatSG_normal",
			"uri":"Stem_MatSG_normal.png"
		},
		{
			"mimeType":"image/png",
			"name":"Stem_MatSG_baseColor",
			"uri":"Stem_MatSG_baseColor.png"
		},
		{
			"mimeType":"image/png",
			"name":"Stem_MatSG_metallicRoughness",
			"uri":"Stem_MatSG_metallicRoughness.png"
		}
	],
	"accessors":[
		{
			"bufferView":0,
			"componentType":5126,
			"count":34840,
			"max":[
				2.4687063694000244,
				2.456584930419922,
				0.5629597902297974
			],
			"min":[
				-0.6019401550292969,
				1.302345633506775,
				-0.725421667098999
			],
			"type":"VEC3"
		},
		{
			"bufferView":1,
			"componentType":5126,
			"count":34840,
			"type":"VEC3"
		},
		{
			"bufferView":2,
			"componentType":5126,
			"count":34840,
			"type":"VEC2"
		},
		{
			"bufferView":3,
			"componentType":5126,
			"count":34840,
			"type":"VEC2"
		},
		{
			"bufferView":4,
			"componentType":5123,
			"count":89514,
			"type":"SCALAR"
		},
		{
			"bufferView":5,
			"componentType":5126,
			"count":41626,
			"max":[
				2.5752861499786377,
				2.086355447769165,
				0.6700530052185059
			],
			"min":[
				-0.6767008304595947,
				0.5652518272399902,
				-0.8264575004577637
			],
			"type":"VEC3"
		},
		{
			"bufferView":6,
			"componentType":5126,
			"count":41626,
			"type":"VEC3"
		},
		{
			"bufferView":7,
			"componentType":5126,
			"count":41626,
			"type":"VEC2"
		},
		{
			"bufferView":8,
			"componentType":5126,
			"count":41626,
			"type":"VEC2"
		},
		{
			"bufferView":9,
			"componentType":5123,
			"count":115512,
			"type":"SCALAR"
		},
		{
			"bufferView":10,
			"componentType":5126,
			"count":2312,
			"max":[
				2.3719260692596436,
				1.00636625289917,
				0.5365859270095825
			],
			"min":[
				-0.53127121925354,
				-0.9999998807907104,
				-0.5365860462188721
			],
			"type":"VEC3"
		},
		{
			"bufferView":11,
			"componentType":5126,
			"count":2312,
			"type":"VEC3"
		},
		{
			"bufferView":12,
			"componentType":5126,
			"count":2312,
			"type":"VEC2"
		},
		{
			"bufferView":13,
			"componentType":5126,
			"count":2312,
			"type":"VEC2"
		},
		{
			"bufferView":14,
			"componentType":5123,
			"count":4212,
			"type":"SCALAR"
		},
		{
			"bufferView":15,
			"componentType":5126,
			"count":39205,
			"max":[
				2.4431347846984863,
				2.4287540912628174,
				0.5384799242019653
			],
			"min":[
				-0.5739269256591797,
				0.49655604362487793,
				-0.6982666254043579
			],
			"type":"VEC3"
		},
		{
			"bufferView":16,
			"componentType":5126,
			"count":39205,
			"type":"VEC3"
		},
		{
			"bufferView":17,
			"componentType":5126,
			"count":39205,
			"type":"VEC2"
		},
		{
			"bufferView":18,
			"componentType":5126,
			"count":39205,
			"type":"VEC2"
		},
		{
			"bufferView":19,
			"componentType":5123,
			"count":119628,
			"type":"SCALAR"
		}
	],
	"bufferViews":[
		{
			"buffer":0,
			"byteLength":418080,
			"byteOffset":0,
			"target":34962
		},
		{
			"buffer":0,
			"byteLength":418080,
			"byteOffset":418080,
			"target":34962
		},
		{
			"buffer":0,
			"byteLength":278720,
			"byteOffset":836160,
			"target":34962
		},
		{
			"buffer":0,
			"byteLength":278720,
			"byteOffset":1114880,
			"target":34962
		},
		{
			"buffer":0,
			"byteLength":179028,
			"byteOffset":1393600,
			"target":34963
		},
		{
			"buffer":0,
			"byteLength":499512,
			"byteOffset":1572628,
			"target":34962
		},
		{
			"buffer":0,
			"byteLength":499512,
			"byteOffset":2072140,
			"target":34962
		},
		{
			"buffer":0,
			"byteLength":333008,
			"byteOffset":2571652,
			"target":34962
		},
		{
			"buffer":0,
			"byteLength":333008,
			"byteOffset":2904660,
			"target":34962
		},
		{
			"buffer":0,
			"byteLength":231024,
			"byteOffset":3237668,
			"target":34963
		},
		{
			"buffer":0,
			"byteLength":27744,
			"byteOffset":3468692,
			"target":34962
		},
		{
			"buffer":0,
			"byteLength":27744,
			"byteOffset":3496436,
			"target":34962
		},
		{
			"buffer":0,
			"byteLength":18496,
			"byteOffset":3524180,
			"target":34962
		},
		{
			"buffer":0,
			"byteLength":18496,
			"byteOffset":3542676,
			"target":34962
		},
		{
			"buffer":0,
			"byteLength":8424,
			"byteOffset":3561172,
			"target":34963
		},
		{
			"buffer":0,
			"byteLength":470460,
			"byteOffset":3569596,
			"target":34962
		},
		{
			"buffer":0,
			"byteLength":470460,
			"byteOffset":4040056,
			"target":34962
		},
		{
			"buffer":0,
			"byteLength":313640,
			"byteOffset":4510516,
			"target":34962
		},
		{
			"buffer":0,
			"byteLength":313640,
			"byteOffset":4824156,
			"target":34962
		},
		{
			"buffer":0,
			"byteLength":239256,
			"byteOffset":5137796,
			"target":34963
		}
	],
	"samplers":[
		{
			"magFilter":9729,
			"minFilter":9987
		}
	],
	"buffers":[
		{
			"byteLength":5377052,
			"uri":"scene.bin"
		}
	]
}
