{
	"asset":{
		"generator":"Khronos glTF Blender I/O v4.3.47",
		"version":"2.0"
	},
	"extensionsUsed":[
		"KHR_materials_clearcoat"
	],
	"scene":0,
	"scenes":[
		{
			"name":"Scene",
			"nodes":[
				0,
				2
			]
		}
	],
	"nodes":[
		{
			"name":"Sketchfab Model"
		},
		{
			"mesh":0,
			"name":"flower_Flower_MatSG_0.002"
		},
		{
			"children":[
				1
			],
			"name":"Sketchfab Model.001"
		}
	],
	"materials":[
		{
			"doubleSided":true,
			"extensions":{
				"KHR_materials_clearcoat":{
					"clearcoatRoughnessFactor":0
				}
			},
			"name":"Procedural pearl white painted plastic",
			"pbrMetallicRoughness":{
				"baseColorTexture":{
					"index":0
				},
				"metallicFactor":0.0845070406794548,
				"roughnessFactor":0.6183098554611206
			}
		}
	],
	"meshes":[
		{
			"name":"flower_Flower_MatSG_0.002",
			"primitives":[
				{
					"attributes":{
						"POSITION":0,
						"NORMAL":1,
						"TEXCOORD_0":2,
						"TEXCOORD_1":3
					},
					"indices":4,
					"material":0
				}
			]
		}
	],
	"textures":[
		{
			"sampler":0,
			"source":0
		}
	],
	"images":[
		{
			"mimeType":"image/jpeg",
			"name":"Seychelles_Beige_Marble_Tiles_wgildfbv_1K_BaseColor",
			"uri":"Seychelles_Beige_Marble_Tiles_wgildfbv_1K_BaseColor.jpg"
		}
	],
	"accessors":[
		{
			"bufferView":0,
			"componentType":5126,
			"count":2040,
			"max":[
				2.3719260692596436,
				1.00636625289917,
				0.5365859270095825
			],
			"min":[
				-0.53127121925354,
				-0.9999998807907104,
				-0.5365860462188721
			],
			"type":"VEC3"
		},
		{
			"bufferView":1,
			"componentType":5126,
			"count":2040,
			"type":"VEC3"
		},
		{
			"bufferView":2,
			"componentType":5126,
			"count":2040,
			"type":"VEC2"
		},
		{
			"bufferView":3,
			"componentType":5126,
			"count":2040,
			"type":"VEC2"
		},
		{
			"bufferView":4,
			"componentType":5123,
			"count":3648,
			"type":"SCALAR"
		}
	],
	"bufferViews":[
		{
			"buffer":0,
			"byteLength":24480,
			"byteOffset":0,
			"target":34962
		},
		{
			"buffer":0,
			"byteLength":24480,
			"byteOffset":24480,
			"target":34962
		},
		{
			"buffer":0,
			"byteLength":16320,
			"byteOffset":48960,
			"target":34962
		},
		{
			"buffer":0,
			"byteLength":16320,
			"byteOffset":65280,
			"target":34962
		},
		{
			"buffer":0,
			"byteLength":7296,
			"byteOffset":81600,
			"target":34963
		}
	],
	"samplers":[
		{
			"magFilter":9729,
			"minFilter":9987
		}
	],
	"buffers":[
		{
			"byteLength":88896,
			"uri":"scene.bin"
		}
	]
}
