{
	"asset":{
		"generator":"Khronos glTF Blender I/O v4.3.47",
		"version":"2.0"
	},
	"scene":0,
	"scenes":[
		{
			"name":"Scene",
			"nodes":[
				0
			]
		}
	],
	"nodes":[
		{
			"mesh":0,
			"name":"Circle.006"
		}
	],
	"materials":[
		{
			"doubleSided":true,
			"name":"Material.006",
			"pbrMetallicRoughness":{
				"baseColorTexture":{
					"index":0,
					"texCoord":1
				},
				"metallicFactor":0,
				"roughnessFactor":0.8185011744499207
			}
		},
		{
			"doubleSided":true,
			"name":"Material.004",
			"pbrMetallicRoughness":{
				"metallicFactor":0,
				"roughnessFactor":0.5
			}
		},
		{
			"doubleSided":true,
			"name":"Material.007",
			"pbrMetallicRoughness":{
				"baseColorTexture":{
					"index":1,
					"texCoord":1
				},
				"metallicFactor":0,
				"roughnessFactor":0.8185011744499207
			}
		},
		{
			"doubleSided":true,
			"name":"Material.008",
			"pbrMetallicRoughness":{
				"baseColorTexture":{
					"index":2,
					"texCoord":1
				},
				"metallicFactor":0,
				"roughnessFactor":0.8185011744499207
			}
		},
		{
			"doubleSided":true,
			"name":"Material.001",
			"pbrMetallicRoughness":{
				"baseColorTexture":{
					"index":3,
					"texCoord":1
				},
				"metallicFactor":0,
				"roughnessFactor":0.8185011744499207
			}
		},
		{
			"doubleSided":true,
			"name":"Material.002",
			"pbrMetallicRoughness":{
				"baseColorTexture":{
					"index":4,
					"texCoord":1
				},
				"metallicFactor":0,
				"roughnessFactor":0.8185011744499207
			}
		},
		{
			"doubleSided":true,
			"name":"Material.003",
			"pbrMetallicRoughness":{
				"baseColorTexture":{
					"index":5,
					"texCoord":1
				},
				"metallicFactor":0,
				"roughnessFactor":0.8185011744499207
			}
		},
		{
			"doubleSided":true,
			"name":"Material.016",
			"pbrMetallicRoughness":{
				"baseColorTexture":{
					"index":6,
					"texCoord":1
				},
				"metallicFactor":0,
				"roughnessFactor":0.5
			}
		}
	],
	"meshes":[
		{
			"name":"Circle.006",
			"primitives":[
				{
					"attributes":{
						"POSITION":0,
						"NORMAL":1,
						"TEXCOORD_0":2,
						"TEXCOORD_1":3
					},
					"indices":4,
					"material":0
				},
				{
					"attributes":{
						"POSITION":5,
						"NORMAL":6,
						"TEXCOORD_0":7,
						"TEXCOORD_1":8
					},
					"indices":9,
					"material":1
				},
				{
					"attributes":{
						"POSITION":10,
						"NORMAL":11,
						"TEXCOORD_0":12,
						"TEXCOORD_1":13
					},
					"indices":14,
					"material":2
				},
				{
					"attributes":{
						"POSITION":15,
						"NORMAL":16,
						"TEXCOORD_0":17,
						"TEXCOORD_1":18
					},
					"indices":19,
					"material":3
				},
				{
					"attributes":{
						"POSITION":20,
						"NORMAL":21,
						"TEXCOORD_0":22,
						"TEXCOORD_1":23
					},
					"indices":24,
					"material":4
				},
				{
					"attributes":{
						"POSITION":25,
						"NORMAL":26,
						"TEXCOORD_0":27,
						"TEXCOORD_1":28
					},
					"indices":29,
					"material":5
				},
				{
					"attributes":{
						"POSITION":30,
						"NORMAL":31,
						"TEXCOORD_0":32,
						"TEXCOORD_1":33
					},
					"indices":34,
					"material":6
				},
				{
					"attributes":{
						"POSITION":35,
						"NORMAL":36,
						"TEXCOORD_0":37,
						"TEXCOORD_1":38
					},
					"indices":39,
					"material":7
				}
			]
		}
	],
	"textures":[
		{
			"sampler":0,
			"source":0
		},
		{
			"sampler":0,
			"source":0
		},
		{
			"sampler":0,
			"source":0
		},
		{
			"sampler":0,
			"source":0
		},
		{
			"sampler":0,
			"source":0
		},
		{
			"sampler":0,
			"source":0
		},
		{
			"sampler":0,
			"source":1
		}
	],
	"images":[
		{
			"mimeType":"image/jpeg",
			"name":"Furniture_Fabric_sjfvcbtc_1K_BaseColor",
			"uri":"Furniture_Fabric_sjfvcbtc_1K_BaseColor.jpg"
		},
		{
			"mimeType":"image/jpeg",
			"name":"Plywood_vdcjecc_1K_BaseColor",
			"uri":"Plywood_vdcjecc_1K_BaseColor.jpg"
		}
	],
	"accessors":[
		{
			"bufferView":0,
			"componentType":5126,
			"count":98,
			"max":[
				-1.195015549659729,
				1.5737507343292236,
				1.3950034379959106
			],
			"min":[
				-3.372952938079834,
				-0.0720195472240448,
				-1.0848242044448853
			],
			"type":"VEC3"
		},
		{
			"bufferView":1,
			"componentType":5126,
			"count":98,
			"type":"VEC3"
		},
		{
			"bufferView":2,
			"componentType":5126,
			"count":98,
			"type":"VEC2"
		},
		{
			"bufferView":3,
			"componentType":5126,
			"count":98,
			"type":"VEC2"
		},
		{
			"bufferView":4,
			"componentType":5123,
			"count":288,
			"type":"SCALAR"
		},
		{
			"bufferView":5,
			"componentType":5126,
			"count":60,
			"max":[
				2.7948594093322754,
				0.11517378687858582,
				1.0901119709014893
			],
			"min":[
				-2.935255527496338,
				-0.04904508590698242,
				-0.5113545060157776
			],
			"type":"VEC3"
		},
		{
			"bufferView":6,
			"componentType":5126,
			"count":60,
			"type":"VEC3"
		},
		{
			"bufferView":7,
			"componentType":5126,
			"count":60,
			"type":"VEC2"
		},
		{
			"bufferView":8,
			"componentType":5126,
			"count":60,
			"type":"VEC2"
		},
		{
			"bufferView":9,
			"componentType":5123,
			"count":240,
			"type":"SCALAR"
		},
		{
			"bufferView":10,
			"componentType":5126,
			"count":1307,
			"max":[
				-1.0196171998977661,
				0.6365127563476562,
				1.4852697849273682
			],
			"min":[
				-3.3981547355651855,
				-0.042231425642967224,
				-0.8877724409103394
			],
			"type":"VEC3"
		},
		{
			"bufferView":11,
			"componentType":5126,
			"count":1307,
			"type":"VEC3"
		},
		{
			"bufferView":12,
			"componentType":5126,
			"count":1307,
			"type":"VEC2"
		},
		{
			"bufferView":13,
			"componentType":5126,
			"count":1307,
			"type":"VEC2"
		},
		{
			"bufferView":14,
			"componentType":5123,
			"count":4800,
			"type":"SCALAR"
		},
		{
			"bufferView":15,
			"componentType":5126,
			"count":809,
			"max":[
				-0.8467417359352112,
				1.6098202466964722,
				1.5595871210098267
			],
			"min":[
				-3.587244749069214,
				-0.071799635887146,
				-1.1481300592422485
			],
			"type":"VEC3"
		},
		{
			"bufferView":16,
			"componentType":5126,
			"count":809,
			"type":"VEC3"
		},
		{
			"bufferView":17,
			"componentType":5126,
			"count":809,
			"type":"VEC2"
		},
		{
			"bufferView":18,
			"componentType":5126,
			"count":809,
			"type":"VEC2"
		},
		{
			"bufferView":19,
			"componentType":5123,
			"count":3606,
			"type":"SCALAR"
		},
		{
			"bufferView":20,
			"componentType":5126,
			"count":84,
			"max":[
				3.2841434478759766,
				0.3750903010368347,
				1.1633212566375732
			],
			"min":[
				0.9045116901397705,
				-0.07662275433540344,
				-0.9384177923202515
			],
			"type":"VEC3"
		},
		{
			"bufferView":21,
			"componentType":5126,
			"count":84,
			"type":"VEC3"
		},
		{
			"bufferView":22,
			"componentType":5126,
			"count":84,
			"type":"VEC2"
		},
		{
			"bufferView":23,
			"componentType":5126,
			"count":84,
			"type":"VEC2"
		},
		{
			"bufferView":24,
			"componentType":5123,
			"count":264,
			"type":"SCALAR"
		},
		{
			"bufferView":25,
			"componentType":5126,
			"count":1303,
			"max":[
				3.224700927734375,
				0.6090092658996582,
				1.4691303968429565
			],
			"min":[
				0.8432629108428955,
				-0.0335516482591629,
				-0.917868435382843
			],
			"type":"VEC3"
		},
		{
			"bufferView":26,
			"componentType":5126,
			"count":1303,
			"type":"VEC3"
		},
		{
			"bufferView":27,
			"componentType":5126,
			"count":1303,
			"type":"VEC2"
		},
		{
			"bufferView":28,
			"componentType":5126,
			"count":1303,
			"type":"VEC2"
		},
		{
			"bufferView":29,
			"componentType":5123,
			"count":4800,
			"type":"SCALAR"
		},
		{
			"bufferView":30,
			"componentType":5126,
			"count":805,
			"max":[
				3.400578498840332,
				1.6461538076400757,
				1.5760440826416016
			],
			"min":[
				0.7522460222244263,
				-0.0731649398803711,
				-1.1622273921966553
			],
			"type":"VEC3"
		},
		{
			"bufferView":31,
			"componentType":5126,
			"count":805,
			"type":"VEC3"
		},
		{
			"bufferView":32,
			"componentType":5126,
			"count":805,
			"type":"VEC2"
		},
		{
			"bufferView":33,
			"componentType":5126,
			"count":805,
			"type":"VEC2"
		},
		{
			"bufferView":34,
			"componentType":5123,
			"count":3630,
			"type":"SCALAR"
		},
		{
			"bufferView":35,
			"componentType":5126,
			"count":256,
			"max":[
				3.250032901763916,
				0.16049304604530334,
				1.4557613134384155
			],
			"min":[
				-3.3746986389160156,
				-0.9273974895477295,
				-0.9530469179153442
			],
			"type":"VEC3"
		},
		{
			"bufferView":36,
			"componentType":5126,
			"count":256,
			"type":"VEC3"
		},
		{
			"bufferView":37,
			"componentType":5126,
			"count":256,
			"type":"VEC2"
		},
		{
			"bufferView":38,
			"componentType":5126,
			"count":256,
			"type":"VEC2"
		},
		{
			"bufferView":39,
			"componentType":5123,
			"count":432,
			"type":"SCALAR"
		}
	],
	"bufferViews":[
		{
			"buffer":0,
			"byteLength":1176,
			"byteOffset":0,
			"target":34962
		},
		{
			"buffer":0,
			"byteLength":1176,
			"byteOffset":1176,
			"target":34962
		},
		{
			"buffer":0,
			"byteLength":784,
			"byteOffset":2352,
			"target":34962
		},
		{
			"buffer":0,
			"byteLength":784,
			"byteOffset":3136,
			"target":34962
		},
		{
			"buffer":0,
			"byteLength":576,
			"byteOffset":3920,
			"target":34963
		},
		{
			"buffer":0,
			"byteLength":720,
			"byteOffset":4496,
			"target":34962
		},
		{
			"buffer":0,
			"byteLength":720,
			"byteOffset":5216,
			"target":34962
		},
		{
			"buffer":0,
			"byteLength":480,
			"byteOffset":5936,
			"target":34962
		},
		{
			"buffer":0,
			"byteLength":480,
			"byteOffset":6416,
			"target":34962
		},
		{
			"buffer":0,
			"byteLength":480,
			"byteOffset":6896,
			"target":34963
		},
		{
			"buffer":0,
			"byteLength":15684,
			"byteOffset":7376,
			"target":34962
		},
		{
			"buffer":0,
			"byteLength":15684,
			"byteOffset":23060,
			"target":34962
		},
		{
			"buffer":0,
			"byteLength":10456,
			"byteOffset":38744,
			"target":34962
		},
		{
			"buffer":0,
			"byteLength":10456,
			"byteOffset":49200,
			"target":34962
		},
		{
			"buffer":0,
			"byteLength":9600,
			"byteOffset":59656,
			"target":34963
		},
		{
			"buffer":0,
			"byteLength":9708,
			"byteOffset":69256,
			"target":34962
		},
		{
			"buffer":0,
			"byteLength":9708,
			"byteOffset":78964,
			"target":34962
		},
		{
			"buffer":0,
			"byteLength":6472,
			"byteOffset":88672,
			"target":34962
		},
		{
			"buffer":0,
			"byteLength":6472,
			"byteOffset":95144,
			"target":34962
		},
		{
			"buffer":0,
			"byteLength":7212,
			"byteOffset":101616,
			"target":34963
		},
		{
			"buffer":0,
			"byteLength":1008,
			"byteOffset":108828,
			"target":34962
		},
		{
			"buffer":0,
			"byteLength":1008,
			"byteOffset":109836,
			"target":34962
		},
		{
			"buffer":0,
			"byteLength":672,
			"byteOffset":110844,
			"target":34962
		},
		{
			"buffer":0,
			"byteLength":672,
			"byteOffset":111516,
			"target":34962
		},
		{
			"buffer":0,
			"byteLength":528,
			"byteOffset":112188,
			"target":34963
		},
		{
			"buffer":0,
			"byteLength":15636,
			"byteOffset":112716,
			"target":34962
		},
		{
			"buffer":0,
			"byteLength":15636,
			"byteOffset":128352,
			"target":34962
		},
		{
			"buffer":0,
			"byteLength":10424,
			"byteOffset":143988,
			"target":34962
		},
		{
			"buffer":0,
			"byteLength":10424,
			"byteOffset":154412,
			"target":34962
		},
		{
			"buffer":0,
			"byteLength":9600,
			"byteOffset":164836,
			"target":34963
		},
		{
			"buffer":0,
			"byteLength":9660,
			"byteOffset":174436,
			"target":34962
		},
		{
			"buffer":0,
			"byteLength":9660,
			"byteOffset":184096,
			"target":34962
		},
		{
			"buffer":0,
			"byteLength":6440,
			"byteOffset":193756,
			"target":34962
		},
		{
			"buffer":0,
			"byteLength":6440,
			"byteOffset":200196,
			"target":34962
		},
		{
			"buffer":0,
			"byteLength":7260,
			"byteOffset":206636,
			"target":34963
		},
		{
			"buffer":0,
			"byteLength":3072,
			"byteOffset":213896,
			"target":34962
		},
		{
			"buffer":0,
			"byteLength":3072,
			"byteOffset":216968,
			"target":34962
		},
		{
			"buffer":0,
			"byteLength":2048,
			"byteOffset":220040,
			"target":34962
		},
		{
			"buffer":0,
			"byteLength":2048,
			"byteOffset":222088,
			"target":34962
		},
		{
			"buffer":0,
			"byteLength":864,
			"byteOffset":224136,
			"target":34963
		}
	],
	"samplers":[
		{
			"magFilter":9729,
			"minFilter":9987
		}
	],
	"buffers":[
		{
			"byteLength":225000,
			"uri":"scene.bin"
		}
	]
}
