{
	"asset":{
		"generator":"Khronos glTF Blender I/O v4.3.47",
		"version":"2.0"
	},
	"extensionsUsed":[
		"KHR_texture_transform"
	],
	"extensionsRequired":[
		"KHR_texture_transform"
	],
	"scene":0,
	"scenes":[
		{
			"name":"Scene",
			"nodes":[
				0
			]
		}
	],
	"nodes":[
		{
			"mesh":0,
			"name":"Cube"
		}
	],
	"materials":[
		{
			"doubleSided":true,
			"name":"Pink Linen Fabric - cavani",
			"normalTexture":{
				"extensions":{
					"KHR_texture_transform":{
						"offset":[
							0,
							-1
						],
						"scale":[
							2,
							2
						]
					}
				},
				"index":0,
				"scale":0.10000000149011612,
				"texCoord":1
			},
			"pbrMetallicRoughness":{
				"baseColorTexture":{
					"extensions":{
						"KHR_texture_transform":{
							"offset":[
								0,
								-1
							],
							"scale":[
								2,
								2
							]
						}
					},
					"index":1,
					"texCoord":1
				},
				"metallicFactor":0,
				"metallicRoughnessTexture":{
					"extensions":{
						"KHR_texture_transform":{
							"offset":[
								0,
								-1
							],
							"scale":[
								2,
								2
							]
						}
					},
					"index":2,
					"texCoord":1
				}
			}
		},
		{
			"doubleSided":true,
			"name":"Rough Iron Steel",
			"normalTexture":{
				"index":3,
				"scale":0.10000000149011612,
				"texCoord":1
			},
			"pbrMetallicRoughness":{
				"baseColorFactor":[
					0.010022825561463833,
					0.010022825561463833,
					0.010022825561463833,
					1
				],
				"metallicRoughnessTexture":{
					"index":4,
					"texCoord":1
				}
			}
		}
	],
	"meshes":[
		{
			"name":"Cube",
			"primitives":[
				{
					"attributes":{
						"POSITION":0,
						"NORMAL":1,
						"TEXCOORD_0":2,
						"TEXCOORD_1":3
					},
					"indices":4,
					"material":0
				},
				{
					"attributes":{
						"POSITION":5,
						"NORMAL":6,
						"TEXCOORD_0":7,
						"TEXCOORD_1":8
					},
					"indices":9,
					"material":1
				}
			]
		}
	],
	"textures":[
		{
			"sampler":0,
			"source":0
		},
		{
			"sampler":0,
			"source":1
		},
		{
			"sampler":0,
			"source":2
		},
		{
			"sampler":0,
			"source":3
		},
		{
			"sampler":0,
			"source":4
		}
	],
	"images":[
		{
			"mimeType":"image/jpeg",
			"name":"NormalMap",
			"uri":"NormalMap.jpg"
		},
		{
			"mimeType":"image/jpeg",
			"name":"BaseColor1",
			"uri":"BaseColor1.jpg"
		},
		{
			"mimeType":"image/png",
			"name":"RoughnessMap",
			"uri":"RoughnessMap.png"
		},
		{
			"mimeType":"image/png",
			"name":"Normal",
			"uri":"Normal.png"
		},
		{
			"mimeType":"image/png",
			"name":"Roughness",
			"uri":"Roughness.png"
		}
	],
	"accessors":[
		{
			"bufferView":0,
			"componentType":5126,
			"count":33880,
			"max":[
				1.4949431419372559,
				1.3818385601043701,
				1.3804014921188354
			],
			"min":[
				-1.4572546482086182,
				-1.089991807937622,
				-1.3512073755264282
			],
			"type":"VEC3"
		},
		{
			"bufferView":1,
			"componentType":5126,
			"count":33880,
			"type":"VEC3"
		},
		{
			"bufferView":2,
			"componentType":5126,
			"count":33880,
			"type":"VEC2"
		},
		{
			"bufferView":3,
			"componentType":5126,
			"count":33880,
			"type":"VEC2"
		},
		{
			"bufferView":4,
			"componentType":5123,
			"count":111612,
			"type":"SCALAR"
		},
		{
			"bufferView":5,
			"componentType":5126,
			"count":812,
			"max":[
				1.3810362815856934,
				-1.068730115890503,
				1.3728289604187012
			],
			"min":[
				-1.4105033874511719,
				-1.6861611604690552,
				-1.3756977319717407
			],
			"type":"VEC3"
		},
		{
			"bufferView":6,
			"componentType":5126,
			"count":812,
			"type":"VEC3"
		},
		{
			"bufferView":7,
			"componentType":5126,
			"count":812,
			"type":"VEC2"
		},
		{
			"bufferView":8,
			"componentType":5126,
			"count":812,
			"type":"VEC2"
		},
		{
			"bufferView":9,
			"componentType":5123,
			"count":1554,
			"type":"SCALAR"
		}
	],
	"bufferViews":[
		{
			"buffer":0,
			"byteLength":406560,
			"byteOffset":0,
			"target":34962
		},
		{
			"buffer":0,
			"byteLength":406560,
			"byteOffset":406560,
			"target":34962
		},
		{
			"buffer":0,
			"byteLength":271040,
			"byteOffset":813120,
			"target":34962
		},
		{
			"buffer":0,
			"byteLength":271040,
			"byteOffset":1084160,
			"target":34962
		},
		{
			"buffer":0,
			"byteLength":223224,
			"byteOffset":1355200,
			"target":34963
		},
		{
			"buffer":0,
			"byteLength":9744,
			"byteOffset":1578424,
			"target":34962
		},
		{
			"buffer":0,
			"byteLength":9744,
			"byteOffset":1588168,
			"target":34962
		},
		{
			"buffer":0,
			"byteLength":6496,
			"byteOffset":1597912,
			"target":34962
		},
		{
			"buffer":0,
			"byteLength":6496,
			"byteOffset":1604408,
			"target":34962
		},
		{
			"buffer":0,
			"byteLength":3108,
			"byteOffset":1610904,
			"target":34963
		}
	],
	"samplers":[
		{
			"magFilter":9729,
			"minFilter":9987
		}
	],
	"buffers":[
		{
			"byteLength":1614012,
			"uri":"scene.bin"
		}
	]
}
