{
	"asset":{
		"generator":"Khronos glTF Blender I/O v4.3.47",
		"version":"2.0"
	},
	"extensionsUsed":[
		"KHR_materials_clearcoat",
		"KHR_texture_transform",
		"KHR_materials_specular",
		"KHR_materials_ior"
	],
	"extensionsRequired":[
		"KHR_texture_transform"
	],
	"scene":0,
	"scenes":[
		{
			"name":"Scene",
			"nodes":[
				0
			]
		}
	],
	"nodes":[
		{
			"mesh":0,
			"name":"Cube.006"
		}
	],
	"materials":[
		{
			"doubleSided":true,
			"extensions":{
				"KHR_materials_clearcoat":{
					"clearcoatRoughnessFactor":0
				},
				"KHR_materials_specular":{
					"specularTexture":{
						"extensions":{
							"KHR_texture_transform":{
								"offset":[
									-0.34729634533355874,
									-0.9696155077877391
								],
								"rotation":0.1745329201221466,
								"scale":[
									4,
									2
								]
							}
						},
						"index":0,
						"texCoord":1
					}
				},
				"KHR_materials_ior":{
					"ior":1.4500000476837158
				}
			},
			"name":"Grey horizonta lined fabric",
			"pbrMetallicRoughness":{
				"baseColorTexture":{
					"extensions":{
						"KHR_texture_transform":{
							"offset":[
								-0.34729634533355874,
								-0.9696155077877391
							],
							"rotation":0.1745329201221466,
							"scale":[
								4,
								2
							]
						}
					},
					"index":1,
					"texCoord":1
				},
				"metallicFactor":0,
				"roughnessFactor":0.6000000238418579
			}
		},
		{
			"doubleSided":true,
			"name":"Wood.001",
			"normalTexture":{
				"index":2,
				"texCoord":1
			},
			"pbrMetallicRoughness":{
				"baseColorTexture":{
					"index":3,
					"texCoord":1
				},
				"metallicFactor":0,
				"metallicRoughnessTexture":{
					"index":4,
					"texCoord":1
				}
			}
		}
	],
	"meshes":[
		{
			"name":"Cube.001",
			"primitives":[
				{
					"attributes":{
						"POSITION":0,
						"NORMAL":1,
						"TEXCOORD_0":2,
						"TEXCOORD_1":3,
						"COLOR_0":4,
						"COLOR_1":5
					},
					"indices":6,
					"material":0
				},
				{
					"attributes":{
						"POSITION":7,
						"NORMAL":8,
						"TEXCOORD_0":9,
						"TEXCOORD_1":10,
						"COLOR_0":11,
						"COLOR_1":12
					},
					"indices":13,
					"material":1
				}
			]
		}
	],
	"textures":[
		{
			"sampler":0,
			"source":0
		},
		{
			"sampler":0,
			"source":1
		},
		{
			"sampler":0,
			"source":2
		},
		{
			"sampler":0,
			"source":3
		},
		{
			"sampler":0,
			"source":4
		}
	],
	"images":[
		{
			"mimeType":"image/jpeg",
			"name":"grey curtain fabric spec map",
			"uri":"grey%20curtain%20fabric%20spec%20map.jpg"
		},
		{
			"mimeType":"image/jpeg",
			"name":"grey curtain fabric colour map",
			"uri":"grey%20curtain%20fabric%20colour%20map.jpg"
		},
		{
			"mimeType":"image/jpeg",
			"name":"wood__normal",
			"uri":"wood__normal.jpg"
		},
		{
			"mimeType":"image/jpeg",
			"name":"wood__diffuse",
			"uri":"wood__diffuse.jpg"
		},
		{
			"mimeType":"image/png",
			"name":"wood__glossiness",
			"uri":"wood__glossiness.png"
		}
	],
	"accessors":[
		{
			"bufferView":0,
			"componentType":5126,
			"count":7725,
			"max":[
				1.165902018547058,
				1.7885487079620361,
				1.139715552330017
			],
			"min":[
				-1.3488603830337524,
				-0.11542260646820068,
				-1.3264784812927246
			],
			"type":"VEC3"
		},
		{
			"bufferView":1,
			"componentType":5126,
			"count":7725,
			"type":"VEC3"
		},
		{
			"bufferView":2,
			"componentType":5126,
			"count":7725,
			"type":"VEC2"
		},
		{
			"bufferView":3,
			"componentType":5126,
			"count":7725,
			"type":"VEC2"
		},
		{
			"bufferView":4,
			"componentType":5121,
			"count":7725,
			"normalized":true,
			"type":"VEC4"
		},
		{
			"bufferView":5,
			"componentType":5123,
			"count":7725,
			"normalized":true,
			"type":"VEC4"
		},
		{
			"bufferView":6,
			"componentType":5123,
			"count":32472,
			"type":"SCALAR"
		},
		{
			"bufferView":7,
			"componentType":5126,
			"count":768,
			"max":[
				0.9866678714752197,
				0.05052995681762695,
				0.9243240356445312
			],
			"min":[
				-1.2126439809799194,
				-0.5708457231521606,
				-1.1599980592727661
			],
			"type":"VEC3"
		},
		{
			"bufferView":8,
			"componentType":5126,
			"count":768,
			"type":"VEC3"
		},
		{
			"bufferView":9,
			"componentType":5126,
			"count":768,
			"type":"VEC2"
		},
		{
			"bufferView":10,
			"componentType":5126,
			"count":768,
			"type":"VEC2"
		},
		{
			"bufferView":11,
			"componentType":5121,
			"count":768,
			"normalized":true,
			"type":"VEC4"
		},
		{
			"bufferView":12,
			"componentType":5123,
			"count":768,
			"normalized":true,
			"type":"VEC4"
		},
		{
			"bufferView":13,
			"componentType":5123,
			"count":1488,
			"type":"SCALAR"
		}
	],
	"bufferViews":[
		{
			"buffer":0,
			"byteLength":92700,
			"byteOffset":0,
			"target":34962
		},
		{
			"buffer":0,
			"byteLength":92700,
			"byteOffset":92700,
			"target":34962
		},
		{
			"buffer":0,
			"byteLength":61800,
			"byteOffset":185400,
			"target":34962
		},
		{
			"buffer":0,
			"byteLength":61800,
			"byteOffset":247200,
			"target":34962
		},
		{
			"buffer":0,
			"byteLength":30900,
			"byteOffset":309000,
			"target":34962
		},
		{
			"buffer":0,
			"byteLength":61800,
			"byteOffset":339900,
			"target":34962
		},
		{
			"buffer":0,
			"byteLength":64944,
			"byteOffset":401700,
			"target":34963
		},
		{
			"buffer":0,
			"byteLength":9216,
			"byteOffset":466644,
			"target":34962
		},
		{
			"buffer":0,
			"byteLength":9216,
			"byteOffset":475860,
			"target":34962
		},
		{
			"buffer":0,
			"byteLength":6144,
			"byteOffset":485076,
			"target":34962
		},
		{
			"buffer":0,
			"byteLength":6144,
			"byteOffset":491220,
			"target":34962
		},
		{
			"buffer":0,
			"byteLength":3072,
			"byteOffset":497364,
			"target":34962
		},
		{
			"buffer":0,
			"byteLength":6144,
			"byteOffset":500436,
			"target":34962
		},
		{
			"buffer":0,
			"byteLength":2976,
			"byteOffset":506580,
			"target":34963
		}
	],
	"samplers":[
		{
			"magFilter":9729,
			"minFilter":9987
		}
	],
	"buffers":[
		{
			"byteLength":509556,
			"uri":"scene.bin"
		}
	]
}
