{
	"asset":{
		"generator":"Khronos glTF Blender I/O v4.3.47",
		"version":"2.0"
	},
	"extensionsUsed":[
		"KHR_materials_specular"
	],
	"scene":0,
	"scenes":[
		{
			"name":"Scene",
			"nodes":[
				0,
				1
			]
		}
	],
	"nodes":[
		{
			"name":"Sketchfab Model"
		},
		{
			"mesh":0,
			"name":"Cylinder.001"
		}
	],
	"materials":[
		{
			"doubleSided":true,
			"extensions":{
				"KHR_materials_specular":{
					"specularTexture":{
						"index":0,
						"texCoord":1
					}
				}
			},
			"name":"Plastic white material",
			"normalTexture":{
				"index":1,
				"texCoord":1
			},
			"pbrMetallicRoughness":{
				"baseColorTexture":{
					"index":2,
					"texCoord":1
				},
				"metallicRoughnessTexture":{
					"index":3,
					"texCoord":1
				}
			}
		},
		{
			"doubleSided":true,
			"name":"Mf_Grass",
			"pbrMetallicRoughness":{
				"baseColorTexture":{
					"index":4,
					"texCoord":1
				},
				"metallicFactor":0,
				"roughnessFactor":0.6000000238418579
			}
		}
	],
	"meshes":[
		{
			"name":"Cylinder.001",
			"primitives":[
				{
					"attributes":{
						"POSITION":0,
						"NORMAL":1,
						"TEXCOORD_0":2,
						"TEXCOORD_1":3
					},
					"indices":4,
					"material":0
				},
				{
					"attributes":{
						"POSITION":5,
						"NORMAL":6,
						"TEXCOORD_0":7,
						"TEXCOORD_1":8
					},
					"indices":9,
					"material":1
				}
			]
		}
	],
	"textures":[
		{
			"sampler":0,
			"source":0
		},
		{
			"sampler":0,
			"source":1
		},
		{
			"sampler":0,
			"source":2
		},
		{
			"sampler":0,
			"source":3
		},
		{
			"sampler":0,
			"source":4
		}
	],
	"images":[
		{
			"mimeType":"image/jpeg",
			"name":"plastic_specular",
			"uri":"plastic_specular.jpg"
		},
		{
			"mimeType":"image/jpeg",
			"name":"plastic_normal_opengl",
			"uri":"plastic_normal_opengl.jpg"
		},
		{
			"mimeType":"image/jpeg",
			"name":"Seychelles_Beige_Marble_Tiles_wgildfbv_1K_BaseColor",
			"uri":"Seychelles_Beige_Marble_Tiles_wgildfbv_1K_BaseColor.jpg"
		},
		{
			"mimeType":"image/png",
			"name":"plastic_metallic-plastic_glossiness",
			"uri":"plastic_metallic-plastic_glossiness.png"
		},
		{
			"mimeType":"image/jpeg",
			"name":"Mf_Grass_baseColor",
			"uri":"Mf_Grass_baseColor.jpg"
		}
	],
	"accessors":[
		{
			"bufferView":0,
			"componentType":5126,
			"count":467,
			"max":[
				1,
				0.8687865734100342,
				1
			],
			"min":[
				-1,
				-0.8706839680671692,
				-1
			],
			"type":"VEC3"
		},
		{
			"bufferView":1,
			"componentType":5126,
			"count":467,
			"type":"VEC3"
		},
		{
			"bufferView":2,
			"componentType":5126,
			"count":467,
			"type":"VEC2"
		},
		{
			"bufferView":3,
			"componentType":5126,
			"count":467,
			"type":"VEC2"
		},
		{
			"bufferView":4,
			"componentType":5123,
			"count":1470,
			"type":"SCALAR"
		},
		{
			"bufferView":5,
			"componentType":5126,
			"count":3,
			"max":[
				-0.3032149374485016,
				0.7753359079360962,
				-0.6881979703903198
			],
			"min":[
				-0.33573687076568604,
				0.7650763392448425,
				-0.697097659111023
			],
			"type":"VEC3"
		},
		{
			"bufferView":6,
			"componentType":5126,
			"count":3,
			"type":"VEC3"
		},
		{
			"bufferView":7,
			"componentType":5126,
			"count":3,
			"type":"VEC2"
		},
		{
			"bufferView":8,
			"componentType":5126,
			"count":3,
			"type":"VEC2"
		},
		{
			"bufferView":9,
			"componentType":5123,
			"count":3,
			"type":"SCALAR"
		}
	],
	"bufferViews":[
		{
			"buffer":0,
			"byteLength":5604,
			"byteOffset":0,
			"target":34962
		},
		{
			"buffer":0,
			"byteLength":5604,
			"byteOffset":5604,
			"target":34962
		},
		{
			"buffer":0,
			"byteLength":3736,
			"byteOffset":11208,
			"target":34962
		},
		{
			"buffer":0,
			"byteLength":3736,
			"byteOffset":14944,
			"target":34962
		},
		{
			"buffer":0,
			"byteLength":2940,
			"byteOffset":18680,
			"target":34963
		},
		{
			"buffer":0,
			"byteLength":36,
			"byteOffset":21620,
			"target":34962
		},
		{
			"buffer":0,
			"byteLength":36,
			"byteOffset":21656,
			"target":34962
		},
		{
			"buffer":0,
			"byteLength":24,
			"byteOffset":21692,
			"target":34962
		},
		{
			"buffer":0,
			"byteLength":24,
			"byteOffset":21716,
			"target":34962
		},
		{
			"buffer":0,
			"byteLength":6,
			"byteOffset":21740,
			"target":34963
		}
	],
	"samplers":[
		{
			"magFilter":9729,
			"minFilter":9987
		}
	],
	"buffers":[
		{
			"byteLength":21748,
			"uri":"scene.bin"
		}
	]
}
