{
  "accessors": [
    {
      "bufferView": 2,
      "componentType": 5126,
      "count": 4822,
      "max": [
        0.9223157167434692,
        0.9105392098426819,
        6.502919673919678
      ],
      "min": [
        -0.9105392098426819,
        -0.9105392098426819,
        0.2211456298828125
      ],
      "type": "VEC3"
    },
    {
      "bufferView": 2,
      "byteOffset": 57864,
      "componentType": 5126,
      "count": 4822,
      "max": [
        1.0,
        1.0,
        1.0
      ],
      "min": [
        -1.0,
        -1.0,
        -1.0
      ],
      "type": "VEC3"
    },
    {
      "bufferView": 3,
      "componentType": 5126,
      "count": 4822,
      "max": [
        0.9999277591705322,
        0.9973259568214417,
        0.9999988675117493,
        1.0
      ],
      "min": [
        -0.9999991655349731,
        -1.0,
        -0.9948574304580688,
        1.0
      ],
      "type": "VEC4"
    },
    {
      "bufferView": 1,
      "componentType": 5126,
      "count": 4822,
      "max": [
        0.9565871953964233,
        0.9687108993530273
      ],
      "min": [
        0.41106879711151123,
        0.013859838247299194
      ],
      "type": "VEC2"
    },
    {
      "bufferView": 0,
      "componentType": 5125,
      "count": 22080,
      "type": "SCALAR"
    },
    {
      "bufferView": 2,
      "byteOffset": 115728,
      "componentType": 5126,
      "count": 594,
      "max": [
        0.5024570822715759,
        0.5024572014808655,
        0.5110476016998291
      ],
      "min": [
        -0.5024569034576416,
        -0.5024571418762207,
        -1.003781795501709
      ],
      "type": "VEC3"
    },
    {
      "bufferView": 2,
      "byteOffset": 122856,
      "componentType": 5126,
      "count": 594,
      "max": [
        0.9999721050262451,
        0.9999721050262451,
        1.0
      ],
      "min": [
        -0.9999721050262451,
        -0.9999721050262451,
        -0.5254899263381958
      ],
      "type": "VEC3"
    },
    {
      "bufferView": 3,
      "byteOffset": 77152,
      "componentType": 5126,
      "count": 594,
      "max": [
        0.9784514904022217,
        0.9978042840957642,
        0.19998662173748016,
        1.0
      ],
      "min": [
        -0.6382851004600525,
        -0.9999896287918091,
        -0.9999702572822571,
        1.0
      ],
      "type": "VEC4"
    },
    {
      "bufferView": 1,
      "byteOffset": 38576,
      "componentType": 5126,
      "count": 594,
      "max": [
        0.7190979719161987,
        0.9747503399848938
      ],
      "min": [
        0.5506119132041931,
        0.26566383242607117
      ],
      "type": "VEC2"
    },
    {
      "bufferView": 0,
      "byteOffset": 88320,
      "componentType": 5125,
      "count": 3168,
      "type": "SCALAR"
    },
    {
      "bufferView": 2,
      "byteOffset": 129984,
      "componentType": 5126,
      "count": 1086,
      "max": [
        2.8552865982055664,
        2.855286121368408,
        2.1297407150268555
      ],
      "min": [
        -2.8552873134613037,
        -2.855288028717041,
        -1.443556308746338
      ],
      "type": "VEC3"
    },
    {
      "bufferView": 2,
      "byteOffset": 143016,
      "componentType": 5126,
      "count": 1086,
      "max": [
        0.9901526570320129,
        0.9892882704734802,
        0.94378662109375
      ],
      "min": [
        -1.0,
        -0.9950842261314392,
        -1.0
      ],
      "type": "VEC3"
    },
    {
      "bufferView": 3,
      "byteOffset": 86656,
      "componentType": 5126,
      "count": 1086,
      "max": [
        0.9962916970252991,
        0.9836048483848572,
        0.990294873714447,
        1.0
      ],
      "min": [
        -0.9999806880950928,
        -1.0,
        -0.9437820315361023,
        -1.0
      ],
      "type": "VEC4"
    },
    {
      "bufferView": 1,
      "byteOffset": 43328,
      "componentType": 5126,
      "count": 1086,
      "max": [
        0.5028018355369568,
        0.8205884695053101
      ],
      "min": [
        0.000212126862606965,
        0.000212126862606965
      ],
      "type": "VEC2"
    },
    {
      "bufferView": 0,
      "byteOffset": 100992,
      "componentType": 5125,
      "count": 3816,
      "type": "SCALAR"
    },
    {
      "bufferView": 2,
      "byteOffset": 156048,
      "componentType": 5126,
      "count": 856,
      "max": [
        2.273503065109253,
        2.273503065109253,
        0.9361751079559326
      ],
      "min": [
        -2.2735023498535156,
        -2.2735023498535156,
        -0.08148206025362015
      ],
      "type": "VEC3"
    },
    {
      "bufferView": 2,
      "byteOffset": 166320,
      "componentType": 5126,
      "count": 856,
      "max": [
        1.0,
        1.0,
        1.0
      ],
      "min": [
        -1.0,
        -1.0,
        -1.0
      ],
      "type": "VEC3"
    },
    {
      "bufferView": 3,
      "byteOffset": 104032,
      "componentType": 5126,
      "count": 856,
      "max": [
        0.998154878616333,
        0.9982173442840576,
        1.0,
        1.0
      ],
      "min": [
        -0.998140811920166,
        -0.9982391595840454,
        -1.0,
        1.0
      ],
      "type": "VEC4"
    },
    {
      "bufferView": 1,
      "byteOffset": 52016,
      "componentType": 5126,
      "count": 856,
      "max": [
        0.9895482063293457,
        0.9750263094902039
      ],
      "min": [
        0.07555172592401505,
        0.000212126862606965
      ],
      "type": "VEC2"
    },
    {
      "bufferView": 0,
      "byteOffset": 116256,
      "componentType": 5125,
      "count": 2112,
      "type": "SCALAR"
    }
  ],
  "asset": {
    "extras": {
      "author": "Darren McNerney 3D (https://sketchfab.com/DarrenMcnerney3D)",
      "license": "CC-BY-4.0 (http://creativecommons.org/licenses/by/4.0/)",
      "source": "https://sketchfab.com/3d-models/table-lamp-f2b5d47ffa794652b7bffdfc3d150506",
      "title": "Table Lamp"
    },
    "generator": "Sketchfab-12.65.0",
    "version": "2.0"
  },
  "bufferViews": [
    {
      "buffer": 0,
      "byteLength": 124704,
      "name": "floatBufferViews",
      "target": 34963
    },
    {
      "buffer": 0,
      "byteLength": 58864,
      "byteOffset": 124704,
      "byteStride": 8,
      "name": "floatBufferViews",
      "target": 34962
    },
    {
      "buffer": 0,
      "byteLength": 176592,
      "byteOffset": 183568,
      "byteStride": 12,
      "name": "floatBufferViews",
      "target": 34962
    },
    {
      "buffer": 0,
      "byteLength": 117728,
      "byteOffset": 360160,
      "byteStride": 16,
      "name": "floatBufferViews",
      "target": 34962
    }
  ],
  "buffers": [
    {
      "byteLength": 477888,
      "uri": "scene.bin"
    }
  ],
  "images": [
    {
      "uri": "textures/Scene_-_Root_baseColor.png"
    },
    {
      "uri": "textures/Scene_-_Root_metallicRoughness.png"
    },
    {
      "uri": "textures/Scene_-_Root_emissive.png"
    },
    {
      "uri": "textures/Scene_-_Root_normal.png"
    }
  ],
  "materials": [
    {
      "doubleSided": true,
      "emissiveFactor": [
        1.0,
        1.0,
        1.0
      ],
      "emissiveTexture": {
        "index": 2
      },
      "name": "Scene_-_Root",
      "normalTexture": {
        "index": 3
      },
      "occlusionTexture": {
        "index": 1
      },
      "pbrMetallicRoughness": {
        "baseColorTexture": {
          "index": 0
        },
        "metallicRoughnessTexture": {
          "index": 1
        }
      }
    }
  ],
  "meshes": [
    {
      "name": "Stand_low__0",
      "primitives": [
        {
          "attributes": {
            "NORMAL": 1,
            "POSITION": 0,
            "TANGENT": 2,
            "TEXCOORD_0": 3
          },
          "indices": 4,
          "material": 0,
          "mode": 4
        }
      ]
    },
    {
      "name": "Bulb_low__0",
      "primitives": [
        {
          "attributes": {
            "NORMAL": 6,
            "POSITION": 5,
            "TANGENT": 7,
            "TEXCOORD_0": 8
          },
          "indices": 9,
          "material": 0,
          "mode": 4
        }
      ]
    },
    {
      "name": "Shade_low__0",
      "primitives": [
        {
          "attributes": {
            "NORMAL": 11,
            "POSITION": 10,
            "TANGENT": 12,
            "TEXCOORD_0": 13
          },
          "indices": 14,
          "material": 0,
          "mode": 4
        }
      ]
    },
    {
      "name": "Connector_low__0",
      "primitives": [
        {
          "attributes": {
            "NORMAL": 16,
            "POSITION": 15,
            "TANGENT": 17,
            "TEXCOORD_0": 18
          },
          "indices": 19,
          "material": 0,
          "mode": 4
        }
      ]
    }
  ],
  "nodes": [
    {
      "children": [
        1
      ],
      "matrix": [
        0.08732256293296814,
        0.0,
        0.0,
        0.0,
        0.0,
        1.9389503987492094e-17,
        -0.08732256293296814,
        0.0,
        0.0,
        0.08732256293296814,
        1.9389503987492094e-17,
        0.0,
        0.0,
        0.0,
        0.0,
        1.0
      ],
      "name": "Sketchfab_model"
    },
    {
      "children": [
        2
      ],
      "matrix": [
        0.009999999776482582,
        0.0,
        0.0,
        0.0,
        0.0,
        0.0,
        0.009999999776482582,
        0.0,
        0.0,
        -0.009999999776482582,
        0.0,
        0.0,
        0.0,
        0.0,
        0.0,
        1.0
      ],
      "name": "1e95b3b9b8db48339a98e9f9f642c6a9.fbx"
    },
    {
      "children": [
        3,
        5,
        7,
        9
      ],
      "name": "RootNode"
    },
    {
      "children": [
        4
      ],
      "matrix": [
        100.0,
        0.0,
        0.0,
        0.0,
        0.0,
        -1.629206793918314e-05,
        -99.99999999999868,
        0.0,
        0.0,
        99.99999999999868,
        -1.629206793918314e-05,
        0.0,
        0.0,
        -21.93168067932129,
        0.0,
        1.0
      ],
      "name": "Stand_low"
    },
    {
      "mesh": 0,
      "name": "Stand_low__0"
    },
    {
      "children": [
        6
      ],
      "matrix": [
        100.0,
        0.0,
        0.0,
        0.0,
        0.0,
        -1.629206793918314e-05,
        -99.99999999999868,
        0.0,
        0.0,
        99.99999999999868,
        -1.629206793918314e-05,
        0.0,
        0.0,
        694.5513305664063,
        3.591843415051699e-05,
        1.0
      ],
      "name": "Bulb_low"
    },
    {
      "mesh": 1,
      "name": "Bulb_low__0"
    },
    {
      "children": [
        8
      ],
      "matrix": [
        100.0,
        0.0,
        0.0,
        0.0,
        0.0,
        -1.629206793918314e-05,
        -99.99999999999868,
        0.0,
        0.0,
        99.99999999999868,
        -1.629206793918314e-05,
        0.0,
        1.4495910363621078e-05,
        709.6144409179688,
        1.944601535797119e-05,
        1.0
      ],
      "name": "Shade_low"
    },
    {
      "mesh": 2,
      "name": "Shade_low__0"
    },
    {
      "children": [
        10
      ],
      "matrix": [
        100.0,
        0.0,
        0.0,
        0.0,
        0.0,
        -1.629206793918314e-05,
        -99.99999999999868,
        0.0,
        0.0,
        99.99999999999868,
        -1.629206793918314e-05,
        0.0,
        0.0,
        594.050048828125,
        3.591843415051699e-05,
        1.0
      ],
      "name": "Connector_low"
    },
    {
      "mesh": 3,
      "name": "Connector_low__0"
    }
  ],
  "samplers": [
    {
      "magFilter": 9729,
      "minFilter": 9987,
      "wrapS": 10497,
      "wrapT": 10497
    }
  ],
  "scene": 0,
  "scenes": [
    {
      "name": "Sketchfab_Scene",
      "nodes": [
        0
      ]
    }
  ],
  "textures": [
    {
      "sampler": 0,
      "source": 0
    },
    {
      "sampler": 0,
      "source": 1
    },
    {
      "sampler": 0,
      "source": 2
    },
    {
      "sampler": 0,
      "source": 3
    }
  ]
}
