{
	"asset":{
		"generator":"Khronos glTF Blender I/O v4.3.47",
		"version":"2.0"
	},
	"extensionsUsed":[
		"KHR_materials_transmission",
		"KHR_materials_ior"
	],
	"scene":0,
	"scenes":[
		{
			"name":"Scene",
			"nodes":[
				0
			]
		}
	],
	"nodes":[
		{
			"mesh":0,
			"name":"Cube.002"
		}
	],
	"materials":[
		{
			"doubleSided":true,
			"extensions":{
				"KHR_materials_transmission":{
					"transmissionFactor":1
				},
				"KHR_materials_ior":{
					"ior":1.4500000476837158
				}
			},
			"name":"Material",
			"pbrMetallicRoughness":{
				"metallicFactor":0,
				"roughnessFactor":0
			}
		},
		{
			"doubleSided":true,
			"name":"Simple wood",
			"normalTexture":{
				"index":0,
				"texCoord":1
			},
			"pbrMetallicRoughness":{
				"baseColorTexture":{
					"index":1,
					"texCoord":1
				},
				"metallicFactor":0,
				"roughnessFactor":0.6194379925727844
			}
		},
		{
			"doubleSided":true,
			"name":"Architectural Glass"
		}
	],
	"meshes":[
		{
			"name":"Cube.001",
			"primitives":[
				{
					"attributes":{
						"POSITION":0,
						"NORMAL":1,
						"TEXCOORD_0":2,
						"TEXCOORD_1":3
					},
					"indices":4,
					"material":0
				},
				{
					"attributes":{
						"POSITION":5,
						"NORMAL":6,
						"TEXCOORD_0":7,
						"TEXCOORD_1":8
					},
					"indices":9,
					"material":1
				},
				{
					"attributes":{
						"POSITION":10,
						"NORMAL":11,
						"TEXCOORD_0":12,
						"TEXCOORD_1":13
					},
					"indices":14,
					"material":2
				}
			]
		}
	],
	"textures":[
		{
			"sampler":0,
			"source":0
		},
		{
			"sampler":0,
			"source":1
		}
	],
	"images":[
		{
			"mimeType":"image/jpeg",
			"name":"wood_normal",
			"uri":"wood_normal.jpg"
		},
		{
			"mimeType":"image/jpeg",
			"name":"Brick_Bond_Walnut_Parquet_ucmicfjl_1K_BaseColor",
			"uri":"Brick_Bond_Walnut_Parquet_ucmicfjl_1K_BaseColor.jpg"
		}
	],
	"accessors":[
		{
			"bufferView":0,
			"componentType":5126,
			"count":8,
			"max":[
				4.434127330780029,
				2.53855562210083,
				2.494161367416382
			],
			"min":[
				-4.385420799255371,
				0.27874279022216797,
				-2.494161367416382
			],
			"type":"VEC3"
		},
		{
			"bufferView":1,
			"componentType":5126,
			"count":8,
			"type":"VEC3"
		},
		{
			"bufferView":2,
			"componentType":5126,
			"count":8,
			"type":"VEC2"
		},
		{
			"bufferView":3,
			"componentType":5126,
			"count":8,
			"type":"VEC2"
		},
		{
			"bufferView":4,
			"componentType":5123,
			"count":12,
			"type":"SCALAR"
		},
		{
			"bufferView":5,
			"componentType":5126,
			"count":88,
			"max":[
				4.698958873748779,
				2.8423428535461426,
				2.494161367416382
			],
			"min":[
				-4.698958873748779,
				-0.28248918056488037,
				-2.494161367416382
			],
			"type":"VEC3"
		},
		{
			"bufferView":6,
			"componentType":5126,
			"count":88,
			"type":"VEC3"
		},
		{
			"bufferView":7,
			"componentType":5126,
			"count":88,
			"type":"VEC2"
		},
		{
			"bufferView":8,
			"componentType":5126,
			"count":88,
			"type":"VEC2"
		},
		{
			"bufferView":9,
			"componentType":5123,
			"count":204,
			"type":"SCALAR"
		},
		{
			"bufferView":10,
			"componentType":5126,
			"count":16,
			"max":[
				4.492457866668701,
				2.5815634727478027,
				2.494161367416382
			],
			"min":[
				-4.443750858306885,
				0.2343367338180542,
				-2.494161367416382
			],
			"type":"VEC3"
		},
		{
			"bufferView":11,
			"componentType":5126,
			"count":16,
			"type":"VEC3"
		},
		{
			"bufferView":12,
			"componentType":5126,
			"count":16,
			"type":"VEC2"
		},
		{
			"bufferView":13,
			"componentType":5126,
			"count":16,
			"type":"VEC2"
		},
		{
			"bufferView":14,
			"componentType":5123,
			"count":48,
			"type":"SCALAR"
		}
	],
	"bufferViews":[
		{
			"buffer":0,
			"byteLength":96,
			"byteOffset":0,
			"target":34962
		},
		{
			"buffer":0,
			"byteLength":96,
			"byteOffset":96,
			"target":34962
		},
		{
			"buffer":0,
			"byteLength":64,
			"byteOffset":192,
			"target":34962
		},
		{
			"buffer":0,
			"byteLength":64,
			"byteOffset":256,
			"target":34962
		},
		{
			"buffer":0,
			"byteLength":24,
			"byteOffset":320,
			"target":34963
		},
		{
			"buffer":0,
			"byteLength":1056,
			"byteOffset":344,
			"target":34962
		},
		{
			"buffer":0,
			"byteLength":1056,
			"byteOffset":1400,
			"target":34962
		},
		{
			"buffer":0,
			"byteLength":704,
			"byteOffset":2456,
			"target":34962
		},
		{
			"buffer":0,
			"byteLength":704,
			"byteOffset":3160,
			"target":34962
		},
		{
			"buffer":0,
			"byteLength":408,
			"byteOffset":3864,
			"target":34963
		},
		{
			"buffer":0,
			"byteLength":192,
			"byteOffset":4272,
			"target":34962
		},
		{
			"buffer":0,
			"byteLength":192,
			"byteOffset":4464,
			"target":34962
		},
		{
			"buffer":0,
			"byteLength":128,
			"byteOffset":4656,
			"target":34962
		},
		{
			"buffer":0,
			"byteLength":128,
			"byteOffset":4784,
			"target":34962
		},
		{
			"buffer":0,
			"byteLength":96,
			"byteOffset":4912,
			"target":34963
		}
	],
	"samplers":[
		{
			"magFilter":9729,
			"minFilter":9987
		}
	],
	"buffers":[
		{
			"byteLength":5008,
			"uri":"scene.bin"
		}
	]
}
