{
	"asset":{
		"generator":"Khronos glTF Blender I/O v4.3.47",
		"version":"2.0"
	},
	"scene":0,
	"scenes":[
		{
			"name":"Scene",
			"nodes":[
				0
			]
		}
	],
	"nodes":[
		{
			"mesh":0,
			"name":"Cylinder"
		}
	],
	"materials":[
		{
			"doubleSided":true,
			"name":"Wood",
			"normalTexture":{
				"index":0,
				"texCoord":1
			},
			"pbrMetallicRoughness":{
				"baseColorTexture":{
					"index":1,
					"texCoord":1
				},
				"metallicFactor":0,
				"metallicRoughnessTexture":{
					"index":2,
					"texCoord":1
				}
			}
		},
		{
			"doubleSided":true,
			"name":"Material",
			"pbrMetallicRoughness":{
				"baseColorTexture":{
					"index":3,
					"texCoord":1
				},
				"metallicFactor":0,
				"roughnessFactor":0.6641685962677002
			}
		},
		{
			"doubleSided":true,
			"name":"Material.001",
			"pbrMetallicRoughness":{
				"baseColorTexture":{
					"index":4,
					"texCoord":1
				},
				"metallicFactor":0,
				"roughnessFactor":0.6833333373069763
			}
		},
		{
			"doubleSided":true,
			"name":"Material.003",
			"pbrMetallicRoughness":{
				"baseColorTexture":{
					"index":5,
					"texCoord":1
				},
				"metallicFactor":0,
				"roughnessFactor":0.6277778148651123
			}
		}
	],
	"meshes":[
		{
			"name":"Cylinder",
			"primitives":[
				{
					"attributes":{
						"POSITION":0,
						"NORMAL":1,
						"TEXCOORD_0":2,
						"TEXCOORD_1":3
					},
					"indices":4,
					"material":0
				},
				{
					"attributes":{
						"POSITION":5,
						"NORMAL":6,
						"TEXCOORD_0":7,
						"TEXCOORD_1":8
					},
					"indices":9,
					"material":1
				},
				{
					"attributes":{
						"POSITION":10,
						"NORMAL":11,
						"TEXCOORD_0":12,
						"TEXCOORD_1":13
					},
					"indices":14,
					"material":2
				},
				{
					"attributes":{
						"POSITION":15,
						"NORMAL":16,
						"TEXCOORD_0":17,
						"TEXCOORD_1":18
					},
					"indices":19,
					"material":3
				}
			]
		}
	],
	"textures":[
		{
			"sampler":0,
			"source":0
		},
		{
			"sampler":0,
			"source":1
		},
		{
			"sampler":0,
			"source":2
		},
		{
			"sampler":0,
			"source":3
		},
		{
			"sampler":0,
			"source":3
		},
		{
			"sampler":0,
			"source":4
		}
	],
	"images":[
		{
			"mimeType":"image/jpeg",
			"name":"wood__normal",
			"uri":"wood__normal.jpg"
		},
		{
			"mimeType":"image/jpeg",
			"name":"wood__diffuse",
			"uri":"wood__diffuse.jpg"
		},
		{
			"mimeType":"image/png",
			"name":"wood__glossiness",
			"uri":"wood__glossiness.png"
		},
		{
			"mimeType":"image/jpeg",
			"name":"Furniture_Fabric_sjfvcbtc_1K_BaseColor",
			"uri":"Furniture_Fabric_sjfvcbtc_1K_BaseColor.jpg"
		},
		{
			"mimeType":"image/jpeg",
			"name":"Furniture_Fabric_sjfvcbtc_1K_Roughness",
			"uri":"Furniture_Fabric_sjfvcbtc_1K_Roughness.jpg"
		}
	],
	"accessors":[
		{
			"bufferView":0,
			"componentType":5126,
			"count":544,
			"max":[
				1.6950571537017822,
				-1.9513366222381592,
				1.5824429988861084
			],
			"min":[
				-1.6950571537017822,
				-2.8301477432250977,
				-1.5824429988861084
			],
			"type":"VEC3"
		},
		{
			"bufferView":1,
			"componentType":5126,
			"count":544,
			"type":"VEC3"
		},
		{
			"bufferView":2,
			"componentType":5126,
			"count":544,
			"type":"VEC2"
		},
		{
			"bufferView":3,
			"componentType":5126,
			"count":544,
			"type":"VEC2"
		},
		{
			"bufferView":4,
			"componentType":5123,
			"count":1488,
			"type":"SCALAR"
		},
		{
			"bufferView":5,
			"componentType":5126,
			"count":2974,
			"max":[
				2.2150089740753174,
				1.7691224813461304,
				1.9605364799499512
			],
			"min":[
				-2.2153801918029785,
				-2.3301351070404053,
				-2.4577748775482178
			],
			"type":"VEC3"
		},
		{
			"bufferView":6,
			"componentType":5126,
			"count":2974,
			"type":"VEC3"
		},
		{
			"bufferView":7,
			"componentType":5126,
			"count":2974,
			"type":"VEC2"
		},
		{
			"bufferView":8,
			"componentType":5126,
			"count":2974,
			"type":"VEC2"
		},
		{
			"bufferView":9,
			"componentType":5123,
			"count":12672,
			"type":"SCALAR"
		},
		{
			"bufferView":10,
			"componentType":5126,
			"count":4063,
			"max":[
				1.7802492380142212,
				-0.5856822729110718,
				2.1930549144744873
			],
			"min":[
				-1.7130640745162964,
				-2.009636878967285,
				-1.2547943592071533
			],
			"type":"VEC3"
		},
		{
			"bufferView":11,
			"componentType":5126,
			"count":4063,
			"type":"VEC3"
		},
		{
			"bufferView":12,
			"componentType":5126,
			"count":4063,
			"type":"VEC2"
		},
		{
			"bufferView":13,
			"componentType":5126,
			"count":4063,
			"type":"VEC2"
		},
		{
			"bufferView":14,
			"componentType":5123,
			"count":21684,
			"type":"SCALAR"
		},
		{
			"bufferView":15,
			"componentType":5126,
			"count":1890,
			"max":[
				1.7116543054580688,
				0.9063462615013123,
				-0.289591908454895
			],
			"min":[
				-0.016608119010925293,
				-0.7507787346839905,
				-1.1368741989135742
			],
			"type":"VEC3"
		},
		{
			"bufferView":16,
			"componentType":5126,
			"count":1890,
			"type":"VEC3"
		},
		{
			"bufferView":17,
			"componentType":5126,
			"count":1890,
			"type":"VEC2"
		},
		{
			"bufferView":18,
			"componentType":5126,
			"count":1890,
			"type":"VEC2"
		},
		{
			"bufferView":19,
			"componentType":5123,
			"count":9168,
			"type":"SCALAR"
		}
	],
	"bufferViews":[
		{
			"buffer":0,
			"byteLength":6528,
			"byteOffset":0,
			"target":34962
		},
		{
			"buffer":0,
			"byteLength":6528,
			"byteOffset":6528,
			"target":34962
		},
		{
			"buffer":0,
			"byteLength":4352,
			"byteOffset":13056,
			"target":34962
		},
		{
			"buffer":0,
			"byteLength":4352,
			"byteOffset":17408,
			"target":34962
		},
		{
			"buffer":0,
			"byteLength":2976,
			"byteOffset":21760,
			"target":34963
		},
		{
			"buffer":0,
			"byteLength":35688,
			"byteOffset":24736,
			"target":34962
		},
		{
			"buffer":0,
			"byteLength":35688,
			"byteOffset":60424,
			"target":34962
		},
		{
			"buffer":0,
			"byteLength":23792,
			"byteOffset":96112,
			"target":34962
		},
		{
			"buffer":0,
			"byteLength":23792,
			"byteOffset":119904,
			"target":34962
		},
		{
			"buffer":0,
			"byteLength":25344,
			"byteOffset":143696,
			"target":34963
		},
		{
			"buffer":0,
			"byteLength":48756,
			"byteOffset":169040,
			"target":34962
		},
		{
			"buffer":0,
			"byteLength":48756,
			"byteOffset":217796,
			"target":34962
		},
		{
			"buffer":0,
			"byteLength":32504,
			"byteOffset":266552,
			"target":34962
		},
		{
			"buffer":0,
			"byteLength":32504,
			"byteOffset":299056,
			"target":34962
		},
		{
			"buffer":0,
			"byteLength":43368,
			"byteOffset":331560,
			"target":34963
		},
		{
			"buffer":0,
			"byteLength":22680,
			"byteOffset":374928,
			"target":34962
		},
		{
			"buffer":0,
			"byteLength":22680,
			"byteOffset":397608,
			"target":34962
		},
		{
			"buffer":0,
			"byteLength":15120,
			"byteOffset":420288,
			"target":34962
		},
		{
			"buffer":0,
			"byteLength":15120,
			"byteOffset":435408,
			"target":34962
		},
		{
			"buffer":0,
			"byteLength":18336,
			"byteOffset":450528,
			"target":34963
		}
	],
	"samplers":[
		{
			"magFilter":9729,
			"minFilter":9987
		}
	],
	"buffers":[
		{
			"byteLength":468864,
			"uri":"scene.bin"
		}
	]
}
