{
	"asset":{
		"generator":"Khronos glTF Blender I/O v4.3.47",
		"version":"2.0"
	},
	"extensionsUsed":[
		"KHR_materials_specular",
		"KHR_materials_ior",
		"KHR_texture_transform"
	],
	"extensionsRequired":[
		"KHR_texture_transform"
	],
	"scene":0,
	"scenes":[
		{
			"name":"Scene",
			"nodes":[
				0
			]
		}
	],
	"nodes":[
		{
			"mesh":0,
			"name":"Cube.004"
		}
	],
	"materials":[
		{
			"doubleSided":true,
			"extensions":{
				"KHR_materials_specular":{
					"specularFactor":0.4000000059604645
				},
				"KHR_materials_ior":{
					"ior":1.4500000476837158
				}
			},
			"name":"Leather Fabric Cream - 70",
			"normalTexture":{
				"extensions":{
					"KHR_texture_transform":{
						"offset":[
							-9.99999999999999,
							1.0000004371139
						],
						"rotation":1.5707963705062866,
						"scale":[
							10,
							10
						]
					}
				},
				"index":0,
				"texCoord":1
			},
			"pbrMetallicRoughness":{
				"baseColorTexture":{
					"index":1,
					"texCoord":1
				},
				"metallicFactor":0.20000000298023224,
				"metallicRoughnessTexture":{
					"index":2,
					"texCoord":1
				}
			}
		},
		{
			"doubleSided":true,
			"extensions":{
				"KHR_materials_specular":{
					"specularFactor":0.4000000059604645
				},
				"KHR_materials_ior":{
					"ior":1.4500000476837158
				}
			},
			"name":"Wood 124 Dark",
			"normalTexture":{
				"extensions":{
					"KHR_texture_transform":{
						"offset":[
							0,
							-4
						],
						"scale":[
							5,
							5
						]
					}
				},
				"index":3,
				"scale":0.5,
				"texCoord":1
			},
			"pbrMetallicRoughness":{
				"baseColorTexture":{
					"extensions":{
						"KHR_texture_transform":{
							"offset":[
								0,
								-2
							],
							"scale":[
								3,
								3
							]
						}
					},
					"index":4,
					"texCoord":1
				},
				"metallicFactor":0.20000000298023224,
				"metallicRoughnessTexture":{
					"extensions":{
						"KHR_texture_transform":{
							"offset":[
								0,
								-2
							],
							"scale":[
								3,
								3
							]
						}
					},
					"index":5,
					"texCoord":1
				}
			}
		}
	],
	"meshes":[
		{
			"name":"Cube.005",
			"primitives":[
				{
					"attributes":{
						"POSITION":0,
						"NORMAL":1,
						"TEXCOORD_0":2,
						"TEXCOORD_1":3
					},
					"indices":4,
					"material":0
				},
				{
					"attributes":{
						"POSITION":5,
						"NORMAL":6,
						"TEXCOORD_0":7,
						"TEXCOORD_1":8
					},
					"indices":9,
					"material":1
				}
			]
		}
	],
	"textures":[
		{
			"sampler":0,
			"source":0
		},
		{
			"sampler":0,
			"source":1
		},
		{
			"sampler":0,
			"source":2
		},
		{
			"sampler":0,
			"source":3
		},
		{
			"sampler":0,
			"source":4
		},
		{
			"sampler":0,
			"source":5
		}
	],
	"images":[
		{
			"mimeType":"image/jpeg",
			"name":"bump_reticular_05k",
			"uri":"bump_reticular_05k.jpg"
		},
		{
			"mimeType":"image/jpeg",
			"name":"fabric-70-cream_diffuse",
			"uri":"fabric-70-cream_diffuse.jpg"
		},
		{
			"mimeType":"image/png",
			"name":"fabric-70_roughness",
			"uri":"fabric-70_roughness.png"
		},
		{
			"mimeType":"image/jpeg",
			"name":"wood-generic_bump",
			"uri":"wood-generic_bump.jpg"
		},
		{
			"mimeType":"image/jpeg",
			"name":"wood-diffuse_124-dark",
			"uri":"wood-diffuse_124-dark.jpg"
		},
		{
			"mimeType":"image/png",
			"name":"wood-smooth_124",
			"uri":"wood-smooth_124.png"
		}
	],
	"accessors":[
		{
			"bufferView":0,
			"componentType":5126,
			"count":4436,
			"max":[
				1.6386052370071411,
				1.8379485607147217,
				1.6139538288116455
			],
			"min":[
				-1.533573865890503,
				-1.0270835161209106,
				-1.399863362312317
			],
			"type":"VEC3"
		},
		{
			"bufferView":1,
			"componentType":5126,
			"count":4436,
			"type":"VEC3"
		},
		{
			"bufferView":2,
			"componentType":5126,
			"count":4436,
			"type":"VEC2"
		},
		{
			"bufferView":3,
			"componentType":5126,
			"count":4436,
			"type":"VEC2"
		},
		{
			"bufferView":4,
			"componentType":5123,
			"count":18438,
			"type":"SCALAR"
		},
		{
			"bufferView":5,
			"componentType":5126,
			"count":892,
			"max":[
				1.4846556186676025,
				-0.7677838206291199,
				1.5585893392562866
			],
			"min":[
				-1.442995309829712,
				-1.8831510543823242,
				-1.539947509765625
			],
			"type":"VEC3"
		},
		{
			"bufferView":6,
			"componentType":5126,
			"count":892,
			"type":"VEC3"
		},
		{
			"bufferView":7,
			"componentType":5126,
			"count":892,
			"type":"VEC2"
		},
		{
			"bufferView":8,
			"componentType":5126,
			"count":892,
			"type":"VEC2"
		},
		{
			"bufferView":9,
			"componentType":5123,
			"count":1836,
			"type":"SCALAR"
		}
	],
	"bufferViews":[
		{
			"buffer":0,
			"byteLength":53232,
			"byteOffset":0,
			"target":34962
		},
		{
			"buffer":0,
			"byteLength":53232,
			"byteOffset":53232,
			"target":34962
		},
		{
			"buffer":0,
			"byteLength":35488,
			"byteOffset":106464,
			"target":34962
		},
		{
			"buffer":0,
			"byteLength":35488,
			"byteOffset":141952,
			"target":34962
		},
		{
			"buffer":0,
			"byteLength":36876,
			"byteOffset":177440,
			"target":34963
		},
		{
			"buffer":0,
			"byteLength":10704,
			"byteOffset":214316,
			"target":34962
		},
		{
			"buffer":0,
			"byteLength":10704,
			"byteOffset":225020,
			"target":34962
		},
		{
			"buffer":0,
			"byteLength":7136,
			"byteOffset":235724,
			"target":34962
		},
		{
			"buffer":0,
			"byteLength":7136,
			"byteOffset":242860,
			"target":34962
		},
		{
			"buffer":0,
			"byteLength":3672,
			"byteOffset":249996,
			"target":34963
		}
	],
	"samplers":[
		{
			"magFilter":9729,
			"minFilter":9987
		}
	],
	"buffers":[
		{
			"byteLength":253668,
			"uri":"scene.bin"
		}
	]
}
