{
	"asset":{
		"generator":"Khronos glTF Blender I/O v4.3.47",
		"version":"2.0"
	},
	"extensionsUsed":[
		"KHR_materials_clearcoat"
	],
	"scene":0,
	"scenes":[
		{
			"name":"Scene",
			"nodes":[
				0
			]
		}
	],
	"nodes":[
		{
			"mesh":0,
			"name":"Cube.004"
		}
	],
	"materials":[
		{
			"doubleSided":true,
			"name":"Material.002",
			"pbrMetallicRoughness":{
				"baseColorTexture":{
					"index":0,
					"texCoord":1
				},
				"metallicFactor":0,
				"roughnessFactor":0.5
			}
		},
		{
			"doubleSided":true,
			"extensions":{
				"KHR_materials_clearcoat":{
					"clearcoatFactor":0.274678111076355
				}
			},
			"name":"Material.001",
			"pbrMetallicRoughness":{
				"baseColorFactor":[
					0.03602500259876251,
					0.03602500259876251,
					0.03602500259876251,
					1
				],
				"metallicFactor":0.5879828333854675,
				"roughnessFactor":0.6569086313247681
			}
		}
	],
	"meshes":[
		{
			"name":"Cube.005",
			"primitives":[
				{
					"attributes":{
						"POSITION":0,
						"NORMAL":1,
						"TEXCOORD_0":2,
						"TEXCOORD_1":3
					},
					"indices":4,
					"material":0
				},
				{
					"attributes":{
						"POSITION":5,
						"NORMAL":6,
						"TEXCOORD_0":7,
						"TEXCOORD_1":8
					},
					"indices":9,
					"material":1
				}
			]
		}
	],
	"textures":[
		{
			"sampler":0,
			"source":0
		}
	],
	"images":[
		{
			"mimeType":"image/jpeg",
			"name":"Fabric_Clothes_Cotton_Plain_Weave_White_xfeced0qx_1K_BaseColor",
			"uri":"Fabric_Clothes_Cotton_Plain_Weave_White_xfeced0qx_1K_BaseColor.jpg"
		}
	],
	"accessors":[
		{
			"bufferView":0,
			"componentType":5126,
			"count":4506,
			"max":[
				1.616042137145996,
				1.8297324180603027,
				1.6232281923294067
			],
			"min":[
				-1.5399925708770752,
				-1.0238120555877686,
				-1.4015675783157349
			],
			"type":"VEC3"
		},
		{
			"bufferView":1,
			"componentType":5126,
			"count":4506,
			"type":"VEC3"
		},
		{
			"bufferView":2,
			"componentType":5126,
			"count":4506,
			"type":"VEC2"
		},
		{
			"bufferView":3,
			"componentType":5126,
			"count":4506,
			"type":"VEC2"
		},
		{
			"bufferView":4,
			"componentType":5123,
			"count":18438,
			"type":"SCALAR"
		},
		{
			"bufferView":5,
			"componentType":5126,
			"count":698,
			"max":[
				1.4822590351104736,
				-0.7601033449172974,
				1.5565674304962158
			],
			"min":[
				-1.4408372640609741,
				-1.8698489665985107,
				-1.5395290851593018
			],
			"type":"VEC3"
		},
		{
			"bufferView":6,
			"componentType":5126,
			"count":698,
			"type":"VEC3"
		},
		{
			"bufferView":7,
			"componentType":5126,
			"count":698,
			"type":"VEC2"
		},
		{
			"bufferView":8,
			"componentType":5126,
			"count":698,
			"type":"VEC2"
		},
		{
			"bufferView":9,
			"componentType":5123,
			"count":1836,
			"type":"SCALAR"
		}
	],
	"bufferViews":[
		{
			"buffer":0,
			"byteLength":54072,
			"byteOffset":0,
			"target":34962
		},
		{
			"buffer":0,
			"byteLength":54072,
			"byteOffset":54072,
			"target":34962
		},
		{
			"buffer":0,
			"byteLength":36048,
			"byteOffset":108144,
			"target":34962
		},
		{
			"buffer":0,
			"byteLength":36048,
			"byteOffset":144192,
			"target":34962
		},
		{
			"buffer":0,
			"byteLength":36876,
			"byteOffset":180240,
			"target":34963
		},
		{
			"buffer":0,
			"byteLength":8376,
			"byteOffset":217116,
			"target":34962
		},
		{
			"buffer":0,
			"byteLength":8376,
			"byteOffset":225492,
			"target":34962
		},
		{
			"buffer":0,
			"byteLength":5584,
			"byteOffset":233868,
			"target":34962
		},
		{
			"buffer":0,
			"byteLength":5584,
			"byteOffset":239452,
			"target":34962
		},
		{
			"buffer":0,
			"byteLength":3672,
			"byteOffset":245036,
			"target":34963
		}
	],
	"samplers":[
		{
			"magFilter":9729,
			"minFilter":9987
		}
	],
	"buffers":[
		{
			"byteLength":248708,
			"uri":"scene.bin"
		}
	]
}
