{
	"asset":{
		"generator":"Khronos glTF Blender I/O v4.3.47",
		"version":"2.0"
	},
	"extensionsUsed":[
		"KHR_materials_specular"
	],
	"scene":0,
	"scenes":[
		{
			"name":"Scene",
			"nodes":[
				0,
				1
			]
		}
	],
	"nodes":[
		{
			"mesh":0,
			"name":"Cylinder",
			"scale":[
				1,
				0.8706839680671692,
				1
			]
		},
		{
			"name":"Sketchfab Model",
			"scale":[
				0.027181124314665794,
				0.02718113176524639,
				0.02718113176524639
			],
			"translation":[
				0,
				0.7578578591346741,
				0
			]
		}
	],
	"materials":[
		{
			"doubleSided":true,
			"extensions":{
				"KHR_materials_specular":{
					"specularTexture":{
						"index":0,
						"texCoord":1
					}
				}
			},
			"name":"Plastic white material",
			"normalTexture":{
				"index":1,
				"texCoord":1
			},
			"pbrMetallicRoughness":{
				"baseColorTexture":{
					"index":2,
					"texCoord":1
				},
				"metallicRoughnessTexture":{
					"index":3,
					"texCoord":1
				}
			}
		},
		{
			"doubleSided":true,
			"name":"Mf_Petal",
			"pbrMetallicRoughness":{
				"baseColorTexture":{
					"index":4,
					"texCoord":1
				},
				"metallicFactor":0,
				"roughnessFactor":0.6000000238418579
			}
		},
		{
			"doubleSided":true,
			"name":"Mf_Grass",
			"pbrMetallicRoughness":{
				"baseColorTexture":{
					"index":5,
					"texCoord":1
				},
				"metallicFactor":0,
				"roughnessFactor":0.6000000238418579
			}
		},
		{
			"doubleSided":true,
			"name":"Mf_Stem",
			"pbrMetallicRoughness":{
				"baseColorTexture":{
					"index":6,
					"texCoord":1
				},
				"metallicFactor":0,
				"roughnessFactor":0.6000000238418579
			}
		},
		{
			"doubleSided":true,
			"name":"Mf_Leaf",
			"pbrMetallicRoughness":{
				"baseColorTexture":{
					"index":7,
					"texCoord":1
				},
				"metallicFactor":0,
				"roughnessFactor":0.6000000238418579
			}
		},
		{
			"doubleSided":true,
			"name":"Mf_Stigma",
			"pbrMetallicRoughness":{
				"baseColorTexture":{
					"index":8,
					"texCoord":1
				},
				"metallicFactor":0,
				"roughnessFactor":0.6000000238418579
			}
		}
	],
	"meshes":[
		{
			"name":"Cylinder",
			"primitives":[
				{
					"attributes":{
						"POSITION":0,
						"NORMAL":1,
						"TEXCOORD_0":2,
						"TEXCOORD_1":3
					},
					"indices":4,
					"material":0
				},
				{
					"attributes":{
						"POSITION":5,
						"NORMAL":6,
						"TEXCOORD_0":7,
						"TEXCOORD_1":8
					},
					"indices":9,
					"material":1
				},
				{
					"attributes":{
						"POSITION":10,
						"NORMAL":11,
						"TEXCOORD_0":12,
						"TEXCOORD_1":13
					},
					"indices":14,
					"material":2
				},
				{
					"attributes":{
						"POSITION":15,
						"NORMAL":16,
						"TEXCOORD_0":17,
						"TEXCOORD_1":18
					},
					"indices":19,
					"material":3
				},
				{
					"attributes":{
						"POSITION":20,
						"NORMAL":21,
						"TEXCOORD_0":22,
						"TEXCOORD_1":23
					},
					"indices":24,
					"material":4
				},
				{
					"attributes":{
						"POSITION":25,
						"NORMAL":26,
						"TEXCOORD_0":27,
						"TEXCOORD_1":28
					},
					"indices":29,
					"material":5
				}
			]
		}
	],
	"textures":[
		{
			"sampler":0,
			"source":0
		},
		{
			"sampler":0,
			"source":1
		},
		{
			"sampler":0,
			"source":2
		},
		{
			"sampler":0,
			"source":3
		},
		{
			"sampler":0,
			"source":4
		},
		{
			"sampler":0,
			"source":5
		},
		{
			"sampler":0,
			"source":6
		},
		{
			"sampler":0,
			"source":7
		},
		{
			"sampler":0,
			"source":8
		}
	],
	"images":[
		{
			"mimeType":"image/jpeg",
			"name":"plastic_specular",
			"uri":"plastic_specular.jpg"
		},
		{
			"mimeType":"image/jpeg",
			"name":"plastic_normal_opengl",
			"uri":"plastic_normal_opengl.jpg"
		},
		{
			"mimeType":"image/jpeg",
			"name":"plastic07_diffuse",
			"uri":"plastic07_diffuse.jpg"
		},
		{
			"mimeType":"image/png",
			"name":"plastic_metallic-plastic_glossiness",
			"uri":"plastic_metallic-plastic_glossiness.png"
		},
		{
			"mimeType":"image/jpeg",
			"name":"Mf_Petal_baseColor",
			"uri":"Mf_Petal_baseColor.jpg"
		},
		{
			"mimeType":"image/jpeg",
			"name":"Mf_Grass_baseColor",
			"uri":"Mf_Grass_baseColor.jpg"
		},
		{
			"mimeType":"image/jpeg",
			"name":"Mf_Stem_baseColor",
			"uri":"Mf_Stem_baseColor.jpg"
		},
		{
			"mimeType":"image/jpeg",
			"name":"Mf_Leaf_baseColor",
			"uri":"Mf_Leaf_baseColor.jpg"
		},
		{
			"mimeType":"image/jpeg",
			"name":"Mf_Stigma_baseColor",
			"uri":"Mf_Stigma_baseColor.jpg"
		}
	],
	"accessors":[
		{
			"bufferView":0,
			"componentType":5126,
			"count":466,
			"max":[
				1,
				0.9978207945823669,
				1
			],
			"min":[
				-1,
				-1,
				-1
			],
			"type":"VEC3"
		},
		{
			"bufferView":1,
			"componentType":5126,
			"count":466,
			"type":"VEC3"
		},
		{
			"bufferView":2,
			"componentType":5126,
			"count":466,
			"type":"VEC2"
		},
		{
			"bufferView":3,
			"componentType":5126,
			"count":466,
			"type":"VEC2"
		},
		{
			"bufferView":4,
			"componentType":5123,
			"count":1524,
			"type":"SCALAR"
		},
		{
			"bufferView":5,
			"componentType":5126,
			"count":29768,
			"max":[
				1.3017829656600952,
				4.220016956329346,
				1.3286670446395874
			],
			"min":[
				-0.5618823766708374,
				2.413679838180542,
				-1.444334864616394
			],
			"type":"VEC3"
		},
		{
			"bufferView":6,
			"componentType":5126,
			"count":29768,
			"type":"VEC3"
		},
		{
			"bufferView":7,
			"componentType":5126,
			"count":29768,
			"type":"VEC2"
		},
		{
			"bufferView":8,
			"componentType":5126,
			"count":29768,
			"type":"VEC2"
		},
		{
			"bufferView":9,
			"componentType":5123,
			"count":141723,
			"type":"SCALAR"
		},
		{
			"bufferView":10,
			"componentType":5126,
			"count":17756,
			"max":[
				1.2699918746948242,
				3.2675962448120117,
				1.1484041213989258
			],
			"min":[
				-1.2784959077835083,
				0.873518705368042,
				-1.3248683214187622
			],
			"type":"VEC3"
		},
		{
			"bufferView":11,
			"componentType":5126,
			"count":17756,
			"type":"VEC3"
		},
		{
			"bufferView":12,
			"componentType":5126,
			"count":17756,
			"type":"VEC2"
		},
		{
			"bufferView":13,
			"componentType":5126,
			"count":17756,
			"type":"VEC2"
		},
		{
			"bufferView":14,
			"componentType":5123,
			"count":53856,
			"type":"SCALAR"
		},
		{
			"bufferView":15,
			"componentType":5126,
			"count":1514,
			"max":[
				0.9929244518280029,
				3.818976640701294,
				1.0259543657302856
			],
			"min":[
				-0.493445485830307,
				0.8789709806442261,
				-1.0585306882858276
			],
			"type":"VEC3"
		},
		{
			"bufferView":16,
			"componentType":5126,
			"count":1514,
			"type":"VEC3"
		},
		{
			"bufferView":17,
			"componentType":5126,
			"count":1514,
			"type":"VEC2"
		},
		{
			"bufferView":18,
			"componentType":5126,
			"count":1514,
			"type":"VEC2"
		},
		{
			"bufferView":19,
			"componentType":5123,
			"count":4422,
			"type":"SCALAR"
		},
		{
			"bufferView":20,
			"componentType":5126,
			"count":1306,
			"max":[
				1.0765011310577393,
				3.320206880569458,
				1.0550519227981567
			],
			"min":[
				-0.4208158552646637,
				1.273504614830017,
				-1.1351368427276611
			],
			"type":"VEC3"
		},
		{
			"bufferView":21,
			"componentType":5126,
			"count":1306,
			"type":"VEC3"
		},
		{
			"bufferView":22,
			"componentType":5126,
			"count":1306,
			"type":"VEC2"
		},
		{
			"bufferView":23,
			"componentType":5126,
			"count":1306,
			"type":"VEC2"
		},
		{
			"bufferView":24,
			"componentType":5123,
			"count":4320,
			"type":"SCALAR"
		},
		{
			"bufferView":25,
			"componentType":5126,
			"count":568,
			"max":[
				0.9372580051422119,
				3.8453078269958496,
				0.9563964605331421
			],
			"min":[
				-0.2697943150997162,
				2.5251035690307617,
				-1.0645612478256226
			],
			"type":"VEC3"
		},
		{
			"bufferView":26,
			"componentType":5126,
			"count":568,
			"type":"VEC3"
		},
		{
			"bufferView":27,
			"componentType":5126,
			"count":568,
			"type":"VEC2"
		},
		{
			"bufferView":28,
			"componentType":5126,
			"count":568,
			"type":"VEC2"
		},
		{
			"bufferView":29,
			"componentType":5123,
			"count":1440,
			"type":"SCALAR"
		}
	],
	"bufferViews":[
		{
			"buffer":0,
			"byteLength":5592,
			"byteOffset":0,
			"target":34962
		},
		{
			"buffer":0,
			"byteLength":5592,
			"byteOffset":5592,
			"target":34962
		},
		{
			"buffer":0,
			"byteLength":3728,
			"byteOffset":11184,
			"target":34962
		},
		{
			"buffer":0,
			"byteLength":3728,
			"byteOffset":14912,
			"target":34962
		},
		{
			"buffer":0,
			"byteLength":3048,
			"byteOffset":18640,
			"target":34963
		},
		{
			"buffer":0,
			"byteLength":357216,
			"byteOffset":21688,
			"target":34962
		},
		{
			"buffer":0,
			"byteLength":357216,
			"byteOffset":378904,
			"target":34962
		},
		{
			"buffer":0,
			"byteLength":238144,
			"byteOffset":736120,
			"target":34962
		},
		{
			"buffer":0,
			"byteLength":238144,
			"byteOffset":974264,
			"target":34962
		},
		{
			"buffer":0,
			"byteLength":283446,
			"byteOffset":1212408,
			"target":34963
		},
		{
			"buffer":0,
			"byteLength":213072,
			"byteOffset":1495856,
			"target":34962
		},
		{
			"buffer":0,
			"byteLength":213072,
			"byteOffset":1708928,
			"target":34962
		},
		{
			"buffer":0,
			"byteLength":142048,
			"byteOffset":1922000,
			"target":34962
		},
		{
			"buffer":0,
			"byteLength":142048,
			"byteOffset":2064048,
			"target":34962
		},
		{
			"buffer":0,
			"byteLength":107712,
			"byteOffset":2206096,
			"target":34963
		},
		{
			"buffer":0,
			"byteLength":18168,
			"byteOffset":2313808,
			"target":34962
		},
		{
			"buffer":0,
			"byteLength":18168,
			"byteOffset":2331976,
			"target":34962
		},
		{
			"buffer":0,
			"byteLength":12112,
			"byteOffset":2350144,
			"target":34962
		},
		{
			"buffer":0,
			"byteLength":12112,
			"byteOffset":2362256,
			"target":34962
		},
		{
			"buffer":0,
			"byteLength":8844,
			"byteOffset":2374368,
			"target":34963
		},
		{
			"buffer":0,
			"byteLength":15672,
			"byteOffset":2383212,
			"target":34962
		},
		{
			"buffer":0,
			"byteLength":15672,
			"byteOffset":2398884,
			"target":34962
		},
		{
			"buffer":0,
			"byteLength":10448,
			"byteOffset":2414556,
			"target":34962
		},
		{
			"buffer":0,
			"byteLength":10448,
			"byteOffset":2425004,
			"target":34962
		},
		{
			"buffer":0,
			"byteLength":8640,
			"byteOffset":2435452,
			"target":34963
		},
		{
			"buffer":0,
			"byteLength":6816,
			"byteOffset":2444092,
			"target":34962
		},
		{
			"buffer":0,
			"byteLength":6816,
			"byteOffset":2450908,
			"target":34962
		},
		{
			"buffer":0,
			"byteLength":4544,
			"byteOffset":2457724,
			"target":34962
		},
		{
			"buffer":0,
			"byteLength":4544,
			"byteOffset":2462268,
			"target":34962
		},
		{
			"buffer":0,
			"byteLength":2880,
			"byteOffset":2466812,
			"target":34963
		}
	],
	"samplers":[
		{
			"magFilter":9729,
			"minFilter":9987
		}
	],
	"buffers":[
		{
			"byteLength":2469692,
			"uri":"scene.bin"
		}
	]
}
