{
	"asset":{
		"generator":"Khronos glTF Blender I/O v4.1.62",
		"version":"2.0"
	},
	"extensionsUsed":[
		"KHR_materials_transmission"
	],
	"scene":0,
	"scenes":[
		{
			"name":"Scene",
			"nodes":[
				9
			]
		}
	],
	"nodes":[
		{
			"mesh":0,
			"name":"Object_4"
		},
		{
			"children":[
				0
			],
			"name":"1912 Electrolier Ceiling Lamp Type D Design A_0",
			"translation":[
				-0.4788154363632202,
				0,
				0
			]
		},
		{
			"mesh":1,
			"name":"Object_8"
		},
		{
			"mesh":2,
			"name":"Object_9"
		},
		{
			"children":[
				2,
				3
			],
			"name":"1912 Electrolier Ceiling Lamp Type D Design B Glass_2",
			"translation":[
				0.49575895071029663,
				0,
				0
			]
		},
		{
			"mesh":3,
			"name":"Object_6"
		},
		{
			"children":[
				5
			],
			"name":"1912 Electrolier Ceiling Lamp Type D Design B_1",
			"translation":[
				0.0027846097946166992,
				0,
				0
			]
		},
		{
			"children":[
				1,
				4,
				6
			],
			"name":"GLTF_SceneRootNode",
			"rotation":[
				0.70710688829422,
				0,
				0,
				0.7071066498756409
			]
		},
		{
			"children":[
				7
			],
			"name":"root"
		},
		{
			"children":[
				8
			],
			"name":"Sketchfab_model",
			"rotation":[
				-0.70710688829422,
				0,
				0,
				0.7071066498756409
			]
		}
	],
	"materials":[
		{
			"doubleSided":true,
			"name":"1912_Electrolier_Ceiling_Lamp_Type_D_Design_A",
			"normalTexture":{
				"index":0
			},
			"pbrMetallicRoughness":{
				"baseColorTexture":{
					"index":1
				},
				"metallicRoughnessTexture":{
					"index":2
				}
			}
		},
		{
			"doubleSided":true,
			"name":"1912_Electrolier_Ceiling_Lamp_Type_D_Design_B",
			"normalTexture":{
				"index":3
			},
			"pbrMetallicRoughness":{
				"baseColorTexture":{
					"index":4
				},
				"metallicRoughnessTexture":{
					"index":5
				}
			}
		},
		{
			"alphaMode":"BLEND",
			"doubleSided":true,
			"extensions":{
				"KHR_materials_transmission":{
					"transmissionFactor":0.16698066890239716
				}
			},
			"name":"1912_Electrolier_Ceiling_Lamp_Type_D_Design_B_Glass",
			"normalTexture":{
				"index":6
			},
			"pbrMetallicRoughness":{
				"baseColorFactor":[
					1,
					1,
					1,
					0.8330193161964417
				],
				"baseColorTexture":{
					"index":7
				},
				"metallicRoughnessTexture":{
					"index":8
				}
			}
		}
	],
	"meshes":[
		{
			"name":"Object_0",
			"primitives":[
				{
					"attributes":{
						"POSITION":0,
						"NORMAL":1,
						"TEXCOORD_0":2,
						"TEXCOORD_1":3,
						"TEXCOORD_2":4,
						"TEXCOORD_3":5
					},
					"indices":6,
					"material":0
				}
			]
		},
		{
			"name":"Object_2",
			"primitives":[
				{
					"attributes":{
						"POSITION":7,
						"NORMAL":8,
						"TEXCOORD_0":9,
						"TEXCOORD_1":10,
						"TEXCOORD_2":11,
						"TEXCOORD_3":12
					},
					"indices":13,
					"material":1
				}
			]
		},
		{
			"name":"Object_3",
			"primitives":[
				{
					"attributes":{
						"POSITION":14,
						"NORMAL":15,
						"TEXCOORD_0":16,
						"TEXCOORD_1":17,
						"TEXCOORD_2":18,
						"TEXCOORD_3":19
					},
					"indices":20,
					"material":2
				}
			]
		},
		{
			"name":"Object_1",
			"primitives":[
				{
					"attributes":{
						"POSITION":21,
						"NORMAL":22,
						"TEXCOORD_0":23,
						"TEXCOORD_1":24,
						"TEXCOORD_2":25,
						"TEXCOORD_3":26
					},
					"indices":6,
					"material":1
				}
			]
		}
	],
	"textures":[
		{
			"sampler":0,
			"source":0
		},
		{
			"sampler":0,
			"source":1
		},
		{
			"sampler":0,
			"source":2
		},
		{
			"sampler":0,
			"source":3
		},
		{
			"sampler":0,
			"source":4
		},
		{
			"sampler":0,
			"source":5
		},
		{
			"sampler":0,
			"source":3
		},
		{
			"sampler":0,
			"source":4
		},
		{
			"sampler":0,
			"source":5
		}
	],
	"images":[
		{
			"mimeType":"image/png",
			"name":"Image_2",
			"uri":"Image_2.png"
		},
		{
			"mimeType":"image/png",
			"name":"Image_0",
			"uri":"Image_0.png"
		},
		{
			"mimeType":"image/png",
			"name":"Image_1",
			"uri":"Image_1.png"
		},
		{
			"mimeType":"image/png",
			"name":"Image_5",
			"uri":"Image_5.png"
		},
		{
			"mimeType":"image/png",
			"name":"Image_3",
			"uri":"Image_3.png"
		},
		{
			"mimeType":"image/png",
			"name":"Image_4",
			"uri":"Image_4.png"
		}
	],
	"accessors":[
		{
			"bufferView":0,
			"componentType":5126,
			"count":25225,
			"max":[
				0.2174534648656845,
				3.91487919841893e-05,
				0.2174534648656845
			],
			"min":[
				-0.2174534648656845,
				-0.26308488845825195,
				-0.2174534648656845
			],
			"type":"VEC3"
		},
		{
			"bufferView":1,
			"componentType":5126,
			"count":25225,
			"type":"VEC3"
		},
		{
			"bufferView":2,
			"componentType":5126,
			"count":25225,
			"type":"VEC2"
		},
		{
			"bufferView":3,
			"componentType":5126,
			"count":25225,
			"type":"VEC2"
		},
		{
			"bufferView":4,
			"componentType":5126,
			"count":25225,
			"type":"VEC2"
		},
		{
			"bufferView":5,
			"componentType":5126,
			"count":25225,
			"type":"VEC2"
		},
		{
			"bufferView":6,
			"componentType":5123,
			"count":59760,
			"type":"SCALAR"
		},
		{
			"bufferView":7,
			"componentType":5126,
			"count":18905,
			"max":[
				0.2174534648656845,
				3.91487919841893e-05,
				0.2174534648656845
			],
			"min":[
				-0.2174534648656845,
				-0.26308488845825195,
				-0.2174534648656845
			],
			"type":"VEC3"
		},
		{
			"bufferView":8,
			"componentType":5126,
			"count":18905,
			"type":"VEC3"
		},
		{
			"bufferView":9,
			"componentType":5126,
			"count":18905,
			"type":"VEC2"
		},
		{
			"bufferView":10,
			"componentType":5126,
			"count":18905,
			"type":"VEC2"
		},
		{
			"bufferView":11,
			"componentType":5126,
			"count":18905,
			"type":"VEC2"
		},
		{
			"bufferView":12,
			"componentType":5126,
			"count":18905,
			"type":"VEC2"
		},
		{
			"bufferView":13,
			"componentType":5123,
			"count":48672,
			"type":"SCALAR"
		},
		{
			"bufferView":14,
			"componentType":5126,
			"count":6320,
			"max":[
				0.14973072707653046,
				-0.05817491188645363,
				0.14937125146389008
			],
			"min":[
				-0.14973069727420807,
				-0.17560935020446777,
				-0.14937123656272888
			],
			"type":"VEC3"
		},
		{
			"bufferView":15,
			"componentType":5126,
			"count":6320,
			"type":"VEC3"
		},
		{
			"bufferView":16,
			"componentType":5126,
			"count":6320,
			"type":"VEC2"
		},
		{
			"bufferView":17,
			"componentType":5126,
			"count":6320,
			"type":"VEC2"
		},
		{
			"bufferView":18,
			"componentType":5126,
			"count":6320,
			"type":"VEC2"
		},
		{
			"bufferView":19,
			"componentType":5126,
			"count":6320,
			"type":"VEC2"
		},
		{
			"bufferView":20,
			"componentType":5123,
			"count":11088,
			"type":"SCALAR"
		},
		{
			"bufferView":21,
			"componentType":5126,
			"count":25225,
			"max":[
				0.2174534648656845,
				3.91487919841893e-05,
				0.2174534648656845
			],
			"min":[
				-0.2174534648656845,
				-0.26308488845825195,
				-0.2174534648656845
			],
			"type":"VEC3"
		},
		{
			"bufferView":22,
			"componentType":5126,
			"count":25225,
			"type":"VEC3"
		},
		{
			"bufferView":23,
			"componentType":5126,
			"count":25225,
			"type":"VEC2"
		},
		{
			"bufferView":24,
			"componentType":5126,
			"count":25225,
			"type":"VEC2"
		},
		{
			"bufferView":25,
			"componentType":5126,
			"count":25225,
			"type":"VEC2"
		},
		{
			"bufferView":26,
			"componentType":5126,
			"count":25225,
			"type":"VEC2"
		}
	],
	"bufferViews":[
		{
			"buffer":0,
			"byteLength":302700,
			"byteOffset":0,
			"target":34962
		},
		{
			"buffer":0,
			"byteLength":302700,
			"byteOffset":302700,
			"target":34962
		},
		{
			"buffer":0,
			"byteLength":201800,
			"byteOffset":605400,
			"target":34962
		},
		{
			"buffer":0,
			"byteLength":201800,
			"byteOffset":807200,
			"target":34962
		},
		{
			"buffer":0,
			"byteLength":201800,
			"byteOffset":1009000,
			"target":34962
		},
		{
			"buffer":0,
			"byteLength":201800,
			"byteOffset":1210800,
			"target":34962
		},
		{
			"buffer":0,
			"byteLength":119520,
			"byteOffset":1412600,
			"target":34963
		},
		{
			"buffer":0,
			"byteLength":226860,
			"byteOffset":1532120,
			"target":34962
		},
		{
			"buffer":0,
			"byteLength":226860,
			"byteOffset":1758980,
			"target":34962
		},
		{
			"buffer":0,
			"byteLength":151240,
			"byteOffset":1985840,
			"target":34962
		},
		{
			"buffer":0,
			"byteLength":151240,
			"byteOffset":2137080,
			"target":34962
		},
		{
			"buffer":0,
			"byteLength":151240,
			"byteOffset":2288320,
			"target":34962
		},
		{
			"buffer":0,
			"byteLength":151240,
			"byteOffset":2439560,
			"target":34962
		},
		{
			"buffer":0,
			"byteLength":97344,
			"byteOffset":2590800,
			"target":34963
		},
		{
			"buffer":0,
			"byteLength":75840,
			"byteOffset":2688144,
			"target":34962
		},
		{
			"buffer":0,
			"byteLength":75840,
			"byteOffset":2763984,
			"target":34962
		},
		{
			"buffer":0,
			"byteLength":50560,
			"byteOffset":2839824,
			"target":34962
		},
		{
			"buffer":0,
			"byteLength":50560,
			"byteOffset":2890384,
			"target":34962
		},
		{
			"buffer":0,
			"byteLength":50560,
			"byteOffset":2940944,
			"target":34962
		},
		{
			"buffer":0,
			"byteLength":50560,
			"byteOffset":2991504,
			"target":34962
		},
		{
			"buffer":0,
			"byteLength":22176,
			"byteOffset":3042064,
			"target":34963
		},
		{
			"buffer":0,
			"byteLength":302700,
			"byteOffset":3064240,
			"target":34962
		},
		{
			"buffer":0,
			"byteLength":302700,
			"byteOffset":3366940,
			"target":34962
		},
		{
			"buffer":0,
			"byteLength":201800,
			"byteOffset":3669640,
			"target":34962
		},
		{
			"buffer":0,
			"byteLength":201800,
			"byteOffset":3871440,
			"target":34962
		},
		{
			"buffer":0,
			"byteLength":201800,
			"byteOffset":4073240,
			"target":34962
		},
		{
			"buffer":0,
			"byteLength":201800,
			"byteOffset":4275040,
			"target":34962
		}
	],
	"samplers":[
		{
			"magFilter":9729,
			"minFilter":9987
		}
	],
	"buffers":[
		{
			"byteLength":4476840,
			"uri":"scene.bin"
		}
	]
}
