{
	"asset":{
		"generator":"Khronos glTF Blender I/O v4.3.47",
		"version":"2.0"
	},
	"scene":0,
	"scenes":[
		{
			"name":"Scene",
			"nodes":[
				0
			]
		}
	],
	"nodes":[
		{
			"mesh":0,
			"name":"Circle"
		}
	],
	"materials":[
		{
			"doubleSided":true,
			"name":"Floor Carpet",
			"normalTexture":{
				"index":0,
				"texCoord":1
			},
			"pbrMetallicRoughness":{
				"baseColorTexture":{
					"index":1,
					"texCoord":1
				},
				"metallicFactor":0,
				"metallicRoughnessTexture":{
					"index":2,
					"texCoord":1
				}
			}
		}
	],
	"meshes":[
		{
			"name":"Circle",
			"primitives":[
				{
					"attributes":{
						"POSITION":0,
						"NORMAL":1,
						"TEXCOORD_0":2,
						"TEXCOORD_1":3
					},
					"indices":4,
					"material":0
				}
			]
		}
	],
	"textures":[
		{
			"sampler":0,
			"source":0
		},
		{
			"sampler":0,
			"source":1
		},
		{
			"sampler":0,
			"source":2
		}
	],
	"images":[
		{
			"mimeType":"image/jpeg",
			"name":"carpet_4_normal",
			"uri":"carpet_4_normal.jpg"
		},
		{
			"mimeType":"image/jpeg",
			"name":"carpet_4_basecolor",
			"uri":"carpet_4_basecolor.jpg"
		},
		{
			"mimeType":"image/png",
			"name":"carpet_4_roughness",
			"uri":"carpet_4_roughness.png"
		}
	],
	"accessors":[
		{
			"bufferView":0,
			"componentType":5126,
			"count":452,
			"max":[
				9.313010215759277,
				0,
				9.313010215759277
			],
			"min":[
				-9.313010215759277,
				-0.3095327913761139,
				-9.313010215759277
			],
			"type":"VEC3"
		},
		{
			"bufferView":1,
			"componentType":5126,
			"count":452,
			"type":"VEC3"
		},
		{
			"bufferView":2,
			"componentType":5126,
			"count":452,
			"type":"VEC2"
		},
		{
			"bufferView":3,
			"componentType":5126,
			"count":452,
			"type":"VEC2"
		},
		{
			"bufferView":4,
			"componentType":5123,
			"count":2292,
			"type":"SCALAR"
		}
	],
	"bufferViews":[
		{
			"buffer":0,
			"byteLength":5424,
			"byteOffset":0,
			"target":34962
		},
		{
			"buffer":0,
			"byteLength":5424,
			"byteOffset":5424,
			"target":34962
		},
		{
			"buffer":0,
			"byteLength":3616,
			"byteOffset":10848,
			"target":34962
		},
		{
			"buffer":0,
			"byteLength":3616,
			"byteOffset":14464,
			"target":34962
		},
		{
			"buffer":0,
			"byteLength":4584,
			"byteOffset":18080,
			"target":34963
		}
	],
	"samplers":[
		{
			"magFilter":9729,
			"minFilter":9987
		}
	],
	"buffers":[
		{
			"byteLength":22664,
			"uri":"scene.bin"
		}
	]
}
