{
	"asset":{
		"generator":"Khronos glTF Blender I/O v4.3.47",
		"version":"2.0"
	},
	"scene":0,
	"scenes":[
		{
			"name":"Scene",
			"nodes":[
				0,
				1,
				2
			]
		}
	],
	"nodes":[
		{
			"mesh":0,
			"name":"Cylinder.002"
		},
		{
			"mesh":1,
			"name":"Cylinder.001"
		},
		{
			"mesh":2,
			"name":"Cylinder.003"
		}
	],
	"materials":[
		{
			"doubleSided":true,
			"name":"Material.003",
			"pbrMetallicRoughness":{
				"baseColorTexture":{
					"index":0,
					"texCoord":1
				},
				"metallicFactor":0,
				"roughnessFactor":0.5
			}
		},
		{
			"doubleSided":true,
			"name":"Material.002",
			"pbrMetallicRoughness":{
				"baseColorTexture":{
					"index":1,
					"texCoord":1
				},
				"metallicFactor":0,
				"roughnessFactor":0.5
			}
		},
		{
			"doubleSided":true,
			"name":"Wood",
			"normalTexture":{
				"index":2,
				"texCoord":1
			},
			"pbrMetallicRoughness":{
				"baseColorTexture":{
					"index":3,
					"texCoord":1
				},
				"metallicFactor":0,
				"metallicRoughnessTexture":{
					"index":4,
					"texCoord":1
				}
			}
		}
	],
	"meshes":[
		{
			"name":"Cylinder.002",
			"primitives":[
				{
					"attributes":{
						"POSITION":0,
						"NORMAL":1,
						"TEXCOORD_0":2,
						"TEXCOORD_1":3
					},
					"indices":4,
					"material":0
				},
				{
					"attributes":{
						"POSITION":5,
						"NORMAL":6,
						"TEXCOORD_0":7,
						"TEXCOORD_1":8
					},
					"indices":9
				}
			]
		},
		{
			"name":"Cylinder.001",
			"primitives":[
				{
					"attributes":{
						"POSITION":10,
						"NORMAL":11,
						"TEXCOORD_0":12,
						"TEXCOORD_1":13
					},
					"indices":14,
					"material":1
				}
			]
		},
		{
			"name":"Cylinder.003",
			"primitives":[
				{
					"attributes":{
						"POSITION":15,
						"NORMAL":16,
						"TEXCOORD_0":17,
						"TEXCOORD_1":18
					},
					"indices":19,
					"material":2
				}
			]
		}
	],
	"textures":[
		{
			"sampler":0,
			"source":0
		},
		{
			"sampler":0,
			"source":1
		},
		{
			"sampler":0,
			"source":2
		},
		{
			"sampler":0,
			"source":0
		},
		{
			"sampler":0,
			"source":3
		}
	],
	"images":[
		{
			"mimeType":"image/jpeg",
			"name":"Old_Plywood_vigjfivg_1K_BaseColor",
			"uri":"Old_Plywood_vigjfivg_1K_BaseColor.jpg"
		},
		{
			"mimeType":"image/jpeg",
			"name":"T_umonab2dy_1K_T",
			"uri":"T_umonab2dy_1K_T.jpg"
		},
		{
			"mimeType":"image/jpeg",
			"name":"wood__normal",
			"uri":"wood__normal.jpg"
		},
		{
			"mimeType":"image/png",
			"name":"wood__glossiness",
			"uri":"wood__glossiness.png"
		}
	],
	"accessors":[
		{
			"bufferView":0,
			"componentType":5126,
			"count":144,
			"max":[
				1.669281005859375,
				1.1629555225372314,
				0.9468426704406738
			],
			"min":[
				-4.85418701171875,
				-0.6777389049530029,
				-1.7177016735076904
			],
			"type":"VEC3"
		},
		{
			"bufferView":1,
			"componentType":5126,
			"count":144,
			"type":"VEC3"
		},
		{
			"bufferView":2,
			"componentType":5126,
			"count":144,
			"type":"VEC2"
		},
		{
			"bufferView":3,
			"componentType":5126,
			"count":144,
			"type":"VEC2"
		},
		{
			"bufferView":4,
			"componentType":5123,
			"count":270,
			"type":"SCALAR"
		},
		{
			"bufferView":5,
			"componentType":5126,
			"count":6,
			"max":[
				1.6032495498657227,
				-0.08011850714683533,
				-1.6868114471435547e-05
			],
			"min":[
				1.5380043983459473,
				-0.15206342935562134,
				-0.17107665538787842
			],
			"type":"VEC3"
		},
		{
			"bufferView":6,
			"componentType":5126,
			"count":6,
			"type":"VEC3"
		},
		{
			"bufferView":7,
			"componentType":5126,
			"count":6,
			"type":"VEC2"
		},
		{
			"bufferView":8,
			"componentType":5126,
			"count":6,
			"type":"VEC2"
		},
		{
			"bufferView":9,
			"componentType":5123,
			"count":12,
			"type":"SCALAR"
		},
		{
			"bufferView":10,
			"componentType":5126,
			"count":8237,
			"max":[
				1.6384716033935547,
				1.2598240375518799,
				0.993922770023346
			],
			"min":[
				-4.777597904205322,
				-0.2720398008823395,
				-1.5418829917907715
			],
			"type":"VEC3"
		},
		{
			"bufferView":11,
			"componentType":5126,
			"count":8237,
			"type":"VEC3"
		},
		{
			"bufferView":12,
			"componentType":5126,
			"count":8237,
			"type":"VEC2"
		},
		{
			"bufferView":13,
			"componentType":5126,
			"count":8237,
			"type":"VEC2"
		},
		{
			"bufferView":14,
			"componentType":5123,
			"count":39804,
			"type":"SCALAR"
		},
		{
			"bufferView":15,
			"componentType":5126,
			"count":506,
			"max":[
				1.407942771911621,
				-0.25850874185562134,
				0.8558170199394226
			],
			"min":[
				-4.5766425132751465,
				-0.6777389049530029,
				-0.8492400646209717
			],
			"type":"VEC3"
		},
		{
			"bufferView":16,
			"componentType":5126,
			"count":506,
			"type":"VEC3"
		},
		{
			"bufferView":17,
			"componentType":5126,
			"count":506,
			"type":"VEC2"
		},
		{
			"bufferView":18,
			"componentType":5126,
			"count":506,
			"type":"VEC2"
		},
		{
			"bufferView":19,
			"componentType":5123,
			"count":1362,
			"type":"SCALAR"
		}
	],
	"bufferViews":[
		{
			"buffer":0,
			"byteLength":1728,
			"byteOffset":0,
			"target":34962
		},
		{
			"buffer":0,
			"byteLength":1728,
			"byteOffset":1728,
			"target":34962
		},
		{
			"buffer":0,
			"byteLength":1152,
			"byteOffset":3456,
			"target":34962
		},
		{
			"buffer":0,
			"byteLength":1152,
			"byteOffset":4608,
			"target":34962
		},
		{
			"buffer":0,
			"byteLength":540,
			"byteOffset":5760,
			"target":34963
		},
		{
			"buffer":0,
			"byteLength":72,
			"byteOffset":6300,
			"target":34962
		},
		{
			"buffer":0,
			"byteLength":72,
			"byteOffset":6372,
			"target":34962
		},
		{
			"buffer":0,
			"byteLength":48,
			"byteOffset":6444,
			"target":34962
		},
		{
			"buffer":0,
			"byteLength":48,
			"byteOffset":6492,
			"target":34962
		},
		{
			"buffer":0,
			"byteLength":24,
			"byteOffset":6540,
			"target":34963
		},
		{
			"buffer":0,
			"byteLength":98844,
			"byteOffset":6564,
			"target":34962
		},
		{
			"buffer":0,
			"byteLength":98844,
			"byteOffset":105408,
			"target":34962
		},
		{
			"buffer":0,
			"byteLength":65896,
			"byteOffset":204252,
			"target":34962
		},
		{
			"buffer":0,
			"byteLength":65896,
			"byteOffset":270148,
			"target":34962
		},
		{
			"buffer":0,
			"byteLength":79608,
			"byteOffset":336044,
			"target":34963
		},
		{
			"buffer":0,
			"byteLength":6072,
			"byteOffset":415652,
			"target":34962
		},
		{
			"buffer":0,
			"byteLength":6072,
			"byteOffset":421724,
			"target":34962
		},
		{
			"buffer":0,
			"byteLength":4048,
			"byteOffset":427796,
			"target":34962
		},
		{
			"buffer":0,
			"byteLength":4048,
			"byteOffset":431844,
			"target":34962
		},
		{
			"buffer":0,
			"byteLength":2724,
			"byteOffset":435892,
			"target":34963
		}
	],
	"samplers":[
		{
			"magFilter":9729,
			"minFilter":9987
		}
	],
	"buffers":[
		{
			"byteLength":438616,
			"uri":"scene.bin"
		}
	]
}
