{
	"asset":{
		"generator":"Khronos glTF Blender I/O v4.3.47",
		"version":"2.0"
	},
	"extensionsUsed":[
		"KHR_materials_specular",
		"KHR_materials_anisotropy",
		"KHR_materials_ior",
		"KHR_texture_transform"
	],
	"extensionsRequired":[
		"KHR_texture_transform"
	],
	"scene":0,
	"scenes":[
		{
			"name":"Scene",
			"nodes":[
				0
			]
		}
	],
	"nodes":[
		{
			"mesh":0,
			"name":"Cube.008"
		}
	],
	"materials":[
		{
			"doubleSided":true,
			"extensions":{
				"KHR_materials_specular":{
					"specularFactor":0.2212885022163391
				},
				"KHR_materials_anisotropy":{
					"anisotropyStrength":1
				},
				"KHR_materials_ior":{
					"ior":1.4500000476837158
				}
			},
			"name":"Grey furniture fabric",
			"normalTexture":{
				"extensions":{
					"KHR_texture_transform":{
						"offset":[
							0,
							-3
						],
						"scale":[
							4,
							4
						]
					}
				},
				"index":0,
				"texCoord":1
			},
			"occlusionTexture":{
				"extensions":{
					"KHR_texture_transform":{
						"offset":[
							0,
							-3
						],
						"scale":[
							4,
							4
						]
					}
				},
				"index":1,
				"texCoord":1
			},
			"pbrMetallicRoughness":{
				"baseColorTexture":{
					"extensions":{
						"KHR_texture_transform":{
							"offset":[
								0,
								-3
							],
							"scale":[
								4,
								4
							]
						}
					},
					"index":2,
					"texCoord":1
				},
				"metallicFactor":0,
				"metallicRoughnessTexture":{
					"extensions":{
						"KHR_texture_transform":{
							"offset":[
								0,
								-3
							],
							"scale":[
								4,
								4
							]
						}
					},
					"index":1,
					"texCoord":1
				}
			}
		},
		{
			"doubleSided":true,
			"name":"Sofa Fabric Textile"
		},
		{
			"doubleSided":true,
			"name":"Pink Linen Fabric - cavani",
			"normalTexture":{
				"extensions":{
					"KHR_texture_transform":{
						"offset":[
							0,
							-1
						],
						"scale":[
							2,
							2
						]
					}
				},
				"index":3,
				"scale":0.10000000149011612,
				"texCoord":1
			},
			"pbrMetallicRoughness":{
				"baseColorTexture":{
					"extensions":{
						"KHR_texture_transform":{
							"offset":[
								0,
								-1
							],
							"scale":[
								2,
								2
							]
						}
					},
					"index":4,
					"texCoord":1
				},
				"metallicFactor":0,
				"metallicRoughnessTexture":{
					"extensions":{
						"KHR_texture_transform":{
							"offset":[
								0,
								-1
							],
							"scale":[
								2,
								2
							]
						}
					},
					"index":5,
					"texCoord":1
				}
			}
		},
		{
			"doubleSided":true,
			"extensions":{
				"KHR_materials_specular":{
					"specularTexture":{
						"index":6,
						"texCoord":1
					}
				}
			},
			"name":"Black leather",
			"normalTexture":{
				"index":7,
				"texCoord":1
			},
			"pbrMetallicRoughness":{
				"baseColorTexture":{
					"index":8,
					"texCoord":1
				},
				"metallicRoughnessTexture":{
					"index":9,
					"texCoord":1
				}
			}
		},
		{
			"doubleSided":true,
			"name":"Sofa Fabric Textile.001"
		},
		{
			"doubleSided":true,
			"extensions":{
				"KHR_materials_anisotropy":{
					"anisotropyStrength":0.058181844651699066
				}
			},
			"name":"Beige cushion for sofas",
			"normalTexture":{
				"extensions":{
					"KHR_texture_transform":{
						"offset":[
							0,
							-1
						],
						"scale":[
							2,
							2
						]
					}
				},
				"index":10,
				"texCoord":1
			},
			"occlusionTexture":{
				"extensions":{
					"KHR_texture_transform":{
						"offset":[
							0,
							-1
						],
						"scale":[
							2,
							2
						]
					}
				},
				"index":11,
				"texCoord":1
			},
			"pbrMetallicRoughness":{
				"baseColorTexture":{
					"extensions":{
						"KHR_texture_transform":{
							"offset":[
								0,
								-1
							],
							"scale":[
								2,
								2
							]
						}
					},
					"index":12,
					"texCoord":1
				},
				"metallicFactor":0,
				"metallicRoughnessTexture":{
					"extensions":{
						"KHR_texture_transform":{
							"offset":[
								0,
								-1
							],
							"scale":[
								2,
								2
							]
						}
					},
					"index":11,
					"texCoord":1
				}
			}
		},
		{
			"doubleSided":true,
			"name":"Pink Linen Fabric - cavani.001",
			"normalTexture":{
				"extensions":{
					"KHR_texture_transform":{
						"offset":[
							0,
							-1
						],
						"scale":[
							2,
							2
						]
					}
				},
				"index":13,
				"scale":0.10000000149011612,
				"texCoord":2
			},
			"pbrMetallicRoughness":{
				"baseColorTexture":{
					"extensions":{
						"KHR_texture_transform":{
							"offset":[
								0,
								-1
							],
							"scale":[
								2,
								2
							]
						}
					},
					"index":14,
					"texCoord":2
				},
				"metallicFactor":0,
				"metallicRoughnessTexture":{
					"extensions":{
						"KHR_texture_transform":{
							"offset":[
								0,
								-1
							],
							"scale":[
								2,
								2
							]
						}
					},
					"index":15,
					"texCoord":2
				}
			}
		},
		{
			"doubleSided":true,
			"extensions":{
				"KHR_materials_specular":{
					"specularTexture":{
						"index":16,
						"texCoord":2
					}
				}
			},
			"name":"Black leather.001",
			"normalTexture":{
				"index":17,
				"texCoord":2
			},
			"pbrMetallicRoughness":{
				"baseColorTexture":{
					"index":18,
					"texCoord":2
				},
				"metallicRoughnessTexture":{
					"index":19,
					"texCoord":2
				}
			}
		},
		{
			"doubleSided":true,
			"extensions":{
				"KHR_materials_specular":{
					"specularFactor":0.2212885022163391
				},
				"KHR_materials_anisotropy":{
					"anisotropyStrength":1
				},
				"KHR_materials_ior":{
					"ior":1.4500000476837158
				}
			},
			"name":"Grey furniture fabric.001",
			"normalTexture":{
				"extensions":{
					"KHR_texture_transform":{
						"offset":[
							0,
							-3
						],
						"scale":[
							4,
							4
						]
					}
				},
				"index":20,
				"texCoord":3
			},
			"occlusionTexture":{
				"extensions":{
					"KHR_texture_transform":{
						"offset":[
							0,
							-3
						],
						"scale":[
							4,
							4
						]
					}
				},
				"index":21,
				"texCoord":3
			},
			"pbrMetallicRoughness":{
				"baseColorTexture":{
					"extensions":{
						"KHR_texture_transform":{
							"offset":[
								0,
								-3
							],
							"scale":[
								4,
								4
							]
						}
					},
					"index":22,
					"texCoord":3
				},
				"metallicFactor":0,
				"metallicRoughnessTexture":{
					"extensions":{
						"KHR_texture_transform":{
							"offset":[
								0,
								-3
							],
							"scale":[
								4,
								4
							]
						}
					},
					"index":21,
					"texCoord":3
				}
			}
		}
	],
	"meshes":[
		{
			"name":"Cube.012",
			"primitives":[
				{
					"attributes":{
						"POSITION":0,
						"NORMAL":1,
						"TEXCOORD_0":2,
						"TEXCOORD_1":3,
						"TEXCOORD_2":4,
						"TEXCOORD_3":5
					},
					"indices":6,
					"material":0
				},
				{
					"attributes":{
						"POSITION":7,
						"NORMAL":8,
						"TEXCOORD_0":9,
						"TEXCOORD_1":10,
						"TEXCOORD_2":11,
						"TEXCOORD_3":12
					},
					"indices":13,
					"material":1
				},
				{
					"attributes":{
						"POSITION":14,
						"NORMAL":15,
						"TEXCOORD_0":16,
						"TEXCOORD_1":17,
						"TEXCOORD_2":18,
						"TEXCOORD_3":19
					},
					"indices":20,
					"material":2
				},
				{
					"attributes":{
						"POSITION":21,
						"NORMAL":22,
						"TEXCOORD_0":23,
						"TEXCOORD_1":24,
						"TEXCOORD_2":25,
						"TEXCOORD_3":26
					},
					"indices":27,
					"material":3
				},
				{
					"attributes":{
						"POSITION":28,
						"NORMAL":29,
						"TEXCOORD_0":30,
						"TEXCOORD_1":31,
						"TEXCOORD_2":32,
						"TEXCOORD_3":33
					},
					"indices":34,
					"material":4
				},
				{
					"attributes":{
						"POSITION":35,
						"NORMAL":36,
						"TEXCOORD_0":37,
						"TEXCOORD_1":38,
						"TEXCOORD_2":39,
						"TEXCOORD_3":40
					},
					"indices":41,
					"material":5
				},
				{
					"attributes":{
						"POSITION":42,
						"NORMAL":43,
						"TEXCOORD_0":44,
						"TEXCOORD_1":45,
						"TEXCOORD_2":46,
						"TEXCOORD_3":47
					},
					"indices":48,
					"material":6
				},
				{
					"attributes":{
						"POSITION":49,
						"NORMAL":50,
						"TEXCOORD_0":51,
						"TEXCOORD_1":52,
						"TEXCOORD_2":53,
						"TEXCOORD_3":54
					},
					"indices":55,
					"material":7
				},
				{
					"attributes":{
						"POSITION":56,
						"NORMAL":57,
						"TEXCOORD_0":58,
						"TEXCOORD_1":59,
						"TEXCOORD_2":60,
						"TEXCOORD_3":61
					},
					"indices":62,
					"material":8
				}
			]
		}
	],
	"textures":[
		{
			"sampler":0,
			"source":0
		},
		{
			"sampler":0,
			"source":1
		},
		{
			"sampler":0,
			"source":2
		},
		{
			"sampler":0,
			"source":3
		},
		{
			"sampler":0,
			"source":4
		},
		{
			"sampler":0,
			"source":5
		},
		{
			"sampler":0,
			"source":6
		},
		{
			"sampler":0,
			"source":7
		},
		{
			"sampler":0,
			"source":8
		},
		{
			"sampler":0,
			"source":9
		},
		{
			"sampler":0,
			"source":10
		},
		{
			"sampler":0,
			"source":11
		},
		{
			"sampler":0,
			"source":12
		},
		{
			"sampler":0,
			"source":3
		},
		{
			"sampler":0,
			"source":4
		},
		{
			"sampler":0,
			"source":13
		},
		{
			"sampler":0,
			"source":6
		},
		{
			"sampler":0,
			"source":7
		},
		{
			"sampler":0,
			"source":8
		},
		{
			"sampler":0,
			"source":14
		},
		{
			"sampler":0,
			"source":0
		},
		{
			"sampler":0,
			"source":15
		},
		{
			"sampler":0,
			"source":2
		}
	],
	"images":[
		{
			"mimeType":"image/jpeg",
			"name":"sewed grey fabric_Normal",
			"uri":"sewed%20grey%20fabric_Normal.jpg"
		},
		{
			"mimeType":"image/jpeg",
			"name":"sewed grey fabric_OcclusionRoughnessMetallic.jpg-sewed grey fabric_OcclusionRoughnessMetallic.jpg",
			"uri":"sewed%20grey%20fabric_OcclusionRoughnessMetallic_jpg-sewed%20grey%20fabric_OcclusionRoughnessMetallic_jpg.jpg"
		},
		{
			"mimeType":"image/jpeg",
			"name":"sewed grey fabric_Diffuse",
			"uri":"sewed%20grey%20fabric_Diffuse.jpg"
		},
		{
			"mimeType":"image/jpeg",
			"name":"NormalMap",
			"uri":"NormalMap.jpg"
		},
		{
			"mimeType":"image/jpeg",
			"name":"BaseColor1",
			"uri":"BaseColor1.jpg"
		},
		{
			"mimeType":"image/jpeg",
			"name":"RoughnessMap",
			"uri":"RoughnessMap.jpg"
		},
		{
			"mimeType":"image/jpeg",
			"name":"leather_specular",
			"uri":"leather_specular.jpg"
		},
		{
			"mimeType":"image/jpeg",
			"name":"leather_normal_opengl",
			"uri":"leather_normal_opengl.jpg"
		},
		{
			"mimeType":"image/jpeg",
			"name":"leather10_diffuse",
			"uri":"leather10_diffuse.jpg"
		},
		{
			"mimeType":"image/jpeg",
			"name":"leather_metallic-leather_glossiness",
			"uri":"leather_metallic-leather_glossiness.jpg"
		},
		{
			"mimeType":"image/jpeg",
			"name":"Fabric_Normal",
			"uri":"Fabric_Normal.jpg"
		},
		{
			"mimeType":"image/jpeg",
			"name":"fabrick-ao-Fabric_Roughness.jpg",
			"uri":"fabrick-ao-Fabric_Roughness_jpg.jpg"
		},
		{
			"mimeType":"image/jpeg",
			"name":"fabric_beige_diffuse",
			"uri":"fabric_beige_diffuse.jpg"
		},
		{
			"mimeType":"image/jpeg",
			"name":"RoughnessMap",
			"uri":"RoughnessMap-1.jpg"
		},
		{
			"mimeType":"image/jpeg",
			"name":"leather_metallic-leather_glossiness",
			"uri":"leather_metallic-leather_glossiness-1.jpg"
		},
		{
			"mimeType":"image/jpeg",
			"name":"sewed grey fabric_OcclusionRoughnessMetallic",
			"uri":"sewed%20grey%20fabric_OcclusionRoughnessMetallic.jpg"
		}
	],
	"accessors":[
		{
			"bufferView":0,
			"componentType":5126,
			"count":39138,
			"max":[
				1.6887708902359009,
				1.1719601154327393,
				0.6357853412628174
			],
			"min":[
				-1.7119582891464233,
				-0.18881547451019287,
				-0.7894986867904663
			],
			"type":"VEC3"
		},
		{
			"bufferView":1,
			"componentType":5126,
			"count":39138,
			"type":"VEC3"
		},
		{
			"bufferView":2,
			"componentType":5126,
			"count":39138,
			"type":"VEC2"
		},
		{
			"bufferView":3,
			"componentType":5126,
			"count":39138,
			"type":"VEC2"
		},
		{
			"bufferView":4,
			"componentType":5126,
			"count":39138,
			"type":"VEC2"
		},
		{
			"bufferView":5,
			"componentType":5126,
			"count":39138,
			"type":"VEC2"
		},
		{
			"bufferView":6,
			"componentType":5123,
			"count":45480,
			"type":"SCALAR"
		},
		{
			"bufferView":7,
			"componentType":5126,
			"count":14166,
			"max":[
				1.6887708902359009,
				1.1719601154327393,
				0.6287813186645508
			],
			"min":[
				-1.7119582891464233,
				-0.18881547451019287,
				-0.7894986867904663
			],
			"type":"VEC3"
		},
		{
			"bufferView":8,
			"componentType":5126,
			"count":14166,
			"type":"VEC3"
		},
		{
			"bufferView":9,
			"componentType":5126,
			"count":14166,
			"type":"VEC2"
		},
		{
			"bufferView":10,
			"componentType":5126,
			"count":14166,
			"type":"VEC2"
		},
		{
			"bufferView":11,
			"componentType":5126,
			"count":14166,
			"type":"VEC2"
		},
		{
			"bufferView":12,
			"componentType":5126,
			"count":14166,
			"type":"VEC2"
		},
		{
			"bufferView":13,
			"componentType":5123,
			"count":19992,
			"type":"SCALAR"
		},
		{
			"bufferView":14,
			"componentType":5126,
			"count":15308,
			"max":[
				1.1598339080810547,
				0.7807009816169739,
				-0.03915905952453613
			],
			"min":[
				-1.1417484283447266,
				0.3554506301879883,
				-0.24874162673950195
			],
			"type":"VEC3"
		},
		{
			"bufferView":15,
			"componentType":5126,
			"count":15308,
			"type":"VEC3"
		},
		{
			"bufferView":16,
			"componentType":5126,
			"count":15308,
			"type":"VEC2"
		},
		{
			"bufferView":17,
			"componentType":5126,
			"count":15308,
			"type":"VEC2"
		},
		{
			"bufferView":18,
			"componentType":5126,
			"count":15308,
			"type":"VEC2"
		},
		{
			"bufferView":19,
			"componentType":5126,
			"count":15308,
			"type":"VEC2"
		},
		{
			"bufferView":20,
			"componentType":5123,
			"count":17370,
			"type":"SCALAR"
		},
		{
			"bufferView":21,
			"componentType":5126,
			"count":2413,
			"max":[
				1.547663927078247,
				-0.08065139502286911,
				0.5146242380142212
			],
			"min":[
				-1.5476804971694946,
				-0.16081692278385162,
				-0.5146243572235107
			],
			"type":"VEC3"
		},
		{
			"bufferView":22,
			"componentType":5126,
			"count":2413,
			"type":"VEC3"
		},
		{
			"bufferView":23,
			"componentType":5126,
			"count":2413,
			"type":"VEC2"
		},
		{
			"bufferView":24,
			"componentType":5126,
			"count":2413,
			"type":"VEC2"
		},
		{
			"bufferView":25,
			"componentType":5126,
			"count":2413,
			"type":"VEC2"
		},
		{
			"bufferView":26,
			"componentType":5126,
			"count":2413,
			"type":"VEC2"
		},
		{
			"bufferView":27,
			"componentType":5123,
			"count":2529,
			"type":"SCALAR"
		},
		{
			"bufferView":28,
			"componentType":5126,
			"count":18600,
			"max":[
				0.4924449920654297,
				1.1675294637680054,
				0.6357853412628174
			],
			"min":[
				-1.4440512657165527,
				0.10033024847507477,
				-0.49639567732810974
			],
			"type":"VEC3"
		},
		{
			"bufferView":29,
			"componentType":5126,
			"count":18600,
			"type":"VEC3"
		},
		{
			"bufferView":30,
			"componentType":5126,
			"count":18600,
			"type":"VEC2"
		},
		{
			"bufferView":31,
			"componentType":5126,
			"count":18600,
			"type":"VEC2"
		},
		{
			"bufferView":32,
			"componentType":5126,
			"count":18600,
			"type":"VEC2"
		},
		{
			"bufferView":33,
			"componentType":5126,
			"count":18600,
			"type":"VEC2"
		},
		{
			"bufferView":34,
			"componentType":5123,
			"count":19116,
			"type":"SCALAR"
		},
		{
			"bufferView":35,
			"componentType":5126,
			"count":6192,
			"max":[
				1.42317533493042,
				1.1684763431549072,
				-0.2079373449087143
			],
			"min":[
				0.45592790842056274,
				0.3309597671031952,
				-0.4969654381275177
			],
			"type":"VEC3"
		},
		{
			"bufferView":36,
			"componentType":5126,
			"count":6192,
			"type":"VEC3"
		},
		{
			"bufferView":37,
			"componentType":5126,
			"count":6192,
			"type":"VEC2"
		},
		{
			"bufferView":38,
			"componentType":5126,
			"count":6192,
			"type":"VEC2"
		},
		{
			"bufferView":39,
			"componentType":5126,
			"count":6192,
			"type":"VEC2"
		},
		{
			"bufferView":40,
			"componentType":5126,
			"count":6192,
			"type":"VEC2"
		},
		{
			"bufferView":41,
			"componentType":5123,
			"count":6372,
			"type":"SCALAR"
		},
		{
			"bufferView":42,
			"componentType":5126,
			"count":15320,
			"max":[
				1.1598339080810547,
				0.7807009816169739,
				-0.03915905952453613
			],
			"min":[
				-1.1417484283447266,
				0.3554506301879883,
				-0.24874162673950195
			],
			"type":"VEC3"
		},
		{
			"bufferView":43,
			"componentType":5126,
			"count":15320,
			"type":"VEC3"
		},
		{
			"bufferView":44,
			"componentType":5126,
			"count":15320,
			"type":"VEC2"
		},
		{
			"bufferView":45,
			"componentType":5126,
			"count":15320,
			"type":"VEC2"
		},
		{
			"bufferView":46,
			"componentType":5126,
			"count":15320,
			"type":"VEC2"
		},
		{
			"bufferView":47,
			"componentType":5126,
			"count":15320,
			"type":"VEC2"
		},
		{
			"bufferView":48,
			"componentType":5123,
			"count":17370,
			"type":"SCALAR"
		},
		{
			"bufferView":49,
			"componentType":5126,
			"count":2429,
			"max":[
				1.547663927078247,
				-0.08065139502286911,
				0.5146242380142212
			],
			"min":[
				-1.5476804971694946,
				-0.16081692278385162,
				-0.5146243572235107
			],
			"type":"VEC3"
		},
		{
			"bufferView":50,
			"componentType":5126,
			"count":2429,
			"type":"VEC3"
		},
		{
			"bufferView":51,
			"componentType":5126,
			"count":2429,
			"type":"VEC2"
		},
		{
			"bufferView":52,
			"componentType":5126,
			"count":2429,
			"type":"VEC2"
		},
		{
			"bufferView":53,
			"componentType":5126,
			"count":2429,
			"type":"VEC2"
		},
		{
			"bufferView":54,
			"componentType":5126,
			"count":2429,
			"type":"VEC2"
		},
		{
			"bufferView":55,
			"componentType":5123,
			"count":2529,
			"type":"SCALAR"
		},
		{
			"bufferView":56,
			"componentType":5126,
			"count":528,
			"max":[
				1.6887708902359009,
				0.527816891670227,
				0.5844887495040894
			],
			"min":[
				1.34236741065979,
				-0.08096927404403687,
				-0.6689785122871399
			],
			"type":"VEC3"
		},
		{
			"bufferView":57,
			"componentType":5126,
			"count":528,
			"type":"VEC3"
		},
		{
			"bufferView":58,
			"componentType":5126,
			"count":528,
			"type":"VEC2"
		},
		{
			"bufferView":59,
			"componentType":5126,
			"count":528,
			"type":"VEC2"
		},
		{
			"bufferView":60,
			"componentType":5126,
			"count":528,
			"type":"VEC2"
		},
		{
			"bufferView":61,
			"componentType":5126,
			"count":528,
			"type":"VEC2"
		},
		{
			"bufferView":62,
			"componentType":5123,
			"count":1812,
			"type":"SCALAR"
		}
	],
	"bufferViews":[
		{
			"buffer":0,
			"byteLength":469656,
			"byteOffset":0,
			"target":34962
		},
		{
			"buffer":0,
			"byteLength":469656,
			"byteOffset":469656,
			"target":34962
		},
		{
			"buffer":0,
			"byteLength":313104,
			"byteOffset":939312,
			"target":34962
		},
		{
			"buffer":0,
			"byteLength":313104,
			"byteOffset":1252416,
			"target":34962
		},
		{
			"buffer":0,
			"byteLength":313104,
			"byteOffset":1565520,
			"target":34962
		},
		{
			"buffer":0,
			"byteLength":313104,
			"byteOffset":1878624,
			"target":34962
		},
		{
			"buffer":0,
			"byteLength":90960,
			"byteOffset":2191728,
			"target":34963
		},
		{
			"buffer":0,
			"byteLength":169992,
			"byteOffset":2282688,
			"target":34962
		},
		{
			"buffer":0,
			"byteLength":169992,
			"byteOffset":2452680,
			"target":34962
		},
		{
			"buffer":0,
			"byteLength":113328,
			"byteOffset":2622672,
			"target":34962
		},
		{
			"buffer":0,
			"byteLength":113328,
			"byteOffset":2736000,
			"target":34962
		},
		{
			"buffer":0,
			"byteLength":113328,
			"byteOffset":2849328,
			"target":34962
		},
		{
			"buffer":0,
			"byteLength":113328,
			"byteOffset":2962656,
			"target":34962
		},
		{
			"buffer":0,
			"byteLength":39984,
			"byteOffset":3075984,
			"target":34963
		},
		{
			"buffer":0,
			"byteLength":183696,
			"byteOffset":3115968,
			"target":34962
		},
		{
			"buffer":0,
			"byteLength":183696,
			"byteOffset":3299664,
			"target":34962
		},
		{
			"buffer":0,
			"byteLength":122464,
			"byteOffset":3483360,
			"target":34962
		},
		{
			"buffer":0,
			"byteLength":122464,
			"byteOffset":3605824,
			"target":34962
		},
		{
			"buffer":0,
			"byteLength":122464,
			"byteOffset":3728288,
			"target":34962
		},
		{
			"buffer":0,
			"byteLength":122464,
			"byteOffset":3850752,
			"target":34962
		},
		{
			"buffer":0,
			"byteLength":34740,
			"byteOffset":3973216,
			"target":34963
		},
		{
			"buffer":0,
			"byteLength":28956,
			"byteOffset":4007956,
			"target":34962
		},
		{
			"buffer":0,
			"byteLength":28956,
			"byteOffset":4036912,
			"target":34962
		},
		{
			"buffer":0,
			"byteLength":19304,
			"byteOffset":4065868,
			"target":34962
		},
		{
			"buffer":0,
			"byteLength":19304,
			"byteOffset":4085172,
			"target":34962
		},
		{
			"buffer":0,
			"byteLength":19304,
			"byteOffset":4104476,
			"target":34962
		},
		{
			"buffer":0,
			"byteLength":19304,
			"byteOffset":4123780,
			"target":34962
		},
		{
			"buffer":0,
			"byteLength":5058,
			"byteOffset":4143084,
			"target":34963
		},
		{
			"buffer":0,
			"byteLength":223200,
			"byteOffset":4148144,
			"target":34962
		},
		{
			"buffer":0,
			"byteLength":223200,
			"byteOffset":4371344,
			"target":34962
		},
		{
			"buffer":0,
			"byteLength":148800,
			"byteOffset":4594544,
			"target":34962
		},
		{
			"buffer":0,
			"byteLength":148800,
			"byteOffset":4743344,
			"target":34962
		},
		{
			"buffer":0,
			"byteLength":148800,
			"byteOffset":4892144,
			"target":34962
		},
		{
			"buffer":0,
			"byteLength":148800,
			"byteOffset":5040944,
			"target":34962
		},
		{
			"buffer":0,
			"byteLength":38232,
			"byteOffset":5189744,
			"target":34963
		},
		{
			"buffer":0,
			"byteLength":74304,
			"byteOffset":5227976,
			"target":34962
		},
		{
			"buffer":0,
			"byteLength":74304,
			"byteOffset":5302280,
			"target":34962
		},
		{
			"buffer":0,
			"byteLength":49536,
			"byteOffset":5376584,
			"target":34962
		},
		{
			"buffer":0,
			"byteLength":49536,
			"byteOffset":5426120,
			"target":34962
		},
		{
			"buffer":0,
			"byteLength":49536,
			"byteOffset":5475656,
			"target":34962
		},
		{
			"buffer":0,
			"byteLength":49536,
			"byteOffset":5525192,
			"target":34962
		},
		{
			"buffer":0,
			"byteLength":12744,
			"byteOffset":5574728,
			"target":34963
		},
		{
			"buffer":0,
			"byteLength":183840,
			"byteOffset":5587472,
			"target":34962
		},
		{
			"buffer":0,
			"byteLength":183840,
			"byteOffset":5771312,
			"target":34962
		},
		{
			"buffer":0,
			"byteLength":122560,
			"byteOffset":5955152,
			"target":34962
		},
		{
			"buffer":0,
			"byteLength":122560,
			"byteOffset":6077712,
			"target":34962
		},
		{
			"buffer":0,
			"byteLength":122560,
			"byteOffset":6200272,
			"target":34962
		},
		{
			"buffer":0,
			"byteLength":122560,
			"byteOffset":6322832,
			"target":34962
		},
		{
			"buffer":0,
			"byteLength":34740,
			"byteOffset":6445392,
			"target":34963
		},
		{
			"buffer":0,
			"byteLength":29148,
			"byteOffset":6480132,
			"target":34962
		},
		{
			"buffer":0,
			"byteLength":29148,
			"byteOffset":6509280,
			"target":34962
		},
		{
			"buffer":0,
			"byteLength":19432,
			"byteOffset":6538428,
			"target":34962
		},
		{
			"buffer":0,
			"byteLength":19432,
			"byteOffset":6557860,
			"target":34962
		},
		{
			"buffer":0,
			"byteLength":19432,
			"byteOffset":6577292,
			"target":34962
		},
		{
			"buffer":0,
			"byteLength":19432,
			"byteOffset":6596724,
			"target":34962
		},
		{
			"buffer":0,
			"byteLength":5058,
			"byteOffset":6616156,
			"target":34963
		},
		{
			"buffer":0,
			"byteLength":6336,
			"byteOffset":6621216,
			"target":34962
		},
		{
			"buffer":0,
			"byteLength":6336,
			"byteOffset":6627552,
			"target":34962
		},
		{
			"buffer":0,
			"byteLength":4224,
			"byteOffset":6633888,
			"target":34962
		},
		{
			"buffer":0,
			"byteLength":4224,
			"byteOffset":6638112,
			"target":34962
		},
		{
			"buffer":0,
			"byteLength":4224,
			"byteOffset":6642336,
			"target":34962
		},
		{
			"buffer":0,
			"byteLength":4224,
			"byteOffset":6646560,
			"target":34962
		},
		{
			"buffer":0,
			"byteLength":3624,
			"byteOffset":6650784,
			"target":34963
		}
	],
	"samplers":[
		{
			"magFilter":9729,
			"minFilter":9987
		}
	],
	"buffers":[
		{
			"byteLength":6654408,
			"uri":"scene.bin"
		}
	]
}
