{
	"asset":{
		"generator":"Khronos glTF Blender I/O v4.3.47",
		"version":"2.0"
	},
	"scene":0,
	"scenes":[
		{
			"name":"Scene",
			"nodes":[
				0
			]
		}
	],
	"nodes":[
		{
			"mesh":0,
			"name":"Cylinder.001"
		}
	],
	"materials":[
		{
			"doubleSided":true,
			"name":"Wood",
			"normalTexture":{
				"index":0,
				"texCoord":1
			},
			"pbrMetallicRoughness":{
				"baseColorTexture":{
					"index":1,
					"texCoord":1
				},
				"metallicFactor":0,
				"metallicRoughnessTexture":{
					"index":2,
					"texCoord":1
				}
			}
		},
		{
			"doubleSided":true,
			"name":"Material.002",
			"pbrMetallicRoughness":{
				"baseColorTexture":{
					"index":3,
					"texCoord":1
				},
				"metallicFactor":0,
				"roughnessFactor":0.8177570104598999
			}
		},
		{
			"doubleSided":true,
			"name":"Material.003",
			"pbrMetallicRoughness":{
				"baseColorTexture":{
					"index":4,
					"texCoord":1
				},
				"metallicFactor":0,
				"roughnessFactor":0.5
			}
		},
		{
			"doubleSided":true,
			"name":"Material",
			"pbrMetallicRoughness":{
				"baseColorTexture":{
					"index":5,
					"texCoord":1
				},
				"metallicFactor":0,
				"roughnessFactor":0.7429906725883484
			}
		},
		{
			"doubleSided":true,
			"name":"Material.006",
			"pbrMetallicRoughness":{
				"baseColorTexture":{
					"index":6,
					"texCoord":1
				},
				"metallicFactor":0,
				"roughnessFactor":0.5
			}
		}
	],
	"meshes":[
		{
			"name":"Cylinder.001",
			"primitives":[
				{
					"attributes":{
						"POSITION":0,
						"NORMAL":1,
						"TEXCOORD_0":2,
						"TEXCOORD_1":3
					},
					"indices":4,
					"material":0
				},
				{
					"attributes":{
						"POSITION":5,
						"NORMAL":6,
						"TEXCOORD_0":7,
						"TEXCOORD_1":8
					},
					"indices":9,
					"material":1
				},
				{
					"attributes":{
						"POSITION":10,
						"NORMAL":11,
						"TEXCOORD_0":12,
						"TEXCOORD_1":13
					},
					"indices":14,
					"material":2
				},
				{
					"attributes":{
						"POSITION":15,
						"NORMAL":16,
						"TEXCOORD_0":17,
						"TEXCOORD_1":18
					},
					"indices":19
				},
				{
					"attributes":{
						"POSITION":20,
						"NORMAL":21,
						"TEXCOORD_0":22,
						"TEXCOORD_1":23
					},
					"indices":24,
					"material":3
				},
				{
					"attributes":{
						"POSITION":25,
						"NORMAL":26,
						"TEXCOORD_0":27,
						"TEXCOORD_1":28
					},
					"indices":29,
					"material":4
				}
			]
		}
	],
	"textures":[
		{
			"sampler":0,
			"source":0
		},
		{
			"sampler":0,
			"source":1
		},
		{
			"sampler":0,
			"source":2
		},
		{
			"sampler":0,
			"source":3
		},
		{
			"sampler":0,
			"source":1
		},
		{
			"sampler":0,
			"source":4
		},
		{
			"sampler":0,
			"source":4
		}
	],
	"images":[
		{
			"mimeType":"image/jpeg",
			"name":"wood__normal",
			"uri":"wood__normal.jpg"
		},
		{
			"mimeType":"image/jpeg",
			"name":"Old_Plywood_vigjfivg_1K_BaseColor",
			"uri":"Old_Plywood_vigjfivg_1K_BaseColor.jpg"
		},
		{
			"mimeType":"image/png",
			"name":"wood__glossiness",
			"uri":"wood__glossiness.png"
		},
		{
			"mimeType":"image/jpeg",
			"name":"Old_Plywood_vigjfivg_1K_Bump",
			"uri":"Old_Plywood_vigjfivg_1K_Bump.jpg"
		},
		{
			"mimeType":"image/jpeg",
			"name":"T_umonab2dy_1K_T.jpg",
			"uri":"T_umonab2dy_1K_T_jpg.jpg"
		}
	],
	"accessors":[
		{
			"bufferView":0,
			"componentType":5126,
			"count":506,
			"max":[
				1.407942771911621,
				-0.25850874185562134,
				0.8558170199394226
			],
			"min":[
				-4.5766425132751465,
				-0.6777389049530029,
				-0.8492400646209717
			],
			"type":"VEC3"
		},
		{
			"bufferView":1,
			"componentType":5126,
			"count":506,
			"type":"VEC3"
		},
		{
			"bufferView":2,
			"componentType":5126,
			"count":506,
			"type":"VEC2"
		},
		{
			"bufferView":3,
			"componentType":5126,
			"count":506,
			"type":"VEC2"
		},
		{
			"bufferView":4,
			"componentType":5123,
			"count":1362,
			"type":"SCALAR"
		},
		{
			"bufferView":5,
			"componentType":5126,
			"count":6672,
			"max":[
				1.6384716033935547,
				1.2598240375518799,
				0.993922770023346
			],
			"min":[
				-4.777597904205322,
				-0.2720398008823395,
				-1.5418829917907715
			],
			"type":"VEC3"
		},
		{
			"bufferView":6,
			"componentType":5126,
			"count":6672,
			"type":"VEC3"
		},
		{
			"bufferView":7,
			"componentType":5126,
			"count":6672,
			"type":"VEC2"
		},
		{
			"bufferView":8,
			"componentType":5126,
			"count":6672,
			"type":"VEC2"
		},
		{
			"bufferView":9,
			"componentType":5123,
			"count":32016,
			"type":"SCALAR"
		},
		{
			"bufferView":10,
			"componentType":5126,
			"count":144,
			"max":[
				1.669281005859375,
				1.1629555225372314,
				0.9468426704406738
			],
			"min":[
				-4.85418701171875,
				-0.6777389049530029,
				-1.7177016735076904
			],
			"type":"VEC3"
		},
		{
			"bufferView":11,
			"componentType":5126,
			"count":144,
			"type":"VEC3"
		},
		{
			"bufferView":12,
			"componentType":5126,
			"count":144,
			"type":"VEC2"
		},
		{
			"bufferView":13,
			"componentType":5126,
			"count":144,
			"type":"VEC2"
		},
		{
			"bufferView":14,
			"componentType":5123,
			"count":270,
			"type":"SCALAR"
		},
		{
			"bufferView":15,
			"componentType":5126,
			"count":6,
			"max":[
				1.6032495498657227,
				-0.08011850714683533,
				-1.6868114471435547e-05
			],
			"min":[
				1.5380043983459473,
				-0.15206342935562134,
				-0.17107665538787842
			],
			"type":"VEC3"
		},
		{
			"bufferView":16,
			"componentType":5126,
			"count":6,
			"type":"VEC3"
		},
		{
			"bufferView":17,
			"componentType":5126,
			"count":6,
			"type":"VEC2"
		},
		{
			"bufferView":18,
			"componentType":5126,
			"count":6,
			"type":"VEC2"
		},
		{
			"bufferView":19,
			"componentType":5123,
			"count":12,
			"type":"SCALAR"
		},
		{
			"bufferView":20,
			"componentType":5126,
			"count":966,
			"max":[
				1.5405211448669434,
				0.9303111433982849,
				0.5484954118728638
			],
			"min":[
				0.6831917762756348,
				0.20528113842010498,
				-0.8043416738510132
			],
			"type":"VEC3"
		},
		{
			"bufferView":21,
			"componentType":5126,
			"count":966,
			"type":"VEC3"
		},
		{
			"bufferView":22,
			"componentType":5126,
			"count":966,
			"type":"VEC2"
		},
		{
			"bufferView":23,
			"componentType":5126,
			"count":966,
			"type":"VEC2"
		},
		{
			"bufferView":24,
			"componentType":5123,
			"count":4014,
			"type":"SCALAR"
		},
		{
			"bufferView":25,
			"componentType":5126,
			"count":927,
			"max":[
				-3.7870447635650635,
				0.9216243624687195,
				0.5484954118728638
			],
			"min":[
				-4.673327445983887,
				0.18206417560577393,
				-0.916098952293396
			],
			"type":"VEC3"
		},
		{
			"bufferView":26,
			"componentType":5126,
			"count":927,
			"type":"VEC3"
		},
		{
			"bufferView":27,
			"componentType":5126,
			"count":927,
			"type":"VEC2"
		},
		{
			"bufferView":28,
			"componentType":5126,
			"count":927,
			"type":"VEC2"
		},
		{
			"bufferView":29,
			"componentType":5123,
			"count":3774,
			"type":"SCALAR"
		}
	],
	"bufferViews":[
		{
			"buffer":0,
			"byteLength":6072,
			"byteOffset":0,
			"target":34962
		},
		{
			"buffer":0,
			"byteLength":6072,
			"byteOffset":6072,
			"target":34962
		},
		{
			"buffer":0,
			"byteLength":4048,
			"byteOffset":12144,
			"target":34962
		},
		{
			"buffer":0,
			"byteLength":4048,
			"byteOffset":16192,
			"target":34962
		},
		{
			"buffer":0,
			"byteLength":2724,
			"byteOffset":20240,
			"target":34963
		},
		{
			"buffer":0,
			"byteLength":80064,
			"byteOffset":22964,
			"target":34962
		},
		{
			"buffer":0,
			"byteLength":80064,
			"byteOffset":103028,
			"target":34962
		},
		{
			"buffer":0,
			"byteLength":53376,
			"byteOffset":183092,
			"target":34962
		},
		{
			"buffer":0,
			"byteLength":53376,
			"byteOffset":236468,
			"target":34962
		},
		{
			"buffer":0,
			"byteLength":64032,
			"byteOffset":289844,
			"target":34963
		},
		{
			"buffer":0,
			"byteLength":1728,
			"byteOffset":353876,
			"target":34962
		},
		{
			"buffer":0,
			"byteLength":1728,
			"byteOffset":355604,
			"target":34962
		},
		{
			"buffer":0,
			"byteLength":1152,
			"byteOffset":357332,
			"target":34962
		},
		{
			"buffer":0,
			"byteLength":1152,
			"byteOffset":358484,
			"target":34962
		},
		{
			"buffer":0,
			"byteLength":540,
			"byteOffset":359636,
			"target":34963
		},
		{
			"buffer":0,
			"byteLength":72,
			"byteOffset":360176,
			"target":34962
		},
		{
			"buffer":0,
			"byteLength":72,
			"byteOffset":360248,
			"target":34962
		},
		{
			"buffer":0,
			"byteLength":48,
			"byteOffset":360320,
			"target":34962
		},
		{
			"buffer":0,
			"byteLength":48,
			"byteOffset":360368,
			"target":34962
		},
		{
			"buffer":0,
			"byteLength":24,
			"byteOffset":360416,
			"target":34963
		},
		{
			"buffer":0,
			"byteLength":11592,
			"byteOffset":360440,
			"target":34962
		},
		{
			"buffer":0,
			"byteLength":11592,
			"byteOffset":372032,
			"target":34962
		},
		{
			"buffer":0,
			"byteLength":7728,
			"byteOffset":383624,
			"target":34962
		},
		{
			"buffer":0,
			"byteLength":7728,
			"byteOffset":391352,
			"target":34962
		},
		{
			"buffer":0,
			"byteLength":8028,
			"byteOffset":399080,
			"target":34963
		},
		{
			"buffer":0,
			"byteLength":11124,
			"byteOffset":407108,
			"target":34962
		},
		{
			"buffer":0,
			"byteLength":11124,
			"byteOffset":418232,
			"target":34962
		},
		{
			"buffer":0,
			"byteLength":7416,
			"byteOffset":429356,
			"target":34962
		},
		{
			"buffer":0,
			"byteLength":7416,
			"byteOffset":436772,
			"target":34962
		},
		{
			"buffer":0,
			"byteLength":7548,
			"byteOffset":444188,
			"target":34963
		}
	],
	"samplers":[
		{
			"magFilter":9729,
			"minFilter":9987
		}
	],
	"buffers":[
		{
			"byteLength":451736,
			"uri":"scene.bin"
		}
	]
}
