{
	"asset":{
		"generator":"Khronos glTF Blender I/O v4.3.47",
		"version":"2.0"
	},
	"scene":0,
	"scenes":[
		{
			"name":"Scene",
			"nodes":[
				0
			]
		}
	],
	"nodes":[
		{
			"mesh":0,
			"name":"Plane"
		}
	],
	"materials":[
		{
			"doubleSided":true,
			"name":"Material",
			"pbrMetallicRoughness":{
				"baseColorTexture":{
					"index":0
				},
				"metallicFactor":0,
				"roughnessFactor":0.5
			}
		}
	],
	"meshes":[
		{
			"name":"Plane",
			"primitives":[
				{
					"attributes":{
						"POSITION":0,
						"NORMAL":1,
						"TEXCOORD_0":2
					},
					"indices":3,
					"material":0
				}
			]
		}
	],
	"textures":[
		{
			"sampler":0,
			"source":0
		}
	],
	"images":[
		{
			"mimeType":"image/jpeg",
			"name":"rug image 4",
			"uri":"rug%20image%204.jpg"
		}
	],
	"accessors":[
		{
			"bufferView":0,
			"componentType":5126,
			"count":16,
			"max":[
				5.918819427490234,
				1.0467827320098877,
				5.331475734710693
			],
			"min":[
				-5.918819427490234,
				0.9134713411331177,
				-5.331475734710693
			],
			"type":"VEC3"
		},
		{
			"bufferView":1,
			"componentType":5126,
			"count":16,
			"type":"VEC3"
		},
		{
			"bufferView":2,
			"componentType":5126,
			"count":16,
			"type":"VEC2"
		},
		{
			"bufferView":3,
			"componentType":5123,
			"count":24,
			"type":"SCALAR"
		}
	],
	"bufferViews":[
		{
			"buffer":0,
			"byteLength":192,
			"byteOffset":0,
			"target":34962
		},
		{
			"buffer":0,
			"byteLength":192,
			"byteOffset":192,
			"target":34962
		},
		{
			"buffer":0,
			"byteLength":128,
			"byteOffset":384,
			"target":34962
		},
		{
			"buffer":0,
			"byteLength":48,
			"byteOffset":512,
			"target":34963
		}
	],
	"samplers":[
		{
			"magFilter":9729,
			"minFilter":9987
		}
	],
	"buffers":[
		{
			"byteLength":560,
			"uri":"scene.bin"
		}
	]
}
