{
	"asset":{
		"generator":"Khronos glTF Blender I/O v4.3.47",
		"version":"2.0"
	},
	"scene":0,
	"scenes":[
		{
			"name":"Scene",
			"nodes":[
				0
			]
		}
	],
	"nodes":[
		{
			"mesh":0,
			"name":"Mesh.001"
		}
	],
	"materials":[
		{
			"doubleSided":true,
			"name":"Material.001",
			"pbrMetallicRoughness":{
				"baseColorFactor":[
					0.35453420877456665,
					0.3597037196159363,
					0.3597037196159363,
					1
				],
				"metallicFactor":0,
				"roughnessFactor":0.5
			}
		},
		{
			"doubleSided":true,
			"name":"Material.002",
			"pbrMetallicRoughness":{
				"baseColorTexture":{
					"index":0,
					"texCoord":1
				},
				"metallicFactor":0,
				"roughnessFactor":0.5
			}
		}
	],
	"meshes":[
		{
			"name":"Mesh.001",
			"primitives":[
				{
					"attributes":{
						"POSITION":0,
						"NORMAL":1,
						"TEXCOORD_0":2,
						"TEXCOORD_1":3
					},
					"indices":4,
					"material":0
				},
				{
					"attributes":{
						"POSITION":5,
						"NORMAL":6,
						"TEXCOORD_0":7,
						"TEXCOORD_1":8
					},
					"indices":9,
					"material":1
				}
			]
		}
	],
	"textures":[
		{
			"sampler":0,
			"source":0
		}
	],
	"images":[
		{
			"mimeType":"image/jpeg",
			"name":"Denim_xiurbeml_1K_Gloss",
			"uri":"Denim_xiurbeml_1K_Gloss.jpg"
		}
	],
	"accessors":[
		{
			"bufferView":0,
			"componentType":5126,
			"count":16,
			"max":[
				5.567748069763184,
				1.0467827320098877,
				5.331475734710693
			],
			"min":[
				-5.567748069763184,
				0.9134713411331177,
				-5.331475734710693
			],
			"type":"VEC3"
		},
		{
			"bufferView":1,
			"componentType":5126,
			"count":16,
			"type":"VEC3"
		},
		{
			"bufferView":2,
			"componentType":5126,
			"count":16,
			"type":"VEC2"
		},
		{
			"bufferView":3,
			"componentType":5126,
			"count":16,
			"type":"VEC2"
		},
		{
			"bufferView":4,
			"componentType":5123,
			"count":24,
			"type":"SCALAR"
		},
		{
			"bufferView":5,
			"componentType":5126,
			"count":4,
			"max":[
				5.351262092590332,
				0.9960367679595947,
				5.337606430053711
			],
			"min":[
				-5.258225440979004,
				0.9960367679595947,
				-5.267268180847168
			],
			"type":"VEC3"
		},
		{
			"bufferView":6,
			"componentType":5126,
			"count":4,
			"type":"VEC3"
		},
		{
			"bufferView":7,
			"componentType":5126,
			"count":4,
			"type":"VEC2"
		},
		{
			"bufferView":8,
			"componentType":5126,
			"count":4,
			"type":"VEC2"
		},
		{
			"bufferView":9,
			"componentType":5123,
			"count":6,
			"type":"SCALAR"
		}
	],
	"bufferViews":[
		{
			"buffer":0,
			"byteLength":192,
			"byteOffset":0,
			"target":34962
		},
		{
			"buffer":0,
			"byteLength":192,
			"byteOffset":192,
			"target":34962
		},
		{
			"buffer":0,
			"byteLength":128,
			"byteOffset":384,
			"target":34962
		},
		{
			"buffer":0,
			"byteLength":128,
			"byteOffset":512,
			"target":34962
		},
		{
			"buffer":0,
			"byteLength":48,
			"byteOffset":640,
			"target":34963
		},
		{
			"buffer":0,
			"byteLength":48,
			"byteOffset":688,
			"target":34962
		},
		{
			"buffer":0,
			"byteLength":48,
			"byteOffset":736,
			"target":34962
		},
		{
			"buffer":0,
			"byteLength":32,
			"byteOffset":784,
			"target":34962
		},
		{
			"buffer":0,
			"byteLength":32,
			"byteOffset":816,
			"target":34962
		},
		{
			"buffer":0,
			"byteLength":12,
			"byteOffset":848,
			"target":34963
		}
	],
	"samplers":[
		{
			"magFilter":9729,
			"minFilter":9987
		}
	],
	"buffers":[
		{
			"byteLength":860,
			"uri":"scene.bin"
		}
	]
}
