{
	"asset":{
		"generator":"Khronos glTF Blender I/O v4.1.62",
		"version":"2.0"
	},
	"scene":0,
	"scenes":[
		{
			"name":"Scene",
			"nodes":[
				0
			]
		}
	],
	"nodes":[
		{
			"mesh":0,
			"name":"Cube.001",
			"scale":[
				0.14169266819953918,
				0.14169266819953918,
				0.14169266819953918
			],
			"translation":[
				-0.3702162504196167,
				0.9419835209846497,
				0.11915397644042969
			]
		}
	],
	"meshes":[
		{
			"name":"Cube.002",
			"primitives":[
				{
					"attributes":{
						"POSITION":0,
						"NORMAL":1,
						"TEXCOORD_0":2
					},
					"indices":3
				}
			]
		}
	],
	"accessors":[
		{
			"bufferView":0,
			"componentType":5126,
			"count":27338,
			"max":[
				5.991973876953125,
				4.044168472290039,
				2.838261842727661
			],
			"min":[
				-0.6086034774780273,
				-6.430215358734131,
				-4.329348087310791
			],
			"type":"VEC3"
		},
		{
			"bufferView":1,
			"componentType":5126,
			"count":27338,
			"type":"VEC3"
		},
		{
			"bufferView":2,
			"componentType":5126,
			"count":27338,
			"type":"VEC2"
		},
		{
			"bufferView":3,
			"componentType":5123,
			"count":152964,
			"type":"SCALAR"
		}
	],
	"bufferViews":[
		{
			"buffer":0,
			"byteLength":328056,
			"byteOffset":0,
			"target":34962
		},
		{
			"buffer":0,
			"byteLength":328056,
			"byteOffset":328056,
			"target":34962
		},
		{
			"buffer":0,
			"byteLength":218704,
			"byteOffset":656112,
			"target":34962
		},
		{
			"buffer":0,
			"byteLength":305928,
			"byteOffset":874816,
			"target":34963
		}
	],
	"buffers":[
		{
			"byteLength":1180744,
			"uri":"scene.bin"
		}
	]
}
