{
	"asset":{
		"generator":"Khronos glTF Blender I/O v4.3.47",
		"version":"2.0"
	},
	"scene":0,
	"scenes":[
		{
			"name":"Scene",
			"nodes":[
				0
			]
		}
	],
	"nodes":[
		{
			"mesh":0,
			"name":"Cube.006"
		}
	],
	"materials":[
		{
			"doubleSided":true,
			"name":"Scanned Cream Fabric",
			"normalTexture":{
				"index":0,
				"texCoord":1
			},
			"pbrMetallicRoughness":{
				"baseColorTexture":{
					"index":1,
					"texCoord":1
				},
				"metallicFactor":0,
				"metallicRoughnessTexture":{
					"index":2,
					"texCoord":1
				}
			}
		}
	],
	"meshes":[
		{
			"name":"Cube.007",
			"primitives":[
				{
					"attributes":{
						"POSITION":0,
						"NORMAL":1,
						"TEXCOORD_0":2,
						"TEXCOORD_1":3
					},
					"indices":4,
					"material":0
				}
			]
		}
	],
	"textures":[
		{
			"sampler":0,
			"source":0
		},
		{
			"sampler":0,
			"source":1
		},
		{
			"sampler":0,
			"source":2
		}
	],
	"images":[
		{
			"mimeType":"image/jpeg",
			"name":"fabric_188_Normal",
			"uri":"fabric_188_Normal.jpg"
		},
		{
			"mimeType":"image/jpeg",
			"name":"fabric_188_Albedo",
			"uri":"fabric_188_Albedo.jpg"
		},
		{
			"mimeType":"image/png",
			"name":"fabric_188_Roughness",
			"uri":"fabric_188_Roughness.png"
		}
	],
	"accessors":[
		{
			"bufferView":0,
			"componentType":5126,
			"count":55909,
			"max":[
				4.424566268920898,
				1.66856050491333,
				9.265572547912598
			],
			"min":[
				-6.9077630043029785,
				-0.8315491676330566,
				-2.4687023162841797
			],
			"type":"VEC3"
		},
		{
			"bufferView":1,
			"componentType":5126,
			"count":55909,
			"type":"VEC3"
		},
		{
			"bufferView":2,
			"componentType":5126,
			"count":55909,
			"type":"VEC2"
		},
		{
			"bufferView":3,
			"componentType":5126,
			"count":55909,
			"type":"VEC2"
		},
		{
			"bufferView":4,
			"componentType":5123,
			"count":93096,
			"type":"SCALAR"
		}
	],
	"bufferViews":[
		{
			"buffer":0,
			"byteLength":670908,
			"byteOffset":0,
			"target":34962
		},
		{
			"buffer":0,
			"byteLength":670908,
			"byteOffset":670908,
			"target":34962
		},
		{
			"buffer":0,
			"byteLength":447272,
			"byteOffset":1341816,
			"target":34962
		},
		{
			"buffer":0,
			"byteLength":447272,
			"byteOffset":1789088,
			"target":34962
		},
		{
			"buffer":0,
			"byteLength":186192,
			"byteOffset":2236360,
			"target":34963
		}
	],
	"samplers":[
		{
			"magFilter":9729,
			"minFilter":9987
		}
	],
	"buffers":[
		{
			"byteLength":2422552,
			"uri":"scene.bin"
		}
	]
}
