{
	"asset":{
		"generator":"Khronos glTF Blender I/O v4.3.47",
		"version":"2.0"
	},
	"scene":0,
	"scenes":[
		{
			"name":"Scene",
			"nodes":[
				0
			]
		}
	],
	"nodes":[
		{
			"mesh":0,
			"name":"Cube.001"
		}
	],
	"materials":[
		{
			"doubleSided":true,
			"name":"Material",
			"pbrMetallicRoughness":{
				"baseColorTexture":{
					"index":0,
					"texCoord":1
				},
				"metallicFactor":0,
				"roughnessFactor":0.5
			}
		},
		{
			"doubleSided":true,
			"name":"Raw iron",
			"normalTexture":{
				"index":1,
				"texCoord":1
			},
			"pbrMetallicRoughness":{
				"baseColorTexture":{
					"index":2,
					"texCoord":1
				},
				"metallicRoughnessTexture":{
					"index":3,
					"texCoord":1
				}
			}
		},
		{
			"doubleSided":true,
			"name":"Material.005",
			"pbrMetallicRoughness":{
				"baseColorTexture":{
					"index":4,
					"texCoord":1
				},
				"metallicFactor":0,
				"roughnessFactor":0.5
			}
		},
		{
			"doubleSided":true,
			"name":"Material.006",
			"pbrMetallicRoughness":{
				"baseColorTexture":{
					"index":5,
					"texCoord":1
				},
				"metallicFactor":0,
				"roughnessFactor":0.5
			}
		},
		{
			"doubleSided":true,
			"name":"Material.007",
			"pbrMetallicRoughness":{
				"baseColorTexture":{
					"index":6,
					"texCoord":1
				},
				"metallicFactor":0,
				"roughnessFactor":0.5
			}
		},
		{
			"doubleSided":true,
			"name":"Material.001",
			"pbrMetallicRoughness":{
				"baseColorTexture":{
					"index":7,
					"texCoord":1
				},
				"metallicFactor":0,
				"roughnessFactor":0.5
			}
		},
		{
			"doubleSided":true,
			"name":"Material.002",
			"pbrMetallicRoughness":{
				"baseColorTexture":{
					"index":8,
					"texCoord":1
				},
				"metallicFactor":0,
				"roughnessFactor":0.5
			}
		},
		{
			"doubleSided":true,
			"name":"Material.004",
			"pbrMetallicRoughness":{
				"baseColorTexture":{
					"index":9,
					"texCoord":1
				},
				"metallicFactor":0,
				"roughnessFactor":0.5
			}
		},
		{
			"doubleSided":true,
			"name":"Material.003",
			"pbrMetallicRoughness":{
				"baseColorTexture":{
					"index":10,
					"texCoord":1
				},
				"metallicFactor":0,
				"roughnessFactor":0.5
			}
		},
		{
			"doubleSided":true,
			"name":"Material.009",
			"pbrMetallicRoughness":{
				"baseColorTexture":{
					"index":11,
					"texCoord":1
				},
				"metallicFactor":0,
				"roughnessFactor":0.5
			}
		},
		{
			"doubleSided":true,
			"name":"Material.008",
			"pbrMetallicRoughness":{
				"baseColorTexture":{
					"index":12,
					"texCoord":1
				},
				"metallicFactor":0,
				"roughnessFactor":0.5
			}
		}
	],
	"meshes":[
		{
			"name":"Cube.002",
			"primitives":[
				{
					"attributes":{
						"POSITION":0,
						"NORMAL":1,
						"TEXCOORD_0":2,
						"TEXCOORD_1":3
					},
					"indices":4,
					"material":0
				},
				{
					"attributes":{
						"POSITION":5,
						"NORMAL":6,
						"TEXCOORD_0":7,
						"TEXCOORD_1":8
					},
					"indices":9,
					"material":1
				},
				{
					"attributes":{
						"POSITION":10,
						"NORMAL":11,
						"TEXCOORD_0":12,
						"TEXCOORD_1":13
					},
					"indices":14,
					"material":2
				},
				{
					"attributes":{
						"POSITION":15,
						"NORMAL":16,
						"TEXCOORD_0":17,
						"TEXCOORD_1":18
					},
					"indices":19,
					"material":3
				},
				{
					"attributes":{
						"POSITION":20,
						"NORMAL":21,
						"TEXCOORD_0":22,
						"TEXCOORD_1":23
					},
					"indices":24,
					"material":4
				},
				{
					"attributes":{
						"POSITION":25,
						"NORMAL":26,
						"TEXCOORD_0":27,
						"TEXCOORD_1":28
					},
					"indices":29,
					"material":0
				},
				{
					"attributes":{
						"POSITION":30,
						"NORMAL":31,
						"TEXCOORD_0":32,
						"TEXCOORD_1":33
					},
					"indices":29,
					"material":5
				},
				{
					"attributes":{
						"POSITION":34,
						"NORMAL":35,
						"TEXCOORD_0":36,
						"TEXCOORD_1":37
					},
					"indices":29,
					"material":6
				},
				{
					"attributes":{
						"POSITION":38,
						"NORMAL":39,
						"TEXCOORD_0":40,
						"TEXCOORD_1":41
					},
					"indices":42,
					"material":7
				},
				{
					"attributes":{
						"POSITION":43,
						"NORMAL":44,
						"TEXCOORD_0":45,
						"TEXCOORD_1":46
					},
					"indices":47,
					"material":8
				},
				{
					"attributes":{
						"POSITION":48,
						"NORMAL":49,
						"TEXCOORD_0":50,
						"TEXCOORD_1":51
					},
					"indices":47,
					"material":9
				},
				{
					"attributes":{
						"POSITION":52,
						"NORMAL":53,
						"TEXCOORD_0":54,
						"TEXCOORD_1":55
					},
					"indices":56,
					"material":10
				}
			]
		}
	],
	"textures":[
		{
			"sampler":0,
			"source":0
		},
		{
			"sampler":0,
			"source":1
		},
		{
			"sampler":0,
			"source":2
		},
		{
			"sampler":0,
			"source":3
		},
		{
			"sampler":0,
			"source":0
		},
		{
			"sampler":0,
			"source":0
		},
		{
			"sampler":0,
			"source":0
		},
		{
			"sampler":0,
			"source":0
		},
		{
			"sampler":0,
			"source":0
		},
		{
			"sampler":0,
			"source":0
		},
		{
			"sampler":0,
			"source":0
		},
		{
			"sampler":0,
			"source":0
		},
		{
			"sampler":0,
			"source":0
		}
	],
	"images":[
		{
			"mimeType":"image/jpeg",
			"name":"Plywood_vf1oairg_1K_Displacement",
			"uri":"Plywood_vf1oairg_1K_Displacement.jpg"
		},
		{
			"mimeType":"image/jpeg",
			"name":"rawiron_1_Normal",
			"uri":"rawiron_1_Normal.jpg"
		},
		{
			"mimeType":"image/jpeg",
			"name":"rawiron_1_BaseColor",
			"uri":"rawiron_1_BaseColor.jpg"
		},
		{
			"mimeType":"image/png",
			"name":"rawiron_1_Metallic-rawiron_1_Roughness",
			"uri":"rawiron_1_Metallic-rawiron_1_Roughness.png"
		}
	],
	"accessors":[
		{
			"bufferView":0,
			"componentType":5126,
			"count":1652,
			"max":[
				3.684248685836792,
				1.8204667568206787,
				1.1694891452789307
			],
			"min":[
				-2.8758327960968018,
				-0.13642285764217377,
				-1.316637396812439
			],
			"type":"VEC3"
		},
		{
			"bufferView":1,
			"componentType":5126,
			"count":1652,
			"type":"VEC3"
		},
		{
			"bufferView":2,
			"componentType":5126,
			"count":1652,
			"type":"VEC2"
		},
		{
			"bufferView":3,
			"componentType":5126,
			"count":1652,
			"type":"VEC2"
		},
		{
			"bufferView":4,
			"componentType":5123,
			"count":5520,
			"type":"SCALAR"
		},
		{
			"bufferView":5,
			"componentType":5126,
			"count":268,
			"max":[
				3.364535093307495,
				-0.09560078382492065,
				0.8260632753372192
			],
			"min":[
				-2.559138298034668,
				-0.3796355128288269,
				-0.8272716999053955
			],
			"type":"VEC3"
		},
		{
			"bufferView":6,
			"componentType":5126,
			"count":268,
			"type":"VEC3"
		},
		{
			"bufferView":7,
			"componentType":5126,
			"count":268,
			"type":"VEC2"
		},
		{
			"bufferView":8,
			"componentType":5126,
			"count":268,
			"type":"VEC2"
		},
		{
			"bufferView":9,
			"componentType":5123,
			"count":384,
			"type":"SCALAR"
		},
		{
			"bufferView":10,
			"componentType":5126,
			"count":1120,
			"max":[
				-0.3694531321525574,
				0.5487030744552612,
				1.2731194496154785
			],
			"min":[
				-2.2414896488189697,
				0.055241361260414124,
				-0.9627561569213867
			],
			"type":"VEC3"
		},
		{
			"bufferView":11,
			"componentType":5126,
			"count":1120,
			"type":"VEC3"
		},
		{
			"bufferView":12,
			"componentType":5126,
			"count":1120,
			"type":"VEC2"
		},
		{
			"bufferView":13,
			"componentType":5126,
			"count":1120,
			"type":"VEC2"
		},
		{
			"bufferView":14,
			"componentType":5123,
			"count":4806,
			"type":"SCALAR"
		},
		{
			"bufferView":15,
			"componentType":5126,
			"count":1127,
			"max":[
				1.3443102836608887,
				0.5487030744552612,
				1.2734339237213135
			],
			"min":[
				-0.42387479543685913,
				0.05527310073375702,
				-0.9626545310020447
			],
			"type":"VEC3"
		},
		{
			"bufferView":16,
			"componentType":5126,
			"count":1127,
			"type":"VEC3"
		},
		{
			"bufferView":17,
			"componentType":5126,
			"count":1127,
			"type":"VEC2"
		},
		{
			"bufferView":18,
			"componentType":5126,
			"count":1127,
			"type":"VEC2"
		},
		{
			"bufferView":19,
			"componentType":5123,
			"count":4938,
			"type":"SCALAR"
		},
		{
			"bufferView":20,
			"componentType":5126,
			"count":1252,
			"max":[
				3.0401458740234375,
				0.5487030744552612,
				1.2729123830795288
			],
			"min":[
				1.2719606161117554,
				0.05524136498570442,
				-0.9627561569213867
			],
			"type":"VEC3"
		},
		{
			"bufferView":21,
			"componentType":5126,
			"count":1252,
			"type":"VEC3"
		},
		{
			"bufferView":22,
			"componentType":5126,
			"count":1252,
			"type":"VEC2"
		},
		{
			"bufferView":23,
			"componentType":5126,
			"count":1252,
			"type":"VEC2"
		},
		{
			"bufferView":24,
			"componentType":5123,
			"count":4884,
			"type":"SCALAR"
		},
		{
			"bufferView":25,
			"componentType":5126,
			"count":920,
			"max":[
				3.0392463207244873,
				1.947371482849121,
				-0.6413311958312988
			],
			"min":[
				1.2711926698684692,
				0.28175118565559387,
				-1.1764111518859863
			],
			"type":"VEC3"
		},
		{
			"bufferView":26,
			"componentType":5126,
			"count":920,
			"type":"VEC3"
		},
		{
			"bufferView":27,
			"componentType":5126,
			"count":920,
			"type":"VEC2"
		},
		{
			"bufferView":28,
			"componentType":5126,
			"count":920,
			"type":"VEC2"
		},
		{
			"bufferView":29,
			"componentType":5123,
			"count":3900,
			"type":"SCALAR"
		},
		{
			"bufferView":30,
			"componentType":5126,
			"count":920,
			"max":[
				1.3353166580200195,
				1.947371482849121,
				-0.6413311958312988
			],
			"min":[
				-0.432736873626709,
				0.28175118565559387,
				-1.1764111518859863
			],
			"type":"VEC3"
		},
		{
			"bufferView":31,
			"componentType":5126,
			"count":920,
			"type":"VEC3"
		},
		{
			"bufferView":32,
			"componentType":5126,
			"count":920,
			"type":"VEC2"
		},
		{
			"bufferView":33,
			"componentType":5126,
			"count":920,
			"type":"VEC2"
		},
		{
			"bufferView":34,
			"componentType":5126,
			"count":920,
			"max":[
				-0.3593135476112366,
				1.947371482849121,
				-0.6413311958312988
			],
			"min":[
				-2.1273670196533203,
				0.28175118565559387,
				-1.1764111518859863
			],
			"type":"VEC3"
		},
		{
			"bufferView":35,
			"componentType":5126,
			"count":920,
			"type":"VEC3"
		},
		{
			"bufferView":36,
			"componentType":5126,
			"count":920,
			"type":"VEC2"
		},
		{
			"bufferView":37,
			"componentType":5126,
			"count":920,
			"type":"VEC2"
		},
		{
			"bufferView":38,
			"componentType":5126,
			"count":1403,
			"max":[
				-2.025866985321045,
				0.8110733032226562,
				1.0693317651748657
			],
			"min":[
				-2.8762950897216797,
				-0.037517037242650986,
				-1.1672757863998413
			],
			"type":"VEC3"
		},
		{
			"bufferView":39,
			"componentType":5126,
			"count":1403,
			"type":"VEC3"
		},
		{
			"bufferView":40,
			"componentType":5126,
			"count":1403,
			"type":"VEC2"
		},
		{
			"bufferView":41,
			"componentType":5126,
			"count":1403,
			"type":"VEC2"
		},
		{
			"bufferView":42,
			"componentType":5123,
			"count":6186,
			"type":"SCALAR"
		},
		{
			"bufferView":43,
			"componentType":5126,
			"count":896,
			"max":[
				-2.0734472274780273,
				1.9771162271499634,
				-0.26719731092453003
			],
			"min":[
				-2.773977756500244,
				0.7052291035652161,
				-1.1176661252975464
			],
			"type":"VEC3"
		},
		{
			"bufferView":44,
			"componentType":5126,
			"count":896,
			"type":"VEC3"
		},
		{
			"bufferView":45,
			"componentType":5126,
			"count":896,
			"type":"VEC2"
		},
		{
			"bufferView":46,
			"componentType":5126,
			"count":896,
			"type":"VEC2"
		},
		{
			"bufferView":47,
			"componentType":5123,
			"count":3816,
			"type":"SCALAR"
		},
		{
			"bufferView":48,
			"componentType":5126,
			"count":896,
			"max":[
				3.689166307449341,
				1.9771162271499634,
				-0.26719731092453003
			],
			"min":[
				2.988635778427124,
				0.7052291035652161,
				-1.1176661252975464
			],
			"type":"VEC3"
		},
		{
			"bufferView":49,
			"componentType":5126,
			"count":896,
			"type":"VEC3"
		},
		{
			"bufferView":50,
			"componentType":5126,
			"count":896,
			"type":"VEC2"
		},
		{
			"bufferView":51,
			"componentType":5126,
			"count":896,
			"type":"VEC2"
		},
		{
			"bufferView":52,
			"componentType":5126,
			"count":1245,
			"max":[
				3.7351889610290527,
				0.8108775615692139,
				1.153255581855774
			],
			"min":[
				2.8847248554229736,
				-0.037478093057870865,
				-1.0831868648529053
			],
			"type":"VEC3"
		},
		{
			"bufferView":53,
			"componentType":5126,
			"count":1245,
			"type":"VEC3"
		},
		{
			"bufferView":54,
			"componentType":5126,
			"count":1245,
			"type":"VEC2"
		},
		{
			"bufferView":55,
			"componentType":5126,
			"count":1245,
			"type":"VEC2"
		},
		{
			"bufferView":56,
			"componentType":5123,
			"count":5412,
			"type":"SCALAR"
		}
	],
	"bufferViews":[
		{
			"buffer":0,
			"byteLength":19824,
			"byteOffset":0,
			"target":34962
		},
		{
			"buffer":0,
			"byteLength":19824,
			"byteOffset":19824,
			"target":34962
		},
		{
			"buffer":0,
			"byteLength":13216,
			"byteOffset":39648,
			"target":34962
		},
		{
			"buffer":0,
			"byteLength":13216,
			"byteOffset":52864,
			"target":34962
		},
		{
			"buffer":0,
			"byteLength":11040,
			"byteOffset":66080,
			"target":34963
		},
		{
			"buffer":0,
			"byteLength":3216,
			"byteOffset":77120,
			"target":34962
		},
		{
			"buffer":0,
			"byteLength":3216,
			"byteOffset":80336,
			"target":34962
		},
		{
			"buffer":0,
			"byteLength":2144,
			"byteOffset":83552,
			"target":34962
		},
		{
			"buffer":0,
			"byteLength":2144,
			"byteOffset":85696,
			"target":34962
		},
		{
			"buffer":0,
			"byteLength":768,
			"byteOffset":87840,
			"target":34963
		},
		{
			"buffer":0,
			"byteLength":13440,
			"byteOffset":88608,
			"target":34962
		},
		{
			"buffer":0,
			"byteLength":13440,
			"byteOffset":102048,
			"target":34962
		},
		{
			"buffer":0,
			"byteLength":8960,
			"byteOffset":115488,
			"target":34962
		},
		{
			"buffer":0,
			"byteLength":8960,
			"byteOffset":124448,
			"target":34962
		},
		{
			"buffer":0,
			"byteLength":9612,
			"byteOffset":133408,
			"target":34963
		},
		{
			"buffer":0,
			"byteLength":13524,
			"byteOffset":143020,
			"target":34962
		},
		{
			"buffer":0,
			"byteLength":13524,
			"byteOffset":156544,
			"target":34962
		},
		{
			"buffer":0,
			"byteLength":9016,
			"byteOffset":170068,
			"target":34962
		},
		{
			"buffer":0,
			"byteLength":9016,
			"byteOffset":179084,
			"target":34962
		},
		{
			"buffer":0,
			"byteLength":9876,
			"byteOffset":188100,
			"target":34963
		},
		{
			"buffer":0,
			"byteLength":15024,
			"byteOffset":197976,
			"target":34962
		},
		{
			"buffer":0,
			"byteLength":15024,
			"byteOffset":213000,
			"target":34962
		},
		{
			"buffer":0,
			"byteLength":10016,
			"byteOffset":228024,
			"target":34962
		},
		{
			"buffer":0,
			"byteLength":10016,
			"byteOffset":238040,
			"target":34962
		},
		{
			"buffer":0,
			"byteLength":9768,
			"byteOffset":248056,
			"target":34963
		},
		{
			"buffer":0,
			"byteLength":11040,
			"byteOffset":257824,
			"target":34962
		},
		{
			"buffer":0,
			"byteLength":11040,
			"byteOffset":268864,
			"target":34962
		},
		{
			"buffer":0,
			"byteLength":7360,
			"byteOffset":279904,
			"target":34962
		},
		{
			"buffer":0,
			"byteLength":7360,
			"byteOffset":287264,
			"target":34962
		},
		{
			"buffer":0,
			"byteLength":7800,
			"byteOffset":294624,
			"target":34963
		},
		{
			"buffer":0,
			"byteLength":11040,
			"byteOffset":302424,
			"target":34962
		},
		{
			"buffer":0,
			"byteLength":11040,
			"byteOffset":313464,
			"target":34962
		},
		{
			"buffer":0,
			"byteLength":7360,
			"byteOffset":324504,
			"target":34962
		},
		{
			"buffer":0,
			"byteLength":7360,
			"byteOffset":331864,
			"target":34962
		},
		{
			"buffer":0,
			"byteLength":11040,
			"byteOffset":339224,
			"target":34962
		},
		{
			"buffer":0,
			"byteLength":11040,
			"byteOffset":350264,
			"target":34962
		},
		{
			"buffer":0,
			"byteLength":7360,
			"byteOffset":361304,
			"target":34962
		},
		{
			"buffer":0,
			"byteLength":7360,
			"byteOffset":368664,
			"target":34962
		},
		{
			"buffer":0,
			"byteLength":16836,
			"byteOffset":376024,
			"target":34962
		},
		{
			"buffer":0,
			"byteLength":16836,
			"byteOffset":392860,
			"target":34962
		},
		{
			"buffer":0,
			"byteLength":11224,
			"byteOffset":409696,
			"target":34962
		},
		{
			"buffer":0,
			"byteLength":11224,
			"byteOffset":420920,
			"target":34962
		},
		{
			"buffer":0,
			"byteLength":12372,
			"byteOffset":432144,
			"target":34963
		},
		{
			"buffer":0,
			"byteLength":10752,
			"byteOffset":444516,
			"target":34962
		},
		{
			"buffer":0,
			"byteLength":10752,
			"byteOffset":455268,
			"target":34962
		},
		{
			"buffer":0,
			"byteLength":7168,
			"byteOffset":466020,
			"target":34962
		},
		{
			"buffer":0,
			"byteLength":7168,
			"byteOffset":473188,
			"target":34962
		},
		{
			"buffer":0,
			"byteLength":7632,
			"byteOffset":480356,
			"target":34963
		},
		{
			"buffer":0,
			"byteLength":10752,
			"byteOffset":487988,
			"target":34962
		},
		{
			"buffer":0,
			"byteLength":10752,
			"byteOffset":498740,
			"target":34962
		},
		{
			"buffer":0,
			"byteLength":7168,
			"byteOffset":509492,
			"target":34962
		},
		{
			"buffer":0,
			"byteLength":7168,
			"byteOffset":516660,
			"target":34962
		},
		{
			"buffer":0,
			"byteLength":14940,
			"byteOffset":523828,
			"target":34962
		},
		{
			"buffer":0,
			"byteLength":14940,
			"byteOffset":538768,
			"target":34962
		},
		{
			"buffer":0,
			"byteLength":9960,
			"byteOffset":553708,
			"target":34962
		},
		{
			"buffer":0,
			"byteLength":9960,
			"byteOffset":563668,
			"target":34962
		},
		{
			"buffer":0,
			"byteLength":10824,
			"byteOffset":573628,
			"target":34963
		}
	],
	"samplers":[
		{
			"magFilter":9729,
			"minFilter":9987
		}
	],
	"buffers":[
		{
			"byteLength":584452,
			"uri":"scene.bin"
		}
	]
}
