{
	"asset":{
		"generator":"Khronos glTF Blender I/O v4.3.47",
		"version":"2.0"
	},
	"extensionsUsed":[
		"KHR_materials_specular",
		"KHR_materials_ior"
	],
	"scene":0,
	"scenes":[
		{
			"name":"Scene",
			"nodes":[
				0
			]
		}
	],
	"nodes":[
		{
			"mesh":0,
			"name":"Cube.008"
		}
	],
	"materials":[
		{
			"doubleSided":true,
			"name":"Material.001",
			"pbrMetallicRoughness":{
				"baseColorTexture":{
					"index":0,
					"texCoord":1
				},
				"metallicFactor":0,
				"roughnessFactor":0.5
			}
		},
		{
			"doubleSided":true,
			"name":"Material",
			"pbrMetallicRoughness":{
				"baseColorTexture":{
					"index":1,
					"texCoord":1
				},
				"metallicFactor":0,
				"roughnessFactor":0.5
			}
		},
		{
			"doubleSided":true,
			"name":"Material.002",
			"pbrMetallicRoughness":{
				"baseColorTexture":{
					"index":2,
					"texCoord":1
				},
				"metallicFactor":0,
				"roughnessFactor":0.5
			}
		},
		{
			"alphaMode":"BLEND",
			"doubleSided":true,
			"extensions":{
				"KHR_materials_specular":{
					"specularColorFactor":[
						1.201612949371338,
						1.201612949371338,
						1.201612949371338
					]
				},
				"KHR_materials_ior":{
					"ior":1
				}
			},
			"name":"Material.005",
			"pbrMetallicRoughness":{
				"baseColorFactor":[
					1,
					1,
					1,
					0.975806474685669
				],
				"baseColorTexture":{
					"index":3,
					"texCoord":1
				},
				"metallicFactor":0.7701612710952759,
				"roughnessFactor":0.4516128897666931
			}
		},
		{
			"doubleSided":true,
			"name":"Material.003",
			"pbrMetallicRoughness":{
				"baseColorTexture":{
					"index":4,
					"texCoord":1
				},
				"metallicFactor":0,
				"roughnessFactor":0.5
			}
		},
		{
			"doubleSided":true,
			"name":"Material.006",
			"pbrMetallicRoughness":{
				"baseColorTexture":{
					"index":5,
					"texCoord":1
				},
				"metallicFactor":0,
				"roughnessFactor":0.5
			}
		},
		{
			"doubleSided":true,
			"name":"cusion",
			"pbrMetallicRoughness":{
				"baseColorTexture":{
					"index":6,
					"texCoord":1
				},
				"metallicFactor":0,
				"roughnessFactor":0.5
			}
		},
		{
			"doubleSided":true,
			"name":"Material.007",
			"pbrMetallicRoughness":{
				"baseColorTexture":{
					"index":7,
					"texCoord":1
				},
				"metallicFactor":0,
				"roughnessFactor":0.5
			}
		},
		{
			"doubleSided":true,
			"name":"Material.008",
			"pbrMetallicRoughness":{
				"baseColorTexture":{
					"index":8,
					"texCoord":1
				},
				"metallicFactor":0,
				"roughnessFactor":0.5
			}
		}
	],
	"meshes":[
		{
			"name":"Cube.012",
			"primitives":[
				{
					"attributes":{
						"POSITION":0,
						"NORMAL":1,
						"TEXCOORD_0":2,
						"TEXCOORD_1":3,
						"TEXCOORD_2":4,
						"TEXCOORD_3":5
					},
					"indices":6,
					"material":0
				},
				{
					"attributes":{
						"POSITION":7,
						"NORMAL":8,
						"TEXCOORD_0":9,
						"TEXCOORD_1":10,
						"TEXCOORD_2":11,
						"TEXCOORD_3":12
					},
					"indices":13,
					"material":1
				},
				{
					"attributes":{
						"POSITION":14,
						"NORMAL":15,
						"TEXCOORD_0":16,
						"TEXCOORD_1":17,
						"TEXCOORD_2":18,
						"TEXCOORD_3":19
					},
					"indices":20,
					"material":2
				},
				{
					"attributes":{
						"POSITION":21,
						"NORMAL":22,
						"TEXCOORD_0":23,
						"TEXCOORD_1":24,
						"TEXCOORD_2":25,
						"TEXCOORD_3":26
					},
					"indices":27,
					"material":3
				},
				{
					"attributes":{
						"POSITION":28,
						"NORMAL":29,
						"TEXCOORD_0":30,
						"TEXCOORD_1":31,
						"TEXCOORD_2":32,
						"TEXCOORD_3":33
					},
					"indices":34,
					"material":4
				},
				{
					"attributes":{
						"POSITION":35,
						"NORMAL":36,
						"TEXCOORD_0":37,
						"TEXCOORD_1":38,
						"TEXCOORD_2":39,
						"TEXCOORD_3":40
					},
					"indices":41,
					"material":5
				},
				{
					"attributes":{
						"POSITION":42,
						"NORMAL":43,
						"TEXCOORD_0":44,
						"TEXCOORD_1":45,
						"TEXCOORD_2":46,
						"TEXCOORD_3":47
					},
					"indices":48,
					"material":6
				},
				{
					"attributes":{
						"POSITION":49,
						"NORMAL":50,
						"TEXCOORD_0":51,
						"TEXCOORD_1":52,
						"TEXCOORD_2":53,
						"TEXCOORD_3":54
					},
					"indices":55,
					"material":7
				},
				{
					"attributes":{
						"POSITION":56,
						"NORMAL":57,
						"TEXCOORD_0":58,
						"TEXCOORD_1":59,
						"TEXCOORD_2":60,
						"TEXCOORD_3":61
					},
					"indices":62,
					"material":8
				}
			]
		}
	],
	"textures":[
		{
			"sampler":0,
			"source":0
		},
		{
			"sampler":0,
			"source":0
		},
		{
			"sampler":0,
			"source":0
		},
		{
			"sampler":0,
			"source":1
		},
		{
			"sampler":0,
			"source":0
		},
		{
			"sampler":0,
			"source":0
		},
		{
			"sampler":0,
			"source":2
		},
		{
			"sampler":0,
			"source":0
		},
		{
			"sampler":0,
			"source":0
		}
	],
	"images":[
		{
			"mimeType":"image/jpeg",
			"name":"Furniture_Fabric_sjfvec0c_1K_Gloss",
			"uri":"Furniture_Fabric_sjfvec0c_1K_Gloss.jpg"
		},
		{
			"mimeType":"image/jpeg",
			"name":"Plywood_vf1oairg_1K_BaseColor",
			"uri":"Plywood_vf1oairg_1K_BaseColor.jpg"
		},
		{
			"mimeType":"image/jpeg",
			"name":"Furniture_Fabric_sjfvec0c_1K_BaseColor",
			"uri":"Furniture_Fabric_sjfvec0c_1K_BaseColor.jpg"
		}
	],
	"accessors":[
		{
			"bufferView":0,
			"componentType":5126,
			"count":21426,
			"max":[
				1.6887708902359009,
				1.1719601154327393,
				0.6357853412628174
			],
			"min":[
				-1.7119582891464233,
				-0.18881547451019287,
				-0.7894986867904663
			],
			"type":"VEC3"
		},
		{
			"bufferView":1,
			"componentType":5126,
			"count":21426,
			"type":"VEC3"
		},
		{
			"bufferView":2,
			"componentType":5126,
			"count":21426,
			"type":"VEC2"
		},
		{
			"bufferView":3,
			"componentType":5126,
			"count":21426,
			"type":"VEC2"
		},
		{
			"bufferView":4,
			"componentType":5126,
			"count":21426,
			"type":"VEC2"
		},
		{
			"bufferView":5,
			"componentType":5126,
			"count":21426,
			"type":"VEC2"
		},
		{
			"bufferView":6,
			"componentType":5123,
			"count":45480,
			"type":"SCALAR"
		},
		{
			"bufferView":7,
			"componentType":5126,
			"count":5412,
			"max":[
				1.6887708902359009,
				1.1719601154327393,
				0.6287813186645508
			],
			"min":[
				-1.7119582891464233,
				-0.18881547451019287,
				-0.7894986867904663
			],
			"type":"VEC3"
		},
		{
			"bufferView":8,
			"componentType":5126,
			"count":5412,
			"type":"VEC3"
		},
		{
			"bufferView":9,
			"componentType":5126,
			"count":5412,
			"type":"VEC2"
		},
		{
			"bufferView":10,
			"componentType":5126,
			"count":5412,
			"type":"VEC2"
		},
		{
			"bufferView":11,
			"componentType":5126,
			"count":5412,
			"type":"VEC2"
		},
		{
			"bufferView":12,
			"componentType":5126,
			"count":5412,
			"type":"VEC2"
		},
		{
			"bufferView":13,
			"componentType":5123,
			"count":19992,
			"type":"SCALAR"
		},
		{
			"bufferView":14,
			"componentType":5126,
			"count":4125,
			"max":[
				1.1598339080810547,
				0.7807009816169739,
				-0.03915905952453613
			],
			"min":[
				-1.1417484283447266,
				0.3554506301879883,
				-0.24874162673950195
			],
			"type":"VEC3"
		},
		{
			"bufferView":15,
			"componentType":5126,
			"count":4125,
			"type":"VEC3"
		},
		{
			"bufferView":16,
			"componentType":5126,
			"count":4125,
			"type":"VEC2"
		},
		{
			"bufferView":17,
			"componentType":5126,
			"count":4125,
			"type":"VEC2"
		},
		{
			"bufferView":18,
			"componentType":5126,
			"count":4125,
			"type":"VEC2"
		},
		{
			"bufferView":19,
			"componentType":5126,
			"count":4125,
			"type":"VEC2"
		},
		{
			"bufferView":20,
			"componentType":5123,
			"count":17370,
			"type":"SCALAR"
		},
		{
			"bufferView":21,
			"componentType":5126,
			"count":833,
			"max":[
				1.547663927078247,
				-0.08065139502286911,
				0.5146242380142212
			],
			"min":[
				-1.5476804971694946,
				-0.16081692278385162,
				-0.5146243572235107
			],
			"type":"VEC3"
		},
		{
			"bufferView":22,
			"componentType":5126,
			"count":833,
			"type":"VEC3"
		},
		{
			"bufferView":23,
			"componentType":5126,
			"count":833,
			"type":"VEC2"
		},
		{
			"bufferView":24,
			"componentType":5126,
			"count":833,
			"type":"VEC2"
		},
		{
			"bufferView":25,
			"componentType":5126,
			"count":833,
			"type":"VEC2"
		},
		{
			"bufferView":26,
			"componentType":5126,
			"count":833,
			"type":"VEC2"
		},
		{
			"bufferView":27,
			"componentType":5123,
			"count":2529,
			"type":"SCALAR"
		},
		{
			"bufferView":28,
			"componentType":5126,
			"count":18584,
			"max":[
				0.4924449920654297,
				1.1675294637680054,
				0.6357853412628174
			],
			"min":[
				-1.4440512657165527,
				0.10033024847507477,
				-0.49639567732810974
			],
			"type":"VEC3"
		},
		{
			"bufferView":29,
			"componentType":5126,
			"count":18584,
			"type":"VEC3"
		},
		{
			"bufferView":30,
			"componentType":5126,
			"count":18584,
			"type":"VEC2"
		},
		{
			"bufferView":31,
			"componentType":5126,
			"count":18584,
			"type":"VEC2"
		},
		{
			"bufferView":32,
			"componentType":5126,
			"count":18584,
			"type":"VEC2"
		},
		{
			"bufferView":33,
			"componentType":5126,
			"count":18584,
			"type":"VEC2"
		},
		{
			"bufferView":34,
			"componentType":5123,
			"count":19116,
			"type":"SCALAR"
		},
		{
			"bufferView":35,
			"componentType":5126,
			"count":6194,
			"max":[
				1.42317533493042,
				1.1684763431549072,
				-0.2079373449087143
			],
			"min":[
				0.45592790842056274,
				0.3309597671031952,
				-0.4969654381275177
			],
			"type":"VEC3"
		},
		{
			"bufferView":36,
			"componentType":5126,
			"count":6194,
			"type":"VEC3"
		},
		{
			"bufferView":37,
			"componentType":5126,
			"count":6194,
			"type":"VEC2"
		},
		{
			"bufferView":38,
			"componentType":5126,
			"count":6194,
			"type":"VEC2"
		},
		{
			"bufferView":39,
			"componentType":5126,
			"count":6194,
			"type":"VEC2"
		},
		{
			"bufferView":40,
			"componentType":5126,
			"count":6194,
			"type":"VEC2"
		},
		{
			"bufferView":41,
			"componentType":5123,
			"count":6372,
			"type":"SCALAR"
		},
		{
			"bufferView":42,
			"componentType":5126,
			"count":15528,
			"max":[
				1.1598339080810547,
				0.7807009816169739,
				-0.03915905952453613
			],
			"min":[
				-1.1417484283447266,
				0.3554506301879883,
				-0.24874162673950195
			],
			"type":"VEC3"
		},
		{
			"bufferView":43,
			"componentType":5126,
			"count":15528,
			"type":"VEC3"
		},
		{
			"bufferView":44,
			"componentType":5126,
			"count":15528,
			"type":"VEC2"
		},
		{
			"bufferView":45,
			"componentType":5126,
			"count":15528,
			"type":"VEC2"
		},
		{
			"bufferView":46,
			"componentType":5126,
			"count":15528,
			"type":"VEC2"
		},
		{
			"bufferView":47,
			"componentType":5126,
			"count":15528,
			"type":"VEC2"
		},
		{
			"bufferView":48,
			"componentType":5123,
			"count":17370,
			"type":"SCALAR"
		},
		{
			"bufferView":49,
			"componentType":5126,
			"count":2421,
			"max":[
				1.547663927078247,
				-0.08065139502286911,
				0.5146242380142212
			],
			"min":[
				-1.5476804971694946,
				-0.16081692278385162,
				-0.5146243572235107
			],
			"type":"VEC3"
		},
		{
			"bufferView":50,
			"componentType":5126,
			"count":2421,
			"type":"VEC3"
		},
		{
			"bufferView":51,
			"componentType":5126,
			"count":2421,
			"type":"VEC2"
		},
		{
			"bufferView":52,
			"componentType":5126,
			"count":2421,
			"type":"VEC2"
		},
		{
			"bufferView":53,
			"componentType":5126,
			"count":2421,
			"type":"VEC2"
		},
		{
			"bufferView":54,
			"componentType":5126,
			"count":2421,
			"type":"VEC2"
		},
		{
			"bufferView":55,
			"componentType":5123,
			"count":2529,
			"type":"SCALAR"
		},
		{
			"bufferView":56,
			"componentType":5126,
			"count":591,
			"max":[
				1.6887708902359009,
				0.527816891670227,
				0.5844887495040894
			],
			"min":[
				1.34236741065979,
				-0.08096927404403687,
				-0.6689785122871399
			],
			"type":"VEC3"
		},
		{
			"bufferView":57,
			"componentType":5126,
			"count":591,
			"type":"VEC3"
		},
		{
			"bufferView":58,
			"componentType":5126,
			"count":591,
			"type":"VEC2"
		},
		{
			"bufferView":59,
			"componentType":5126,
			"count":591,
			"type":"VEC2"
		},
		{
			"bufferView":60,
			"componentType":5126,
			"count":591,
			"type":"VEC2"
		},
		{
			"bufferView":61,
			"componentType":5126,
			"count":591,
			"type":"VEC2"
		},
		{
			"bufferView":62,
			"componentType":5123,
			"count":1812,
			"type":"SCALAR"
		}
	],
	"bufferViews":[
		{
			"buffer":0,
			"byteLength":257112,
			"byteOffset":0,
			"target":34962
		},
		{
			"buffer":0,
			"byteLength":257112,
			"byteOffset":257112,
			"target":34962
		},
		{
			"buffer":0,
			"byteLength":171408,
			"byteOffset":514224,
			"target":34962
		},
		{
			"buffer":0,
			"byteLength":171408,
			"byteOffset":685632,
			"target":34962
		},
		{
			"buffer":0,
			"byteLength":171408,
			"byteOffset":857040,
			"target":34962
		},
		{
			"buffer":0,
			"byteLength":171408,
			"byteOffset":1028448,
			"target":34962
		},
		{
			"buffer":0,
			"byteLength":90960,
			"byteOffset":1199856,
			"target":34963
		},
		{
			"buffer":0,
			"byteLength":64944,
			"byteOffset":1290816,
			"target":34962
		},
		{
			"buffer":0,
			"byteLength":64944,
			"byteOffset":1355760,
			"target":34962
		},
		{
			"buffer":0,
			"byteLength":43296,
			"byteOffset":1420704,
			"target":34962
		},
		{
			"buffer":0,
			"byteLength":43296,
			"byteOffset":1464000,
			"target":34962
		},
		{
			"buffer":0,
			"byteLength":43296,
			"byteOffset":1507296,
			"target":34962
		},
		{
			"buffer":0,
			"byteLength":43296,
			"byteOffset":1550592,
			"target":34962
		},
		{
			"buffer":0,
			"byteLength":39984,
			"byteOffset":1593888,
			"target":34963
		},
		{
			"buffer":0,
			"byteLength":49500,
			"byteOffset":1633872,
			"target":34962
		},
		{
			"buffer":0,
			"byteLength":49500,
			"byteOffset":1683372,
			"target":34962
		},
		{
			"buffer":0,
			"byteLength":33000,
			"byteOffset":1732872,
			"target":34962
		},
		{
			"buffer":0,
			"byteLength":33000,
			"byteOffset":1765872,
			"target":34962
		},
		{
			"buffer":0,
			"byteLength":33000,
			"byteOffset":1798872,
			"target":34962
		},
		{
			"buffer":0,
			"byteLength":33000,
			"byteOffset":1831872,
			"target":34962
		},
		{
			"buffer":0,
			"byteLength":34740,
			"byteOffset":1864872,
			"target":34963
		},
		{
			"buffer":0,
			"byteLength":9996,
			"byteOffset":1899612,
			"target":34962
		},
		{
			"buffer":0,
			"byteLength":9996,
			"byteOffset":1909608,
			"target":34962
		},
		{
			"buffer":0,
			"byteLength":6664,
			"byteOffset":1919604,
			"target":34962
		},
		{
			"buffer":0,
			"byteLength":6664,
			"byteOffset":1926268,
			"target":34962
		},
		{
			"buffer":0,
			"byteLength":6664,
			"byteOffset":1932932,
			"target":34962
		},
		{
			"buffer":0,
			"byteLength":6664,
			"byteOffset":1939596,
			"target":34962
		},
		{
			"buffer":0,
			"byteLength":5058,
			"byteOffset":1946260,
			"target":34963
		},
		{
			"buffer":0,
			"byteLength":223008,
			"byteOffset":1951320,
			"target":34962
		},
		{
			"buffer":0,
			"byteLength":223008,
			"byteOffset":2174328,
			"target":34962
		},
		{
			"buffer":0,
			"byteLength":148672,
			"byteOffset":2397336,
			"target":34962
		},
		{
			"buffer":0,
			"byteLength":148672,
			"byteOffset":2546008,
			"target":34962
		},
		{
			"buffer":0,
			"byteLength":148672,
			"byteOffset":2694680,
			"target":34962
		},
		{
			"buffer":0,
			"byteLength":148672,
			"byteOffset":2843352,
			"target":34962
		},
		{
			"buffer":0,
			"byteLength":38232,
			"byteOffset":2992024,
			"target":34963
		},
		{
			"buffer":0,
			"byteLength":74328,
			"byteOffset":3030256,
			"target":34962
		},
		{
			"buffer":0,
			"byteLength":74328,
			"byteOffset":3104584,
			"target":34962
		},
		{
			"buffer":0,
			"byteLength":49552,
			"byteOffset":3178912,
			"target":34962
		},
		{
			"buffer":0,
			"byteLength":49552,
			"byteOffset":3228464,
			"target":34962
		},
		{
			"buffer":0,
			"byteLength":49552,
			"byteOffset":3278016,
			"target":34962
		},
		{
			"buffer":0,
			"byteLength":49552,
			"byteOffset":3327568,
			"target":34962
		},
		{
			"buffer":0,
			"byteLength":12744,
			"byteOffset":3377120,
			"target":34963
		},
		{
			"buffer":0,
			"byteLength":186336,
			"byteOffset":3389864,
			"target":34962
		},
		{
			"buffer":0,
			"byteLength":186336,
			"byteOffset":3576200,
			"target":34962
		},
		{
			"buffer":0,
			"byteLength":124224,
			"byteOffset":3762536,
			"target":34962
		},
		{
			"buffer":0,
			"byteLength":124224,
			"byteOffset":3886760,
			"target":34962
		},
		{
			"buffer":0,
			"byteLength":124224,
			"byteOffset":4010984,
			"target":34962
		},
		{
			"buffer":0,
			"byteLength":124224,
			"byteOffset":4135208,
			"target":34962
		},
		{
			"buffer":0,
			"byteLength":34740,
			"byteOffset":4259432,
			"target":34963
		},
		{
			"buffer":0,
			"byteLength":29052,
			"byteOffset":4294172,
			"target":34962
		},
		{
			"buffer":0,
			"byteLength":29052,
			"byteOffset":4323224,
			"target":34962
		},
		{
			"buffer":0,
			"byteLength":19368,
			"byteOffset":4352276,
			"target":34962
		},
		{
			"buffer":0,
			"byteLength":19368,
			"byteOffset":4371644,
			"target":34962
		},
		{
			"buffer":0,
			"byteLength":19368,
			"byteOffset":4391012,
			"target":34962
		},
		{
			"buffer":0,
			"byteLength":19368,
			"byteOffset":4410380,
			"target":34962
		},
		{
			"buffer":0,
			"byteLength":5058,
			"byteOffset":4429748,
			"target":34963
		},
		{
			"buffer":0,
			"byteLength":7092,
			"byteOffset":4434808,
			"target":34962
		},
		{
			"buffer":0,
			"byteLength":7092,
			"byteOffset":4441900,
			"target":34962
		},
		{
			"buffer":0,
			"byteLength":4728,
			"byteOffset":4448992,
			"target":34962
		},
		{
			"buffer":0,
			"byteLength":4728,
			"byteOffset":4453720,
			"target":34962
		},
		{
			"buffer":0,
			"byteLength":4728,
			"byteOffset":4458448,
			"target":34962
		},
		{
			"buffer":0,
			"byteLength":4728,
			"byteOffset":4463176,
			"target":34962
		},
		{
			"buffer":0,
			"byteLength":3624,
			"byteOffset":4467904,
			"target":34963
		}
	],
	"samplers":[
		{
			"magFilter":9729,
			"minFilter":9987
		}
	],
	"buffers":[
		{
			"byteLength":4471528,
			"uri":"scene.bin"
		}
	]
}
