{
	"asset":{
		"generator":"Khronos glTF Blender I/O v4.3.47",
		"version":"2.0"
	},
	"scene":0,
	"scenes":[
		{
			"name":"Scene",
			"nodes":[
				0
			]
		}
	],
	"nodes":[
		{
			"mesh":0,
			"name":"Cube.001"
		}
	],
	"materials":[
		{
			"doubleSided":true,
			"name":"Simple wood",
			"normalTexture":{
				"index":0,
				"texCoord":1
			},
			"pbrMetallicRoughness":{
				"baseColorTexture":{
					"index":1,
					"texCoord":1
				},
				"metallicFactor":0,
				"roughnessFactor":0.7927400469779968
			}
		}
	],
	"meshes":[
		{
			"name":"Cube.002",
			"primitives":[
				{
					"attributes":{
						"POSITION":0,
						"NORMAL":1,
						"TEXCOORD_0":2,
						"TEXCOORD_1":3
					},
					"indices":4,
					"material":0
				}
			]
		}
	],
	"textures":[
		{
			"sampler":0,
			"source":0
		},
		{
			"sampler":0,
			"source":1
		}
	],
	"images":[
		{
			"mimeType":"image/jpeg",
			"name":"wood_normal",
			"uri":"wood_normal.jpg"
		},
		{
			"mimeType":"image/jpeg",
			"name":"Dutch_Rosewood_Parquet_tibkfgyl_1K_BaseColor",
			"uri":"Dutch_Rosewood_Parquet_tibkfgyl_1K_BaseColor.jpg"
		}
	],
	"accessors":[
		{
			"bufferView":0,
			"componentType":5126,
			"count":4761,
			"max":[
				3.2912039756774902,
				1.3351088762283325,
				2.445936441421509
			],
			"min":[
				-3.312572717666626,
				-0.3061765432357788,
				-2.445969820022583
			],
			"type":"VEC3"
		},
		{
			"bufferView":1,
			"componentType":5126,
			"count":4761,
			"type":"VEC3"
		},
		{
			"bufferView":2,
			"componentType":5126,
			"count":4761,
			"type":"VEC2"
		},
		{
			"bufferView":3,
			"componentType":5126,
			"count":4761,
			"type":"VEC2"
		},
		{
			"bufferView":4,
			"componentType":5123,
			"count":20682,
			"type":"SCALAR"
		}
	],
	"bufferViews":[
		{
			"buffer":0,
			"byteLength":57132,
			"byteOffset":0,
			"target":34962
		},
		{
			"buffer":0,
			"byteLength":57132,
			"byteOffset":57132,
			"target":34962
		},
		{
			"buffer":0,
			"byteLength":38088,
			"byteOffset":114264,
			"target":34962
		},
		{
			"buffer":0,
			"byteLength":38088,
			"byteOffset":152352,
			"target":34962
		},
		{
			"buffer":0,
			"byteLength":41364,
			"byteOffset":190440,
			"target":34963
		}
	],
	"samplers":[
		{
			"magFilter":9729,
			"minFilter":9987
		}
	],
	"buffers":[
		{
			"byteLength":231804,
			"uri":"scene.bin"
		}
	]
}
