{
	"asset":{
		"generator":"Khronos glTF Blender I/O v4.3.47",
		"version":"2.0"
	},
	"scene":0,
	"scenes":[
		{
			"name":"Scene",
			"nodes":[
				0
			]
		}
	],
	"nodes":[
		{
			"mesh":0,
			"name":"Cube"
		}
	],
	"materials":[
		{
			"doubleSided":true,
			"name":"Wood dark",
			"normalTexture":{
				"index":0,
				"texCoord":1
			},
			"pbrMetallicRoughness":{
				"baseColorTexture":{
					"index":1,
					"texCoord":1
				},
				"metallicFactor":0,
				"metallicRoughnessTexture":{
					"index":2,
					"texCoord":1
				}
			}
		},
		{
			"doubleSided":true,
			"name":"Material",
			"pbrMetallicRoughness":{
				"baseColorFactor":[
					0.7279973030090332,
					0.7279973030090332,
					0.7279973030090332,
					1
				],
				"metallicFactor":0,
				"roughnessFactor":0.5
			}
		}
	],
	"meshes":[
		{
			"name":"Cube",
			"primitives":[
				{
					"attributes":{
						"POSITION":0,
						"NORMAL":1,
						"TEXCOORD_0":2,
						"TEXCOORD_1":3
					},
					"indices":4,
					"material":0
				},
				{
					"attributes":{
						"POSITION":5,
						"NORMAL":6,
						"TEXCOORD_0":7,
						"TEXCOORD_1":8
					},
					"indices":9,
					"material":1
				}
			]
		}
	],
	"textures":[
		{
			"sampler":0,
			"source":0
		},
		{
			"sampler":0,
			"source":1
		},
		{
			"sampler":0,
			"source":2
		}
	],
	"images":[
		{
			"mimeType":"image/jpeg",
			"name":"wood_normal",
			"uri":"wood_normal.jpg"
		},
		{
			"mimeType":"image/jpeg",
			"name":"Dutch_Rosewood_Parquet_tibkfgyl_1K_BaseColor",
			"uri":"Dutch_Rosewood_Parquet_tibkfgyl_1K_BaseColor.jpg"
		},
		{
			"mimeType":"image/png",
			"name":"wood_glossiness",
			"uri":"wood_glossiness.png"
		}
	],
	"accessors":[
		{
			"bufferView":0,
			"componentType":5126,
			"count":457,
			"max":[
				3.114786386489868,
				1.7421002388000488,
				2.0163307189941406
			],
			"min":[
				-3.114786386489868,
				-0.3685821294784546,
				-2.0163307189941406
			],
			"type":"VEC3"
		},
		{
			"bufferView":1,
			"componentType":5126,
			"count":457,
			"type":"VEC3"
		},
		{
			"bufferView":2,
			"componentType":5126,
			"count":457,
			"type":"VEC2"
		},
		{
			"bufferView":3,
			"componentType":5126,
			"count":457,
			"type":"VEC2"
		},
		{
			"bufferView":4,
			"componentType":5123,
			"count":1140,
			"type":"SCALAR"
		},
		{
			"bufferView":5,
			"componentType":5126,
			"count":6125,
			"max":[
				3.196544885635376,
				1.7400352954864502,
				2.1174986362457275
			],
			"min":[
				-3.1823604106903076,
				-0.06169724464416504,
				-2.1108791828155518
			],
			"type":"VEC3"
		},
		{
			"bufferView":6,
			"componentType":5126,
			"count":6125,
			"type":"VEC3"
		},
		{
			"bufferView":7,
			"componentType":5126,
			"count":6125,
			"type":"VEC2"
		},
		{
			"bufferView":8,
			"componentType":5126,
			"count":6125,
			"type":"VEC2"
		},
		{
			"bufferView":9,
			"componentType":5123,
			"count":12024,
			"type":"SCALAR"
		}
	],
	"bufferViews":[
		{
			"buffer":0,
			"byteLength":5484,
			"byteOffset":0,
			"target":34962
		},
		{
			"buffer":0,
			"byteLength":5484,
			"byteOffset":5484,
			"target":34962
		},
		{
			"buffer":0,
			"byteLength":3656,
			"byteOffset":10968,
			"target":34962
		},
		{
			"buffer":0,
			"byteLength":3656,
			"byteOffset":14624,
			"target":34962
		},
		{
			"buffer":0,
			"byteLength":2280,
			"byteOffset":18280,
			"target":34963
		},
		{
			"buffer":0,
			"byteLength":73500,
			"byteOffset":20560,
			"target":34962
		},
		{
			"buffer":0,
			"byteLength":73500,
			"byteOffset":94060,
			"target":34962
		},
		{
			"buffer":0,
			"byteLength":49000,
			"byteOffset":167560,
			"target":34962
		},
		{
			"buffer":0,
			"byteLength":49000,
			"byteOffset":216560,
			"target":34962
		},
		{
			"buffer":0,
			"byteLength":24048,
			"byteOffset":265560,
			"target":34963
		}
	],
	"samplers":[
		{
			"magFilter":9729,
			"minFilter":9987
		}
	],
	"buffers":[
		{
			"byteLength":289608,
			"uri":"scene.bin"
		}
	]
}
