{
	"asset":{
		"generator":"Khronos glTF Blender I/O v4.3.47",
		"version":"2.0"
	},
	"scene":0,
	"scenes":[
		{
			"name":"Scene",
			"nodes":[
				0
			]
		}
	],
	"nodes":[
		{
			"mesh":0,
			"name":"Cube"
		}
	],
	"materials":[
		{
			"doubleSided":true,
			"name":"Wood dark",
			"normalTexture":{
				"index":0,
				"texCoord":1
			},
			"pbrMetallicRoughness":{
				"baseColorTexture":{
					"index":1,
					"texCoord":1
				},
				"metallicFactor":0,
				"metallicRoughnessTexture":{
					"index":2,
					"texCoord":1
				}
			}
		},
		{
			"doubleSided":true,
			"name":"White Wood",
			"normalTexture":{
				"index":3,
				"texCoord":1
			},
			"pbrMetallicRoughness":{
				"baseColorTexture":{
					"index":4,
					"texCoord":1
				},
				"metallicFactor":0,
				"metallicRoughnessTexture":{
					"index":5,
					"texCoord":1
				}
			}
		}
	],
	"meshes":[
		{
			"name":"Cube",
			"primitives":[
				{
					"attributes":{
						"POSITION":0,
						"NORMAL":1,
						"TEXCOORD_0":2,
						"TEXCOORD_1":3
					},
					"indices":4,
					"material":0
				},
				{
					"attributes":{
						"POSITION":5,
						"NORMAL":6,
						"TEXCOORD_0":7,
						"TEXCOORD_1":8
					},
					"indices":9,
					"material":1
				}
			]
		}
	],
	"textures":[
		{
			"sampler":0,
			"source":0
		},
		{
			"sampler":0,
			"source":1
		},
		{
			"sampler":0,
			"source":2
		},
		{
			"sampler":0,
			"source":3
		},
		{
			"sampler":0,
			"source":4
		},
		{
			"sampler":0,
			"source":5
		}
	],
	"images":[
		{
			"mimeType":"image/jpeg",
			"name":"wood_normal",
			"uri":"wood_normal.jpg"
		},
		{
			"mimeType":"image/jpeg",
			"name":"wood_diffuse",
			"uri":"wood_diffuse.jpg"
		},
		{
			"mimeType":"image/png",
			"name":"wood_glossiness",
			"uri":"wood_glossiness.png"
		},
		{
			"mimeType":"image/jpeg",
			"name":"white_wood_Normal",
			"uri":"white_wood_Normal.jpg"
		},
		{
			"mimeType":"image/jpeg",
			"name":"white_wood_Base_color",
			"uri":"white_wood_Base_color.jpg"
		},
		{
			"mimeType":"image/png",
			"name":"white_wood_Roughness",
			"uri":"white_wood_Roughness.png"
		}
	],
	"accessors":[
		{
			"bufferView":0,
			"componentType":5126,
			"count":451,
			"max":[
				3.114786386489868,
				1.7421002388000488,
				2.0163307189941406
			],
			"min":[
				-3.114786386489868,
				-0.3685821294784546,
				-2.0163307189941406
			],
			"type":"VEC3"
		},
		{
			"bufferView":1,
			"componentType":5126,
			"count":451,
			"type":"VEC3"
		},
		{
			"bufferView":2,
			"componentType":5126,
			"count":451,
			"type":"VEC2"
		},
		{
			"bufferView":3,
			"componentType":5126,
			"count":451,
			"type":"VEC2"
		},
		{
			"bufferView":4,
			"componentType":5123,
			"count":1140,
			"type":"SCALAR"
		},
		{
			"bufferView":5,
			"componentType":5126,
			"count":6125,
			"max":[
				3.196544885635376,
				1.7400352954864502,
				2.1174986362457275
			],
			"min":[
				-3.1823604106903076,
				-0.06169724464416504,
				-2.1108791828155518
			],
			"type":"VEC3"
		},
		{
			"bufferView":6,
			"componentType":5126,
			"count":6125,
			"type":"VEC3"
		},
		{
			"bufferView":7,
			"componentType":5126,
			"count":6125,
			"type":"VEC2"
		},
		{
			"bufferView":8,
			"componentType":5126,
			"count":6125,
			"type":"VEC2"
		},
		{
			"bufferView":9,
			"componentType":5123,
			"count":12024,
			"type":"SCALAR"
		}
	],
	"bufferViews":[
		{
			"buffer":0,
			"byteLength":5412,
			"byteOffset":0,
			"target":34962
		},
		{
			"buffer":0,
			"byteLength":5412,
			"byteOffset":5412,
			"target":34962
		},
		{
			"buffer":0,
			"byteLength":3608,
			"byteOffset":10824,
			"target":34962
		},
		{
			"buffer":0,
			"byteLength":3608,
			"byteOffset":14432,
			"target":34962
		},
		{
			"buffer":0,
			"byteLength":2280,
			"byteOffset":18040,
			"target":34963
		},
		{
			"buffer":0,
			"byteLength":73500,
			"byteOffset":20320,
			"target":34962
		},
		{
			"buffer":0,
			"byteLength":73500,
			"byteOffset":93820,
			"target":34962
		},
		{
			"buffer":0,
			"byteLength":49000,
			"byteOffset":167320,
			"target":34962
		},
		{
			"buffer":0,
			"byteLength":49000,
			"byteOffset":216320,
			"target":34962
		},
		{
			"buffer":0,
			"byteLength":24048,
			"byteOffset":265320,
			"target":34963
		}
	],
	"samplers":[
		{
			"magFilter":9729,
			"minFilter":9987
		}
	],
	"buffers":[
		{
			"byteLength":289368,
			"uri":"scene.bin"
		}
	]
}
