{
	"asset":{
		"generator":"Khronos glTF Blender I/O v4.3.47",
		"version":"2.0"
	},
	"scene":0,
	"scenes":[
		{
			"name":"Scene",
			"nodes":[
				0
			]
		}
	],
	"nodes":[
		{
			"mesh":0,
			"name":"Cylinder"
		}
	],
	"materials":[
		{
			"alphaMode":"BLEND",
			"doubleSided":true,
			"name":"Material.001",
			"pbrMetallicRoughness":{
				"baseColorFactor":[
					1,
					1,
					1,
					0.9609375
				],
				"baseColorTexture":{
					"index":0,
					"texCoord":1
				},
				"metallicFactor":0.10538642853498459,
				"roughnessFactor":0.6264637112617493
			}
		},
		{
			"doubleSided":true,
			"name":"Material",
			"pbrMetallicRoughness":{
				"baseColorTexture":{
					"index":1,
					"texCoord":1
				},
				"metallicFactor":0,
				"roughnessFactor":0.5
			}
		}
	],
	"meshes":[
		{
			"name":"Cylinder",
			"primitives":[
				{
					"attributes":{
						"POSITION":0,
						"NORMAL":1,
						"TEXCOORD_0":2,
						"TEXCOORD_1":3
					},
					"indices":4,
					"material":0
				},
				{
					"attributes":{
						"POSITION":5,
						"NORMAL":6,
						"TEXCOORD_0":7,
						"TEXCOORD_1":8
					},
					"indices":9
				},
				{
					"attributes":{
						"POSITION":10,
						"NORMAL":11,
						"TEXCOORD_0":12,
						"TEXCOORD_1":13
					},
					"indices":14,
					"material":1
				}
			]
		}
	],
	"textures":[
		{
			"sampler":0,
			"source":0
		},
		{
			"sampler":0,
			"source":1
		}
	],
	"images":[
		{
			"mimeType":"image/jpeg",
			"name":"Seychelles_Beige_Marble_Tiles_wgildfbv_1K_BaseColor",
			"uri":"Seychelles_Beige_Marble_Tiles_wgildfbv_1K_BaseColor.jpg"
		},
		{
			"mimeType":"image/jpeg",
			"name":"Fabric_Generic_Leather_Top_Grain_Medium_Brown_xjekcey_1K_BaseCo",
			"uri":"Fabric_Generic_Leather_Top_Grain_Medium_Brown_xjekcey_1K_BaseCo.jpg"
		}
	],
	"accessors":[
		{
			"bufferView":0,
			"componentType":5126,
			"count":736,
			"max":[
				2.6562302112579346,
				-0.24934625625610352,
				0.9024055004119873
			],
			"min":[
				-2.6562302112579346,
				-1.0823993682861328,
				-0.9024055004119873
			],
			"type":"VEC3"
		},
		{
			"bufferView":1,
			"componentType":5126,
			"count":736,
			"type":"VEC3"
		},
		{
			"bufferView":2,
			"componentType":5126,
			"count":736,
			"type":"VEC2"
		},
		{
			"bufferView":3,
			"componentType":5126,
			"count":736,
			"type":"VEC2"
		},
		{
			"bufferView":4,
			"componentType":5123,
			"count":1398,
			"type":"SCALAR"
		},
		{
			"bufferView":5,
			"componentType":5126,
			"count":32,
			"max":[
				-2.301503896713257,
				-0.24934625625610352,
				0.9024055004119873
			],
			"min":[
				-2.502573251724243,
				-0.6455893516540527,
				0.6967973113059998
			],
			"type":"VEC3"
		},
		{
			"bufferView":6,
			"componentType":5126,
			"count":32,
			"type":"VEC3"
		},
		{
			"bufferView":7,
			"componentType":5126,
			"count":32,
			"type":"VEC2"
		},
		{
			"bufferView":8,
			"componentType":5126,
			"count":32,
			"type":"VEC2"
		},
		{
			"bufferView":9,
			"componentType":5123,
			"count":90,
			"type":"SCALAR"
		},
		{
			"bufferView":10,
			"componentType":5126,
			"count":17204,
			"max":[
				3.214503526687622,
				1.5379506349563599,
				1.2427325248718262
			],
			"min":[
				-3.064018726348877,
				-0.4853740930557251,
				-1.7376134395599365
			],
			"type":"VEC3"
		},
		{
			"bufferView":11,
			"componentType":5126,
			"count":17204,
			"type":"VEC3"
		},
		{
			"bufferView":12,
			"componentType":5126,
			"count":17204,
			"type":"VEC2"
		},
		{
			"bufferView":13,
			"componentType":5126,
			"count":17204,
			"type":"VEC2"
		},
		{
			"bufferView":14,
			"componentType":5123,
			"count":89136,
			"type":"SCALAR"
		}
	],
	"bufferViews":[
		{
			"buffer":0,
			"byteLength":8832,
			"byteOffset":0,
			"target":34962
		},
		{
			"buffer":0,
			"byteLength":8832,
			"byteOffset":8832,
			"target":34962
		},
		{
			"buffer":0,
			"byteLength":5888,
			"byteOffset":17664,
			"target":34962
		},
		{
			"buffer":0,
			"byteLength":5888,
			"byteOffset":23552,
			"target":34962
		},
		{
			"buffer":0,
			"byteLength":2796,
			"byteOffset":29440,
			"target":34963
		},
		{
			"buffer":0,
			"byteLength":384,
			"byteOffset":32236,
			"target":34962
		},
		{
			"buffer":0,
			"byteLength":384,
			"byteOffset":32620,
			"target":34962
		},
		{
			"buffer":0,
			"byteLength":256,
			"byteOffset":33004,
			"target":34962
		},
		{
			"buffer":0,
			"byteLength":256,
			"byteOffset":33260,
			"target":34962
		},
		{
			"buffer":0,
			"byteLength":180,
			"byteOffset":33516,
			"target":34963
		},
		{
			"buffer":0,
			"byteLength":206448,
			"byteOffset":33696,
			"target":34962
		},
		{
			"buffer":0,
			"byteLength":206448,
			"byteOffset":240144,
			"target":34962
		},
		{
			"buffer":0,
			"byteLength":137632,
			"byteOffset":446592,
			"target":34962
		},
		{
			"buffer":0,
			"byteLength":137632,
			"byteOffset":584224,
			"target":34962
		},
		{
			"buffer":0,
			"byteLength":178272,
			"byteOffset":721856,
			"target":34963
		}
	],
	"samplers":[
		{
			"magFilter":9729,
			"minFilter":9987
		}
	],
	"buffers":[
		{
			"byteLength":900128,
			"uri":"scene.bin"
		}
	]
}
