{
	"asset":{
		"generator":"Khronos glTF Blender I/O v4.3.47",
		"version":"2.0"
	},
	"scene":0,
	"scenes":[
		{
			"name":"Scene",
			"nodes":[
				0
			]
		}
	],
	"nodes":[
		{
			"mesh":0,
			"name":"Cylinder.002",
			"scale":[
				0.08691828697919846,
				0.209615096449852,
				0.08691828697919846
			],
			"translation":[
				-4.4897236824035645,
				-0.4681238532066345,
				0.7688987255096436
			]
		}
	],
	"materials":[
		{
			"doubleSided":true,
			"name":"Wood",
			"normalTexture":{
				"index":0,
				"texCoord":1
			},
			"pbrMetallicRoughness":{
				"baseColorTexture":{
					"index":1,
					"texCoord":1
				},
				"metallicFactor":0,
				"metallicRoughnessTexture":{
					"index":2,
					"texCoord":1
				}
			}
		},
		{
			"doubleSided":true,
			"name":"Fabric 134",
			"normalTexture":{
				"index":3,
				"texCoord":1
			},
			"pbrMetallicRoughness":{
				"baseColorTexture":{
					"index":4,
					"texCoord":1
				},
				"metallicFactor":0,
				"metallicRoughnessTexture":{
					"index":5,
					"texCoord":1
				}
			}
		}
	],
	"meshes":[
		{
			"name":"Cylinder.002",
			"primitives":[
				{
					"attributes":{
						"POSITION":0,
						"NORMAL":1,
						"TEXCOORD_0":2,
						"TEXCOORD_1":3
					},
					"indices":4,
					"material":0
				},
				{
					"attributes":{
						"POSITION":5,
						"NORMAL":6,
						"TEXCOORD_0":7,
						"TEXCOORD_1":8
					},
					"indices":9,
					"material":1
				}
			]
		}
	],
	"textures":[
		{
			"sampler":0,
			"source":0
		},
		{
			"sampler":0,
			"source":1
		},
		{
			"sampler":0,
			"source":2
		},
		{
			"sampler":0,
			"source":3
		},
		{
			"sampler":0,
			"source":4
		},
		{
			"sampler":0,
			"source":5
		}
	],
	"images":[
		{
			"mimeType":"image/jpeg",
			"name":"wood__normal",
			"uri":"wood__normal.jpg"
		},
		{
			"mimeType":"image/jpeg",
			"name":"wood__diffuse",
			"uri":"wood__diffuse.jpg"
		},
		{
			"mimeType":"image/png",
			"name":"wood__glossiness",
			"uri":"wood__glossiness.png"
		},
		{
			"mimeType":"image/jpeg",
			"name":"fabric_134_normal-2K",
			"uri":"fabric_134_normal-2K.jpg"
		},
		{
			"mimeType":"image/jpeg",
			"name":"fabric_134_albedo-2K",
			"uri":"fabric_134_albedo-2K.jpg"
		},
		{
			"mimeType":"image/png",
			"name":"fabric_134_roughness-2K",
			"uri":"fabric_134_roughness-2K.png"
		}
	],
	"accessors":[
		{
			"bufferView":0,
			"componentType":5126,
			"count":864,
			"max":[
				70.85971069335938,
				7.781306266784668,
				2.047255516052246
			],
			"min":[
				-4.19317102432251,
				-0.9999998807907104,
				-28.608482360839844
			],
			"type":"VEC3"
		},
		{
			"bufferView":1,
			"componentType":5126,
			"count":864,
			"type":"VEC3"
		},
		{
			"bufferView":2,
			"componentType":5126,
			"count":864,
			"type":"VEC2"
		},
		{
			"bufferView":3,
			"componentType":5126,
			"count":864,
			"type":"VEC2"
		},
		{
			"bufferView":4,
			"componentType":5123,
			"count":1632,
			"type":"SCALAR"
		},
		{
			"bufferView":5,
			"componentType":5126,
			"count":25302,
			"max":[
				70.5052490234375,
				8.243432998657227,
				2.5889148712158203
			],
			"min":[
				-3.3120079040527344,
				0.935448169708252,
				-26.585678100585938
			],
			"type":"VEC3"
		},
		{
			"bufferView":6,
			"componentType":5126,
			"count":25302,
			"type":"VEC3"
		},
		{
			"bufferView":7,
			"componentType":5126,
			"count":25302,
			"type":"VEC2"
		},
		{
			"bufferView":8,
			"componentType":5126,
			"count":25302,
			"type":"VEC2"
		},
		{
			"bufferView":9,
			"componentType":5123,
			"count":39816,
			"type":"SCALAR"
		}
	],
	"bufferViews":[
		{
			"buffer":0,
			"byteLength":10368,
			"byteOffset":0,
			"target":34962
		},
		{
			"buffer":0,
			"byteLength":10368,
			"byteOffset":10368,
			"target":34962
		},
		{
			"buffer":0,
			"byteLength":6912,
			"byteOffset":20736,
			"target":34962
		},
		{
			"buffer":0,
			"byteLength":6912,
			"byteOffset":27648,
			"target":34962
		},
		{
			"buffer":0,
			"byteLength":3264,
			"byteOffset":34560,
			"target":34963
		},
		{
			"buffer":0,
			"byteLength":303624,
			"byteOffset":37824,
			"target":34962
		},
		{
			"buffer":0,
			"byteLength":303624,
			"byteOffset":341448,
			"target":34962
		},
		{
			"buffer":0,
			"byteLength":202416,
			"byteOffset":645072,
			"target":34962
		},
		{
			"buffer":0,
			"byteLength":202416,
			"byteOffset":847488,
			"target":34962
		},
		{
			"buffer":0,
			"byteLength":79632,
			"byteOffset":1049904,
			"target":34963
		}
	],
	"samplers":[
		{
			"magFilter":9729,
			"minFilter":9987
		}
	],
	"buffers":[
		{
			"byteLength":1129536,
			"uri":"scene.bin"
		}
	]
}
