{
	"asset":{
		"generator":"Khronos glTF Blender I/O v4.3.47",
		"version":"2.0"
	},
	"extensionsUsed":[
		"KHR_materials_specular",
		"KHR_materials_ior",
		"KHR_texture_transform"
	],
	"extensionsRequired":[
		"KHR_texture_transform"
	],
	"scene":0,
	"scenes":[
		{
			"name":"Scene",
			"nodes":[
				0,
				1,
				2,
				3
			]
		}
	],
	"nodes":[
		{
			"mesh":0,
			"name":"Cube"
		},
		{
			"mesh":1,
			"name":"Cube.001"
		},
		{
			"mesh":2,
			"name":"Cube.002"
		},
		{
			"mesh":3,
			"name":"Cylinder"
		}
	],
	"materials":[
		{
			"doubleSided":true,
			"name":"Herringbone White Texture",
			"normalTexture":{
				"index":0,
				"texCoord":1
			},
			"pbrMetallicRoughness":{
				"baseColorTexture":{
					"index":1,
					"texCoord":1
				},
				"metallicRoughnessTexture":{
					"index":2,
					"texCoord":1
				}
			}
		},
		{
			"doubleSided":true,
			"extensions":{
				"KHR_materials_specular":{
					"specularFactor":0.4000000059604645
				},
				"KHR_materials_ior":{
					"ior":1.4500000476837158
				}
			},
			"name":"Carpet - Off White 69",
			"normalTexture":{
				"extensions":{
					"KHR_texture_transform":{
						"offset":[
							-9.99999999999999,
							1.0000004371139
						],
						"rotation":1.5707963705062866,
						"scale":[
							10,
							10
						]
					}
				},
				"index":3,
				"texCoord":1
			},
			"pbrMetallicRoughness":{
				"baseColorTexture":{
					"index":4,
					"texCoord":1
				},
				"metallicFactor":0.20000000298023224,
				"metallicRoughnessTexture":{
					"index":5,
					"texCoord":1
				}
			}
		},
		{
			"doubleSided":true,
			"name":"Wood",
			"normalTexture":{
				"index":6,
				"texCoord":1
			},
			"pbrMetallicRoughness":{
				"baseColorTexture":{
					"index":7,
					"texCoord":1
				},
				"metallicFactor":0,
				"metallicRoughnessTexture":{
					"index":8,
					"texCoord":1
				}
			}
		}
	],
	"meshes":[
		{
			"name":"Cube",
			"primitives":[
				{
					"attributes":{
						"POSITION":0,
						"NORMAL":1,
						"TEXCOORD_0":2,
						"TEXCOORD_1":3
					},
					"indices":4,
					"material":0
				}
			]
		},
		{
			"name":"Cube.002",
			"primitives":[
				{
					"attributes":{
						"POSITION":5,
						"NORMAL":6,
						"TEXCOORD_0":7,
						"TEXCOORD_1":8
					},
					"indices":9,
					"material":0
				}
			]
		},
		{
			"name":"Cube.003",
			"primitives":[
				{
					"attributes":{
						"POSITION":10,
						"NORMAL":11,
						"TEXCOORD_0":12,
						"TEXCOORD_1":13
					},
					"indices":14,
					"material":1
				}
			]
		},
		{
			"name":"Cylinder",
			"primitives":[
				{
					"attributes":{
						"POSITION":15,
						"NORMAL":16,
						"TEXCOORD_0":17,
						"TEXCOORD_1":18
					},
					"indices":19,
					"material":2
				}
			]
		}
	],
	"textures":[
		{
			"sampler":0,
			"source":0
		},
		{
			"sampler":0,
			"source":1
		},
		{
			"sampler":0,
			"source":2
		},
		{
			"sampler":0,
			"source":3
		},
		{
			"sampler":0,
			"source":4
		},
		{
			"sampler":0,
			"source":5
		},
		{
			"sampler":0,
			"source":6
		},
		{
			"sampler":0,
			"source":7
		},
		{
			"sampler":0,
			"source":8
		}
	],
	"images":[
		{
			"mimeType":"image/jpeg",
			"name":"Herringbone_White_Texture_2767275_nrm",
			"uri":"Herringbone_White_Texture_2767275_nrm.jpg"
		},
		{
			"mimeType":"image/jpeg",
			"name":"Herringbone_White_Texture_2767275_col",
			"uri":"Herringbone_White_Texture_2767275_col.jpg"
		},
		{
			"mimeType":"image/png",
			"name":"Herringbone_White_Texture_2767275_met-Herringbone_White_Texture_2767275_rough",
			"uri":"Herringbone_White_Texture_2767275_met-Herringbone_White_Texture_2767275_rough.png"
		},
		{
			"mimeType":"image/jpeg",
			"name":"bump_reticular_05k",
			"uri":"bump_reticular_05k.jpg"
		},
		{
			"mimeType":"image/jpeg",
			"name":"fabric-69-off-white_diffuse",
			"uri":"fabric-69-off-white_diffuse.jpg"
		},
		{
			"mimeType":"image/png",
			"name":"fabric-69_roughness",
			"uri":"fabric-69_roughness.png"
		},
		{
			"mimeType":"image/jpeg",
			"name":"wood__normal",
			"uri":"wood__normal.jpg"
		},
		{
			"mimeType":"image/jpeg",
			"name":"wood__diffuse",
			"uri":"wood__diffuse.jpg"
		},
		{
			"mimeType":"image/png",
			"name":"wood__glossiness",
			"uri":"wood__glossiness.png"
		}
	],
	"accessors":[
		{
			"bufferView":0,
			"componentType":5126,
			"count":2911,
			"max":[
				2.179154872894287,
				1.9677560329437256,
				2.0202443599700928
			],
			"min":[
				-2.17950439453125,
				-2.2966909408569336,
				-2.4281327724456787
			],
			"type":"VEC3"
		},
		{
			"bufferView":1,
			"componentType":5126,
			"count":2911,
			"type":"VEC3"
		},
		{
			"bufferView":2,
			"componentType":5126,
			"count":2911,
			"type":"VEC2"
		},
		{
			"bufferView":3,
			"componentType":5126,
			"count":2911,
			"type":"VEC2"
		},
		{
			"bufferView":4,
			"componentType":5123,
			"count":12672,
			"type":"SCALAR"
		},
		{
			"bufferView":5,
			"componentType":5126,
			"count":5239,
			"max":[
				1.7927345037460327,
				-0.9870198965072632,
				2.24902606010437
			],
			"min":[
				-1.7335036993026733,
				-1.6766473054885864,
				-1.4196455478668213
			],
			"type":"VEC3"
		},
		{
			"bufferView":6,
			"componentType":5126,
			"count":5239,
			"type":"VEC3"
		},
		{
			"bufferView":7,
			"componentType":5126,
			"count":5239,
			"type":"VEC2"
		},
		{
			"bufferView":8,
			"componentType":5126,
			"count":5239,
			"type":"VEC2"
		},
		{
			"bufferView":9,
			"componentType":5123,
			"count":27456,
			"type":"SCALAR"
		},
		{
			"bufferView":10,
			"componentType":5126,
			"count":8064,
			"max":[
				0.12558525800704956,
				0.5469175577163696,
				-0.3017790615558624
			],
			"min":[
				-1.6118603944778442,
				-1.1165810823440552,
				-1.1241412162780762
			],
			"type":"VEC3"
		},
		{
			"bufferView":11,
			"componentType":5126,
			"count":8064,
			"type":"VEC3"
		},
		{
			"bufferView":12,
			"componentType":5126,
			"count":8064,
			"type":"VEC2"
		},
		{
			"bufferView":13,
			"componentType":5126,
			"count":8064,
			"type":"VEC2"
		},
		{
			"bufferView":14,
			"componentType":5123,
			"count":12096,
			"type":"SCALAR"
		},
		{
			"bufferView":15,
			"componentType":5126,
			"count":768,
			"max":[
				1.6950571537017822,
				-1.9513366222381592,
				1.5824429988861084
			],
			"min":[
				-1.6950571537017822,
				-2.8301477432250977,
				-1.5824429988861084
			],
			"type":"VEC3"
		},
		{
			"bufferView":16,
			"componentType":5126,
			"count":768,
			"type":"VEC3"
		},
		{
			"bufferView":17,
			"componentType":5126,
			"count":768,
			"type":"VEC2"
		},
		{
			"bufferView":18,
			"componentType":5126,
			"count":768,
			"type":"VEC2"
		},
		{
			"bufferView":19,
			"componentType":5123,
			"count":1488,
			"type":"SCALAR"
		}
	],
	"bufferViews":[
		{
			"buffer":0,
			"byteLength":34932,
			"byteOffset":0,
			"target":34962
		},
		{
			"buffer":0,
			"byteLength":34932,
			"byteOffset":34932,
			"target":34962
		},
		{
			"buffer":0,
			"byteLength":23288,
			"byteOffset":69864,
			"target":34962
		},
		{
			"buffer":0,
			"byteLength":23288,
			"byteOffset":93152,
			"target":34962
		},
		{
			"buffer":0,
			"byteLength":25344,
			"byteOffset":116440,
			"target":34963
		},
		{
			"buffer":0,
			"byteLength":62868,
			"byteOffset":141784,
			"target":34962
		},
		{
			"buffer":0,
			"byteLength":62868,
			"byteOffset":204652,
			"target":34962
		},
		{
			"buffer":0,
			"byteLength":41912,
			"byteOffset":267520,
			"target":34962
		},
		{
			"buffer":0,
			"byteLength":41912,
			"byteOffset":309432,
			"target":34962
		},
		{
			"buffer":0,
			"byteLength":54912,
			"byteOffset":351344,
			"target":34963
		},
		{
			"buffer":0,
			"byteLength":96768,
			"byteOffset":406256,
			"target":34962
		},
		{
			"buffer":0,
			"byteLength":96768,
			"byteOffset":503024,
			"target":34962
		},
		{
			"buffer":0,
			"byteLength":64512,
			"byteOffset":599792,
			"target":34962
		},
		{
			"buffer":0,
			"byteLength":64512,
			"byteOffset":664304,
			"target":34962
		},
		{
			"buffer":0,
			"byteLength":24192,
			"byteOffset":728816,
			"target":34963
		},
		{
			"buffer":0,
			"byteLength":9216,
			"byteOffset":753008,
			"target":34962
		},
		{
			"buffer":0,
			"byteLength":9216,
			"byteOffset":762224,
			"target":34962
		},
		{
			"buffer":0,
			"byteLength":6144,
			"byteOffset":771440,
			"target":34962
		},
		{
			"buffer":0,
			"byteLength":6144,
			"byteOffset":777584,
			"target":34962
		},
		{
			"buffer":0,
			"byteLength":2976,
			"byteOffset":783728,
			"target":34963
		}
	],
	"samplers":[
		{
			"magFilter":9729,
			"minFilter":9987
		}
	],
	"buffers":[
		{
			"byteLength":786704,
			"uri":"scene.bin"
		}
	]
}
