{
	"asset":{
		"generator":"Khronos glTF Blender I/O v4.3.47",
		"version":"2.0"
	},
	"scene":0,
	"scenes":[
		{
			"name":"Scene",
			"nodes":[
				0
			]
		}
	],
	"nodes":[
		{
			"mesh":0,
			"name":"Cylinder"
		}
	],
	"materials":[
		{
			"doubleSided":true,
			"name":"Material.004",
			"pbrMetallicRoughness":{
				"baseColorTexture":{
					"index":0,
					"texCoord":1
				},
				"metallicFactor":0,
				"roughnessFactor":0.7857142686843872
			}
		},
		{
			"doubleSided":true,
			"name":"Material.003",
			"pbrMetallicRoughness":{
				"baseColorTexture":{
					"index":1,
					"texCoord":1
				},
				"metallicFactor":0,
				"roughnessFactor":0.58563232421875
			}
		},
		{
			"doubleSided":true,
			"name":"Material.001",
			"pbrMetallicRoughness":{
				"baseColorTexture":{
					"index":2,
					"texCoord":1
				},
				"metallicFactor":0,
				"roughnessFactor":0.58563232421875
			}
		},
		{
			"doubleSided":true,
			"name":"Material.002",
			"pbrMetallicRoughness":{
				"baseColorTexture":{
					"index":3,
					"texCoord":1
				},
				"metallicFactor":0,
				"roughnessFactor":0.58563232421875
			}
		}
	],
	"meshes":[
		{
			"name":"Cylinder",
			"primitives":[
				{
					"attributes":{
						"POSITION":0,
						"NORMAL":1,
						"TEXCOORD_0":2,
						"TEXCOORD_1":3
					},
					"indices":4,
					"material":0
				},
				{
					"attributes":{
						"POSITION":5,
						"NORMAL":6,
						"TEXCOORD_0":7,
						"TEXCOORD_1":8
					},
					"indices":9,
					"material":1
				},
				{
					"attributes":{
						"POSITION":10,
						"NORMAL":11,
						"TEXCOORD_0":12,
						"TEXCOORD_1":13
					},
					"indices":14,
					"material":2
				},
				{
					"attributes":{
						"POSITION":15,
						"NORMAL":16,
						"TEXCOORD_0":17,
						"TEXCOORD_1":18
					},
					"indices":19,
					"material":3
				}
			]
		}
	],
	"textures":[
		{
			"sampler":0,
			"source":0
		},
		{
			"sampler":0,
			"source":1
		},
		{
			"sampler":0,
			"source":1
		},
		{
			"sampler":0,
			"source":2
		}
	],
	"images":[
		{
			"mimeType":"image/jpeg",
			"name":"Plywood_vdcjecc_1K_BaseColor",
			"uri":"Plywood_vdcjecc_1K_BaseColor.jpg"
		},
		{
			"mimeType":"image/png",
			"name":"Furniture_Fabric_sjfvbjpc_1K_BaseColor",
			"uri":"Furniture_Fabric_sjfvbjpc_1K_BaseColor.png"
		},
		{
			"mimeType":"image/jpeg",
			"name":"Plywood_vdcjecc_1K_Bump.jpg",
			"uri":"Plywood_vdcjecc_1K_Bump_jpg.jpg"
		}
	],
	"accessors":[
		{
			"bufferView":0,
			"componentType":5126,
			"count":544,
			"max":[
				1.6950571537017822,
				0.21289753913879395,
				1.5824429988861084
			],
			"min":[
				-1.6950571537017822,
				-0.6659135818481445,
				-1.5824429988861084
			],
			"type":"VEC3"
		},
		{
			"bufferView":1,
			"componentType":5126,
			"count":544,
			"type":"VEC3"
		},
		{
			"bufferView":2,
			"componentType":5126,
			"count":544,
			"type":"VEC2"
		},
		{
			"bufferView":3,
			"componentType":5126,
			"count":544,
			"type":"VEC2"
		},
		{
			"bufferView":4,
			"componentType":5123,
			"count":1488,
			"type":"SCALAR"
		},
		{
			"bufferView":5,
			"componentType":5126,
			"count":2316,
			"max":[
				2.2154645919799805,
				3.933516502380371,
				1.9604049921035767
			],
			"min":[
				-2.2153801918029785,
				-0.1649075299501419,
				-2.4562788009643555
			],
			"type":"VEC3"
		},
		{
			"bufferView":6,
			"componentType":5126,
			"count":2316,
			"type":"VEC3"
		},
		{
			"bufferView":7,
			"componentType":5126,
			"count":2316,
			"type":"VEC2"
		},
		{
			"bufferView":8,
			"componentType":5126,
			"count":2316,
			"type":"VEC2"
		},
		{
			"bufferView":9,
			"componentType":5123,
			"count":9522,
			"type":"SCALAR"
		},
		{
			"bufferView":10,
			"componentType":5126,
			"count":4047,
			"max":[
				1.7802492380142212,
				1.5785518884658813,
				2.1930549144744873
			],
			"min":[
				-1.7130640745162964,
				0.15459728240966797,
				-1.2547943592071533
			],
			"type":"VEC3"
		},
		{
			"bufferView":11,
			"componentType":5126,
			"count":4047,
			"type":"VEC3"
		},
		{
			"bufferView":12,
			"componentType":5126,
			"count":4047,
			"type":"VEC2"
		},
		{
			"bufferView":13,
			"componentType":5126,
			"count":4047,
			"type":"VEC2"
		},
		{
			"bufferView":14,
			"componentType":5123,
			"count":21600,
			"type":"SCALAR"
		},
		{
			"bufferView":15,
			"componentType":5126,
			"count":1284,
			"max":[
				1.7116543054580688,
				3.07058048248291,
				-0.289591908454895
			],
			"min":[
				-0.016608119010925293,
				1.4134554862976074,
				-1.136993169784546
			],
			"type":"VEC3"
		},
		{
			"bufferView":16,
			"componentType":5126,
			"count":1284,
			"type":"VEC3"
		},
		{
			"bufferView":17,
			"componentType":5126,
			"count":1284,
			"type":"VEC2"
		},
		{
			"bufferView":18,
			"componentType":5126,
			"count":1284,
			"type":"VEC2"
		},
		{
			"bufferView":19,
			"componentType":5123,
			"count":6048,
			"type":"SCALAR"
		}
	],
	"bufferViews":[
		{
			"buffer":0,
			"byteLength":6528,
			"byteOffset":0,
			"target":34962
		},
		{
			"buffer":0,
			"byteLength":6528,
			"byteOffset":6528,
			"target":34962
		},
		{
			"buffer":0,
			"byteLength":4352,
			"byteOffset":13056,
			"target":34962
		},
		{
			"buffer":0,
			"byteLength":4352,
			"byteOffset":17408,
			"target":34962
		},
		{
			"buffer":0,
			"byteLength":2976,
			"byteOffset":21760,
			"target":34963
		},
		{
			"buffer":0,
			"byteLength":27792,
			"byteOffset":24736,
			"target":34962
		},
		{
			"buffer":0,
			"byteLength":27792,
			"byteOffset":52528,
			"target":34962
		},
		{
			"buffer":0,
			"byteLength":18528,
			"byteOffset":80320,
			"target":34962
		},
		{
			"buffer":0,
			"byteLength":18528,
			"byteOffset":98848,
			"target":34962
		},
		{
			"buffer":0,
			"byteLength":19044,
			"byteOffset":117376,
			"target":34963
		},
		{
			"buffer":0,
			"byteLength":48564,
			"byteOffset":136420,
			"target":34962
		},
		{
			"buffer":0,
			"byteLength":48564,
			"byteOffset":184984,
			"target":34962
		},
		{
			"buffer":0,
			"byteLength":32376,
			"byteOffset":233548,
			"target":34962
		},
		{
			"buffer":0,
			"byteLength":32376,
			"byteOffset":265924,
			"target":34962
		},
		{
			"buffer":0,
			"byteLength":43200,
			"byteOffset":298300,
			"target":34963
		},
		{
			"buffer":0,
			"byteLength":15408,
			"byteOffset":341500,
			"target":34962
		},
		{
			"buffer":0,
			"byteLength":15408,
			"byteOffset":356908,
			"target":34962
		},
		{
			"buffer":0,
			"byteLength":10272,
			"byteOffset":372316,
			"target":34962
		},
		{
			"buffer":0,
			"byteLength":10272,
			"byteOffset":382588,
			"target":34962
		},
		{
			"buffer":0,
			"byteLength":12096,
			"byteOffset":392860,
			"target":34963
		}
	],
	"samplers":[
		{
			"magFilter":9729,
			"minFilter":9987
		}
	],
	"buffers":[
		{
			"byteLength":404956,
			"uri":"scene.bin"
		}
	]
}
