{
	"asset":{
		"generator":"Khronos glTF Blender I/O v4.3.47",
		"version":"2.0"
	},
	"extensionsUsed":[
		"KHR_materials_specular",
		"KHR_materials_ior",
		"KHR_texture_transform"
	],
	"extensionsRequired":[
		"KHR_texture_transform"
	],
	"scene":0,
	"scenes":[
		{
			"name":"Scene",
			"nodes":[
				0
			]
		}
	],
	"nodes":[
		{
			"mesh":0,
			"name":"Cylinder"
		}
	],
	"materials":[
		{
			"doubleSided":true,
			"name":"Cast Iron Blanched With Rust",
			"normalTexture":{
				"index":0,
				"texCoord":1
			},
			"pbrMetallicRoughness":{
				"baseColorTexture":{
					"index":1,
					"texCoord":1
				},
				"metallicRoughnessTexture":{
					"index":2,
					"texCoord":1
				}
			}
		},
		{
			"doubleSided":true,
			"extensions":{
				"KHR_materials_specular":{
					"specularFactor":0.4000000059604645
				},
				"KHR_materials_ior":{
					"ior":1.4500000476837158
				}
			},
			"name":"Soft Fabric - Grey 71",
			"normalTexture":{
				"extensions":{
					"KHR_texture_transform":{
						"offset":[
							-9.99999999999999,
							1.0000004371139
						],
						"rotation":1.5707963705062866,
						"scale":[
							10,
							10
						]
					}
				},
				"index":3,
				"texCoord":1
			},
			"pbrMetallicRoughness":{
				"baseColorTexture":{
					"index":4,
					"texCoord":1
				},
				"metallicFactor":0.20000000298023224,
				"metallicRoughnessTexture":{
					"index":5,
					"texCoord":1
				}
			}
		}
	],
	"meshes":[
		{
			"name":"Cylinder",
			"primitives":[
				{
					"attributes":{
						"POSITION":0,
						"NORMAL":1,
						"TEXCOORD_0":2,
						"TEXCOORD_1":3
					},
					"indices":4,
					"material":0
				},
				{
					"attributes":{
						"POSITION":5,
						"NORMAL":6,
						"TEXCOORD_0":7,
						"TEXCOORD_1":8
					},
					"indices":9,
					"material":1
				}
			]
		}
	],
	"textures":[
		{
			"sampler":0,
			"source":0
		},
		{
			"sampler":0,
			"source":1
		},
		{
			"sampler":0,
			"source":2
		},
		{
			"sampler":0,
			"source":3
		},
		{
			"sampler":0,
			"source":4
		},
		{
			"sampler":0,
			"source":5
		}
	],
	"images":[
		{
			"mimeType":"image/jpeg",
			"name":"GWC Cast Iron Blanched with rust_Normal",
			"uri":"GWC%20Cast%20Iron%20Blanched%20with%20rust_Normal.jpg"
		},
		{
			"mimeType":"image/jpeg",
			"name":"GWC Cast Iron Blanched with rust_BaseColor",
			"uri":"GWC%20Cast%20Iron%20Blanched%20with%20rust_BaseColor.jpg"
		},
		{
			"mimeType":"image/png",
			"name":"GWC Cast Iron Blanched with rust_Metallic-GWC Cast Iron Blanched with rust_Roughness",
			"uri":"GWC%20Cast%20Iron%20Blanched%20with%20rust_Metallic-GWC%20Cast%20Iron%20Blanched%20with%20rust_Roughness.png"
		},
		{
			"mimeType":"image/jpeg",
			"name":"bump_reticular_05k",
			"uri":"bump_reticular_05k.jpg"
		},
		{
			"mimeType":"image/jpeg",
			"name":"fabric-71-grey_diffuse",
			"uri":"fabric-71-grey_diffuse.jpg"
		},
		{
			"mimeType":"image/png",
			"name":"fabric-71_roughness",
			"uri":"fabric-71_roughness.png"
		}
	],
	"accessors":[
		{
			"bufferView":0,
			"componentType":5126,
			"count":768,
			"max":[
				2.6562302112579346,
				-0.24934625625610352,
				0.9024055004119873
			],
			"min":[
				-2.6562302112579346,
				-1.0823993682861328,
				-0.9024055004119873
			],
			"type":"VEC3"
		},
		{
			"bufferView":1,
			"componentType":5126,
			"count":768,
			"type":"VEC3"
		},
		{
			"bufferView":2,
			"componentType":5126,
			"count":768,
			"type":"VEC2"
		},
		{
			"bufferView":3,
			"componentType":5126,
			"count":768,
			"type":"VEC2"
		},
		{
			"bufferView":4,
			"componentType":5123,
			"count":1488,
			"type":"SCALAR"
		},
		{
			"bufferView":5,
			"componentType":5126,
			"count":46656,
			"max":[
				3.214503526687622,
				1.5379506349563599,
				1.2427997589111328
			],
			"min":[
				-3.064018726348877,
				-0.4853740930557251,
				-1.7376134395599365
			],
			"type":"VEC3"
		},
		{
			"bufferView":6,
			"componentType":5126,
			"count":46656,
			"type":"VEC3"
		},
		{
			"bufferView":7,
			"componentType":5126,
			"count":46656,
			"type":"VEC2"
		},
		{
			"bufferView":8,
			"componentType":5126,
			"count":46656,
			"type":"VEC2"
		},
		{
			"bufferView":9,
			"componentType":5123,
			"count":89136,
			"type":"SCALAR"
		}
	],
	"bufferViews":[
		{
			"buffer":0,
			"byteLength":9216,
			"byteOffset":0,
			"target":34962
		},
		{
			"buffer":0,
			"byteLength":9216,
			"byteOffset":9216,
			"target":34962
		},
		{
			"buffer":0,
			"byteLength":6144,
			"byteOffset":18432,
			"target":34962
		},
		{
			"buffer":0,
			"byteLength":6144,
			"byteOffset":24576,
			"target":34962
		},
		{
			"buffer":0,
			"byteLength":2976,
			"byteOffset":30720,
			"target":34963
		},
		{
			"buffer":0,
			"byteLength":559872,
			"byteOffset":33696,
			"target":34962
		},
		{
			"buffer":0,
			"byteLength":559872,
			"byteOffset":593568,
			"target":34962
		},
		{
			"buffer":0,
			"byteLength":373248,
			"byteOffset":1153440,
			"target":34962
		},
		{
			"buffer":0,
			"byteLength":373248,
			"byteOffset":1526688,
			"target":34962
		},
		{
			"buffer":0,
			"byteLength":178272,
			"byteOffset":1899936,
			"target":34963
		}
	],
	"samplers":[
		{
			"magFilter":9729,
			"minFilter":9987
		}
	],
	"buffers":[
		{
			"byteLength":2078208,
			"uri":"scene.bin"
		}
	]
}
