{
	"asset":{
		"generator":"Khronos glTF Blender I/O v4.3.47",
		"version":"2.0"
	},
	"scene":0,
	"scenes":[
		{
			"name":"Scene",
			"nodes":[
				0
			]
		}
	],
	"nodes":[
		{
			"mesh":0,
			"name":"Cube.013"
		}
	],
	"materials":[
		{
			"doubleSided":true,
			"name":"Material.005",
			"pbrMetallicRoughness":{
				"baseColorTexture":{
					"index":0,
					"texCoord":1
				},
				"metallicFactor":0,
				"roughnessFactor":0.5
			}
		},
		{
			"doubleSided":true,
			"name":"Material.006",
			"pbrMetallicRoughness":{
				"baseColorTexture":{
					"index":1,
					"texCoord":1
				},
				"metallicFactor":0,
				"roughnessFactor":0.8435511589050293
			}
		},
		{
			"doubleSided":true,
			"name":"Material.001",
			"pbrMetallicRoughness":{
				"baseColorTexture":{
					"index":2,
					"texCoord":1
				},
				"metallicFactor":0,
				"roughnessFactor":0.8435511589050293
			}
		},
		{
			"doubleSided":true,
			"name":"Material.004",
			"pbrMetallicRoughness":{
				"baseColorTexture":{
					"index":3,
					"texCoord":1
				},
				"metallicFactor":0,
				"roughnessFactor":0.5
			}
		},
		{
			"doubleSided":true,
			"name":"Material.002"
		}
	],
	"meshes":[
		{
			"name":"Cube.014",
			"primitives":[
				{
					"attributes":{
						"POSITION":0,
						"NORMAL":1,
						"TEXCOORD_0":2,
						"TEXCOORD_1":3
					},
					"indices":4,
					"material":0
				},
				{
					"attributes":{
						"POSITION":5,
						"NORMAL":6,
						"TEXCOORD_0":7,
						"TEXCOORD_1":8
					},
					"indices":9,
					"material":1
				},
				{
					"attributes":{
						"POSITION":10,
						"NORMAL":11,
						"TEXCOORD_0":12,
						"TEXCOORD_1":13
					},
					"indices":14,
					"material":2
				},
				{
					"attributes":{
						"POSITION":15,
						"NORMAL":16,
						"TEXCOORD_0":17,
						"TEXCOORD_1":18
					},
					"indices":19,
					"material":3
				},
				{
					"attributes":{
						"POSITION":20,
						"NORMAL":21,
						"TEXCOORD_0":22,
						"TEXCOORD_1":23
					},
					"indices":24,
					"material":4
				}
			]
		}
	],
	"textures":[
		{
			"sampler":0,
			"source":0
		},
		{
			"sampler":0,
			"source":1
		},
		{
			"sampler":0,
			"source":2
		},
		{
			"sampler":0,
			"source":3
		}
	],
	"images":[
		{
			"mimeType":"image/jpeg",
			"name":"Plywood_vf1oairg_1K_Roughness",
			"uri":"Plywood_vf1oairg_1K_Roughness.jpg"
		},
		{
			"mimeType":"image/jpeg",
			"name":"Furniture_Fabric_sjfvddvc_1K_Roughness",
			"uri":"Furniture_Fabric_sjfvddvc_1K_Roughness.jpg"
		},
		{
			"mimeType":"image/jpeg",
			"name":"Furniture_Fabric_sjfvddvc_1K_BaseColor",
			"uri":"Furniture_Fabric_sjfvddvc_1K_BaseColor.jpg"
		},
		{
			"mimeType":"image/jpeg",
			"name":"Plywood_vf1oairg_1K_BaseColor",
			"uri":"Plywood_vf1oairg_1K_BaseColor.jpg"
		}
	],
	"accessors":[
		{
			"bufferView":0,
			"componentType":5126,
			"count":2469,
			"max":[
				12.740924835205078,
				3.7528610229492188,
				-0.36506038904190063
			],
			"min":[
				3.149627685546875,
				2.0258662700653076,
				-1.9520844221115112
			],
			"type":"VEC3"
		},
		{
			"bufferView":1,
			"componentType":5126,
			"count":2469,
			"type":"VEC3"
		},
		{
			"bufferView":2,
			"componentType":5126,
			"count":2469,
			"type":"VEC2"
		},
		{
			"bufferView":3,
			"componentType":5126,
			"count":2469,
			"type":"VEC2"
		},
		{
			"bufferView":4,
			"componentType":5123,
			"count":11232,
			"type":"SCALAR"
		},
		{
			"bufferView":5,
			"componentType":5126,
			"count":2316,
			"max":[
				13.691459655761719,
				3.8652138710021973,
				2.0346179008483887
			],
			"min":[
				2.2036938667297363,
				1.8366355895996094,
				-1.756955862045288
			],
			"type":"VEC3"
		},
		{
			"bufferView":6,
			"componentType":5126,
			"count":2316,
			"type":"VEC3"
		},
		{
			"bufferView":7,
			"componentType":5126,
			"count":2316,
			"type":"VEC2"
		},
		{
			"bufferView":8,
			"componentType":5126,
			"count":2316,
			"type":"VEC2"
		},
		{
			"bufferView":9,
			"componentType":5123,
			"count":10806,
			"type":"SCALAR"
		},
		{
			"bufferView":10,
			"componentType":5126,
			"count":6787,
			"max":[
				13.940685272216797,
				4.290566444396973,
				2.224865436553955
			],
			"min":[
				1.866464614868164,
				1.0305777788162231,
				-3.1903586387634277
			],
			"type":"VEC3"
		},
		{
			"bufferView":11,
			"componentType":5126,
			"count":6787,
			"type":"VEC3"
		},
		{
			"bufferView":12,
			"componentType":5126,
			"count":6787,
			"type":"VEC2"
		},
		{
			"bufferView":13,
			"componentType":5126,
			"count":6787,
			"type":"VEC2"
		},
		{
			"bufferView":14,
			"componentType":5123,
			"count":32250,
			"type":"SCALAR"
		},
		{
			"bufferView":15,
			"componentType":5126,
			"count":24,
			"max":[
				13.965816497802734,
				1.0299043655395508,
				2.0803894996643066
			],
			"min":[
				1.8459129333496094,
				0.7355910539627075,
				-3.1903581619262695
			],
			"type":"VEC3"
		},
		{
			"bufferView":16,
			"componentType":5126,
			"count":24,
			"type":"VEC3"
		},
		{
			"bufferView":17,
			"componentType":5126,
			"count":24,
			"type":"VEC2"
		},
		{
			"bufferView":18,
			"componentType":5126,
			"count":24,
			"type":"VEC2"
		},
		{
			"bufferView":19,
			"componentType":5123,
			"count":36,
			"type":"SCALAR"
		},
		{
			"bufferView":20,
			"componentType":5126,
			"count":552,
			"max":[
				13.74106216430664,
				0.7937895059585571,
				1.844058632850647
			],
			"min":[
				2.070669174194336,
				0.41712725162506104,
				-2.715456485748291
			],
			"type":"VEC3"
		},
		{
			"bufferView":21,
			"componentType":5126,
			"count":552,
			"type":"VEC3"
		},
		{
			"bufferView":22,
			"componentType":5126,
			"count":552,
			"type":"VEC2"
		},
		{
			"bufferView":23,
			"componentType":5126,
			"count":552,
			"type":"VEC2"
		},
		{
			"bufferView":24,
			"componentType":5123,
			"count":1488,
			"type":"SCALAR"
		}
	],
	"bufferViews":[
		{
			"buffer":0,
			"byteLength":29628,
			"byteOffset":0,
			"target":34962
		},
		{
			"buffer":0,
			"byteLength":29628,
			"byteOffset":29628,
			"target":34962
		},
		{
			"buffer":0,
			"byteLength":19752,
			"byteOffset":59256,
			"target":34962
		},
		{
			"buffer":0,
			"byteLength":19752,
			"byteOffset":79008,
			"target":34962
		},
		{
			"buffer":0,
			"byteLength":22464,
			"byteOffset":98760,
			"target":34963
		},
		{
			"buffer":0,
			"byteLength":27792,
			"byteOffset":121224,
			"target":34962
		},
		{
			"buffer":0,
			"byteLength":27792,
			"byteOffset":149016,
			"target":34962
		},
		{
			"buffer":0,
			"byteLength":18528,
			"byteOffset":176808,
			"target":34962
		},
		{
			"buffer":0,
			"byteLength":18528,
			"byteOffset":195336,
			"target":34962
		},
		{
			"buffer":0,
			"byteLength":21612,
			"byteOffset":213864,
			"target":34963
		},
		{
			"buffer":0,
			"byteLength":81444,
			"byteOffset":235476,
			"target":34962
		},
		{
			"buffer":0,
			"byteLength":81444,
			"byteOffset":316920,
			"target":34962
		},
		{
			"buffer":0,
			"byteLength":54296,
			"byteOffset":398364,
			"target":34962
		},
		{
			"buffer":0,
			"byteLength":54296,
			"byteOffset":452660,
			"target":34962
		},
		{
			"buffer":0,
			"byteLength":64500,
			"byteOffset":506956,
			"target":34963
		},
		{
			"buffer":0,
			"byteLength":288,
			"byteOffset":571456,
			"target":34962
		},
		{
			"buffer":0,
			"byteLength":288,
			"byteOffset":571744,
			"target":34962
		},
		{
			"buffer":0,
			"byteLength":192,
			"byteOffset":572032,
			"target":34962
		},
		{
			"buffer":0,
			"byteLength":192,
			"byteOffset":572224,
			"target":34962
		},
		{
			"buffer":0,
			"byteLength":72,
			"byteOffset":572416,
			"target":34963
		},
		{
			"buffer":0,
			"byteLength":6624,
			"byteOffset":572488,
			"target":34962
		},
		{
			"buffer":0,
			"byteLength":6624,
			"byteOffset":579112,
			"target":34962
		},
		{
			"buffer":0,
			"byteLength":4416,
			"byteOffset":585736,
			"target":34962
		},
		{
			"buffer":0,
			"byteLength":4416,
			"byteOffset":590152,
			"target":34962
		},
		{
			"buffer":0,
			"byteLength":2976,
			"byteOffset":594568,
			"target":34963
		}
	],
	"samplers":[
		{
			"magFilter":9729,
			"minFilter":9987
		}
	],
	"buffers":[
		{
			"byteLength":597544,
			"uri":"scene.bin"
		}
	]
}
